<svg width="252" height="50" fill="none" xmlns="http://www.w3.org/2000/svg"><path d="M75.594 15.798l-.054-.364-.055.364c-.847 5.21-4.808 9.3-9.917 10.168l-.355.056.355.056c5.082.869 9.07 4.93 9.917 10.168l.055.365.054-.364c.847-5.21 4.809-9.3 9.918-10.169l.355-.056-.355-.056c-5.082-.868-9.07-4.958-9.918-10.168z" fill="#FFD60B"/><path d="M75.54 2.045c-12.895 0-23.386 10.756-23.386 23.977C52.154 39.244 62.645 50 75.54 50s23.386-10.756 23.386-23.978c0-13.22-10.463-23.977-23.386-23.977zm20.135 22.269L88.6 23.36c-.574-6.694-3.278-12.829-7.54-17.283 7.95 2.325 13.933 9.524 14.616 18.236zM85.348 22.94l-3.88-.532c-1.229-.224-2.185-1.204-2.404-2.465L77.425 7.087c4.371 3.837 7.213 9.524 7.923 15.854zM73.683 7.115l-1.64 12.857c-.218 1.26-1.175 2.24-2.404 2.465l-3.88.504c.711-6.33 3.58-12.017 7.924-15.826zm-3.634-1.037c-4.262 4.454-6.967 10.589-7.54 17.283l-7.104.953c.71-8.712 6.694-15.91 14.644-18.236zM55.433 27.703l7.103.952c.574 6.695 3.278 12.83 7.54 17.283-7.977-2.297-13.96-9.523-14.643-18.235zm10.327 1.4l3.88.505c1.228.224 2.185 1.204 2.403 2.465l1.64 12.857c-4.344-3.81-7.213-9.524-7.923-15.826zm10.135 2.522l-.355 2.717-.355-2.717v-.056c-.437-2.662-2.459-4.734-5.054-5.182h-.055l-2.65-.365 2.65-.364h.055c2.595-.448 4.617-2.52 5.054-5.182v-.056l.355-2.717.355 2.717v.056c.438 2.661 2.46 4.734 5.055 5.182h.054l2.65.364-2.65.365h-.054c-2.596.448-4.618 2.52-5.055 5.182v.056zm1.53 13.305l1.64-12.857c.218-1.26 1.174-2.241 2.404-2.465l3.88-.532c-.711 6.33-3.553 12.044-7.924 15.854zm3.634 1.008c4.262-4.453 6.966-10.588 7.54-17.283l7.076-.952c-.683 8.712-6.666 15.91-14.616 18.235zM6.557 42.017L0 10.504h13.004L15 24.146c.218 1.456.492 3.81.683 6.442h.437c.191-2.633.437-4.958.683-6.554l1.885-13.558h12.267l2.185 13.502c.273 1.764.547 4.09.71 6.61h.492a83.82 83.82 0 01.601-6.442l1.721-13.642h12.622l-6.53 31.513h-15.9l-1.12-9.188a188.492 188.492 0 01-.928-9.776h-.465c-.164 3.558-.464 6.639-.847 9.776l-1.038 9.188h-15.9zm98.187 0V10.504h13.988c.082 2.157-.219 3.782-1.284 6.863l.437.364c2.923-5.238 6.639-7.843 12.376-7.843 6.448 0 10.026 3.445 10.026 10.56v21.569h-14.233v-16.19c0-2.886-.956-4.23-2.978-4.23-2.65 0-4.125 2.885-4.125 8.095v12.325h-14.207zm40.354-15.715v-.111c0-11.205 3.879-16.583 11.939-16.583 4.944 0 8.414 2.52 10.709 7.759l.437-.308c-.956-3.474-1.284-5.939-1.284-9.3V0h14.234v42.017h-14.207c0-1.317.383-3.614 1.284-6.891l-.437-.28c-2.267 5.238-5.737 7.759-10.709 7.759-8.06 0-11.966-5.322-11.966-16.302zm21.828.225v-.84c0-4.23-1.284-6.275-3.879-6.275-2.486 0-3.688 2.045-3.688 6.274v.84c0 4.202 1.202 6.22 3.688 6.22 2.595 0 3.879-2.018 3.879-6.22zm55.513 2.997h-21.61c.273 2.997 1.475 4.454 3.716 4.454 1.967 0 3.059-1.009 3.36-3.11l14.507.869c-.792 7.563-6.584 11.204-17.84 11.204-12.458 0-18.468-5.154-18.468-15.938V25.63c0-10.784 6.01-15.994 18.468-15.994 12.239 0 18.14 5.126 18.14 15.714a39.483 39.483 0 01-.273 4.174zm-14.316-7.087v-.112c0-2.577-1.147-3.81-3.578-3.81-2.049 0-3.252 1.289-3.634 3.922h7.212zm19.207 19.58V10.504h13.988c.082 2.045-.301 3.978-1.284 6.807l.437.392c3.989-6.022 6.092-7.731 10.709-8.431l.82 14.005-4.918.364c-4.453.337-5.518 2.353-5.518 9.72v8.656H227.33z" fill="#000"/></svg>