<svg width="50" height="67" fill="none" xmlns="http://www.w3.org/2000/svg"><g clip-path="url(#clip0_304_225)"><path d="M48.295 35.79c.284-1.717 0-3.149-.568-4.58-.852-1.432-1.989-2.291-3.409-2.864h-.284v-.286c-.568-1.432-1.42-2.577-2.841-3.436-.852-.573-1.989-.859-3.125-.859-.568 0-.852 0-1.42.286h-.285c-1.136-1.145-2.556-1.718-4.26-1.718-1.421 0-2.842.573-3.978 1.718H26.42c-.853 0-1.99.287-2.842.86-1.42.858-2.556 2.29-2.84 3.721-.285 1.718-.285 3.15.568 4.868 1.988 3.15 5.681 5.44 8.522 6.586l.569.286-.569.286c-2.84 1.718-7.954 5.44-10.795 12.312l-.568 1.432V20.329h.284c1.136.286 2.557.286 4.545.286 3.41 0 6.25-.572 8.523-1.718 3.125-2.004 4.261-6.012 2.557-9.162-.852-1.432-2.273-2.577-3.693-3.15h-.284V6.3c-.569-1.718-1.705-2.863-3.125-3.722-1.137-.573-2.273-.859-3.41-.859-.568 0-.852 0-1.42.286h-.284C21.023.573 19.318 0 17.613 0c-1.704 0-3.409.573-4.545 1.718h-1.704c-1.137 0-2.273.286-3.41.859-1.42.859-2.556 2.29-3.125 3.722v.286h-.284c-1.704.573-2.84 1.718-3.693 3.15C0 11.167-.284 13.171.284 14.889s1.704 3.15 3.125 4.008c2.273 1.146 5.114 1.718 8.523 1.718 1.988 0 3.409-.286 4.545-.286h.284v20.902l-.568-1.145c-3.41-7.445-9.66-11.453-9.943-11.74h-.568c-.569 0-.569.287-.569.573 0 .572 1.705 17.18 11.648 31.782l.284.286v5.154c0 .286.284.859.852.859.285 0 .853-.286.853-.859v-2.29c0-15.748 11.363-21.761 13.636-22.62h.568c1.42 1.145 6.534 4.867 11.364 5.154 3.41 0 6.25-2.864 6.25-6.3-.568-1.431-1.136-2.863-2.273-4.294zM16.761 58.125l-.568-.859c-6.25-10.308-8.523-21.474-9.375-25.77l-.284-.858.852.572c3.41 3.15 9.375 9.45 9.375 18.325v8.59zM29.545 8.017c1.705.286 2.841 1.145 3.693 2.577 1.42 2.577.569 5.726-1.988 7.158-1.989 1.145-4.546 1.432-7.955 1.432-1.704 0-3.409-.287-4.261-.287h-.568l.284-.286c.852-1.718 2.273-5.154 4.83-7.73.852-1.146 1.42-1.719 2.272-2.291.852-.573 1.705-.86 2.557-.86.284 0 .568 0 1.136.287zM23.863 3.15c.853 0 1.705.286 2.557.572.852.573 1.705 1.432 1.989 2.004l.284.573h-.568c-1.137 0-1.989.286-3.125.86h-.284l-.569.858V6.872c0-1.146-.284-2.004-.852-3.15V3.15h.568zM6.818 5.726a6.664 6.664 0 011.989-2.004c.568-.286 1.704-.572 2.556-.572h.569l-.284.572c-.569.86-.853 2.004-.853 3.15v1.146l-.284-.574h-.568C9.091 6.585 8.238 6.3 7.103 6.3h-.57l.285-.573zm9.375 13.171c-1.136 0-2.557.287-4.261.287-3.125 0-5.682-.573-7.67-1.432-1.421-.859-2.274-2.004-2.558-3.15-.284-1.431-.284-2.863.569-4.008.568-1.432 1.988-2.29 3.409-2.577h.852c1.136-.286 1.989 0 2.84.573.853.572 1.705 1.145 2.274 2.004 1.988 2.004 3.409 4.581 4.26 6.586 0 .286.285.286.285.572 0 .287.284.287.284.573l.284.572h-.568zm1.704-2.29l-.284.573-.284-.573c-.284-.287-.284-.287-.284-.86 0-.286-.284-.572-.284-.858 0-.286-.284-.573-.568-.86-.284 0-.568-.285-.568-.858-.284-.286-.568-.859-1.137-1.432l-.284-.286v-.286l-.568-.573-.284-.573-.284-.286C12.5 8.59 12.5 7.731 12.5 6.872c0-2.863 2.273-5.154 5.113-5.154 2.841 0 5.114 2.29 5.114 5.154 0 .859 0 1.718-.284 2.863-2.273 2.29-3.693 5.154-4.546 6.872zM43.466 33.5c.568-.859.852-1.718.852-2.577v-.573l.568.287c.568.286 1.136.859 1.705 1.718.284.572.568 1.431.568 2.29v.573l-.568-.286c-.853-.287-1.705-.573-2.557-.573h-.568V33.5zm-11.648 5.44v.573l-.284-.286c-2.273-.86-6.818-3.15-8.807-6.3-.568-1.145-.852-2.29-.568-3.436.284-1.145 1.136-2.29 2.273-2.863.568-.859 1.42-.859 2.272-.859h1.42c1.137.287 1.99 1.146 2.558 2.005.284.858.852 1.717.852 2.576.852 3.436.568 6.586.284 8.59zm.852-11.453l-.284.573-.284-.573v-.286a6.663 6.663 0 00-1.989-2.004l-.568-.287.568-.286c.569-.286 1.42-.573 2.273-.573.852 0 1.42.287 2.273.573l.568.286-.568.287c-.852.572-1.42 1.145-1.989 2.29zm.852 6.872V33.5c0-.573 0-1.432-.284-2.004v-.859l.853-2.577c.852-1.432 2.272-2.29 3.977-2.29.852 0 1.705.286 2.273.572 2.272 1.145 3.125 4.008 1.704 6.299-.284.573-.852 1.432-1.704 2.004h-.284c-2.557.86-4.83 2.29-6.25 3.436l-.569.286v-3.149c.285.286.285-.573.285-.859zM43.75 44.953c-3.977 0-7.955-2.863-9.943-4.295l-.285-.286.853-.573s.284-.286.568-.286c1.42-1.145 3.693-2.577 6.25-3.15.852-.286 1.989-.572 2.557-.572 1.136 0 2.273.286 3.125 1.145.852.859 1.42 2.004 1.42 3.436.284 2.29-1.988 4.581-4.545 4.581z" fill="#000"/></g><defs><clipPath id="clip0_304_225"><path fill="#fff" d="M0 0h50v67H0z"/></clipPath></defs></svg>