<svg width="53" height="69" fill="none" xmlns="http://www.w3.org/2000/svg"><path d="M52.418 43.67l-.291-1.164c-.583-1.164-1.165-2.329-1.748-3.202-1.456-1.747-3.494-2.912-5.533-3.785-.873-.291-2.038-.291-2.912-.291H40.77c-1.164-.874-2.33-1.456-3.785-1.747-.583 0-1.165-.291-1.748-.291h-.29v-.291c-.292-.874-.874-1.747-1.166-2.62l-1.165-1.165c-.873-1.165-1.747-2.33-2.912-2.912-.29-.29-.582-.582-1.164-.582 7.571-7.57 3.785-21.835 3.785-22.417 0-.292-.29-.292-.29-.583h-.583c-3.204 1.165-6.116 3.494-8.445 6.988l-.583.582v-.874C21.841 3.785 18.638.291 18.638.291h-.874s-3.203 3.494-3.786 9.025v.874l-1.165-.582c-2.33-3.494-4.95-5.823-8.154-6.988h-.582c-.291 0-.582.291-.582.583C3.203 3.785-.291 18.05 7.28 25.62l-1.747.874c-.582.582-1.456 1.455-2.038 2.329l-.874 1.456c-.582.873-1.165 2.037-1.456 3.202L.29 36.975c-.873 7.57 2.912 14.848 9.61 18.341 2.912 1.456 5.242 4.076 6.698 7.57 0 .582.582 1.165 1.456 1.165s1.165-.291 1.456-1.165l.291-.291c.874-2.038 2.33-4.076 4.077-5.532l.291-.29.292.29c.582.874 1.456 1.747 2.038 2.33 2.33 2.037 3.495 4.949 3.786 7.86 0 .582.582 1.165 1.165 1.165h.29c.583 0 .874-.291 1.166-.583l.29-.29c1.748-2.33 4.369-4.077 7.281-4.659 5.824-1.165 10.484-5.532 11.94-11.354.582-2.33.582-5.24 0-7.861zm-17.764 2.04l.291-.582h1.456c.291 0 .583.29.874.582 0 0 .291.291.582.291h.874c.582 0 .873.291 1.165.873.29.292.29.583.29.874v.291c.292.582.292 1.456 0 2.038-.29 1.456-1.746 2.62-3.202 2.911-.583.291-1.456.583-2.039.874l-.291.29-.291-.29c-.291-.582-.583-1.165-1.165-1.747-.583-.582-.874-1.165-1.165-2.038v-.291l.582-.874c.292-.582.583-.873.874-1.164v-.582c.291-.292.291-.583.291-.874.874-.291.874-.582.874-.582zm7.571 1.456v-.292c-.29-.582-.29-.873-.582-1.164-.582-.582-1.165-1.165-2.038-1.456-.292 0-.583-.291-1.165-.291h-.291c-.292-.291-.874-.291-1.165-.582h-1.165v-1.165c0-.582 0-1.164.291-1.456v-.29h.291c.874.29 1.456.582 2.039 1.164 0 0 .29.291.582.291h.874c.582 0 1.165 0 1.456.291 1.165.291 2.038.874 2.912 2.038L45.137 46l.292.582a12.528 12.528 0 010 4.658c-.874 3.203-3.495 5.823-6.698 6.406-1.747.29-3.495 1.164-4.66 2.62l-.29.291v-.582c-.292-1.747-1.457-3.494-2.621-4.659-.583-.29-.874-.873-1.165-1.455l-.874-.582.291-.292 1.748-1.747.29-.29.292.29c.291.583.582 1.165 1.165 1.456.582.583.873 1.456 1.165 2.33 0 .29.29.873.873.873h.291c.292 0 .583-.291.874-.291.582-.583 1.165-1.165 2.038-1.165 2.039-.582 3.786-2.038 4.369-4.076 0-1.164 0-2.038-.292-3.202zM30.577 4.658l.291-.29v.581c.874 4.367 2.039 14.557-4.077 19.798-1.456-.582-2.912-.874-4.368-.874-1.165 0-2.62.292-3.785.583.873-3.785 3.785-15.43 11.939-19.798zM17.764 2.33l.291-.291.291.291c1.165 1.747 3.204 5.823 2.621 10.772-1.165 2.33-2.038 4.658-2.62 6.988l-.292 1.164-.582-1.164c-.583-2.33-1.456-4.659-2.33-6.697-.874-5.24 1.165-9.025 2.62-11.063zM4.659 4.95v-.582l.292.291c8.445 4.367 11.066 16.013 11.648 19.798a10.864 10.864 0 00-3.495-.583c-1.455 0-2.912.292-4.368.874-6.115-5.24-4.95-15.722-4.077-19.798zm13.687 56.772l-.29.874-.292-.873c-1.456-3.494-4.077-6.114-6.99-7.57-3.202-1.456-5.532-4.076-6.988-6.987l-.291-.583h8.154c.582 0 .873-.29.873-.873 0-.582-.291-.874-.873-.874H2.912v-.29c-.873-2.33-1.165-4.95-.582-7.28 0-.873.291-1.455.582-2.328v-.291h21.55c.29 0 .873-.292.873-.874 0-.582-.29-.873-.873-.873H2.912l.291-.583c.292-.582.583-.873.583-1.455l.873-1.165c.583-.582 1.165-1.456 2.039-2.038 1.747-1.456 4.077-2.329 6.406-2.329 1.457 0 2.913.291 4.369.873h.582c1.456-.582 2.912-.873 4.368-.873 2.33 0 4.368.582 6.116 2.038.873.582 1.747 1.456 2.62 2.62l.583 1.165c.582.873.873 2.038 1.456 2.911 0 .291.291.874.291 1.165v.291c0 .291 0 .582.291.873v6.697c0 .29 0 .582-.29.873v.291c-.583 1.747-1.166 3.203-2.33 4.658l-.292.291a16.685 16.685 0 01-3.203 3.203c-.582.582-1.456.873-2.33 1.456-.29.29-.582.29-.873.582-2.912 1.747-4.95 4.367-6.116 7.279zm32.616-10.19c-1.456 5.241-5.533 9.026-10.775 10.19-3.203.583-5.824 2.33-7.863 4.659l-.582.582v-.873c-.582-3.203-2.039-6.114-4.368-8.152L25.335 55.9l-.29-.291.29-.292c.291.292.583 0 .874 0 .582-.29.873-.582 1.456-.873l.291-.291.291.291c.583.582.874 1.165 1.456 1.747 1.457 1.164 2.33 2.911 2.33 4.95 0 .581.291.873.874 1.164h.29c.292 0 .874-.291.874-.583v-.29c1.165-1.456 2.621-2.62 4.66-2.912 3.786-.873 6.989-3.785 8.154-7.57a8.975 8.975 0 000-5.531l-.291-.583c-.292-.873-.583-1.455-1.165-2.329-.874-1.164-2.33-2.038-3.786-2.329-.582-.29-1.165-.29-2.038-.29h-.583c-.582-.583-1.456-.874-2.33-1.166h-.873v-2.62s0-.582-.291-.873v-.582h.873c1.165.29 2.33.873 3.495 1.746 0 0 .29.291.582.291h1.456c.874 0 1.747 0 2.33.292 1.747.582 3.494 1.746 4.66 3.202.582.874 1.164 1.747 1.455 2.912l.291 1.164c.874 2.33.874 4.95.292 7.279z" fill="#000"/><path d="M26.5 43.38h-5.533c-.291 0-.874.29-.874.873s.291.874.874.874H26.5c.291 0 .873-.291.873-.874 0-.582-.582-.873-.873-.873zm-2.621 5.531h-5.824c-.583 0-.874.291-.874.874 0 .29.291.873.874.873h6.115c.291 0 .874-.29.874-.873-.291-.582-.583-.874-1.165-.874zm6.115-9.025c0-.291-.29-.873-.873-.873H11.357c-.582 0-.874.29-.874.873 0 .582.292.873.874.873h18.055c.291 0 .582-.582.582-.873z" fill="#000"/></svg>