<svg width="46" height="66" fill="none" xmlns="http://www.w3.org/2000/svg"><path d="M22.846 34.234c-.31 0-.618-.309-.927-.617 0 0-3.704-9.56-12.349-15.112 0 0-.308-.309 0-.617C11.731 6.785 16.98 0 22.846 0 28.71 0 33.96 6.785 36.428 17.888c0 .308 0 .617-.308.925-8.645 5.243-12.35 14.804-12.35 15.112 0 .309-.308.309-.925.309zM11.423 17.579c6.483 4.318 10.188 10.486 11.423 13.879 1.543-3.084 5.248-9.56 11.731-13.57C32.416 8.018 27.785 1.85 22.846 1.85c-4.94 0-9.262 6.169-11.423 15.73z" fill="#000"/><path d="M22.845 34.234c-.308 0-.617-.309-.926-.617 0 0-1.852-4.318-5.248-8.944v-.308C16.67 20.355 17.906 0 22.845 0c4.94 0 6.175 20.355 6.484 24.364 0 .309 0 .309-.31.617-3.395 4.318-5.247 8.636-5.247 8.944 0 .309-.31.309-.927.309zm-4.63-10.178c2.16 2.776 3.704 5.552 4.63 7.402.927-1.85 2.47-4.318 4.631-7.402C26.86 8.636 24.08 1.85 22.846 1.85c-1.236 0-4.014 6.786-4.631 22.206z" fill="#000"/><path d="M23.154 60.14c-5.248-.308-9.57-2.159-12.349-5.551-3.704-4.318-5.248-10.795-4.322-19.43C7.41 26.215.31 15.112.31 14.804c-.31 0-.31-.617-.31-.617.309-.308.617-.308.926-.308 13.275 1.542 19.759 12.953 21.92 17.27 2.16-4.626 8.953-15.728 21.92-17.579.308 0 .617 0 .925.309.309.308.309.616 0 .925 0 0-8.644 11.411-6.174 20.046 1.852 6.477.926 12.645-2.47 17.271-3.396 4.935-8.644 7.71-13.893 8.02zM2.47 15.73c2.16 3.7 6.174 12.028 5.557 19.738-.926 8.327.617 14.187 3.705 18.197 2.47 3.084 6.174 4.626 11.114 4.934 4.63-.308 9.57-2.776 12.657-7.093 3.088-4.318 4.014-9.87 2.47-16.038-2.16-7.402 2.779-16.037 5.248-19.738-13.583 3.393-19.45 17.888-19.45 18.196 0 .309-.308.617-.925.617-.31 0-.618-.308-.927-.617.31-.308-5.557-15.112-19.45-18.196z" fill="#000"/><path d="M22.846 66c-.618 0-.927-.308-.927-.925V33.617c0-.617.31-.925.927-.925s.926.308.926.925v31.766c0 .309-.309.617-.926.617zm-.001-57.673c-4.63 0-8.026-1.234-8.335-1.234-.309-.308-.618-.616-.309-1.233.309-.309.618-.617 1.235-.617 0 0 8.027 2.776 15.128-.308.308-.309.926 0 1.234.616.31.309 0 .926-.617 1.234-2.779 1.234-5.866 1.542-8.336 1.542zm.001 6.168c-5.866 0-10.497-1.542-10.806-1.542-.309 0-.617-.617-.309-1.233 0-.309.618-.617.927-.309 0 0 10.805 3.701 20.375-.308.31-.309.927 0 1.235.617.309.308 0 .925-.617 1.233-3.396 1.234-7.41 1.542-10.806 1.542zm0 5.86c-6.793 0-12.35-1.85-12.658-1.85-.309-.309-.618-.617-.618-1.234.309-.308.618-.617 1.235-.617 0 0 12.658 4.318 24.08-.308.31-.309.927 0 1.236.617.308.308 0 .925-.618 1.233-4.322 1.542-8.644 2.16-12.657 2.16zm.308 7.094h-3.396c-.926-.309-1.235-.617-1.235-1.234s.31-.925.927-.925c2.47.308 4.94.308 7.1 0 .618 0 .927.308.927.925s-.31.925-.927.925c-.926.309-2.16.309-3.396.309zm5.249 25.598c-.31 0-.618-.309-.618-.617-.308-.309 0-.925.618-1.234.308 0 4.63-1.85 5.248-10.794 0-.617.309-.925.926-.925.618 0 .926.308.926.925-.926 10.486-6.483 12.645-7.1 12.645.308 0 .308 0 0 0zM10.188 36.392c-.617 0-.926-.616-.926-.925 1.544-6.476-1.852-11.72-1.852-11.72-.31-.308 0-.925.308-1.233.31-.308.927 0 1.235.308 0 .309 3.705 5.86 1.853 12.954.308.308 0 .616-.618.616z" fill="#000"/><path d="M35.504 66H10.806c-.618 0-.927-.308-.927-.925s.31-.925.927-.925h25.006c.618 0 .927.308.927.925S36.12 66 35.504 66z" fill="#000"/></svg>