<svg width="48" height="57" fill="none" xmlns="http://www.w3.org/2000/svg"><g clip-path="url(#clip0_304_528)"><path d="M47.182 55.636h-8.727v-4.909C39 51 39.545 51 40.09 51c.818 0 1.364-.273 2.182-.545C46.09 48.545 48 42 48 41.727c0-.272 0-.545-.273-.818-.272-.273-.545-.273-.818-.273-.273 0-5.727.819-8.727 3.546V42c.545.273 1.09.273 1.636.273.818 0 1.364-.273 2.182-.546 3.818-1.909 5.727-8.454 5.727-8.727 0-.273 0-.545-.272-.818-.273-.273-.546-.273-.819-.273-.272 0-5.727.818-8.454 3.546v-2.182c.545.272 1.09.272 1.636.272.818 0 1.364-.272 2.182-.545 3.818-1.91 5.727-8.454 5.727-8.727 0-.273 0-.546-.272-.819-.273-.272-.546-.272-.819-.272-.272 0-5.727.818-8.454 3.545v-1.909c.545.273 1.09.273 1.636.273.818 0 1.364-.273 2.182-.546 3.818-1.909 5.727-8.454 5.727-8.727 0-.272 0-.545-.272-.818-.273-.273-.546-.273-.819-.273-.272 0-5.727.819-8.454 3.546v-3.546c0-.545-.273-.818-.818-.818-.546 0-.819.273-.819.818v3.819c-2.727-3-8.454-3.546-8.727-3.546-.273 0-.545 0-.818.273.273.273.273.545.273.545 0 .273 1.909 6.818 5.727 8.728.545.272 1.364.545 2.182.545.545 0 1.09 0 1.636-.273v2.455c-2.727-2.727-8.454-3.546-8.727-3.546-.273 0-.546 0-.818.273v.546c0 .272 1.909 6.818 5.727 8.727.545.272 1.364.545 2.182.545.545 0 1.09 0 1.636-.273v2.182c-2.727-2.727-8.454-3.545-8.727-3.545-.273 0-.546 0-.818.273C27 32.727 27 33 27 33.273c0 .272 1.91 6.818 5.727 8.727.546.273 1.364.545 2.182.545.546 0 1.091 0 1.636-.272v2.181c-2.727-2.727-8.454-3.545-8.727-3.545-.273 0-.545 0-.818.273-.273.273-.273.545-.273.818 0 .273 1.91 6.818 5.728 8.727.545.273 1.363.546 2.181.546.546 0 1.091 0 1.637-.273v4.91H14.182v-7.364c.818.272 1.636.545 2.454.545.819 0 1.91-.273 2.728-.546 5.181-2.454 7.363-11.181 7.363-11.454 0-.273 0-.546-.273-.818C26.183 36 25.91 36 25.636 36c-.272 0-8.181 1.09-11.727 5.182V37.09c.818.273 1.636.545 2.455.545.818 0 1.909-.272 2.727-.545 5.454-2.727 7.636-11.455 7.909-11.727 0-.273 0-.546-.273-.819-.273-.272-.545-.272-.818-.272-.273 0-8.182 1.09-11.727 5.181v-4.09c.818.272 1.636.545 2.454.545.819 0 1.91-.273 2.728-.545 5.181-2.455 7.363-11.182 7.636-11.455 0-.273 0-.545-.273-.818-.273 0-.545-.273-.818-.273-.273 0-8.182 1.091-11.727 5.182v-4.09c.818.272 1.636.544 2.454.544.819 0 1.91-.272 2.728-.545C24.545 11.454 26.727 2.727 27 2.455c0-.273 0-.546-.273-.819-.273 0-.545-.272-.818-.272-.273 0-8.182 1.09-11.727 4.909V.818c0-.545-.273-.818-.818-.818-.273 0-.546.273-.546.818v5.727c-3.545-4.09-11.454-4.909-12-5.181-.273 0-.545 0-.818.272v.819c0 .272 2.455 9 7.364 11.454.818.273 1.636.545 2.727.545.818 0 1.636-.272 2.455-.545V18C9.273 13.91 1.364 12.818.818 12.818c-.273 0-.545 0-.818.273v.818c0 .273 2.455 9 7.364 11.455.818.272 1.636.545 2.727.545.818 0 1.636-.273 2.455-.545v4.09C9.273 25.364 1.364 24.273.818 24.273c-.273 0-.545 0-.818.273v.818c0 .272 2.455 9 7.364 11.454.818.273 1.636.546 2.727.546.818 0 1.636-.273 2.455-.546v4.091C9 36.82 1.09 35.727.818 35.727c-.273 0-.545 0-.818.273v.818c0 .273 2.455 9 7.364 11.455.818.272 1.636.545 2.727.545.818 0 1.636-.273 2.455-.545v7.363H.818c-.545 0-.818.273-.818.819 0 .545.273.818.818.818h46.364c.545 0 .818-.273.818-.819 0-.545-.273-.818-.818-.818zM39 46.091c1.364-2.182 5.182-3.273 7.09-3.546-.545 1.91-2.18 5.455-4.363 6.546-.818.545-1.909.545-3 0-.272-1.364-.272-2.182.273-3zm0-8.727c1.364-2.182 5.182-3.273 7.09-3.546-.545 1.91-2.18 5.455-4.363 6.546-.818.545-1.909.545-3 0-.272-1.091-.272-2.182.273-3zm-2.182-5.455c-1.09.546-1.909.546-3 0-2.454-1.09-3.818-4.636-4.363-6.545 1.909.272 5.727 1.363 7.09 3.545.273.818.546 1.91.273 3zm0 8.455c-1.09.545-1.909.545-3 0-2.454-1.091-3.818-4.637-4.363-6.546 1.909.273 5.727 1.364 7.09 3.546.273.818.546 1.909.273 3zm0 8.454c-1.09.546-1.909.546-3 0-2.454-1.09-3.818-4.636-4.363-6.545 2.181.545 5.727 1.636 7.09 3.545.273 1.091.546 1.91.273 3zM39 28.91c1.364-2.182 5.182-3.273 7.09-3.545-.817 2.181-2.18 5.454-4.363 6.545-.818.546-1.909.546-3 0v-1.091c-.272-.818 0-1.364.273-1.909zm0-8.727c1.364-2.182 5.182-3.273 7.09-3.546-.545 1.91-2.18 5.455-4.363 6.546-.818.545-1.909.545-3 0v-1.365c-.272-.545 0-1.09.273-1.636zm-2.182 3c-1.09.545-1.909.545-3 0-2.454-1.091-3.818-4.636-4.363-6.546 1.909.273 5.727 1.364 7.09 3.546.273 1.09.546 1.909.273 3zM15 42.545c1.91-3.272 7.364-4.363 9.818-4.909-.818 2.455-2.727 7.637-6.273 9.273-1.363.546-2.727.546-4.363 0 0-1.909 0-3.273.818-4.364zm0-11.454c1.91-3.273 7.364-4.364 9.818-4.91-.818 2.455-2.727 7.637-6.273 9.274-1.363.545-2.727.545-4.363 0 0-1.91 0-3.273.818-4.364zm-2.454-7.364c-1.637.819-3 .819-4.364.273-3.546-1.636-5.455-7.09-6.273-9.273C4.364 15 9.82 16.364 12 19.637c.818 1.09.818 2.727.546 4.09zm0 11.455c-1.637.545-3 .545-4.364 0-3.273-1.637-5.455-6.818-6.273-9.273 2.455.546 7.91 1.91 9.818 4.91 1.091 1.363 1.091 2.726.819 4.363zm0 11.454c-1.637.546-3 .546-4.364 0C4.909 45 2.727 39.818 1.909 37.364c2.455.545 7.91 1.909 9.818 4.909 1.091 1.363 1.091 2.727.819 4.363zm2.454-27c2.182-3.272 7.636-4.636 10.09-4.909-.817 2.455-2.726 7.637-6.272 9.273-1.364.546-2.727.546-4.364-.273 0-.273-.272-.818-.272-1.09v-.273c0-1.091.272-1.91.818-2.728zm0-11.454c1.91-3.273 7.364-4.364 9.818-4.91-.545 2.455-2.727 7.637-6 9.274-1.364.545-2.727.545-4.364 0 0-.273-.272-.819-.272-1.091V10.09c.272-.546.545-1.364.818-1.91zm-2.727 4.09c-1.364.819-2.728.819-4.091.274-3.546-1.637-5.455-6.819-6.273-9.273C4.364 3.818 9.82 4.909 12 8.182c.546 1.363.818 2.727.273 4.09z" fill="#000"/></g><defs><clipPath id="clip0_304_528"><path fill="#fff" d="M0 0h48v57H0z"/></clipPath></defs></svg>