<svg width="298" height="306" fill="none" xmlns="http://www.w3.org/2000/svg"><path d="M149.349 88.321L149 86l-.349 2.321c-5.413 33.215-30.73 59.286-63.381 64.822L83 153.5l2.27.357c32.476 5.536 57.968 31.429 63.381 64.822L149 221l.349-2.321c5.413-33.215 30.73-59.286 63.381-64.822l2.27-.357-2.27-.357c-32.476-5.536-57.968-31.607-63.381-64.822z" fill="#FFD60B"/><path d="M149 0C66.841 0 0 68.635 0 153c0 84.364 66.841 153 149 153s149-68.636 149-153C298 68.635 231.333 0 149 0zm128.286 142.097l-45.083-6.077c-3.655-42.719-20.888-81.862-48.042-110.282 50.653 14.836 88.774 60.771 93.125 116.359zm-65.797-8.758l-24.717-3.396c-7.833-1.43-13.925-7.686-15.318-15.729L161.01 32.173c27.851 24.487 45.954 60.77 50.479 101.166zM137.164 32.352l-10.444 82.041c-1.393 8.043-7.485 14.299-15.318 15.728l-24.717 3.218c4.525-40.395 22.802-76.679 50.479-100.987zm-23.151-6.614C86.859 54.158 69.626 93.301 65.971 136.02l-45.257 6.077C25.24 86.509 63.36 40.574 114.013 25.738zM20.888 163.724l45.257 6.077c3.655 42.719 20.888 81.863 48.042 110.282-50.827-14.657-88.947-60.771-93.3-116.359zm65.797 8.937l24.717 3.217c7.833 1.43 13.925 7.686 15.318 15.729l10.444 82.041c-27.677-24.308-45.954-60.771-50.48-100.987zm64.578 16.087L149 206.085l-2.263-17.337v-.358c-2.785-16.98-15.666-30.207-32.202-33.066h-.348L97.303 153l16.884-2.324h.348c16.536-2.859 29.417-16.086 32.202-33.066v-.358L149 99.915l2.263 17.337v.358c2.785 16.98 15.666 30.207 32.202 33.066h.348L200.697 153l-16.884 2.324h-.348c-16.536 2.859-29.417 16.086-32.202 33.066v.358zm9.747 84.9l10.444-82.041c1.393-8.043 7.485-14.299 15.318-15.729l24.717-3.396c-4.525 40.395-22.628 76.858-50.479 101.166zm23.151 6.435c27.154-28.419 44.387-67.563 48.042-110.282l45.083-6.077c-4.351 55.588-42.472 101.524-93.125 116.359z" fill="#000"/></svg>