<svg version="1.1" id="Слой_1" xmlns="http://www.w3.org/2000/svg" x="0" y="0" viewBox="0 0 602 352" xml:space="preserve"><style/><ellipse id="motion" fill="none" stroke="red" cx="301" cy="175.3" rx="291.7" ry="164.5"/><path d="M1 146.6l1.3-3.6 17.9 4.6v-.3l-16-9.4 1.6-4.2 18.2 3.6v-.3l-16.6-8.5 1.3-3.6 19.5 10.7-1.6 5.2-16.9-3.6v.3l15 8.8-2 5.2L1 146.6z"><animateMotion accumulate="none" additive="replace" calcMode="paced" dur="6s" fill="remove" repeatCount="indefinite" restart="always" rotate="auto-reverse"/></path><path d="M36.5 124.2c-1 1.3-2 2.3-2.9 3.3-1 .7-2.3 1.3-3.6 1.3-1.3.3-2.6 0-4.2-.3-1.3-.3-2.9-1-4.2-2-1.6-1-2.6-1.9-3.6-3.3-1-1.3-1.6-2.3-2-3.6-.3-1.3-.3-2.6-.3-3.9.3-1.3.7-2.6 1.6-3.9 1-1.3 2-2.3 2.9-3.3 1-.7 2.3-1.3 3.6-1.3 1.3-.3 2.6 0 4.2.3 1.3.3 2.9 1 4.2 1.9 1.6 1 2.6 2 3.6 3.3 1 1.3 1.6 2.3 2 3.6.3 1.3.3 2.6.3 3.9-.3 1.4-1 2.7-1.6 4zm-3.3-2c1-1.3 1.3-2.6 1-4.2-.3-1.3-1.3-2.6-2.9-3.6l-2.9-2c-1.6-1-3.3-1.6-4.6-1.3-1.3.3-2.6 1-3.6 2.6-1 1.3-1.3 2.6-1 4.2.3 1.3 1.3 2.6 2.9 3.6l2.9 2c1.6 1 3.3 1.6 4.6 1.3 1.7-.6 3-1.3 3.6-2.6zm9.1-7.8L26 99.8l2.9-3.3 2.9 2.6c-.3-.7-.7-1-.7-1.6 0-.6-.3-1.3-.3-2s.3-1.3.3-2c.3-.7.7-1.3 1.3-2 1.3-1.6 3.3-2.3 5.2-2.3s3.9 1 5.9 2.6l10.4 9.4-2.9 3.3-10-8.9c-2.6-2.3-4.9-2.3-6.8-.3-.3.3-.7 1-1 1.3-.3.7-.3 1-.3 1.6s0 1 .3 1.6c.3.7.7 1 1 1.3l11.1 10.1-3 3.2zm23.8-28.3c.3 1.6.3 2.9 0 4.2-.3 1.3-1 2.3-2.3 3.3-2 1.6-3.9 2.3-6.5 1.6-2.3-.6-4.9-2.2-7.2-5.2-2.6-2.9-3.6-5.5-3.9-8.1 0-2.3.7-4.6 2.6-6.2 1.3-1 2.3-1.6 3.6-1.6 1.3 0 2.6 0 3.9.7h.3l-8.5-10.1 3.6-2.9 20.3 24-3.6 2.9-2.3-2.6zm-3.6 3.3c.7-.3 1-1 1.3-1.3.3-.7.7-1 .7-1.6v-1.6c0-.7-.3-1-1-1.6l-4.6-5.5c-.3-.7-1-1-1.3-1-.7-.3-1-.3-1.6-.3-.7 0-1 0-1.6.3-.7.3-1 .6-1.6 1-1.3 1-2 2.3-2 3.9 0 1.3.7 2.9 1.6 4.2l2.3 2.6c1.3 1.3 2.3 2.3 3.9 2.3 1.3.2 2.6-.1 3.9-1.4zM84 78c-1.3 1-2.6 1.6-4.2 1.6-1.3.3-2.6.3-3.9 0-1.3-.3-2.6-1-3.6-2-1.3-1-2.3-2-3.3-3.6-1-1.3-1.6-2.9-2-4.2-.3-1.3-.7-2.9-.3-4.2 0-1.3.7-2.6 1.3-3.6.7-1 1.6-2.3 2.9-2.9 1.3-1 2.6-1.3 3.9-1.6 1.3-.3 2.6-.3 3.9 0 1.3.3 2.3 1 3.6 1.6 1 1 2.3 2 2.9 3.3l1 1.3-12.7 8.5.3.7c1 1.3 2.3 2.3 3.6 2.6 1.6.3 2.9 0 4.6-1 1.3-.7 2-1.6 2.3-2.6.3-1 .7-2.3.7-3.3l3.9.7c0 1.3-.3 2.9-1 4.6C87.3 75.4 86 77 84 78zM72.9 62.1c-.7.3-1.3 1-1.6 1.6-.3.7-.7 1.3-.7 2V68c.3.7.3 1.6 1 2.3l.3.3 8.8-5.9-.3-.3c-1-1.3-2.3-2.3-3.6-2.6-1.3-.4-2.6-.4-3.9.3zm20.5 5.2l4.9-2.6L91.5 52l-4.9 2.6-2-3.3 8.8-4.9 2.6 5.2h.3c-.3-.6-.3-1.5-.3-2.2 0-.7 0-1.6.3-2.3.3-.7.7-1.3 1.3-2 .7-.7 1.3-1.3 2.3-1.6l2.3-1.3 2 3.9-3.6 2c-1.3.7-2.3 2-2.9 3.3-.3 1.3-.3 2.9.7 4.2l3.9 7.2 6.8-3.6 2 3.3L95.5 71l-2.1-3.7zm19.9-30.9l3.6-1.3 8.8 16.3h.3l-3.9-18.2 3.9-1.6 9.8 15.9h.3l-4.9-17.9 3.3-1.3 5.5 21.5-5.2 2-9.1-14.6h-.3l3.9 16.9-5.2 2-10.8-19.7zm41.4 8.5c-1.6.6-2.9.6-4.2.6-1.3 0-2.6-.6-3.6-1.3-1-.7-2.3-1.6-2.9-2.9-1-1.3-1.6-2.6-2.3-4.2-.7-1.6-1-3.3-1-4.9 0-1.6.3-2.9.7-3.9.7-1.3 1.3-2.3 2.3-3.3 1-1 2.3-1.6 3.9-2 1.6-.6 2.9-.6 4.2-.6 1.3 0 2.6.6 3.6 1.3 1 .6 2.3 1.6 2.9 2.9 1 1.3 1.6 2.6 2.3 4.2.7 1.6 1 3.3 1 4.9 0 1.6-.3 2.9-.7 3.9-.7 1.3-1.3 2.3-2.3 3.3-1.3.7-2.6 1.3-3.9 2zm-1.4-3.6c1.6-.6 2.6-1.3 3.3-2.6.7-1.3.7-2.9 0-4.9l-1-3.3c-.7-2-1.6-3.3-2.9-3.9-1.3-.6-2.6-.6-4.2-.3-1.6.7-2.6 1.3-3.3 2.6-.7 1.3-.7 2.9 0 4.9l1 3.3c.7 2 1.6 3.3 2.9 3.9 1.3.6 2.6.9 4.2.3zm13.4-1l-5.9-21.1 4.2-1.3 1 3.6h.3c0-.6.3-1.3.3-2 .3-.6.3-1.3 1-1.6.3-.6 1-1 1.3-1.3.7-.3 1.3-.6 2.3-1 2-.7 3.9-.3 5.5.7s2.9 2.9 3.6 5.5l3.6 13.7-4.2 1.3-3.6-13c-1-3.3-2.9-4.6-5.5-3.9-.7 0-1 .3-1.6.7-.7.3-1 .7-1.3 1-.3.3-.7 1-.7 1.3v1.6l3.9 14.3-4.2 1.5zM201.9 28c-.7 1.6-1.3 2.6-2 3.6-1 1-2 1.6-3.6 2-2.6.6-4.6 0-6.5-1.6-2-1.6-3.3-4.2-3.9-7.8s-.7-6.5.3-8.8c1-2.3 2.9-3.6 5.2-4.2 1.6-.3 2.9-.3 3.9.3 1.3.7 2.3 1.3 3.3 2.6h.3l-2.6-13 4.6-1 6.5 30.6-4.6 1-.9-3.7zm-4.6 1.3c.7 0 1.3-.3 1.6-.6.7-.3 1-.7 1.3-1 .3-.3.7-1 .7-1.3v-2l-1.6-7.2c0-.7-.3-1.3-.7-1.6-.3-.3-.7-.7-1.3-1s-1-.3-1.6-.3h-2c-1.6.3-2.9 1.3-3.6 2.3-.7 1.3-1 2.6-.3 4.6l.7 3.6c.3 1.6 1 2.9 2.3 3.9 1.2.6 2.9.9 4.5.6zm24.4-.7c-1.6.3-2.9.3-4.6 0-1.3-.3-2.6-1-3.6-1.6-1-.7-2-2-2.6-3.3s-1.3-2.9-1.3-4.6c-.3-1.6-.3-3.3 0-4.9.3-1.6.7-2.9 1.3-3.9.7-1 1.6-2 2.6-2.9 1-.7 2.6-1.3 3.9-1.3 1.6-.3 2.9-.3 4.2 0 1.3.3 2.3 1 3.3 1.6 1 .7 2 2 2.6 2.9.7 1.3 1 2.6 1.3 4.2l.3 1.6-15 2.3v.7c.3 1.6 1 2.9 2.3 3.9 1.3 1 2.6 1.3 4.6 1 1.3-.3 2.6-.7 3.3-1.3 1-.7 1.6-1.6 2-2.9l3.3 2c-.7 1.3-1.3 2.6-2.6 3.6-1.4 1.9-3 2.6-5.3 2.9zm-3.2-19.2c-.7 0-1.6.3-2 .7-.7.3-1 1-1.6 1.6-.3.7-.7 1.3-1 2 0 .7-.3 1.6 0 2.3v.3l10.4-1.6v-.3c-.3-1.6-1-2.9-2-3.9-.9-1.1-2.2-1.4-3.8-1.1zm16.6 13l5.5-.7L239 7.5l-5.5.7-.3-3.9 10.1-1 .7 5.9h.3c0-.7.3-1.6.7-2.3.3-.7.7-1.3 1.3-2 .7-.7 1-1 2-1.6.7-.3 1.6-.7 2.6-.7l2.6-.3.3 4.2-4.2.3c-1.6.3-2.9 1-3.9 2s-1.3 2.6-1 4.2l1 8.1 7.8-1 .3 3.9-17.9 2-.8-3.6zM347.4 2.3l3.9.3v18.5h.3l5.2-17.9 4.6.7 1.3 18.5h.3l4.2-18.2 3.9.3-5.5 21.5-5.5-.7-1-17.2h-.3l-4.9 16.6-5.5-.7-1-21.7zm33.5 26.6c-1.6-.3-2.9-.7-4.2-1.6-1.3-.7-2.3-1.6-2.9-2.9-.7-1-1.3-2.3-1.3-3.9-.3-1.6-.3-2.9 0-4.9.3-1.6.7-3.3 1.6-4.6.7-1.3 1.6-2.3 2.6-3.3s2.3-1.3 3.6-1.6c1.3-.3 2.9-.3 4.6 0 1.6.3 2.9.7 4.2 1.6 1.3.7 2.3 1.6 2.9 2.9.7 1 1.3 2.3 1.3 3.9.3 1.6.3 2.9 0 4.9-.3 1.6-.7 3.3-1.6 4.6-.7 1.3-1.6 2.3-2.6 3.3s-2.3 1.3-3.6 1.6c-1.6.4-2.9.4-4.6 0zm.4-3.5c1.6.3 3.3 0 4.2-1 1.3-1 2-2.3 2.3-4.2l.7-3.3c.3-2 0-3.6-.7-4.9-1-1.3-2-2-3.9-2.3-1.6-.3-3.3 0-4.2 1-1.3 1-2 2.3-2.3 4.2l-.7 3.3c-.3 2 0 3.6.7 4.9.9 1.3 2.2 1.9 3.9 2.3zm12 5.2l4.6-21.5 4.6 1-.7 3.6h.3c.3-.7.7-1 1.3-1.3.3-.3 1-.7 1.6-1 .7-.3 1.3-.3 2-.7.7 0 1.6 0 2.3.3 2.3.3 3.9 1.6 4.9 3.3 1 1.6 1.3 3.9.7 6.5L412 34.5l-4.6-1 2.9-13c.7-3.3-.3-5.5-3.3-6.2-.7 0-1.3-.3-1.6 0-.7 0-1 0-1.6.3-.7.3-1 .6-1.3 1-.3.3-.7 1-.7 1.6l-3.3 14.6-5.2-1.2zm38.1 5.5c-1.3 1-2.3 2-3.6 2.3-1.3.3-2.6.3-4.2 0-2.6-.6-4.2-2.3-5.2-4.6s-1-5.2 0-8.8c1-3.6 2.6-6.2 4.6-7.8 2-1.3 4.2-2 6.8-1.3 1.6.3 2.6 1.3 3.6 2.3 1 1 1.3 2.3 1.6 3.6h.3l3.6-12.7 4.6 1.3-8.5 30.2-4.6-1.3 1-3.2zm-4.9-1c.7.3 1.3.3 2 .3s1.3 0 1.6-.3c.7-.3 1-.7 1.3-1 .3-.3.7-1 1-1.6l2-7.2c.3-.6.3-1.3 0-2s-.3-1-.7-1.6c-.3-.3-.7-1-1.3-1.3-.7-.3-1-.6-1.6-.6-1.6-.3-3.3-.3-4.2.3-1 .6-2 2-2.6 3.9l-1 3.6c-.3 1.6-.3 3.3.3 4.6.3 1.6 1.6 2.6 3.2 2.9zm22.8 11.1c-1.6-.6-2.9-1.3-3.9-2.3-1-1-2-2-2.3-3.3-.7-1.3-.7-2.6-.7-4.2s.3-2.9 1-4.6c.7-1.6 1.3-2.9 2.3-4.2 1-1.3 2-2 3.3-2.6 1.3-.7 2.6-1 3.9-1 1.3 0 2.9 0 4.2.7 1.3.7 2.6 1.3 3.6 2 1 1 1.6 2 2.3 3.3.7 1.3.7 2.6.7 3.9 0 1.3-.3 2.9-.7 4.6l-.7 1.6-15-5.2-.3.7c-.7 1.6-.7 3.3.3 4.6.7 1.3 2 2.3 3.6 2.9 1.3.3 2.6.6 3.6.3 1.3-.3 2.3-.7 3.3-1.6l2 3.3c-1 1-2.6 1.6-4.2 2-2.4 0-4.3-.3-6.3-.9zm5.9-18.6c-.7-.3-1.6-.3-2.3-.3-.7 0-1.3.3-2 .6s-1.3.7-1.6 1.3c-.7.7-1 1.3-1.3 2v.3l10.4 3.6v-.3c.7-1.6.7-3.3 0-4.6-.6-1.3-1.6-2.2-3.2-2.6zm9.1 19.2l5.2 2.3 5.5-13.3-5.2-2.3 1.6-3.6 9.8 3.9-2.3 5.2h.3c.3-.7 1-1.3 1.6-1.6.7-.7 1.3-1 2-1.3.7-.3 1.6-.3 2.3-.3 1 0 2 .3 2.9.6l2.3 1-1.6 4.2-3.9-1.6c-1.6-.7-2.9-.7-4.6-.3s-2.3 1.6-2.9 3.3l-3.3 7.5 7.2 2.9-1.6 3.6-16.9-7.2 1.6-3zm37.4-3.2l3.6 2-7.2 17.2.3.3 12-14.3 3.9 2.3-6.2 17.6.3.3 11.1-15 3.3 2-13.3 17.6-4.9-2.9 5.9-16.3-.3-.3-11.1 13.3-4.9-2.9 7.5-20.9zm19.6 38c-1.3-1-2.3-2-3.3-3.3-.7-1.3-1.3-2.3-1.3-3.9-.3-1.3 0-2.6.3-4.2.3-1.3 1-2.9 2.3-4.2 1-1.3 2-2.6 3.3-3.6 1.3-1 2.6-1.6 3.9-1.6 1.3-.3 2.6-.3 3.9 0 1.3.3 2.6 1 3.9 2 1.3 1 2.3 2 3.3 3.3 1 1.3 1.3 2.3 1.3 3.9 0 1.3 0 2.6-.3 4.2-.3 1.3-1 2.9-2.3 4.2-1 1.3-2 2.6-3.3 3.6-1.3 1-2.6 1.6-3.9 1.6-1.3 0-2.6.3-3.9 0-1.3-.4-2.6-1-3.9-2zm2.2-2.9c1.3 1 2.9 1.3 4.2 1 1.3-.3 2.6-1.3 3.9-2.9l2-2.6c1.3-1.6 1.6-3.3 1.3-4.6-.3-1.3-1-2.6-2.3-3.6-1.3-1-2.9-1.3-4.2-1-1.3.3-2.6 1.3-3.9 2.9l-2 2.6c-1.3 1.6-1.6 3.3-1.3 4.6.1 1.3.7 2.6 2.3 3.6zm8.5 10l14.7-16.6 3.6 2.9-2.6 2.9c.7-.3 1-.6 1.6-.6s1.3-.3 2-.3 1.3.3 2 .7 1.3.7 2 1.3c1.6 1.3 2.6 3.3 2.6 5.2 0 2-.7 3.9-2.6 5.9l-9.4 10.7-3.6-2.9 8.8-10.1c2.3-2.6 2.3-4.9 0-6.8-.3-.3-1-.7-1.3-1-.7-.3-1-.3-1.6-.3-.7 0-1 0-1.6.3-.7.3-1 .7-1.3 1l-10 11-3.3-3.3zm29.6 24.1c-1.6.3-2.9.3-4.2-.3-1.3-.3-2.3-1-3.6-2.3-1.6-1.9-2.3-4.2-1.6-6.5.3-2.3 2.3-4.9 5.2-7.2 2.9-2.6 5.5-3.6 8.1-3.9 2.6 0 4.6 1 6.2 2.9 1 1.3 1.6 2.6 1.6 3.9 0 1.3 0 2.6-.7 3.9l.3.3 10.1-8.5 2.9 3.6L562 119l-2.9-3.6 2.5-2.6zm-3.6-3.6c.3.7 1 1 1.3 1.3.7.3 1 .7 1.6.7h1.6c.7 0 1-.3 1.6-1l5.5-4.5c.7-.3 1-1 1-1.3.3-.7.3-1 .3-1.6s-.3-1-.3-1.6c-.3-.7-.7-1-1-1.6-1-1.3-2.3-2-3.9-2-1.3 0-2.9.7-4.2 1.6l-2.6 2.3c-1.3 1.3-2.3 2.3-2.3 3.9-.2 1.2.1 2.5 1.4 3.8zm10.8 22.1c-1-1.3-1.3-2.9-1.6-4.2-.3-1.3 0-2.9.3-3.9.3-1.3 1-2.6 2-3.6s2.3-1.9 3.9-2.9 2.9-1.3 4.6-1.6c1.6-.3 2.9-.3 4.2 0 1.3.3 2.6 1 3.6 1.6 1 1 2 2 2.9 3.3.7 1.3 1.3 2.6 1.3 3.9 0 1.3 0 2.6-.3 3.9-.3 1.3-1 2.3-2 3.6-1 1-2 1.9-3.6 2.9l-1.6 1-7.8-13.7-.7.3c-1.6 1-2.6 1.9-2.9 3.6-.3 1.6 0 2.9.7 4.6.7 1.3 1.6 2.3 2.6 2.6 1 .3 2.3 1 3.3 1l-.7 3.9c-1.6 0-2.9-.3-4.6-1.3-1.3-1.7-2.6-3-3.6-5zm16.6-9.7c-.3-.6-1-1.3-1.6-1.6-.7-.3-1.3-.6-2-1-.7-.3-1.3-.3-2.3 0-.7 0-1.6.3-2.3.7h-.3l5.5 9.4.3-.3c1.6-1 2.6-2 2.9-3.3.8-1.3.8-2.6-.2-3.9zm-6.5 19.8l1.6 5.5 13.7-3.9-1.6-5.5 3.6-1 2.9 10.1-5.5 1.6v.3c.7 0 1.6 0 2.3.3.7 0 1.6.3 2.3 1 .7.3 1.3 1 2 1.6.7.6 1 1.6 1.3 2.6l.7 2.6-4.2 1.3-1.3-4.2c-.3-1.6-1.3-2.9-2.6-3.6s-2.6-1-4.2-.3l-7.8 2.3 2.3 7.5-3.6 1-5.2-17.6 3.3-1.6zm22.8 56.5l-1.3 3.9-18.2-3.6v.3l16.6 8.8-1.3 4.2-18.6-2.6v.3l16.9 7.8-1.3 3.6-19.9-9.8 1.6-5.2 16.9 2.3v-.3l-15.3-8.1 1.6-5.5 22.3 3.9zm-34.5 25.4c1-1.3 2-2.6 2.9-3.3 1-1 2.3-1.3 3.6-1.6 1.3-.3 2.6-.3 4.2 0 1.3.3 2.9 1 4.6 1.9 1.6 1 2.6 1.9 3.6 2.9s1.6 2.3 2 3.6c.3 1.3.7 2.6.3 3.9s-.7 2.9-1.6 4.2-2 2.6-2.9 3.3c-1 1-2.3 1.3-3.6 1.6-1.3.3-2.6.3-4.2 0-1.3-.3-2.9-1-4.6-2-1.6-1-2.6-2-3.6-2.9-1-1-1.6-2.3-2-3.6-.3-1.3-.7-2.6-.3-3.9.3-1.5.6-2.8 1.6-4.1zm3.2 1.9c-1 1.3-1 2.9-.7 4.2.3 1.3 1.3 2.6 3.3 3.6l2.9 1.6c1.6 1 3.3 1.3 4.9 1 1.3-.3 2.6-1.3 3.3-2.6 1-1.3 1-2.9.7-4.2-.3-1.3-1.3-2.6-3.3-3.6l-2.9-1.6c-1.6-1-3.3-1.3-4.9-1-1.3 0-2.6 1-3.3 2.6zm-9.1 8.5l16.6 14.3-2.9 3.6-2.9-2.3c.3.7.7 1 .7 1.6.3.7.3 1.3.3 2 0 .6-.3 1.3-.3 1.9-.3.6-.7 1.3-1.3 1.9-1.3 1.6-3.3 2.6-5.2 2.6-2 0-3.9-.6-5.9-2.3l-10.7-9.1 2.9-3.6 10.1 8.8c2.6 2.3 4.9 2.3 6.8 0 .3-.3.7-1 1-1.6.3-.7.3-1 .3-1.6 0-.7 0-1-.3-1.6-.3-.7-.7-1-1-1.3l-11.4-9.8 3.2-3.5zm-23.8 29.6c-.3-1.6-.3-2.9 0-4.2.3-1.3 1-2.6 2.3-3.6 2-1.6 4.2-2.3 6.5-1.9s4.9 1.9 7.5 4.9c2.6 2.9 3.9 5.5 3.9 7.8 0 2.6-.7 4.6-2.6 6.2-1.3 1-2.6 1.6-3.9 2-1.3 0-2.6 0-3.9-.6l-.3.1 8.8 10.1-3.6 2.9-20.8-23.7 3.6-2.9 2.5 2.9zm3.6-3.6c-.7.3-1 1-1.3 1.3-.3.7-.7 1-.7 1.6v1.6c0 .7.3 1 1 1.6l4.9 5.5c.3.7 1 1 1.3 1 .7.3 1 .3 1.6.3s1-.3 1.6-.3c.7-.3 1-.6 1.6-1 1.3-1.3 2-2.6 2-3.9 0-1.3-.7-2.9-1.6-4.2l-2.3-2.6c-1.3-1.3-2.6-2-3.9-2.3-1.6-.6-2.9.1-4.2 1.4zm-21.8 11.7c1.3-1 2.9-1.6 4.2-2 1.3-.3 2.6-.3 3.9 0 1.3.3 2.6 1 3.9 1.6 1.3.7 2.3 2 3.3 3.6 1 1.3 1.6 2.9 2 4.2.3 1.3.7 2.9.3 4.2-.3 1.3-.7 2.6-1.3 3.9-.7 1.3-1.6 2.3-2.9 2.9-1.3 1-2.6 1.3-3.9 1.6-1.3.3-2.6.3-3.9 0-1.3-.3-2.6-1-3.6-1.6-1-1-2.3-2-2.9-3.3l-1-1.3 13-8.8-.3-.6c-1-1.3-2.3-2.3-3.6-2.6-1.6-.3-2.9 0-4.6 1.3-1.3.6-2 1.6-2.6 2.9-.7 1-.7 2.3-.7 3.3l-4.2-.3c0-1.6.3-2.9 1-4.5s1.9-3.2 3.9-4.5zm11.1 15.9c.7-.3 1.3-1 1.6-1.6.3-.6.7-1.3.7-2v-2.3c-.3-.6-.7-1.6-1-2.3l-.3-.3-9.1 6.2.3.3c1 1.3 2.3 2.3 3.6 2.6 1.6.7 2.9.4 4.2-.6zm-20.9-4.2l-5.2 2.9 6.8 12.7 5.2-2.9 2 3.3-9.1 4.9-2.9-5.2h-.3c.3.6.3 1.6.3 2.3s0 1.6-.3 2.3c-.3.6-.7 1.3-1.3 2.3-.7.6-1.3 1.3-2.3 2l-2.3 1.3-2.3-3.9 3.9-2c1.6-1 2.6-1.9 2.9-3.3.3-1.3.3-2.9-.7-4.2l-3.9-7.1-6.8 3.9-2-3.3 16.3-8.8 2 2.8zM489 314l-3.6 1.6-9.1-16.3h-.3l3.9 18.2-4.2 1.6-10.1-15.9h-.3l4.9 17.9-3.6 1.3L461 301l5.2-2.3 9.1 14.6h.3l-3.6-16.9 5.2-2.3L489 314zm-42.3-7.5c1.6-.6 2.9-.6 4.2-.6s2.6.3 3.9 1.3c1.3.6 2.3 1.6 3.3 2.9 1 1.3 1.6 2.6 2.3 4.2s1 3.3 1 4.9-.3 2.9-.7 4.2c-.7 1.3-1.3 2.3-2.3 3.3-1 1-2.3 1.6-3.9 2.3-1.6.6-2.9.6-4.2.6s-2.6-.3-3.9-1.3c-1.3-1-2.3-1.6-3.3-2.9-1-1.3-1.6-2.6-2.3-4.2-.7-1.6-1-3.3-1-4.9s.3-2.9.7-4.2c.7-1.3 1.3-2.3 2.3-3.3 1-1.3 2.3-2 3.9-2.3zm1.3 3.3c-1.6.7-2.6 1.3-3.3 2.6-.7 1.3-.7 2.9 0 4.9l1 3.3c.7 2 1.6 3.3 2.9 3.9 1.3.7 2.6.7 4.2.3 1.6-.6 2.6-1.3 3.3-2.6.7-1.3.7-2.9 0-4.9l-1-3.3c-.7-1.9-1.6-3.3-2.9-3.9-1.3-.7-2.6-.7-4.2-.3zm-13.7 1.3l5.9 21.1-4.6 1.3-1-3.6h-.3c0 .6-.3 1.3-.3 1.9-.3.6-.7 1.3-1 1.6-.3.6-1 1-1.6 1.3-.7.3-1.3.6-2.3 1-2.3.6-3.9.3-5.9-.6-1.6-1-2.9-2.9-3.6-5.5l-3.6-13.7 4.6-1.3 3.6 13c1 3.3 2.9 4.6 5.9 3.9.7 0 1-.3 1.6-.7.7-.3 1-.6 1.3-1 .3-.3.7-1 .7-1.3v-1.6l-3.9-14.3 4.5-1.5zm-36.4 12.6c.7-1.6 1.3-2.6 2.3-3.6 1-1 2.3-1.6 3.6-2 2.6-.6 4.9 0 6.5 1.6 2 1.6 3.3 4.2 3.9 7.8.7 3.6.7 6.5-.3 8.8-1 2.3-2.9 3.6-5.5 4.2-1.6.3-2.9.3-4.2-.3-1.3-.6-2.3-1.3-3.3-2.6h-.3l2.6 13-4.6 1-6.5-30.9 4.6-1 1.2 4zm4.8-1.6c-.7 0-1.3.3-2 .7-.7.3-1 .6-1.3 1-.3.3-.7 1-.7 1.3 0 .7-.3 1.3 0 2l1.6 7.1c0 .7.3 1.3.7 1.6.3.3.7.7 1.3 1 .7.3 1 .3 1.6.3h2c1.6-.3 2.9-1.3 3.6-2.3.7-1.3 1-2.6.7-4.6l-.7-3.6c-.3-1.6-1-2.9-2.3-3.9-1.5-.6-2.8-.9-4.5-.6zm-25.4.7c1.6-.3 3.3-.3 4.6 0 1.3.3 2.6 1 3.6 1.6 1 1 2 2 2.6 3.3.7 1.3 1.3 2.9 1.3 4.5.3 1.6.3 3.3 0 4.9-.3 1.6-.7 2.9-1.6 3.9-.7 1-1.6 2-2.9 2.9-1.3.6-2.6 1.3-4.2 1.3-1.6.3-2.9.3-4.2 0-1.3-.3-2.6-1-3.6-1.6-1-1-2-1.9-2.6-2.9-.7-1.3-1-2.6-1.3-4.2l-.3-1.6 15.6-2.3v-.6c-.3-1.6-1-2.9-2.3-3.9-1.3-1-2.9-1.3-4.6-1-1.3.3-2.6.6-3.6 1.3-1 .6-1.6 1.6-2 2.9l-3.3-2c.7-1.3 1.6-2.6 2.9-3.6 2-1.6 3.7-2.3 5.9-2.9zm3.3 19.1c.7 0 1.6-.3 2.3-.6s1.3-1 1.6-1.6c.3-.6.7-1.3 1-2 .3-.7.3-1.6 0-2.3v-.3l-10.7 1.6v.3c.3 1.6 1 2.9 2 3.9.9 1 2.2 1.4 3.8 1zm-16.9-12.6l-5.9.7 1.6 14.3 5.9-.7.3 3.9-10.4 1-.7-5.8h-.3c0 .6-.3 1.6-.7 2.3-.3.6-.7 1.3-1.3 1.9-.7.7-1.3 1-2 1.6-.7.3-1.6.7-2.9.7l-2.6.3-.3-4.5 4.2-.3c1.6-.3 2.9-1 3.9-1.9 1-1 1.3-2.6 1.3-4.2l-1-8.1-7.8 1-.3-3.9 18.2-2 .8 3.7zm-109.1 19.8l-3.9-.3v-18.5h-.3l-5.2 17.9-4.6-.7-1.3-18.5h-.3l-4.2 18.2-3.6-.3 5.5-21.5 5.5.6 1 17.2h.3l4.9-16.6 5.5.3.7 22.2zm-33.2-26.7c1.6.3 2.9.6 4.2 1.6 1.3.6 2.3 1.6 2.9 2.9.7 1 1.3 2.3 1.3 3.9.3 1.6.3 2.9 0 4.9-.3 1.6-.7 3.3-1.6 4.6-.7 1.3-1.6 2.3-2.6 3.3s-2.3 1.3-3.6 1.6c-1.3.3-2.9.3-4.2 0-1.6-.3-2.9-.6-4.2-1.6-1.3-.6-2.3-1.6-2.9-2.9-.7-1-1.3-2.3-1.3-3.9-.3-1.6-.3-2.9 0-4.9.3-1.6.7-3.3 1.6-4.6.7-1.3 1.6-2.3 2.6-3.3s2.3-1.3 3.6-1.6c1.3-.3 2.6-.3 4.2 0zm-.7 3.6c-1.6-.3-2.9 0-4.2 1-1.3 1-2 2.3-2.3 4.2l-.7 3.3c-.3 1.9 0 3.6.7 4.9 1 1.3 2 2 3.6 2.3 1.6.3 2.9 0 4.2-1 1.3-1 2-2.3 2.3-4.2l.7-3.3c.3-1.9 0-3.6-.7-4.9-.6-1.3-1.9-2-3.6-2.3zm-11.7-5.2l-4.6 21.5-4.6-1 .7-3.6h-.3c-.3.6-.7 1-1.3 1.3-.3.3-1 .6-1.6 1-.7.3-1.3.3-2 .6H193c-2.3-.3-3.6-1.6-4.9-3.3-1-1.6-1.3-3.9-.7-6.5l2.9-13.7 4.6 1-2.9 13c-.7 3.3.3 5.5 3.3 6.2.7 0 1.3.3 1.6 0 .7 0 1 0 1.6-.3.7-.3 1-.6 1.3-1 .3-.3.7-1 .7-1.6l2.9-14.6 5.6 1zm-37.7-5.2c1.3-1 2.3-1.9 3.6-2.3 1.3-.3 2.6-.3 4.2 0 2.6.7 4.2 2.3 5.2 4.2 1 2.3 1 5.2 0 8.8-1 3.6-2.6 6.2-4.6 7.8-2 1.3-4.2 2-6.5 1.3-1.6-.3-2.6-1-3.6-2.3-1-1-1.3-2.3-1.6-3.6h-.3l-3.6 12.7-4.6-1.3 8.1-30.2 4.6 1.3-.9 3.6zm4.8 1c-.7-.3-1.3-.3-2-.3s-1.3 0-1.6.3c-.7.3-1 .6-1.3 1s-.7 1-1 1.6l-2 7.2c-.3.6-.3 1.3 0 2 0 .6.3 1 .7 1.6.3.3.7 1 1.3 1.3.7.3 1 .6 1.6.6 1.6.3 3.3.3 4.2-.6 1.3-.6 2-2 2.6-3.9l1-3.6c.3-1.6.3-3.3-.3-4.5-.2-1.4-1.5-2.4-3.2-2.7zm-22.4-10.7c1.6.7 2.9 1.3 3.9 2.3 1 1 2 1.9 2.3 3.3.7 1.3.7 2.6.7 3.9 0 1.6-.3 2.9-1 4.6s-1.3 2.9-2.3 4.2c-1 1.3-2 2-3.3 2.9-1.3.7-2.3 1-3.9 1.3-1.3 0-2.9 0-4.2-.6-1.3-.3-2.6-1.3-3.6-2-1-1-1.6-2-2.3-3.3s-.7-2.6-.7-3.9c0-1.3.3-2.9.7-4.6l.7-1.6 14.7 4.9.3-.7c.7-1.6.7-3.3-.3-4.5-.7-1.3-2-2.3-3.6-2.9-1.3-.3-2.6-.7-3.6-.3-1 .3-2.3.6-2.9 1.6l-2-3.3c1-1 2.6-1.6 4.2-2 1.9-.3 3.9-.3 6.2.7zm-5.9 18.5c.7.3 1.6.3 2.3.3s1.3-.3 2-.6 1.3-.6 1.6-1.3c.7-.7 1-1.3 1.3-2v-.3l-10.4-3.6v.3c-.7 1.6-.7 3.3 0 4.2.6 1.4 1.6 2.3 3.2 3zm-9.1-19.2l-5.2-2.3-5.5 13.3 5.2 2.3-1.3 3.6-9.4-3.9 2.3-5.5h-.3c-.3.6-1 1.3-1.6 1.6-.7.6-1.3 1-2 1.3-.7.3-1.6.3-2.3.3-1 0-2-.3-2.9-.6l-2.3-1 1.6-4.2 3.9 1.6c1.6.7 2.9.7 4.2.3 1.3-.6 2.3-1.6 2.9-3.3l3.3-7.5-7.2-2.9 1.3-3.6 16.9 6.8-1.6 3.7zm-37.1 3.6l-3.6-1.9 7.2-17.2-.3-.3L93.2 304l-3.9-2.3 6.2-17.6-.3-.3-10.7 15-3.3-2 13.3-17.9 4.9 2.6-5.5 16.3.3.3 10.7-13.3 4.9 2.6-8.2 21.4zM82 271.1c1.3 1 2.3 1.9 3.3 3.3.7 1.3 1.3 2.3 1.3 3.6.3 1.3 0 2.6-.3 4.2-.3 1.3-1 2.9-2 4.2-1 1.3-2 2.6-3.3 3.6-1.3 1-2.3 1.6-3.6 2-1.3.3-2.6.3-3.9 0s-2.6-1-3.9-1.6c-1.3-1-2.3-2-3.3-3.3-.7-1.3-1.3-2.3-1.3-3.6-.3-1.3 0-2.6.3-4.2.3-1.3 1-2.9 2-4.2 1-1.3 2-2.6 3.3-3.6 1.3-1 2.3-1.6 3.6-2 1.3-.3 2.6-.3 3.9 0 1.3.3 2.6.6 3.9 1.6zm-2.2 2.9c-1.3-1-2.9-1.3-4.2-1-1.3.3-2.6 1.3-3.9 2.9l-2 2.6c-1.3 1.6-1.6 3.3-1.3 4.6.3 1.3 1 2.6 2.6 3.6 1.3 1 2.9 1.3 4.2 1 1.3-.3 2.6-1.3 3.9-2.9l2-2.6c1.3-1.6 1.6-3.3 1.3-4.6-.4-1.3-1-2.6-2.6-3.6zm-8.5-9.8L57 280.8l-3.6-2.9 2.3-2.9c-.7.3-1 .6-1.6.6-.7.3-1.3.3-2 .3s-1.3-.3-2-.3c-.7-.3-1.3-.6-2-1.3-1.6-1.3-2.6-3.3-2.6-5.2 0-1.9.7-3.9 2.6-5.8l9.1-10.7 3.6 2.9-8.8 10.1c-2.3 2.6-2.3 4.9 0 6.8.3.3 1 .6 1.6 1s1 .3 1.6.3 1 0 1.6-.3c.7-.3 1-.6 1.3-1L68 261l3.3 3.2zm-29.6-23.4c1.6-.3 2.9-.3 4.2 0 1.3.3 2.3 1 3.6 2.3 1.6 2 2.3 4.2 2 6.5-.3 2.3-2 4.9-4.9 7.5-2.9 2.6-5.5 3.9-7.8 3.9-2.6 0-4.6-.6-6.2-2.6-1-1.3-1.6-2.6-2-3.9 0-1.3 0-2.6.7-3.9l-.3-.3-10.2 8.7-2.9-3.6 23.8-20.8 2.9 3.6-2.9 2.6zm3.6 3.6c-.3-.6-1-1-1.3-1.3-.7-.3-1-.6-1.6-.6h-1.6c-.7 0-1 .3-1.6 1l-5.5 4.5c-.7.3-1 1-1 1.6-.3.7-.3 1-.3 1.6 0 .7.3 1 .3 1.6.3.7.7 1 1 1.6 1.3 1.3 2.3 1.9 3.9 1.9 1.3 0 2.9-.6 4.2-1.6l2.6-2.3c1.3-1.3 2-2.6 2.3-3.9.2-1.5-.5-2.8-1.4-4.1zm-11.1-21.8c1 1.3 1.3 2.9 1.6 4.2.3 1.3 0 2.6-.3 3.9-.3 1.3-1 2.6-2 3.6s-2.3 2.3-3.6 2.9c-1.6 1-2.9 1.6-4.6 1.9-1.6.3-2.9.3-4.2 0-1.3-.3-2.6-.6-3.6-1.6-1-.6-2-1.9-2.9-3.3-.7-1.3-1.3-2.6-1.3-3.9-.3-1.3 0-2.6.3-3.9.3-1.3 1-2.3 2-3.6 1-1 2-1.9 3.6-2.9l1.6-1 8.1 13.3.7-.3c1.6-1 2.3-2 2.9-3.6.3-1.6 0-2.9-1-4.5-1.6-.7-2.3-1.3-3.6-2-1-.6-2.3-1-3.3-1l.7-3.9c1.6 0 2.9.3 4.6 1.3 1.7 1.2 3 2.5 4.3 4.4zM17.6 233c.3.6 1 1.3 1.6 1.6.7.3 1.3.6 2 1 .7 0 1.3.3 2.3 0 .7 0 1.6-.3 2.3-1h.2l-5.9-9.4-.3.3c-1.6 1-2.3 1.9-2.9 3.3-.3 1.6-.3 2.9.7 4.2zm6.2-20.1l-2-5.5L8.1 212l2 5.5-3.6 1.3-3.2-9.8 5.5-1.9v-.3H6.5c-.7 0-1.6-.3-2.3-.7-.7-.3-1.3-1-2-1.6-.7-.6-1-1.6-1.3-2.6l-1-2.6 4.2-1.3 1.3 4.2c.7 1.6 1.3 2.6 2.6 3.6 1.3.7 2.6.7 4.2.3l7.8-2.6-2.6-7.5 3.6-1.3 5.9 17.2-3.1 1z"/><ellipse id="motion_2_" cx="301" cy="175.3" rx="291.7" ry="164.5" fill="none" stroke="#000" stroke-miterlimit="10"/></svg>