<svg width="602" height="352" fill="none" xmlns="http://www.w3.org/2000/svg"><ellipse id="motion" class="st0" cx="301" cy="175.3" rx="291.7" ry="164.5"/><path d="M.977 146.587l1.302-3.575 17.907 4.551v-.325l-15.954-9.426 1.628-4.226 18.233 3.576v-.325l-16.605-8.451 1.303-3.575 19.534 10.726-1.627 5.2-16.93-3.575v.325l14.976 8.775-1.953 5.201-21.814-4.876z" fill="#000"><animateMotion dur="6s" repeatCount="indefinite" rotate="auto-reverse"/></path><path d="M36.465 124.161c-.977 1.3-1.953 2.275-2.93 3.25-.977.65-2.28 1.3-3.581 1.3-1.303.325-2.605 0-4.233-.325-1.302-.325-2.93-.975-4.233-1.95-1.628-.975-2.604-1.95-3.581-3.25-.977-1.301-1.628-2.276-1.954-3.576-.325-1.3-.325-2.6-.325-3.9.325-1.3.651-2.6 1.628-3.9.977-1.3 1.953-2.276 2.93-3.251.977-.65 2.28-1.3 3.581-1.3 1.303-.325 2.605 0 4.233.325 1.302.325 2.93.975 4.233 1.95 1.628.976 2.604 1.951 3.581 3.251.977 1.3 1.628 2.275 1.953 3.575.326 1.3.326 2.6.326 3.9-.326 1.3-.977 2.601-1.628 3.901zm-3.256-1.95c.977-1.301 1.303-2.601.977-4.226-.325-1.3-1.302-2.6-2.93-3.575l-2.93-1.95c-1.628-.975-3.256-1.625-4.559-1.3-1.302.325-2.604.975-3.58 2.6-.978 1.3-1.303 2.6-.978 4.225.326 1.3 1.303 2.6 2.93 3.575l2.93 1.951c1.629.975 3.257 1.625 4.559 1.3 1.628-.65 2.93-1.3 3.581-2.6zm9.117-7.801l-16.28-14.626 2.931-3.25 2.93 2.6c-.325-.65-.65-.975-.65-1.625s-.326-1.3-.326-1.95c0-.65.325-1.3.325-1.95.326-.65.651-1.3 1.303-1.95 1.302-1.626 3.255-2.276 5.209-2.276 1.953 0 3.907.975 5.86 2.6l10.419 9.426-2.93 3.25-10.093-9.1c-2.605-2.276-4.884-2.276-6.838-.325-.325.325-.65.975-.976 1.3-.326.65-.326.975-.326 1.625s0 .975.326 1.625c.325.65.65.975.976 1.3l11.07 10.076-2.93 3.25zm23.767-28.278c.325 1.626.325 2.926 0 4.226-.326 1.3-.977 2.275-2.28 3.25-1.953 1.625-3.906 2.275-6.51 1.625-2.28-.65-4.884-2.275-7.164-5.2-2.604-2.925-3.581-5.526-3.907-8.126 0-2.275.652-4.55 2.605-6.175 1.302-.975 2.28-1.626 3.581-1.626 1.303 0 2.605 0 3.907.65h.326l-8.465-10.075 3.581-2.925 20.186 24.052-3.581 2.925-2.28-2.6zm-3.582 3.25c.652-.324.977-.974 1.303-1.3.325-.65.651-.974.651-1.624v-1.626c0-.65-.326-.975-.977-1.625l-4.558-5.525c-.325-.65-.977-.975-1.302-.975-.651-.325-.977-.325-1.628-.325-.651 0-.977 0-1.628.325-.651.325-.977.65-1.628.975-1.302.975-1.953 2.275-1.953 3.9 0 1.3.65 2.925 1.628 4.226l2.279 2.6c1.302 1.3 2.279 2.275 3.907 2.275 1.302.325 2.604 0 3.907-1.3zM84 78.006c-1.302.975-2.605 1.625-4.233 1.625a7.948 7.948 0 01-3.906 0c-1.303-.325-2.605-.975-3.582-1.95-1.302-.975-2.279-1.95-3.256-3.575-.976-1.3-1.628-2.925-1.953-4.226-.326-1.3-.651-2.925-.326-4.225 0-1.3.651-2.6 1.303-3.575.65-.975 1.627-2.275 2.93-2.925 1.302-.976 2.604-1.3 3.907-1.626a7.95 7.95 0 013.907 0c1.302.325 2.279.975 3.581 1.625.977.976 2.28 1.95 2.93 3.25l.977 1.3-12.698 8.452.326.65c.977 1.3 2.28 2.275 3.581 2.6 1.628.325 2.93 0 4.559-.975 1.302-.65 1.953-1.625 2.279-2.6.325-.975.65-2.276.65-3.25l3.908.65c0 1.3-.326 2.925-.977 4.55A8.14 8.14 0 0184 78.006zM72.93 62.08c-.65.325-1.302.975-1.628 1.625-.325.65-.65 1.3-.65 1.95v2.275c.325.65.325 1.625.976 2.275l.326.326 8.79-5.851-.325-.325c-.977-1.3-2.28-2.275-3.582-2.6-1.302-.325-2.604-.325-3.907.325zm20.512 5.2l4.884-2.6-6.837-12.676-4.884 2.6-1.954-3.25 8.791-4.876 2.605 5.2h.325c-.325-.65-.325-1.624-.325-2.274 0-.65 0-1.625.325-2.276.326-.65.651-1.3 1.303-1.95.65-.65 1.302-1.3 2.279-1.625l2.279-1.3 1.953 3.9-3.581 1.95c-1.303.65-2.28 1.95-2.93 3.25-.326 1.301-.326 2.926.65 4.226l3.908 7.15 6.837-3.575 1.953 3.25-15.627 8.452-1.954-3.576zm19.861-30.877l3.581-1.3 8.791 16.25H126l-3.907-18.2L126 31.526l9.768 15.927h.325l-4.883-17.877 3.256-1.3L140 49.729l-5.209 1.95-9.116-14.626h-.326l3.907 16.901-5.209 1.95-10.744-19.501zm41.348 8.451c-1.628.65-2.93.65-4.232.65-1.303 0-2.605-.65-3.582-1.3-.976-.65-2.279-1.625-2.93-2.925-.977-1.3-1.628-2.6-2.279-4.226-.651-1.625-.977-3.25-.977-4.875s.326-2.925.652-3.9c.651-1.3 1.302-2.276 2.279-3.25.976-.976 2.279-1.626 3.907-1.951 1.627-.65 2.93-.65 4.232-.65s2.605.65 3.582 1.3c.976.65 2.279 1.625 2.93 2.925.977 1.3 1.628 2.6 2.279 4.226.651 1.625.977 3.25.977 4.875a12.09 12.09 0 01-.652 3.9c-.651 1.3-1.302 2.276-2.279 3.25l-3.907 1.95zm-1.302-3.575c1.628-.65 2.605-1.3 3.256-2.6.651-1.3.651-2.926 0-4.876l-.977-3.25c-.651-1.95-1.628-3.25-2.93-3.9-1.302-.65-2.605-.65-4.233-.326-1.628.65-2.604 1.3-3.256 2.6-.651 1.3-.651 2.926 0 4.876l.977 3.25c.651 1.95 1.628 3.25 2.93 3.9 1.303.65 2.605.976 4.233.325zm13.348-.974l-5.86-21.127 4.232-1.3.977 3.575h.326c0-.65.325-1.3.325-1.95.326-.65.326-1.3.977-1.625.326-.65.977-.975 1.302-1.3.652-.325 1.303-.65 2.28-.975 1.953-.65 3.906-.325 5.534.65 1.628.975 2.931 2.925 3.582 5.525l3.581 13.651-4.232 1.3-3.582-13c-.977-3.251-2.93-4.551-5.535-3.901-.651 0-.976.325-1.628.65-.651.325-.976.65-1.302.975-.325.325-.651.975-.651 1.3v1.625l3.907 14.302-4.233 1.625zm35.163-12.353c-.651 1.625-1.302 2.6-1.953 3.575-.977.975-1.954 1.625-3.581 1.95-2.605.65-4.559 0-6.512-1.625-1.954-1.625-3.256-4.225-3.907-7.8-.651-3.576-.651-6.5.326-8.776.976-2.275 2.93-3.575 5.209-4.225 1.628-.325 2.93-.325 3.907.325 1.302.65 2.279 1.3 3.256 2.6h.325L196.326.975 200.884 0l6.511 30.552-4.558.975-.977-3.575zm-4.558 1.3c.651 0 1.303-.325 1.628-.65.651-.325.977-.65 1.303-.975.325-.325.651-.975.651-1.3v-1.95l-1.628-7.15c0-.65-.326-1.301-.651-1.626-.326-.325-.652-.65-1.303-.975-.651-.325-.976-.325-1.628-.325h-1.953c-1.628.325-2.93 1.3-3.581 2.275-.652 1.3-.977 2.6-.326 4.55l.651 3.576c.326 1.625.977 2.925 2.279 3.9 1.302.65 2.93.975 4.558.65zm24.419-.65c-1.628.325-2.93.325-4.558 0-1.302-.325-2.604-.975-3.581-1.625-.977-.65-1.954-1.95-2.605-3.25s-1.302-2.926-1.302-4.55a12.274 12.274 0 010-4.876c.325-1.625.651-2.925 1.302-3.9.651-.976 1.628-1.95 2.605-2.926.977-.65 2.604-1.3 3.907-1.3 1.628-.325 2.93-.325 4.232 0 1.303.325 2.279.975 3.256 1.625.977.65 1.954 1.95 2.605 2.926.651 1.3.977 2.6 1.302 4.225l.326 1.625-14.977 2.275v.65c.326 1.625.977 2.925 2.279 3.9 1.302.976 2.605 1.3 4.558.976 1.303-.325 2.605-.65 3.256-1.3.977-.65 1.628-1.626 1.954-2.926l3.255 1.95c-.651 1.3-1.302 2.6-2.604 3.576-1.303 1.95-2.931 2.6-5.21 2.925zm-3.255-19.177c-.652 0-1.628.325-1.954.65-.651.325-.977.976-1.628 1.626l-.977 1.95c0 .65-.325 1.625 0 2.275v.325l10.419-1.625V14.3c-.326-1.625-.977-2.925-1.953-3.9-.977-.976-2.28-1.3-3.907-.976zm16.604 13.002l5.535-.65-1.628-14.302-5.535.65-.326-3.9 10.093-.975.651 5.85h.326c0-.65.326-1.625.651-2.275.326-.65.651-1.3 1.302-1.95.652-.65.977-.975 1.954-1.625.651-.325 1.628-.65 2.605-.65l2.604-.325.326 4.225-4.233.325c-1.628.325-2.93.975-3.907 1.95-.976.976-1.302 2.6-.976 4.226l.976 8.126 7.814-.976.326 3.9-17.907 1.951-.651-3.575zM347.396 2.275l3.906.325v18.526h.326l5.209-17.876 4.559.65 1.302 18.527h.325l4.233-18.202 3.907.325-5.535 21.452-5.535-.65-.977-17.227h-.325l-4.884 16.577-5.535-.65-.976-21.777zm33.534 26.653c-1.628-.325-2.93-.65-4.233-1.625a6.384 6.384 0 01-2.93-2.925c-.651-.975-1.302-2.276-1.302-3.9-.326-1.626-.326-2.926 0-4.876.325-1.625.651-3.25 1.628-4.55.651-1.3 1.628-2.276 2.604-3.25.977-.976 2.28-1.3 3.582-1.626 1.302-.325 2.93-.325 4.558 0 1.628.325 2.93.65 4.233 1.625a6.383 6.383 0 012.93 2.926c.651.975 1.302 2.275 1.302 3.9.326 1.625.326 2.925 0 4.875-.325 1.625-.651 3.25-1.628 4.55-.651 1.3-1.628 2.276-2.604 3.251-.977.975-2.28 1.3-3.582 1.625-1.628.325-2.93.325-4.558 0zm.326-3.575c1.628.325 3.255 0 4.232-.975 1.302-.975 1.954-2.276 2.279-4.226l.651-3.25c.326-1.95 0-3.575-.651-4.875-.977-1.3-1.953-1.95-3.907-2.275-1.628-.326-3.256 0-4.232.975-1.303.975-1.954 2.275-2.279 4.225l-.652 3.25c-.325 1.95 0 3.575.652 4.876.976 1.3 2.279 1.95 3.907 2.275zm12.047 5.2L397.861 9.1l4.558.975-.651 3.575h.325c.326-.65.652-.975 1.303-1.3.325-.325.976-.65 1.628-.975.651-.325 1.302-.325 1.953-.65.651 0 1.628 0 2.279.325 2.279.325 3.907 1.625 4.884 3.25.977 1.626 1.302 3.9.651 6.501l-2.93 13.651-4.558-.975 2.93-13c.651-3.251-.326-5.526-3.256-6.176-.651 0-1.302-.325-1.628 0-.651 0-.977 0-1.628.325-.651.325-.976.65-1.302.975-.326.325-.651.975-.651 1.625l-3.256 14.626-5.209-1.3zm38.092 5.525c-1.302.976-2.279 1.95-3.581 2.276-1.302.325-2.605.325-4.232 0-2.605-.65-4.233-2.275-5.21-4.55-.977-2.276-.977-5.201 0-8.776.977-3.576 2.605-6.176 4.558-7.801 1.954-1.3 4.233-1.95 6.838-1.3 1.627.325 2.604 1.3 3.581 2.275.977.975 1.302 2.275 1.628 3.575h.325l3.582-12.676 4.558 1.3-8.465 30.228-4.558-1.3.976-3.25zm-4.883-.975c.651.325 1.302.325 1.953.325s1.303 0 1.628-.325c.651-.325.977-.65 1.302-.975.326-.325.652-.975.977-1.625l1.954-7.15c.325-.65.325-1.3 0-1.95-.326-.65-.326-.976-.651-1.626-.326-.325-.652-.975-1.303-1.3-.651-.325-.977-.65-1.628-.65-1.628-.325-3.256-.325-4.232.325-.977.65-1.954 1.95-2.605 3.9l-.977 3.576c-.325 1.625-.325 3.25.326 4.55.326 1.625 1.628 2.6 3.256 2.925zm22.79 11.051c-1.628-.65-2.93-1.3-3.907-2.275-.977-.975-1.953-1.95-2.279-3.25-.651-1.3-.651-2.6-.651-4.226 0-1.625.325-2.925.977-4.55.651-1.625 1.302-2.925 2.279-4.226.976-1.3 1.953-1.95 3.255-2.6 1.303-.65 2.605-.975 3.907-.975 1.303 0 2.931 0 4.233.65 1.302.65 2.605 1.3 3.581 1.95.977.976 1.628 1.95 2.279 3.25.652 1.3.652 2.6.652 3.901 0 1.3-.326 2.925-.652 4.55l-.651 1.625-14.976-5.2-.326.65c-.651 1.625-.651 3.25.326 4.55.651 1.3 1.953 2.276 3.581 2.926 1.302.325 2.605.65 3.581.325 1.303-.325 2.279-.65 3.256-1.625l1.954 3.25c-.977.975-2.605 1.625-4.233 1.95-2.279.325-4.232 0-6.186-.65zm5.861-18.527c-.652-.325-1.628-.325-2.28-.325-.651 0-1.302.326-1.953.65-.651.326-1.302.65-1.628 1.3-.651.65-.977 1.3-1.302 1.95v.326l10.418 3.575v-.325c.652-1.625.652-3.25 0-4.55-.651-1.3-1.628-2.276-3.255-2.6zm9.116 19.178l5.21 2.275 5.534-13.326-5.209-2.275 1.628-3.575 9.768 3.9-2.28 5.2h.326c.326-.65.977-1.3 1.628-1.625.651-.65 1.302-.975 1.953-1.3.652-.325 1.628-.325 2.279-.325.977 0 1.954.325 2.931.65l2.279.975-1.628 4.226-3.907-1.625c-1.628-.65-2.93-.65-4.558-.326-1.628.325-2.279 1.625-2.93 3.25l-3.256 7.476 7.163 2.926-1.628 3.575-16.931-7.15 1.628-2.926zm37.442-3.251l3.581 1.95-7.163 17.227.326.325 12.046-14.301 3.907 2.275-6.186 17.552.326.325 11.07-14.952 3.256 1.95-13.349 17.552-4.884-2.925 5.86-16.252-.325-.325-11.07 13.326-4.884-2.925 7.489-20.801zm19.535 38.029a15.387 15.387 0 01-3.256-3.25c-.651-1.3-1.303-2.275-1.303-3.9-.325-1.3 0-2.6.326-4.226.326-1.3.977-2.925 2.279-4.225.977-1.3 1.954-2.6 3.256-3.575 1.302-.976 2.604-1.626 3.907-1.626a7.948 7.948 0 013.907 0c1.302.325 2.604.975 3.907 1.95a15.437 15.437 0 013.256 3.25c.976 1.3 1.302 2.276 1.302 3.901 0 1.3 0 2.6-.326 4.225-.325 1.3-.976 2.926-2.279 4.226-.976 1.3-1.953 2.6-3.256 3.575-1.302.975-2.604 1.625-3.907 1.625-1.302 0-2.604.325-3.907 0-1.302-.325-2.604-.975-3.906-1.95zm2.279-2.925c1.302.975 2.93 1.3 4.232.975 1.302-.325 2.605-1.3 3.907-2.925l1.954-2.6c1.302-1.626 1.628-3.25 1.302-4.55-.326-1.301-.977-2.601-2.279-3.576-1.302-.975-2.93-1.3-4.233-.975-1.302.325-2.604 1.3-3.907 2.925l-1.953 2.6c-1.302 1.625-1.628 3.25-1.302 4.55 0 1.3.651 2.6 2.279 3.576zM532 88.732l14.651-16.577 3.582 2.926-2.605 2.925c.651-.325.977-.65 1.628-.65.651 0 1.302-.325 1.953-.325s1.303.325 1.954.65 1.302.65 1.953 1.3c1.628 1.3 2.605 3.25 2.605 5.2 0 1.95-.651 3.9-2.605 5.85l-9.442 10.727-3.581-2.925 8.791-10.076c2.279-2.6 2.279-4.876 0-6.826-.326-.325-.977-.65-1.303-.975-.651-.325-.976-.325-1.627-.325-.652 0-.977 0-1.628.325-.652.325-.977.65-1.303.975l-9.767 11.051-3.256-3.25zm29.628 24.053c-1.628.325-2.93.325-4.233-.325-1.302-.325-2.279-.975-3.581-2.275-1.628-1.95-2.279-4.225-1.628-6.5.326-2.276 2.279-4.876 5.209-7.15 2.931-2.601 5.535-3.576 8.14-3.901 2.604 0 4.558.975 6.186 2.925.977 1.3 1.628 2.6 1.628 3.9 0 1.3 0 2.601-.651 3.901l.325.325 10.093-8.451 2.93 3.575-24.093 20.152-2.93-3.575 2.605-2.601zm-3.582-3.575c.326.65.977.975 1.303 1.3.651.325.977.65 1.628.65h1.628c.651 0 .976-.325 1.628-.975l5.534-4.55c.652-.325.977-.975.977-1.3.326-.65.326-.975.326-1.625s-.326-.975-.326-1.626c-.325-.65-.651-.975-.977-1.625-.976-1.3-2.279-1.95-3.907-1.95-1.302 0-2.93.65-4.232 1.625l-2.605 2.275c-1.302 1.301-2.279 2.276-2.279 3.901-.325 1.3 0 2.6 1.302 3.9zm10.745 22.101c-.977-1.3-1.302-2.925-1.628-4.226-.325-1.3 0-2.925.326-3.9.325-1.3.976-2.6 1.953-3.575.977-.975 2.279-1.95 3.907-2.925 1.628-.976 2.93-1.301 4.558-1.626 1.628-.325 2.931-.325 4.233 0 1.302.325 2.605.976 3.581 1.626.977.975 1.954 1.95 2.931 3.25.651 1.3 1.302 2.6 1.302 3.9 0 1.3 0 2.6-.326 3.901-.325 1.3-.976 2.275-1.953 3.575-.977.975-1.954 1.95-3.582 2.925l-1.628.975-7.813-13.651-.652.325c-1.628.975-2.604 1.95-2.93 3.575-.325 1.625 0 2.926.651 4.551.652 1.3 1.628 2.275 2.605 2.6.977.325 2.279.975 3.256.975l-.651 3.9c-1.628 0-2.931-.325-4.559-1.3-1.302-1.625-2.604-2.925-3.581-4.875zm16.605-9.751c-.326-.65-.977-1.3-1.628-1.625l-1.954-.975c-.651-.325-1.302-.325-2.279 0-.651 0-1.628.325-2.279.65h-.325l5.534 9.426.326-.325c1.628-.975 2.605-1.951 2.93-3.251.651-1.3.651-2.6-.325-3.9zm-6.512 19.828l1.628 5.525 13.674-3.9-1.627-5.525 3.581-.976 2.93 10.076-5.535 1.625v.325c.651 0 1.628 0 2.279.325.652 0 1.628.326 2.279.976.652.325 1.303.975 1.954 1.625s.977 1.625 1.302 2.6l.651 2.6-4.232 1.3-1.302-4.225c-.326-1.625-1.303-2.925-2.605-3.575-1.302-.65-2.605-.975-4.233-.325l-7.814 2.275 2.279 7.475-3.581.975-5.209-17.551 3.581-1.625zm22.791 56.553l-1.303 3.901-18.232-3.576v.326l16.604 8.775-1.302 4.226-18.558-2.601v.325l16.93 7.801-1.302 3.575-19.861-9.75 1.628-5.201 16.93 2.275v-.325l-15.302-8.125 1.628-5.526 22.14 3.9zm-34.512 25.352c.977-1.3 1.954-2.6 2.93-3.25.977-.975 2.279-1.3 3.582-1.625 1.302-.325 2.604-.325 4.232 0 1.303.325 2.931.975 4.558 1.95 1.628.975 2.605 1.95 3.582 2.925.977.975 1.628 2.275 1.953 3.575.326 1.301.652 2.601.326 3.901-.326 1.3-.651 2.925-1.628 4.225-.977 1.3-1.953 2.6-2.93 3.25-.977.975-2.279 1.3-3.582 1.626-1.302.325-2.604.325-4.232 0-1.302-.326-2.93-.976-4.558-1.951-1.628-.975-2.605-1.95-3.582-2.925-.976-.975-1.628-2.275-1.953-3.575-.326-1.3-.651-2.6-.326-3.901.326-1.625.651-2.925 1.628-4.225zm3.256 1.95c-.977 1.3-.977 2.926-.651 4.226.325 1.3 1.302 2.6 3.256 3.575l2.93 1.625c1.628.975 3.256 1.3 4.884.975 1.302-.325 2.604-1.3 3.255-2.6.977-1.3.977-2.925.652-4.225-.326-1.301-1.303-2.601-3.256-3.576l-2.93-1.625c-1.628-.975-3.256-1.3-4.884-.975-1.303 0-2.605.975-3.256 2.6zm-9.117 8.451l16.605 14.301-2.931 3.575-2.93-2.275c.326.65.651.975.651 1.625.326.65.326 1.3.326 1.951 0 .65-.326 1.3-.326 1.95-.325.65-.651 1.3-1.302 1.95-1.302 1.625-3.256 2.6-5.209 2.6-1.954 0-3.907-.65-5.861-2.275l-10.744-9.101 2.93-3.575 10.093 8.776c2.605 2.275 4.884 2.275 6.837 0 .326-.325.652-.976.977-1.626.326-.65.326-.975.326-1.625s0-.975-.326-1.625c-.325-.65-.651-.975-.977-1.3l-11.395-9.751 3.256-3.575zm-23.767 29.579c-.326-1.625-.326-2.925 0-4.225.325-1.3.976-2.601 2.279-3.576 1.953-1.625 4.232-2.275 6.511-1.95 2.279.325 4.884 1.95 7.489 4.876 2.604 2.925 3.907 5.525 3.907 7.8 0 2.6-.651 4.551-2.605 6.176-1.302.975-2.605 1.625-3.907 1.95-1.302 0-2.605 0-3.907-.65l-.325.325 8.79 10.076-3.581 2.925-20.837-23.727 3.581-2.925 2.605 2.925zm3.581-3.575c-.651.325-.977.975-1.302 1.3-.326.65-.651.975-.651 1.625v1.625c0 .65.325.975.976 1.625l4.884 5.526c.326.65.977.975 1.302.975.652.325.977.325 1.628.325.651 0 .977-.325 1.628-.325.651-.325.977-.65 1.628-.975 1.302-1.3 1.954-2.601 1.954-3.901 0-1.3-.652-2.925-1.628-4.225l-2.279-2.6c-1.303-1.3-2.605-1.95-3.907-2.275-1.628-.65-2.931 0-4.233 1.3zm-21.813 11.7c1.302-.976 2.93-1.626 4.232-1.951a7.95 7.95 0 013.907 0c1.303.325 2.605.975 3.907 1.625 1.303.651 2.279 1.951 3.256 3.576.977 1.3 1.628 2.925 1.954 4.225.325 1.3.651 2.925.325 4.225-.326 1.301-.651 2.601-1.302 3.901a6.383 6.383 0 01-2.93 2.925c-1.303.975-2.605 1.3-3.907 1.625a7.95 7.95 0 01-3.907 0c-1.303-.325-2.605-.975-3.582-1.625-.977-.975-2.279-1.95-2.93-3.25l-.977-1.3 13.023-8.776-.325-.65c-.977-1.3-2.279-2.275-3.582-2.6-1.627-.325-2.93 0-4.558 1.3-1.302.65-1.953 1.625-2.604 2.925-.651.975-.651 2.275-.651 3.25l-4.233-.325c0-1.625.326-2.925.977-4.55s1.953-3.25 3.907-4.55zm11.069 15.926c.652-.325 1.303-.975 1.628-1.625.326-.65.652-1.3.652-1.95v-2.276c-.326-.65-.652-1.625-.977-2.275l-.326-.325-9.116 6.176.325.325c.977 1.3 2.28 2.275 3.582 2.6 1.628.65 2.93.325 4.232-.65zm-20.837-4.226l-5.209 2.925 6.837 12.677 5.21-2.926 1.953 3.251-9.116 4.875-2.931-5.2h-.325c.325.65.325 1.625.325 2.275 0 .65 0 1.625-.325 2.275-.326.65-.651 1.3-1.302 2.275-.652.65-1.303 1.3-2.279 1.95l-2.28 1.3-2.279-3.9 3.907-1.95c1.628-.975 2.605-1.95 2.931-3.25.325-1.3.325-2.926-.652-4.226l-3.907-7.15-6.837 3.9-1.953-3.25 16.279-8.776 1.953 2.925zm-20.512 30.879l-3.581 1.625-9.116-16.251H476l3.907 18.201-4.232 1.625-10.093-15.926h-.326l4.884 17.877-3.582 1.3-5.535-21.452 5.21-2.275 9.116 14.626h.326l-3.582-16.901 5.21-2.276 11.72 19.827zm-42.325-7.476c1.627-.65 2.93-.65 4.232-.65s2.605.325 3.907 1.3c1.302.65 2.279 1.625 3.256 2.925.977 1.301 1.628 2.601 2.279 4.226s.977 3.25.977 4.875-.326 2.926-.651 4.226c-.652 1.3-1.303 2.275-2.28 3.25-.976.975-2.279 1.625-3.906 2.275-1.628.65-2.931.65-4.233.65-1.302 0-2.605-.325-3.907-1.3-1.302-.975-2.279-1.625-3.256-2.925-.977-1.3-1.628-2.6-2.279-4.226-.651-1.625-.977-3.25-.977-4.875s.326-2.925.652-4.225c.651-1.3 1.302-2.276 2.279-3.251.976-1.3 2.279-1.95 3.907-2.275zm1.302 3.25c-1.628.651-2.605 1.301-3.256 2.601-.651 1.3-.651 2.925 0 4.875l.977 3.25c.651 1.951 1.628 3.251 2.93 3.901 1.302.65 2.605.65 4.233.325 1.628-.65 2.604-1.3 3.255-2.6.652-1.301.652-2.926 0-4.876l-.976-3.25c-.651-1.95-1.628-3.25-2.931-3.901-1.302-.65-2.604-.65-4.232-.325zm-13.675 1.301l5.861 21.126-4.558 1.3-.977-3.575h-.326c0 .65-.325 1.3-.325 1.95-.326.65-.651 1.3-.977 1.625-.326.65-.977.975-1.628 1.301-.651.325-1.302.65-2.279.975-2.279.65-3.907.325-5.86-.65-1.628-.976-2.931-2.926-3.582-5.526l-3.581-13.651 4.558-1.3 3.581 13.001c.977 3.25 2.931 4.55 5.861 3.9.651 0 .977-.325 1.628-.65.651-.325.976-.65 1.302-.975.326-.325.651-.975.651-1.3v-1.625l-3.907-14.301 4.558-1.625zm-36.465 12.675c.652-1.625 1.303-2.6 2.28-3.575.976-.975 2.279-1.625 3.581-1.95 2.605-.65 4.884 0 6.512 1.625 1.953 1.625 3.255 4.225 3.907 7.801.651 3.575.651 6.5-.326 8.775-.977 2.276-2.93 3.576-5.535 4.226-1.628.325-2.93.325-4.232-.325-1.303-.65-2.28-1.3-3.256-2.6h-.326l2.605 13.001-4.558.975L392 320.802l4.558-.975 1.302 3.9zm4.884-1.625c-.651 0-1.302.325-1.953.65s-.977.65-1.303.975c-.325.325-.651.975-.651 1.3 0 .651-.325 1.301 0 1.951l1.628 7.15c0 .65.326 1.3.651 1.625.326.325.651.65 1.303.975.651.325.976.325 1.628.325H406c1.628-.325 2.93-1.3 3.581-2.275.652-1.3.977-2.6.652-4.55l-.652-3.575c-.325-1.626-.976-2.926-2.279-3.901-1.628-.65-2.93-.975-4.558-.65zm-25.395.651c1.628-.325 3.256-.325 4.558 0 1.303.325 2.605.975 3.582 1.625.977.975 1.953 1.95 2.604 3.251.652 1.3 1.303 2.925 1.303 4.55a12.31 12.31 0 010 4.875c-.326 1.626-.651 2.926-1.628 3.901-.651.975-1.628 1.95-2.93 2.925-1.303.65-2.605 1.3-4.233 1.3-1.628.325-2.93.325-4.232 0-1.303-.325-2.605-.975-3.582-1.625-.977-.975-1.953-1.95-2.605-2.925-.651-1.3-.976-2.601-1.302-4.226l-.325-1.625 15.628-2.275v-.65c-.326-1.625-.977-2.925-2.28-3.9-1.302-.975-2.93-1.3-4.558-.975-1.302.325-2.604.65-3.581 1.3-.977.65-1.628 1.625-1.954 2.925l-3.255-1.95c.651-1.3 1.628-2.6 2.93-3.576 1.953-1.625 3.581-2.275 5.86-2.925zm3.256 19.177c.651 0 1.628-.325 2.279-.65s1.302-.975 1.628-1.625l.977-1.951c.325-.65.325-1.625 0-2.275v-.325l-10.744 1.625v.325c.325 1.626.976 2.926 1.953 3.901.977.975 2.279 1.3 3.907.975zm-16.931-12.677l-5.86.65 1.628 14.301 5.86-.65.326 3.9-10.419.975-.651-5.85h-.326c0 .65-.325 1.625-.651 2.275-.325.65-.651 1.3-1.302 1.95-.651.65-1.303.975-1.954 1.625-.651.325-1.628.65-2.93.65l-2.605.325-.325-4.55 4.232-.325c1.628-.325 2.931-.975 3.907-1.95.977-.975 1.303-2.6 1.303-4.226l-.977-8.125-7.814.975-.326-3.901 18.233-1.95.651 3.901zM254.605 349.08l-3.907-.325v-18.526h-.326l-5.209 17.876-4.558-.65-1.302-18.527h-.326l-4.233 18.202-3.581-.325 5.535-21.452 5.535.65.977 17.227h.325l4.884-16.577 5.535.325.651 22.102zm-33.21-26.652c1.628.325 2.93.65 4.233 1.625a6.38 6.38 0 012.93 2.926c.651.975 1.302 2.275 1.302 3.9.326 1.625.326 2.925 0 4.875-.325 1.625-.651 3.251-1.628 4.551-.651 1.3-1.628 2.275-2.604 3.25-.977.975-2.279 1.3-3.582 1.625-1.302.325-2.93.325-4.232 0-1.628-.325-2.93-.65-4.233-1.625a6.383 6.383 0 01-2.93-2.925c-.651-.975-1.302-2.276-1.302-3.901-.326-1.625-.326-2.925 0-4.875.325-1.625.651-3.25 1.628-4.55.651-1.301 1.627-2.276 2.604-3.251.977-.975 2.279-1.3 3.582-1.625 1.302-.325 2.604-.325 4.232 0zm-.651 3.575c-1.628-.325-2.93 0-4.233.976-1.302.975-1.953 2.275-2.279 4.225l-.651 3.25c-.325 1.95 0 3.575.651 4.876.977 1.3 1.954 1.95 3.582 2.275 1.628.325 2.93 0 4.232-.975 1.303-.975 1.954-2.276 2.279-4.226l.652-3.25c.325-1.95 0-3.575-.652-4.875-.651-1.3-1.953-1.951-3.581-2.276zm-11.721-5.201l-4.558 21.452-4.558-.975.651-3.575h-.325c-.326.65-.651.975-1.303 1.3-.325.325-.976.65-1.627.975-.652.325-1.303.325-1.954.65h-2.279c-2.279-.325-3.581-1.625-4.884-3.25-.977-1.626-1.302-3.901-.651-6.501l2.93-13.651 4.558.975-2.93 13.001c-.651 3.25.326 5.525 3.256 6.176.651 0 1.302.325 1.628 0 .651 0 .977 0 1.628-.326.651-.325.977-.65 1.302-.975.326-.325.651-.975.651-1.625l2.931-14.626 5.534.975zm-37.767-5.2c1.302-.975 2.279-1.95 3.581-2.276 1.303-.325 2.605-.325 4.233 0 2.605.651 4.233 2.276 5.209 4.226.977 2.275.977 5.2 0 8.776-.976 3.575-2.604 6.175-4.558 7.8-1.953 1.3-4.232 1.95-6.511 1.3-1.628-.325-2.605-.975-3.582-2.275-.977-.975-1.302-2.275-1.628-3.575h-.325l-3.582 12.676-4.558-1.3 8.14-30.228 4.558 1.3-.977 3.576zm4.884.975c-.651-.325-1.303-.325-1.954-.325s-1.302 0-1.628.325c-.651.325-.976.65-1.302.975-.326.325-.651.975-.977 1.625l-1.953 7.151c-.326.65-.326 1.3 0 1.95 0 .65.325.975.651 1.625.326.325.651.975 1.302 1.3.651.325.977.65 1.628.65 1.628.325 3.256.325 4.233-.65 1.302-.65 1.953-1.95 2.604-3.9l.977-3.576c.326-1.625.326-3.25-.325-4.55-.326-1.3-1.628-2.275-3.256-2.6zm-22.466-10.727c1.628.651 2.93 1.301 3.907 2.276.977.975 1.954 1.95 2.279 3.25.651 1.3.651 2.6.651 3.9 0 1.625-.325 2.926-.976 4.551s-1.303 2.925-2.279 4.225c-.977 1.3-1.954 1.95-3.256 2.925-1.303.65-2.279.975-3.907 1.3-1.303 0-2.93 0-4.233-.65-1.302-.325-2.604-1.3-3.581-1.95-.977-.975-1.628-1.95-2.279-3.25s-.651-2.6-.651-3.9c0-1.301.325-2.926.651-4.551l.651-1.625 14.651 4.875.326-.65c.651-1.625.651-3.25-.326-4.55-.651-1.3-1.953-2.275-3.581-2.925-1.303-.325-2.605-.65-3.582-.325-.976.325-2.279.65-2.93 1.625l-1.953-3.25c.976-.975 2.604-1.626 4.232-1.951 1.954-.325 3.907-.325 6.186.65zm-5.86 18.527c.651.325 1.628.325 2.279.325s1.302-.325 1.953-.65 1.303-.65 1.628-1.3c.651-.65.977-1.3 1.303-1.95v-.325l-10.419-3.576v.325c-.651 1.626-.651 3.251 0 4.226.651 1.3 1.628 2.275 3.256 2.925zm-9.116-19.177l-5.209-2.275-5.535 13.326 5.209 2.275-1.302 3.576-9.442-3.901 2.279-5.525h-.325c-.326.65-.977 1.3-1.628 1.625-.652.65-1.303.975-1.954 1.3-.651.325-1.628.325-2.279.325-.977 0-1.953-.325-2.93-.65l-2.279-.975 1.628-4.225 3.907 1.625c1.628.65 2.93.65 4.232.325 1.302-.65 2.279-1.625 2.93-3.251l3.256-7.475-7.163-2.925 1.303-3.576 16.93 6.826-1.628 3.575zm-37.117 3.575L98 306.825l7.162-17.226-.325-.325L93.116 303.9l-3.907-2.275 6.186-17.552-.326-.325L84.325 298.7l-3.256-1.951 13.35-17.876 4.883 2.6-5.535 16.251.326.325 10.744-13.326 4.884 2.601-8.14 21.451zm-19.535-37.701a15.42 15.42 0 013.256 3.25c.651 1.3 1.303 2.275 1.303 3.575.325 1.3 0 2.6-.326 4.226-.325 1.3-.977 2.925-1.953 4.225-.977 1.3-1.954 2.6-3.256 3.575-1.302.975-2.28 1.625-3.582 1.95a7.95 7.95 0 01-3.907 0c-1.302-.325-2.604-.975-3.907-1.625A15.422 15.422 0 0166.42 287c-.651-1.3-1.303-2.275-1.303-3.575-.325-1.3 0-2.601.326-4.226.326-1.3.977-2.925 1.953-4.225.977-1.3 1.954-2.6 3.256-3.575 1.303-.975 2.28-1.625 3.582-1.951a7.95 7.95 0 013.907 0c1.302.326 2.604.651 3.906 1.626zm-2.279 2.925c-1.302-.975-2.93-1.3-4.232-.975-1.302.325-2.605 1.3-3.907 2.925l-1.954 2.6c-1.302 1.625-1.628 3.251-1.302 4.551.326 1.3.977 2.6 2.605 3.575 1.302.975 2.93 1.3 4.232.975 1.303-.325 2.605-1.3 3.907-2.925l1.954-2.6c1.302-1.626 1.628-3.251 1.302-4.551-.326-1.3-.977-2.6-2.605-3.575zm-8.465-9.751l-14.326 16.576-3.581-2.925 2.28-2.925c-.652.325-.978.65-1.629.65-.651.325-1.302.325-1.953.325-.652 0-1.303-.325-1.954-.325-.651-.325-1.302-.65-1.953-1.3-1.628-1.3-2.605-3.251-2.605-5.201 0-1.95.651-3.9 2.605-5.85l9.116-10.726 3.581 2.925-8.79 10.076c-2.28 2.6-2.28 4.875 0 6.826.325.325.976.65 1.628.975.65.325.976.325 1.628.325.65 0 .976 0 1.627-.325.652-.325.977-.65 1.303-.975l9.767-11.376 3.256 3.25zm-29.627-23.402c1.628-.325 2.93-.325 4.232 0 1.303.325 2.28.975 3.582 2.276 1.628 1.95 2.279 4.225 1.953 6.5-.325 2.275-1.953 4.876-4.884 7.476-2.93 2.6-5.535 3.9-7.814 3.9-2.604 0-4.558-.65-6.186-2.6-.976-1.3-1.628-2.6-1.953-3.9 0-1.301 0-2.601.651-3.901l-.326-.325-10.093 8.776-2.93-3.575 23.768-20.802 2.93 3.575-2.93 2.6zm3.581 3.576c-.325-.65-.977-.975-1.302-1.3-.651-.325-.977-.65-1.628-.65h-1.628c-.651 0-.977.325-1.628.975l-5.535 4.55c-.651.325-.977.975-.977 1.625-.325.65-.325.975-.325 1.625s.325.975.325 1.625c.326.65.652.975.977 1.626 1.303 1.3 2.28 1.95 3.907 1.95 1.302 0 2.93-.65 4.233-1.625l2.604-2.276c1.303-1.3 1.954-2.6 2.28-3.9.325-1.625-.326-2.925-1.303-4.225zm-11.07-21.777c.977 1.3 1.302 2.925 1.628 4.225.325 1.3 0 2.6-.326 3.9-.325 1.3-.977 2.601-1.953 3.576-.977.975-2.28 2.275-3.582 2.925-1.627.975-2.93 1.625-4.558 1.95-1.628.325-2.93.325-4.232 0-1.303-.325-2.605-.65-3.582-1.625-.976-.65-1.953-1.95-2.93-3.25-.651-1.3-1.302-2.601-1.302-3.901-.326-1.3 0-2.6.325-3.9.326-1.3.977-2.275 1.954-3.575.977-.975 1.953-1.95 3.581-2.926l1.628-.975 8.14 13.326.65-.325c1.629-.975 2.28-1.95 2.931-3.575.326-1.625 0-2.925-.977-4.55-1.628-.65-2.279-1.3-3.581-1.95-.977-.65-2.28-.975-3.256-.975l.651-3.901c1.628 0 2.93.325 4.558 1.3 1.628.975 2.93 2.276 4.233 4.226zM17.58 233.046c.326.65.977 1.3 1.628 1.625l1.954.975c.65 0 1.302.325 2.279 0 .65 0 1.628-.325 2.279-.975h.325l-5.86-9.426-.326.325c-1.628.975-2.279 1.95-2.93 3.25-.325 1.625-.325 2.925.651 4.226zm6.187-20.152l-1.953-5.526-13.674 4.551 1.953 5.525-3.581 1.3-3.256-9.751 5.535-1.95v-.325H6.51c-.65 0-1.627-.325-2.278-.65-.652-.325-1.303-.975-1.954-1.625s-.977-1.625-1.302-2.6L0 199.242l4.233-1.3 1.302 4.226c.651 1.625 1.302 2.6 2.605 3.575 1.302.65 2.604.65 4.232.325l7.814-2.6-2.605-7.476 3.582-1.3 5.86 17.227-3.256.975z" fill="#000"/></svg>