<svg width="18" height="18" fill="none" xmlns="http://www.w3.org/2000/svg"><path d="M9 0C4.038 0 0 4.037 0 9c0 1.55.4 3.073 1.16 4.418L.014 17.503a.39.39 0 00.47.486l4.264-1.056A9.005 9.005 0 009 18c4.963 0 9-4.037 9-9s-4.037-9-9-9zm4.527 12.176c-.192.533-1.116 1.02-1.56 1.085a3.223 3.223 0 01-1.455-.09 13.524 13.524 0 01-1.317-.482c-2.318-.988-3.831-3.293-3.947-3.445-.116-.152-.944-1.237-.944-2.36 0-1.122.597-1.674.81-1.903a.854.854 0 01.616-.285c.154 0 .307.002.442.008.143.007.333-.054.52.392.193.457.655 1.58.712 1.694.058.114.097.248.02.4-.077.152-.115.247-.231.38-.116.134-.243.298-.347.4-.116.114-.236.238-.101.466.135.229.598.976 1.285 1.58.883.778 1.627 1.019 1.858 1.133.231.114.366.095.5-.057.135-.153.578-.667.732-.895.154-.228.308-.19.52-.114.212.076 1.348.628 1.58.742.23.114.384.171.442.267.058.094.058.551-.135 1.084z" fill="#000"/></svg>