<svg width="65" height="65" fill="none" xmlns="http://www.w3.org/2000/svg"><path d="M4.56 20.193c.26-4.02 3.492-7.17 7.515-7.369 5.825-.288 14.151-.636 20.425-.636 6.274 0 14.6.348 20.425.636 4.023.2 7.255 3.35 7.516 7.369.25 3.85.496 8.59.496 12.307 0 3.718-.246 8.456-.496 12.307-.261 4.02-3.493 7.17-7.516 7.369-5.825.288-14.151.636-20.425.636-6.274 0-14.6-.348-20.425-.636-4.023-.2-7.255-3.35-7.516-7.369-.25-3.85-.497-8.59-.497-12.307 0-3.718.247-8.456.497-12.307z" fill="#000"/><path d="M26.406 24.375v16.25l16.25-8.125-16.25-8.125z" fill="#fff"/></svg>