<svg width="64" height="16" viewBox="0 0 64 16" fill="none" xmlns="http://www.w3.org/2000/svg">
<line x1="8.74228e-08" y1="8" x2="60" y2="8.00001" stroke="black" stroke-width="2"/>
<path d="M56.043 0.7308C55.9777 0.267936 56.0062 0 56.0062 0C56.0062 0 56.0207 0.272835 56.043 0.7308C56.1759 1.6732 56.6973 3.42366 58.6381 5.36599C60.9565 7.68616 63.0013 7.97937 63.7231 8.00421C63.9025 7.99244 64 8 64 8C64 8 63.9023 8.01038 63.7231 8.00421C63.014 8.05074 61.0247 8.39932 58.7149 10.7108C56.6149 12.8125 56.1363 14.649 56.0317 15.4986C56.016 15.8168 56.0062 16 56.0062 16C56.0062 16 55.9922 15.8199 56.0317 15.4986C56.0974 14.1757 56.2667 10.5198 56.2667 8C56.2667 5.6137 56.1148 2.20851 56.043 0.7308Z" fill="black"/>
</svg>
