<svg width="103" height="103" viewBox="0 0 103 103" fill="none" xmlns="http://www.w3.org/2000/svg">
    <line x1="5.42969" y1="51.3508" x2="89.0341" y2="51.3508" stroke="black" stroke-width="5.91173"/>
    <path d="M77.3381 29.8638C77.1451 28.4956 77.2292 27.7036 77.2292 27.7036C77.2292 27.7036 77.2723 28.5101 77.3381 29.8638C77.7309 32.6494 79.2721 37.8235 85.0089 43.5647C91.8618 50.4229 97.906 51.2895 100.039 51.363C100.57 51.3282 100.858 51.3505 100.858 51.3505C100.858 51.3505 100.569 51.3812 100.039 51.363C97.9433 51.5005 92.0631 52.5308 85.2358 59.3634C79.0285 65.5755 77.6138 71.0041 77.3048 73.5154C77.2581 74.4558 77.2292 74.9974 77.2292 74.9974C77.2292 74.9974 77.1879 74.4649 77.3048 73.5154C77.4988 69.605 77.9992 58.7987 77.9992 51.3505C77.9992 44.2969 77.5504 34.2317 77.3381 29.8638Z"
          fill="black"/>
</svg>
