<svg width="851" height="857" viewBox="0 0 851 857" fill="none" xmlns="http://www.w3.org/2000/svg">
<path d="M402.118 102.423L406.229 102.177L409.42 121.919L409.743 121.779L412.557 101.738L417.454 101.535L421.754 121.18L422.076 121.041L423.782 101.096L427.893 100.85L425.513 124.544L419.507 124.843L415.768 106.491L415.446 106.631L413.039 124.959L407.034 125.258L402.118 102.423Z" fill="black"/>
<path d="M442.757 126.287C441.185 126.2 439.473 125.789 438.085 125.239C436.696 124.689 435.49 123.676 434.606 122.522C433.723 121.369 433.162 120.076 432.461 118.459C432.083 116.703 431.845 115.27 432.112 113.233C432.057 111.337 432.464 109.624 433.012 108.234C433.56 106.844 434.431 105.314 435.581 104.431C436.592 103.225 437.883 102.665 439.174 102.105C440.465 101.546 442.36 101.492 443.931 101.579C445.502 101.666 447.214 102.076 448.603 102.627C449.992 103.177 451.198 104.19 452.081 105.343C452.965 106.497 453.526 107.79 454.227 109.407C454.605 111.163 454.843 112.596 454.575 114.633C454.631 116.529 454.223 118.242 453.675 119.632C453.127 121.022 452.257 122.552 451.106 123.435C450.095 124.641 448.804 125.201 447.513 125.761C445.759 126.137 444.328 126.373 442.757 126.287ZM442.969 122.354C444.863 122.301 446.294 122.064 447.305 120.858C448.456 119.975 449.186 118.122 448.99 115.902L449.343 112.292C449.47 109.933 449.092 108.176 447.885 107.163C447.002 106.009 445.613 105.459 443.579 105.189C441.685 105.242 440.253 105.478 439.243 106.685C438.092 107.568 437.361 109.421 437.557 111.641L437.205 115.25C437.077 117.61 437.456 119.367 438.662 120.38C439.545 121.533 441.074 122.407 442.969 122.354Z" fill="black"/>
<path d="M459.578 127.058L462.885 103.731L467.739 104.315L467.204 108.388L467.527 108.248C468.032 107.645 468.215 107.181 468.72 106.578C469.226 105.975 469.871 105.695 470.517 105.415C471.162 105.135 471.808 104.855 472.453 104.576C473.099 104.296 473.885 104.339 475.133 104.566C477.631 105.02 479.16 105.893 480.646 107.553C481.81 109.353 482.328 111.433 481.696 114.396L479.459 129.577L474.604 128.993L476.799 114.598C477.474 110.849 475.847 108.866 472.564 108.369C471.778 108.325 471.316 108.142 470.67 108.422C469.884 108.378 469.562 108.518 468.916 108.798C468.27 109.078 468.088 109.541 467.442 109.821C467.26 110.284 466.754 110.887 466.712 111.674L464.433 127.642L459.578 127.058Z" fill="black"/>
<path d="M501.783 130.653C500.45 131.999 499.299 132.882 497.868 133.119C496.577 133.678 495.005 133.592 493.294 133.181C490.656 132.404 488.524 131.024 487.543 128.761C486.421 126.175 486.268 123.168 487.266 119.279C488.264 115.389 489.682 112.47 491.661 110.844C493.64 109.217 496.039 108.561 498.677 109.338C500.388 109.748 501.777 110.298 502.661 111.452C503.544 112.605 504.105 113.898 504.666 115.192L504.989 115.052L508.109 101.024L512.781 102.071L504.994 135.406L500.323 134.359L501.783 130.653ZM496.466 129.886C497.252 129.929 497.714 130.112 498.5 130.156C499.286 130.199 499.931 129.919 500.254 129.779C500.9 129.5 501.223 129.36 501.728 128.756C502.233 128.153 502.416 127.69 502.458 126.903L504.131 119.264C504.173 118.478 504.356 118.015 504.076 117.368C503.795 116.721 503.655 116.398 503.375 115.751C503.094 115.105 502.631 114.921 502.028 114.415C501.425 113.908 500.639 113.865 500.176 113.681C498.465 113.271 496.711 113.647 495.56 114.53C494.409 115.413 493.539 116.943 493.131 118.656L492.133 122.546C491.726 124.259 491.781 126.155 492.665 127.309C493.225 128.602 494.431 129.615 496.466 129.886Z" fill="black"/>
<path d="M521.841 141.545C520.129 141.134 518.6 140.261 517.394 139.248C516.187 138.234 515.304 137.081 514.743 135.788C514.183 134.494 513.945 133.061 514.029 131.488C514.114 129.915 514.199 128.342 514.929 126.489C515.66 124.636 516.208 123.246 517.218 122.039C518.229 120.833 519.24 119.627 520.531 119.067C521.822 118.507 523.113 117.947 524.544 117.711C525.975 117.474 527.687 117.885 529.076 118.435C530.787 118.845 531.994 119.858 533.06 120.548C534.266 121.562 535.149 122.715 535.71 124.008C536.271 125.302 536.509 126.735 536.747 128.168C536.662 129.741 536.577 131.314 536.17 133.027L535.439 134.88L519.334 129.572L519.291 130.359C518.561 132.212 518.799 133.645 519.5 135.262C520.201 136.878 521.73 137.752 523.582 138.485C524.971 139.035 526.542 139.122 527.51 138.702C528.941 138.466 529.77 137.723 530.92 136.84L532.925 140.579C531.775 141.463 530.301 142.486 528.547 142.862C526.372 142.268 524.015 142.138 521.841 141.545ZM527.98 121.214C527.054 120.848 526.269 120.804 525.483 120.761C524.697 120.717 524.052 120.997 523.083 121.417C522.438 121.697 521.932 122.3 521.427 122.903C520.922 123.506 520.557 124.433 520.051 125.036L519.869 125.499L531.162 129.437L531.345 128.974C532.075 127.121 531.837 125.688 531.136 124.071C531.038 122.961 529.832 121.948 527.98 121.214Z" fill="black"/>
<path d="M538.805 142.641L544.501 145.165L550.624 130.987L544.928 128.463L546.389 124.757L556.714 129.115L554.2 134.814L554.663 134.997C555.168 134.394 555.674 133.791 556.502 133.048C557.007 132.445 557.975 132.025 558.621 131.745C559.267 131.465 560.375 131.369 561.161 131.412C561.946 131.455 563.195 131.682 564.121 132.049L566.899 133.149L564.933 137.458L560.626 135.485C558.774 134.751 557.203 134.664 555.912 135.224C554.298 135.924 553.147 136.807 552.739 138.52L549.313 146.535L557.323 149.976L555.862 153.682L537.527 145.884L538.805 142.641Z" fill="black"/>
<path d="M596.317 148.818L599.978 151.071L590.823 168.868L591.286 169.052L605.309 154.522L609.573 157.282L601.484 175.769L601.947 175.952L614.903 160.732L618.242 163.126L602.295 181.178L596.965 177.728L604.506 160.631L604.043 160.448L591.172 174.094L585.841 170.644L596.317 148.818Z" fill="black"/>
<path d="M615.423 192.003C614.216 190.989 612.87 189.652 612.309 188.359C611.749 187.066 611.188 185.773 611.273 184.199C611.035 182.766 611.583 181.376 611.99 179.663C612.538 178.274 613.408 176.744 614.602 175.074C615.795 173.405 616.946 172.521 618.42 171.498C619.893 170.475 621.184 169.916 622.615 169.679C624.047 169.443 625.618 169.53 627.007 170.08C628.396 170.63 629.785 171.18 631.131 172.517C632.337 173.53 633.684 174.867 634.245 176.16C634.805 177.453 635.366 178.747 635.281 180.32C635.519 181.753 634.971 183.143 634.564 184.856C634.016 186.246 633.145 187.775 631.952 189.445C630.759 191.115 629.608 191.998 628.134 193.021C626.661 194.044 625.37 194.604 623.938 194.84C622.507 195.076 620.936 194.99 619.547 194.439C618.158 193.889 616.769 193.339 615.423 192.003ZM617.627 189.126C618.973 190.463 620.685 190.873 622.116 190.637C623.547 190.4 625.021 189.377 626.537 187.568L628.741 184.692C630.257 182.882 630.665 181.169 630.427 179.736C630.189 178.303 629.488 176.686 627.959 175.813C626.43 174.939 624.901 174.066 623.47 174.302C622.038 174.539 620.565 175.562 619.049 177.371L616.845 180.247C615.328 182.057 614.921 183.77 615.159 185.203C615.397 186.636 616.28 187.79 617.627 189.126Z" fill="black"/>
<path d="M628.875 202.686L645.242 185.604L649.001 188.967L646.011 191.8L646.151 192.123C646.797 191.843 647.443 191.563 648.228 191.607C648.874 191.327 649.659 191.37 650.122 191.554C650.908 191.597 651.371 191.78 652.297 192.147C652.9 192.654 653.826 193.021 654.429 193.527C656.238 195.047 657.08 196.987 656.952 199.347C657.148 201.567 656.095 203.56 653.933 205.649L643.406 216.743L639.647 213.38L649.669 202.889C652.336 200.196 652.323 197.513 649.91 195.487C649.307 194.98 648.844 194.796 648.241 194.29C647.778 194.106 647.175 193.6 646.53 193.88C646.067 193.696 645.421 193.976 644.635 193.933C643.99 194.213 643.667 194.353 643.162 194.956L632.129 206.653L628.875 202.686Z" fill="black"/>
<path d="M661.119 230.187C659.365 230.564 657.793 230.477 656.545 230.25C655.296 230.023 653.767 229.15 652.743 227.673C650.976 225.367 650.135 223.427 650.768 220.464C651.218 217.964 653.099 215.228 656.089 212.395C659.078 209.563 661.983 208.303 664.663 208.294C667.343 208.284 669.658 209.201 671.285 211.184C672.631 212.521 673.192 213.814 673.107 215.387C673.345 216.821 673.12 218.07 672.39 219.923L672.53 220.247L683.436 210.909L686.689 214.876L661.06 237.127L657.806 233.16L661.119 230.187ZM657.22 226.501C657.823 227.007 658.103 227.654 658.889 227.697C659.492 228.204 659.955 228.387 660.741 228.431C661.203 228.614 661.989 228.658 662.635 228.378C663.28 228.098 663.926 227.818 664.571 227.538L670.368 222.336C670.874 221.733 671.379 221.13 671.561 220.667C671.744 220.203 671.786 219.417 671.969 218.953C672.011 218.167 671.871 217.844 671.591 217.197C671.311 216.55 671.03 215.904 670.427 215.397C669.081 214.06 667.874 213.047 666.12 213.423C664.549 213.336 662.935 214.036 661.602 215.382L658.795 217.752C657.461 219.098 656.45 220.305 656.366 221.878C655.172 223.547 655.733 224.841 657.22 226.501Z" fill="black"/>
<path d="M671.199 250.783C670.175 249.307 669.474 247.69 668.914 246.397C668.676 244.964 668.438 243.53 668.845 241.817C669.07 240.568 669.618 239.178 670.489 237.648C671.499 236.442 672.51 235.235 674.307 234.072C675.78 233.049 677.394 232.35 679.008 231.65C680.762 231.274 682.193 231.037 683.442 231.264C685.013 231.351 686.402 231.901 687.468 232.591C688.534 233.281 689.881 234.618 690.764 235.771C691.788 237.248 692.348 238.541 692.586 239.974C692.824 241.407 693.062 242.841 692.515 244.23C692.29 245.48 691.742 246.87 690.731 248.076C689.72 249.283 688.71 250.489 687.236 251.512L685.762 252.535L675.623 238.879L674.978 239.159C673.504 240.182 672.634 241.711 672.226 243.424C671.819 245.137 672.52 246.754 673.543 248.231C674.427 249.384 675.633 250.397 676.559 250.764C677.625 251.454 678.874 251.681 680.305 251.445L679.77 255.517C678.339 255.754 676.627 255.344 674.775 254.61C674.172 254.103 672.363 252.583 671.199 250.783ZM687.957 238.14C687.354 237.634 686.933 236.664 686.007 236.297C685.404 235.79 684.618 235.747 683.693 235.38C682.907 235.337 682.121 235.293 681.476 235.573C680.83 235.853 679.862 236.273 679.216 236.553L678.894 236.693L685.779 246.383L686.102 246.243C687.575 245.22 688.446 243.69 688.671 242.44C689.219 241.05 688.84 239.294 687.957 238.14Z" fill="black"/>
<path d="M684.328 261.607L687.497 267.147L700.858 259.05L697.689 253.51L701.282 251.184L707.058 260.97L701.529 264.136L701.669 264.459C702.315 264.179 703.423 264.083 704.209 264.126C704.995 264.17 705.78 264.213 706.706 264.58C707.632 264.947 708.095 265.13 709.161 265.82C709.764 266.327 710.508 267.157 711.391 268.31L712.835 270.757L708.92 273.223L706.452 269.299C705.428 267.823 704.222 266.809 702.833 266.259C701.444 265.709 699.69 266.086 698.217 267.109L690.568 271.577L694.9 278.917L691.308 281.243L681.198 264.117L684.328 261.607Z" fill="black"/>
<path d="M735.867 322.994L737.227 327.014L718.829 334.991L718.969 335.314L739.104 333.114L740.421 337.92L722.444 346.866L722.584 347.19L742.159 343.696L743.518 347.716L719.832 351.456L718.095 345.679L734.781 337.292L734.641 336.969L716.077 339.256L714.34 333.48L735.867 322.994Z" fill="black"/>
<path d="M722.547 368.331C722.169 366.574 722.254 365.001 722.338 363.428C722.423 361.855 723.111 360.789 724.122 359.582C725.132 358.376 726.283 357.493 727.434 356.61C728.908 355.587 730.339 355.35 732.416 354.834C734.17 354.457 736.064 354.404 737.636 354.491C739.207 354.578 740.596 355.128 741.985 355.678C743.051 356.368 744.257 357.382 745.141 358.535C746.024 359.688 746.725 361.305 747.103 363.062C747.481 364.818 747.396 366.391 747.312 367.964C747.227 369.538 746.539 370.604 745.528 371.81C744.517 373.017 743.366 373.9 742.216 374.783C740.742 375.806 739.311 376.042 737.234 376.559C735.48 376.935 733.586 376.988 732.014 376.901C730.443 376.814 729.054 376.264 727.525 375.391C726.459 374.701 725.253 373.687 724.369 372.534C723.486 371.381 722.925 370.088 722.547 368.331ZM726.378 367.438C726.756 369.195 727.779 370.671 728.846 371.362C730.052 372.375 731.946 372.322 734.023 371.806L737.531 371.053C739.608 370.536 741.221 369.837 742.092 368.307C743.103 367.101 743.187 365.527 742.809 363.771C742.431 362.014 741.408 360.538 740.341 359.848C739.135 358.834 737.241 358.887 735.164 359.404L731.656 360.156C729.579 360.673 727.966 361.373 727.095 362.902C726.407 363.969 726 365.682 726.378 367.438Z" fill="black"/>
<path d="M726.231 384.786L749.691 382.296L750.363 387.382L746.392 387.951L746.532 388.275C746.995 388.458 747.921 388.825 748.384 389.008C748.987 389.515 749.45 389.698 750.053 390.205C750.656 390.712 750.936 391.358 751.217 392.005C751.497 392.652 751.918 393.622 751.875 394.408C752.071 396.628 751.481 398.804 750.287 400.474C749.094 402.144 746.835 403.123 743.832 403.273L728.776 404.807L728.105 399.721L742.375 398.143C746.023 397.714 747.862 395.764 747.246 392.574C747.288 391.788 747.008 391.141 746.868 390.818C746.587 390.171 746.307 389.525 745.844 389.341C745.381 389.158 745.101 388.511 744.315 388.468C743.852 388.284 743.066 388.241 742.603 388.058L726.579 390.012L726.231 384.786Z" fill="black"/>
<path d="M733.271 426.672C731.742 425.798 730.536 424.785 729.653 423.632C728.769 422.478 728.531 421.045 728.153 419.289C728.14 416.606 729.053 414.289 731.032 412.663C733.011 411.037 736.056 410.101 740.167 409.855C744.278 409.609 747.379 410.569 749.651 412.272C751.924 413.976 752.905 416.239 752.918 418.922C752.973 420.819 752.425 422.208 751.737 423.275C751.05 424.341 749.899 425.224 748.425 426.247L748.565 426.571L762.933 426.103L763.142 431.005L729.229 431.497L729.02 426.595L733.271 426.672ZM732.46 421.262C732.417 422.049 732.698 422.696 732.655 423.482C732.936 424.129 733.216 424.775 733.356 425.099C733.637 425.745 734.1 425.929 734.703 426.435C735.166 426.619 735.951 426.662 736.737 426.706L744.777 426.677C745.562 426.72 746.208 426.44 746.531 426.3C747.176 426.02 747.359 425.557 747.864 424.954C748.047 424.491 748.552 423.888 748.595 423.101C748.777 422.638 748.82 421.851 748.862 421.065C748.807 419.168 748.246 417.875 747.04 416.861C745.833 415.848 744.445 415.298 742.228 415.491L738.439 415.597C736.545 415.65 734.931 416.35 733.78 417.233C733.275 417.836 732.404 419.366 732.46 421.262Z" fill="black"/>
<path d="M727.973 448.943C727.918 447.046 728.465 445.657 729.336 444.127C729.884 442.737 730.894 441.531 732.045 440.648C733.196 439.764 734.487 439.205 736.101 438.505C737.855 438.129 739.286 437.892 741.321 438.162C743.215 438.109 744.927 438.519 746.456 439.393C747.844 439.943 749.051 440.956 750.257 441.97C751.14 443.123 752.024 444.276 752.585 445.57C753.145 446.863 753.061 448.436 753.116 450.333C753.031 451.906 752.623 453.619 751.936 454.685C751.388 456.075 750.377 457.282 749.226 458.165C748.075 459.048 746.784 459.607 745.493 460.167C744.062 460.404 742.308 460.78 740.736 460.693L738.842 460.746L739.915 443.765L739.13 443.721C737.235 443.775 735.804 444.011 734.331 445.034C733.18 445.917 732.449 447.77 732.182 449.807C732.097 451.38 732.335 452.813 732.756 453.783C733.316 455.076 734.06 455.906 735.126 456.596L732.136 459.429C730.93 458.415 729.724 457.402 728.882 455.462C728.041 453.522 727.846 451.302 727.973 448.943ZM748.724 449.932C748.767 449.146 748.669 448.036 748.389 447.389C748.108 446.742 747.828 446.096 747.085 445.266C746.481 444.759 745.878 444.252 745.275 443.746C744.349 443.379 743.886 443.196 742.778 443.292L742.455 443.432L741.496 455.371L741.959 455.554C743.853 455.501 745.285 455.264 746.436 454.381C748.232 453.218 748.78 451.829 748.724 449.932Z" fill="black"/>
<path d="M731.01 465.678L729.885 471.927L745.192 474.508L746.317 468.259L750.386 468.8L748.684 479.908L742.44 478.774L742.581 479.098C743.506 479.464 744.11 479.971 744.713 480.478C745.316 480.984 745.919 481.491 746.34 482.461C746.62 483.108 747.04 484.078 747.461 485.048C747.559 486.158 747.516 486.944 747.291 488.194L746.982 491.017L742.45 490.293L743.167 485.757C743.575 484.044 743.197 482.287 742.313 481.134C741.43 479.981 740.223 478.967 738.189 478.697L729.589 477.433L728.336 486.042L724.268 485.501L727.222 465.784L731.01 465.678Z" fill="black"/>
<path d="M738.958 522.92L737.638 526.949L718.025 522.394L717.842 522.857L735.587 532.831L734.084 537.324L714.246 534.018L714.063 534.482L732.033 543.207L730.713 547.236L709.404 536.118L711.455 530.235L730.045 533.314L730.227 532.851L714.011 523.749L716.062 517.867L738.958 522.92Z" fill="black"/>
<path d="M701.765 552.105C702.636 550.575 703.506 549.046 704.657 548.163C705.808 547.28 706.959 546.396 708.25 545.837C709.541 545.277 711.112 545.364 712.684 545.451C714.255 545.538 715.967 545.948 717.496 546.821C719.348 547.555 720.554 548.568 721.76 549.581C722.966 550.595 723.85 551.748 724.411 553.041C724.971 554.335 725.209 555.768 725.124 557.341C725.04 558.914 724.492 560.304 724.084 562.017C723.214 563.547 722.343 565.076 721.192 565.959C720.042 566.843 718.891 567.726 717.6 568.285C716.309 568.845 714.737 568.758 713.166 568.671C711.594 568.585 709.883 568.174 708.354 567.301C706.502 566.567 705.296 565.554 704.089 564.541C702.883 563.527 702 562.374 701.439 561.081C700.878 559.787 700.64 558.354 700.725 556.781C700.81 555.208 701.217 553.495 701.765 552.105ZM705.469 553.572C704.738 555.425 704.513 556.675 705.214 558.292C705.775 559.585 707.121 560.922 709.113 561.978L712.494 563.585C714.486 564.642 716.38 564.589 717.671 564.029C718.962 563.469 720.436 562.446 720.844 560.733C721.574 558.88 721.799 557.631 721.098 556.014C720.537 554.721 719.191 553.384 717.199 552.327L713.818 550.72C711.826 549.663 709.932 549.716 708.641 550.276C707.35 550.836 706.339 552.042 705.469 553.572Z" fill="black"/>
<path d="M695.095 567.672L715.898 579.394L713.609 583.843L710.088 581.912L709.765 582.052C710.046 582.699 710.649 583.206 710.929 583.852C711.21 584.499 711.49 585.146 711.448 585.932C711.405 586.719 711.685 587.365 711.32 588.292C711.278 589.079 710.913 590.005 710.407 590.608C709.354 592.601 707.698 594.088 705.621 594.604C703.544 595.12 701.37 594.527 698.915 593.286L685.617 585.609L687.906 581.16L700.601 588.331C703.799 590.401 706.198 589.744 707.94 586.685C708.122 586.222 708.627 585.619 708.67 584.832C708.852 584.369 708.895 583.582 708.615 582.936C708.657 582.149 708.517 581.826 707.914 581.319C707.633 580.672 707.17 580.489 706.567 579.982L692.483 572.261L695.095 567.672Z" fill="black"/>
<path d="M676.655 605.625C675.954 604.008 675.716 602.575 675.478 601.142C675.563 599.568 675.788 598.319 676.981 596.649C678.68 594.376 680.799 593.073 683.339 592.74C686.018 592.73 689.119 593.691 692.457 596.084C695.796 598.478 698.026 600.968 698.684 603.371C699.343 605.774 698.893 608.274 697.657 610.73C696.786 612.26 695.635 613.143 694.344 613.703C693.053 614.262 691.622 614.499 689.911 614.089L689.588 614.229L701.595 622.466L698.843 626.732L670.887 607.357L673.639 603.091L676.655 605.625ZM679.126 600.712C678.621 601.315 678.438 601.778 678.073 602.705C677.89 603.168 677.848 603.955 677.806 604.741C677.763 605.528 677.903 605.851 678.184 606.498C678.464 607.145 678.927 607.328 679.53 607.835L686.067 612.298C686.67 612.805 687.133 612.988 687.919 613.032C688.704 613.075 689.027 612.935 689.673 612.656C690.318 612.376 690.964 612.096 691.146 611.632C691.652 611.029 692.297 610.749 692.48 610.286C693.673 608.616 693.898 607.367 693.52 605.61C693.282 604.177 692.258 602.7 690.729 601.827L687.531 599.757C685.862 598.56 684.473 598.01 682.719 598.386C681.61 598.483 679.997 599.182 679.126 600.712Z" fill="black"/>
<path d="M659.307 620.445C660.641 619.098 661.652 617.892 662.943 617.332C664.234 616.772 665.848 616.073 667.096 616.299C668.528 616.063 669.916 616.613 671.628 617.023C673.017 617.573 674.546 618.447 676.215 619.644C677.561 620.98 678.768 621.994 679.791 623.47C680.815 624.947 681.053 626.38 681.291 627.813C681.529 629.247 681.444 630.82 680.896 632.21C680.349 633.599 679.801 634.989 678.467 636.335C677.457 637.542 676.306 638.425 675.155 639.308C673.864 639.868 672.573 640.428 671.001 640.341C669.57 640.577 668.181 640.027 666.792 639.477C665.404 638.927 663.875 638.053 662.668 637.04L661.322 635.703L672.117 622.573L671.514 622.066C670.167 620.729 668.456 620.319 667.024 620.556C665.593 620.792 663.979 621.492 662.786 623.161C661.775 624.368 661.087 625.434 661.003 627.008C660.778 628.257 660.875 629.367 661.436 630.661L657.465 631.23C656.764 629.613 656.849 628.04 657.116 626.004C656.738 624.247 657.469 622.394 659.307 620.445ZM675.775 633.662C676.28 633.059 676.645 632.132 677.15 631.529C677.656 630.926 677.558 629.816 677.278 629.169C677.32 628.383 677.04 627.736 676.619 626.766C676.339 626.12 675.595 625.29 674.992 624.783L674.852 624.46L667.272 633.508L667.735 633.691C669.081 635.028 670.793 635.438 672.224 635.201C673.15 635.568 674.441 635.008 675.775 633.662Z" fill="black"/>
<path d="M651.851 635.968L647.345 640.611L658.257 651.627L662.762 646.985L665.595 649.982L657.595 658.06L652.952 653.543L652.629 653.683C652.91 654.33 653.33 655.3 653.611 655.946C653.891 656.593 653.989 657.703 653.946 658.489C653.904 659.276 653.539 660.203 653.496 660.989C653.131 661.916 652.303 662.659 651.615 663.725L649.454 665.815L646.017 662.311L649.19 659.015C650.523 657.669 651.071 656.279 651.156 654.706C651.241 653.133 650.54 651.516 649.333 650.503L643.204 644.326L637.042 650.455L634.209 647.458L648.049 633.391L651.851 635.968Z" fill="black"/>
<path d="M455.163 752.743L451.052 752.989L447.86 733.247L447.538 733.387L444.723 753.428L439.827 753.631L435.527 733.985L435.204 734.125L433.961 754.253L429.85 754.499L432.091 730.482L438.096 730.183L442.158 748.395L442.481 748.255L444.747 729.604L450.752 729.305L455.163 752.743Z" fill="black"/>
<path d="M414.202 729.02C415.773 729.107 417.485 729.517 418.874 730.067C420.263 730.617 421.469 731.631 422.352 732.784C423.236 733.937 423.797 735.231 424.498 736.847C424.876 738.604 425.114 740.037 425.169 741.933C425.224 743.83 424.817 745.543 424.269 746.933C423.721 748.323 422.851 749.852 421.7 750.735C420.689 751.942 419.398 752.502 418.107 753.061C416.816 753.621 415.062 753.998 413.35 753.587C411.779 753.5 410.067 753.09 408.678 752.54C407.29 751.99 406.083 750.977 405.2 749.823C404.316 748.67 403.756 747.377 403.055 745.76C402.677 744.004 402.439 742.57 402.383 740.674C402.328 738.777 402.736 737.064 403.283 735.675C403.831 734.285 404.702 732.755 405.852 731.872C406.863 730.666 408.154 730.106 409.445 729.546C411.199 729.17 412.631 728.933 414.202 729.02ZM413.99 732.953C412.096 733.006 410.664 733.242 409.654 734.449C408.643 735.655 407.773 737.185 407.968 739.405L407.939 742.874C407.811 745.234 408.512 746.851 409.396 748.004C410.279 749.157 411.668 749.708 413.703 749.978C415.597 749.925 417.028 749.688 418.039 748.482C419.049 747.275 419.92 745.746 419.724 743.526L419.754 740.056C419.881 737.697 419.18 736.08 418.297 734.927C417.413 733.773 416.024 733.223 413.99 732.953Z" fill="black"/>
<path d="M397.518 728.571L394.211 751.898L389.357 751.314L389.891 747.241L389.569 747.381C389.386 747.844 388.881 748.448 388.375 749.051C387.87 749.654 387.224 749.934 386.719 750.537C386.073 750.817 385.428 751.097 384.782 751.377C384.137 751.657 383.351 751.613 382.102 751.386C379.605 750.933 378.076 750.059 376.59 748.399C375.426 746.599 374.907 744.519 375.217 741.696L377.131 726.655L381.986 727.239L380.114 741.494C379.439 745.243 381.066 747.227 384.349 747.724C385.135 747.767 385.598 747.95 386.243 747.671C386.889 747.391 387.352 747.574 387.997 747.294C388.643 747.014 388.825 746.551 389.471 746.271C389.653 745.808 390.159 745.205 390.201 744.418L392.48 728.45L397.518 728.571Z" fill="black"/>
<path d="M355.453 725.299C356.787 723.953 357.938 723.07 359.229 722.51C360.52 721.95 362.091 722.037 363.803 722.447C366.44 723.224 368.572 724.604 369.554 726.868C370.675 729.454 370.828 732.461 369.83 736.35C368.833 740.239 367.414 743.159 365.435 744.785C363.456 746.411 361.057 747.068 358.097 746.431C356.385 746.021 354.996 745.47 354.113 744.317C353.229 743.164 352.346 742.01 352.108 740.577L351.785 740.717L348.665 754.745L343.993 753.698L351.456 720.503L356.128 721.55L355.453 725.299ZM360.771 726.067C359.985 726.023 359.522 725.84 358.736 725.796C357.95 725.753 357.305 726.033 356.982 726.173C356.337 726.453 356.014 726.593 355.509 727.196C355.003 727.799 354.821 728.262 354.778 729.049L353.105 736.688C353.063 737.474 352.88 737.938 353.161 738.584C353.441 739.231 353.581 739.554 353.862 740.201C354.465 740.707 354.605 741.031 355.531 741.398C355.994 741.581 356.92 741.948 357.383 742.131C359.094 742.541 360.848 742.165 361.999 741.282C363.15 740.399 364.021 738.869 364.428 737.156L365.103 733.406C365.511 731.693 365.455 729.797 364.572 728.644C363.548 727.167 362.482 726.477 360.771 726.067Z" fill="black"/>
<path d="M334.749 714.687C336.461 715.097 337.99 715.971 339.196 716.984C340.402 717.998 341.286 719.151 341.846 720.444C342.407 721.737 342.645 723.171 343.023 724.927C342.938 726.5 342.854 728.073 342.123 729.926C341.393 731.779 340.845 733.169 339.834 734.376C338.824 735.582 337.813 736.788 336.522 737.348C335.371 738.231 333.94 738.468 332.509 738.704C331.077 738.941 329.366 738.53 327.977 737.98C326.265 737.57 325.059 736.557 323.993 735.867C322.787 734.853 321.903 733.7 321.343 732.407C320.782 731.113 320.544 729.68 320.306 728.247C320.391 726.674 320.476 725.101 320.883 723.388L321.613 721.535L337.719 726.843L337.761 726.056C338.169 724.343 338.254 722.77 337.553 721.153C336.852 719.537 335.323 718.663 333.471 717.93C332.082 717.38 330.511 717.293 329.542 717.713C328.111 717.949 327.283 718.692 326.132 719.575L324.127 715.836C325.278 714.952 326.752 713.929 328.506 713.553C330.54 713.823 332.434 713.77 334.749 714.687ZM328.932 734.877C329.858 735.244 330.644 735.288 331.43 735.331C332.215 735.375 332.861 735.095 333.829 734.675C334.475 734.395 334.98 733.792 335.485 733.189C335.991 732.585 336.356 731.659 336.721 730.732L336.904 730.269L325.751 726.655L325.568 727.118C325.16 728.831 325.076 730.404 325.776 732.021C326.477 733.637 327.08 734.144 328.932 734.877Z" fill="black"/>
<path d="M317.927 713.915L312.231 711.392L306.108 725.569L311.804 728.093L310.343 731.799L300.018 727.442L302.532 721.743L302.069 721.559C301.564 722.162 301.058 722.766 300.23 723.509C299.725 724.112 298.757 724.532 298.111 724.812C297.465 725.092 296.357 725.188 295.571 725.145C294.786 725.101 293.537 724.874 292.611 724.508L289.833 723.407L291.799 719.098L296.106 721.072C297.958 721.805 299.529 721.892 300.82 721.332C302.434 720.633 303.585 719.75 303.993 718.036L307.419 710.021L299.409 706.58L300.87 702.874L319.205 710.673L317.927 713.915Z" fill="black"/>
<path d="M260.418 707.738L256.756 705.485L265.771 687.364L265.309 687.181L251.426 702.034L247.162 699.274L255.111 680.464L254.648 680.28L241.831 695.824L238.493 693.43L254.117 675.517L259.447 678.968L251.905 696.065L252.368 696.248L265.24 682.601L270.571 686.052L260.418 707.738Z" fill="black"/>
<path d="M240.989 664.694C242.195 665.707 243.542 667.044 244.102 668.337C244.663 669.63 245.224 670.924 245.462 672.357C245.7 673.79 245.152 675.18 244.744 676.893C244.197 678.283 243.326 679.812 242.133 681.482C240.94 683.152 239.789 684.035 238.315 685.058C236.841 686.081 235.55 686.641 234.119 686.877C232.688 687.114 231.116 687.027 229.868 686.8C228.479 686.25 227.09 685.7 225.421 684.503C224.215 683.489 222.868 682.153 222.307 680.859C221.747 679.566 221.186 678.273 220.948 676.84C220.71 675.406 221.258 674.017 221.665 672.304C222.213 670.914 223.084 669.384 224.277 667.714C225.47 666.045 226.621 665.162 228.095 664.139C229.568 663.116 230.86 662.556 232.291 662.319C233.722 662.083 235.293 662.17 236.542 662.397C238.254 662.807 239.643 663.357 240.989 664.694ZM238.462 667.71C237.116 666.373 235.544 666.286 233.973 666.199C232.542 666.436 231.068 667.459 229.552 669.268L227.348 672.144C225.832 673.954 225.424 675.667 225.662 677.1C225.9 678.534 226.601 680.15 228.13 681.024C229.477 682.36 231.048 682.447 232.619 682.534C234.051 682.298 235.524 681.275 237.04 679.465L239.244 676.589C240.76 674.779 241.168 673.066 240.93 671.633C240.692 670.2 240.131 668.907 238.462 667.71Z" fill="black"/>
<path d="M227.677 654.334L211.451 671.74L207.692 668.376L210.541 665.22L210.401 664.897C209.755 665.177 209.11 665.457 208.464 665.737C207.819 666.017 207.033 665.973 206.57 665.79C205.784 665.746 205.321 665.563 204.396 665.196C203.792 664.689 202.867 664.323 202.263 663.816C200.454 662.296 199.613 660.356 199.74 657.996C199.545 655.777 200.598 653.784 202.759 651.694L213.287 640.6L217.046 643.964L207.024 654.454C204.357 657.147 204.37 659.83 206.782 661.857C207.385 662.364 207.848 662.547 208.451 663.054C208.914 663.237 209.517 663.744 210.163 663.464C210.626 663.647 211.271 663.367 212.057 663.411C212.703 663.131 213.025 662.991 213.531 662.388L224.564 650.69L227.677 654.334Z" fill="black"/>
<path d="M195.109 626.971C196.863 626.595 198.435 626.682 199.683 626.908C200.932 627.135 202.461 628.009 203.485 629.485C205.252 631.792 206.093 633.732 205.46 636.695C205.01 639.195 203.129 641.931 200.139 644.763C197.149 647.596 194.245 648.855 191.705 649.188C189.025 649.198 186.71 648.281 185.083 646.298C183.737 644.961 183.176 643.668 182.938 642.235C182.7 640.801 182.925 639.552 183.656 637.698L183.516 637.375L172.75 647.036L169.496 643.069L194.986 620.495L198.239 624.462L195.109 626.971ZM199.008 630.658C198.405 630.151 197.802 629.645 197.339 629.461C196.736 628.955 196.273 628.771 195.487 628.728C195.024 628.544 194.239 628.501 193.593 628.781C192.948 629.061 192.302 629.341 191.797 629.944L186.323 635.006C185.817 635.609 185.312 636.212 185.129 636.675C184.947 637.139 184.904 637.925 184.722 638.389C184.679 639.175 184.82 639.498 185.1 640.145C185.38 640.792 185.661 641.438 186.264 641.945C187.61 643.282 189.139 644.155 190.57 643.919C192.142 644.006 193.756 643.306 195.089 641.96L197.896 639.59C199.23 638.244 200.241 637.037 200.325 635.464C201.056 633.611 200.355 631.995 199.008 630.658Z" fill="black"/>
<path d="M184.704 606.516C185.728 607.992 186.429 609.609 186.99 610.902C187.228 612.335 187.466 613.769 187.058 615.482C186.833 616.732 186.285 618.121 185.415 619.651C184.404 620.857 183.393 622.064 181.597 623.227C180.123 624.25 178.65 625.273 176.896 625.649C175.142 626.026 173.71 626.262 172.462 626.035C170.89 625.948 169.501 625.398 168.435 624.708C167.369 624.018 166.163 623.005 165.139 621.528C164.116 620.051 163.555 618.758 162.994 617.465C162.756 616.032 162.518 614.599 162.743 613.349C162.968 612.099 163.516 610.709 164.527 609.503C165.538 608.296 166.548 607.09 168.022 606.067L169.496 605.044L179.634 618.7L180.28 618.421C181.754 617.397 182.624 615.868 182.709 614.295C182.794 612.721 182.416 610.965 181.392 609.488C180.508 608.335 179.302 607.322 178.376 606.955C176.988 606.405 176.202 606.361 174.63 606.274L175.165 602.202C176.596 601.965 178.308 602.375 180.16 603.109C181.731 603.196 183.541 604.716 184.704 606.516ZM168.087 619.482C168.69 619.989 169.433 620.819 170.036 621.325C170.639 621.832 171.425 621.876 172.351 622.242C173.137 622.286 173.922 622.329 174.568 622.049C175.213 621.769 176.182 621.35 176.827 621.07L177.15 620.93L170.125 610.917L169.802 611.057C168.328 612.08 167.458 613.609 167.233 614.859C166.825 616.572 167.063 618.005 168.087 619.482Z" fill="black"/>
<path d="M171.715 596.015L168.546 590.475L155.185 598.573L158.354 604.112L154.621 606.115L148.844 596.329L154.374 593.163L154.234 592.84C153.588 593.12 152.48 593.216 151.694 593.173C150.908 593.129 150.122 593.086 149.337 593.042C148.411 592.676 147.948 592.492 146.882 591.802C146.279 591.296 145.535 590.465 144.652 589.312L143.208 586.866L147.123 584.4L149.591 588.323C150.615 589.8 151.821 590.813 153.21 591.363C154.921 591.773 156.353 591.537 157.826 590.514L165.475 586.045L161.142 578.706L164.735 576.38L175.167 593.366L171.715 596.015Z" fill="black"/>
<path d="M118.733 532.182L117.374 528.163L135.771 520.186L135.631 519.863L115.496 522.063L114.179 517.257L132.479 508.17L132.339 507.847L112.764 511.341L111.405 507.321L135.091 503.581L136.828 509.357L120.282 518.068L120.422 518.391L138.663 516.244L140.401 522.02L118.733 532.182Z" fill="black"/>
<path d="M131.589 486.662C131.967 488.418 131.882 489.991 131.797 491.565C131.713 493.138 131.025 494.204 130.014 495.411C129.003 496.617 127.852 497.5 126.701 498.383C125.228 499.406 123.797 499.643 121.72 500.159C119.966 500.535 118.072 500.588 116.5 500.502C114.929 500.415 113.54 499.865 112.011 498.991C110.945 498.301 109.739 497.288 108.855 496.134C107.972 494.981 107.271 493.364 106.893 491.608C106.514 489.851 106.599 488.278 106.684 486.705C106.769 485.132 107.457 484.065 108.467 482.859C109.478 481.653 110.629 480.77 111.78 479.886C113.254 478.863 114.685 478.627 116.762 478.111C118.516 477.734 120.41 477.681 121.981 477.768C123.553 477.855 124.942 478.405 126.471 479.279C127.537 479.969 128.743 480.982 129.626 482.135C130.973 483.472 131.351 485.229 131.589 486.662ZM127.758 487.554C127.38 485.798 126.356 484.321 125.29 483.631C124.084 482.618 122.513 482.531 120.296 482.724L116.788 483.477C114.711 483.993 113.097 484.693 112.226 486.222C111.216 487.429 111.131 489.002 111.509 490.759C111.887 492.515 112.911 493.992 113.977 494.682C115.183 495.695 117.077 495.642 119.154 495.126L122.662 494.373C124.739 493.857 126.353 493.157 127.223 491.627C128.051 490.884 128.136 489.311 127.758 487.554Z" fill="black"/>
<path d="M128.228 470.067L104.767 472.557L104.096 467.47L108.067 466.901L107.926 466.578C107.464 466.394 106.538 466.028 106.075 465.844C105.752 465.984 105.149 465.477 104.546 464.971C103.943 464.464 103.662 463.817 103.382 463.171C103.101 462.524 102.681 461.554 102.723 460.768C102.528 458.548 103.118 456.372 104.311 454.702C105.505 453.032 107.764 452.053 110.767 451.903L125.822 450.369L126.494 455.455L112.224 457.033C108.576 457.462 106.737 459.412 107.353 462.601C107.31 463.388 107.591 464.035 107.731 464.358C108.011 465.005 108.292 465.651 108.755 465.835C109.358 466.341 109.498 466.665 110.284 466.708C110.747 466.891 111.532 466.935 111.995 467.118L128.019 465.164L128.228 470.067Z" fill="black"/>
<path d="M121.328 428.503C122.857 429.377 124.063 430.39 124.946 431.544C125.83 432.697 126.068 434.13 126.123 436.027C126.136 438.71 125.223 441.026 123.244 442.652C121.265 444.278 118.22 445.214 114.109 445.461C109.998 445.707 106.897 444.746 104.625 443.043C102.353 441.339 101.372 439.076 101.359 436.393C101.303 434.497 101.851 433.107 102.539 432.04C103.227 430.974 104.378 430.091 105.851 429.068L105.711 428.745L91.3434 429.213L90.9947 423.986L124.908 423.494L125.116 428.397L121.328 428.503ZM121.676 433.73C121.719 432.943 121.438 432.296 121.481 431.51C121.2 430.863 120.92 430.216 120.78 429.893C120.5 429.247 120.037 429.063 119.434 428.556C118.971 428.373 118.185 428.33 117.399 428.286L109.359 428.315C108.574 428.272 107.928 428.552 107.605 428.692C106.96 428.971 106.777 429.435 106.272 430.038C105.767 430.641 105.724 431.428 105.542 431.891C105.359 432.354 105.317 433.141 105.274 433.927C105.33 435.824 105.89 437.117 107.097 438.13C108.303 439.144 109.692 439.694 111.909 439.501L115.697 439.395C117.591 439.342 119.205 438.642 120.356 437.759C121.324 437.339 121.732 435.626 121.676 433.73Z" fill="black"/>
<path d="M126.627 406.232C126.683 408.129 126.135 409.519 125.265 411.048C124.717 412.438 123.706 413.644 122.555 414.527C121.404 415.411 120.113 415.97 118.499 416.67C116.745 417.046 115.314 417.283 113.28 417.013C111.386 417.066 109.674 416.656 108.145 415.782C106.756 415.232 105.55 414.219 104.344 413.205C103.46 412.052 102.577 410.899 102.016 409.605C101.455 408.312 101.54 406.739 101.485 404.842C101.569 403.269 101.977 401.556 102.665 400.49C103.213 399.1 104.364 398.217 105.374 397.01C106.525 396.127 107.816 395.568 109.107 395.008C110.539 394.771 112.293 394.395 113.864 394.482L115.758 394.429L114.685 411.41L115.471 411.454C117.365 411.4 118.796 411.164 120.27 410.141C121.421 409.258 122.151 407.405 122.419 405.368C122.503 403.795 122.265 402.362 121.845 401.392C121.284 400.099 120.541 399.269 119.475 398.579L122.464 395.746C123.671 396.76 124.877 397.773 125.718 399.713C126.559 401.653 126.755 403.873 126.627 406.232ZM105.736 404.92C105.694 405.706 105.791 406.816 106.072 407.463C106.352 408.109 106.632 408.756 107.376 409.586C107.979 410.093 108.582 410.599 109.185 411.106C110.111 411.473 110.574 411.656 111.682 411.56L112.005 411.42L112.964 399.481L112.501 399.298C110.607 399.351 109.176 399.587 108.025 400.47C106.369 401.957 105.821 403.346 105.736 404.92Z" fill="black"/>
<path d="M123.59 389.498L124.715 383.249L109.408 380.667L108.283 386.916L104.214 386.376L105.916 375.267L112.16 376.401L112.02 376.078C111.094 375.711 110.491 375.204 109.887 374.698C109.284 374.191 108.681 373.684 108.261 372.714C107.98 372.068 107.56 371.098 107.139 370.128C107.041 369.018 107.084 368.231 107.309 366.982L107.619 364.159L112.15 364.882L111.433 369.419C111.025 371.132 111.403 372.888 112.287 374.042C113.17 375.195 114.377 376.208 116.411 376.478L125.152 378.066L126.404 369.457L130.473 369.998L127.518 389.715L123.59 389.498Z" fill="black"/>
<path d="M115.642 332.256L116.962 328.227L136.575 332.782L136.758 332.319L119.013 322.344L120.516 317.852L140.354 321.157L140.537 320.694L122.749 311.506L124.07 307.477L145.378 318.595L143.328 324.477L125.061 321.259L124.878 321.722L141.094 330.823L139.043 336.705L115.642 332.256Z" fill="black"/>
<path d="M152.834 303.071C151.964 304.601 151.093 306.13 149.942 307.014C148.792 307.897 147.641 308.78 146.35 309.339C145.059 309.899 143.487 309.812 141.916 309.725C140.344 309.639 138.633 309.228 137.104 308.355C135.252 307.621 134.046 306.608 132.839 305.595C131.633 304.581 130.75 303.428 130.189 302.135C129.628 300.841 129.39 299.408 129.475 297.835C129.56 296.262 130.108 294.872 130.515 293.159C131.386 291.629 132.256 290.1 133.407 289.217C134.558 288.333 135.709 287.45 137 286.891C138.291 286.331 139.862 286.418 141.434 286.505C143.005 286.591 144.717 287.002 146.246 287.875C148.098 288.609 149.304 289.622 150.51 290.635C151.716 291.649 152.6 292.802 153.161 294.095C153.721 295.389 153.959 296.822 153.875 298.395C153.79 299.968 153.382 301.681 152.834 303.071ZM149.131 301.604C149.861 299.751 150.086 298.501 149.385 296.885C148.825 295.591 147.478 294.255 145.486 293.198L142.105 291.591C140.254 290.857 138.542 290.447 136.928 291.147C135.637 291.707 134.163 292.73 133.756 294.443C133.025 296.296 132.8 297.546 133.501 299.162C134.062 300.455 135.409 301.792 137.4 302.849L140.781 304.456C142.773 305.513 144.667 305.46 145.959 304.9C147.25 304.34 148.26 303.134 149.131 301.604Z" fill="black"/>
<path d="M159.506 287.503L138.703 275.782L140.992 271.332L144.513 273.263L144.836 273.123C144.555 272.476 143.952 271.969 143.672 271.323C143.391 270.676 143.111 270.03 143.153 269.243C143.196 268.456 142.915 267.81 143.281 266.883C143.646 265.957 143.688 265.17 144.194 264.567C145.247 262.574 146.903 261.088 148.98 260.571C151.056 260.055 153.231 260.649 155.686 261.889L168.984 269.566L166.835 274.339L154.14 267.168C150.942 265.098 148.543 265.754 146.802 268.813C146.619 269.277 146.114 269.88 146.071 270.667C145.889 271.13 145.846 271.916 146.127 272.563C146.084 273.35 146.224 273.673 146.827 274.18C147.108 274.826 147.571 275.01 148.174 275.516L162.258 283.237L159.506 287.503Z" fill="black"/>
<path d="M178.267 249.411C178.967 251.028 179.205 252.461 179.443 253.894C179.681 255.327 179.134 256.717 177.94 258.387C176.242 260.66 174.122 261.963 171.583 262.296C168.903 262.305 165.802 261.345 162.464 258.951C159.126 256.558 156.896 254.068 156.237 251.665C155.438 248.938 156.029 246.762 157.264 244.306C158.135 242.776 159.286 241.893 160.577 241.333C161.868 240.773 163.439 240.86 165.011 240.947L165.333 240.807L153.326 232.57L156.078 228.304L184.034 247.679L181.282 251.945L178.267 249.411ZM175.332 254.14C175.838 253.537 176.02 253.074 176.385 252.147C176.568 251.684 176.61 250.898 176.653 250.111C176.695 249.324 176.555 249.001 176.275 248.354C175.994 247.708 175.531 247.524 174.928 247.018L168.532 242.877C167.929 242.371 167.466 242.187 166.68 242.144C165.894 242.1 165.571 242.24 164.926 242.52C164.28 242.8 163.635 243.08 163.452 243.543C162.947 244.146 162.301 244.426 162.119 244.89C160.925 246.559 160.7 247.809 161.079 249.566C161.317 250.999 162.34 252.475 164.009 253.672L167.208 255.742C168.877 256.939 170.266 257.489 172.02 257.113C172.988 256.693 174.462 255.67 175.332 254.14Z" fill="black"/>
<path d="M195.613 234.592C194.28 235.939 193.269 237.145 191.978 237.705C190.687 238.264 189.073 238.964 187.824 238.737C186.393 238.974 185.004 238.424 183.293 238.014C181.581 237.603 180.375 236.59 178.706 235.393C177.359 234.056 176.013 232.72 175.129 231.566C174.106 230.09 173.868 228.657 173.63 227.223C173.392 225.79 173.477 224.217 174.024 222.827C174.572 221.437 175.12 220.048 176.453 218.701C177.464 217.495 178.615 216.612 179.766 215.729C181.057 215.169 182.348 214.609 183.919 214.696C185.351 214.46 186.74 215.01 188.128 215.56C189.517 216.11 191.046 216.984 192.252 217.997L193.599 219.334L182.804 232.464L183.407 232.971C184.753 234.307 186.465 234.718 187.896 234.481C189.328 234.245 190.941 233.545 192.135 231.875C193.145 230.669 193.833 229.603 193.918 228.029C194.143 226.78 194.045 225.67 193.485 224.376L197.456 223.807C198.157 225.424 198.072 226.997 197.804 229.033C197.86 230.93 197.129 232.783 195.613 234.592ZM179.146 221.375C178.641 221.978 178.276 222.904 177.77 223.508C177.405 224.434 177.363 225.221 177.643 225.867C177.924 226.514 177.881 227.301 178.302 228.271C178.582 228.917 179.325 229.747 179.928 230.254L180.069 230.577L187.649 221.529L187.186 221.346C185.84 220.009 184.128 219.599 182.697 219.835C181.308 219.285 180.157 220.168 179.146 221.375Z" fill="black"/>
<path d="M202.609 218.883L207.115 214.241L196.204 203.224L191.698 207.866L188.865 204.87L196.866 196.791L201.508 201.308L201.831 201.168C201.55 200.522 201.13 199.552 200.85 198.905C200.569 198.258 200.471 197.149 200.514 196.362C200.556 195.575 200.921 194.649 200.964 193.862C201.329 192.936 202.157 192.193 202.845 191.126L205.007 189.037L208.443 192.54L205.27 195.836C203.937 197.182 203.389 198.572 203.304 200.145C203.22 201.718 203.921 203.335 205.127 204.348L211.256 210.525L217.418 204.397L220.251 207.393L206.411 221.46L202.609 218.883Z" fill="black"/>
<path d="M327.061 117.681L331.172 117.435L334.364 137.177L334.686 137.037L337.178 117.136L342.075 116.933L346.374 136.578L346.697 136.438L347.94 116.311L352.051 116.065L349.81 140.082L343.945 140.704L340.206 122.352L339.884 122.492L337.617 141.143L331.612 141.442L327.061 117.681Z" fill="black"/>
<path d="M364.611 143.267C362.9 142.856 361.511 142.306 360.122 141.756C359.056 141.066 357.85 140.053 357.289 138.759C356.405 137.606 356.167 136.173 355.789 134.416C355.551 132.983 355.496 131.087 355.904 129.374C356.171 127.337 356.719 125.947 357.589 124.418C358.46 122.888 359.148 121.822 360.299 120.938C361.45 120.055 362.741 119.496 364.032 118.936C365.463 118.699 366.894 118.463 368.606 118.873C370.317 119.283 371.706 119.833 373.095 120.384C374.161 121.074 375.367 122.087 375.928 123.38C376.812 124.534 377.05 125.967 377.428 127.723C377.666 129.157 377.721 131.053 377.313 132.766C377.046 134.803 376.498 136.192 375.628 137.722C374.757 139.252 374.069 140.318 372.918 141.201C371.767 142.084 370.476 142.644 369.185 143.204C367.754 143.44 366.183 143.353 364.611 143.267ZM365.146 139.194C366.858 139.604 368.289 139.367 369.763 138.344C370.913 137.461 371.784 135.932 372.051 133.895L372.726 130.146C372.994 128.109 372.938 126.213 372.055 125.06C371.171 123.906 369.965 122.893 367.931 122.623C366.219 122.212 364.788 122.449 363.314 123.472C362.163 124.355 361.293 125.885 361.025 127.921L360.35 131.671C360.083 133.707 360.138 135.603 361.022 136.757C362.368 138.094 363.575 139.107 365.146 139.194Z" fill="black"/>
<path d="M376.817 144.888L384.332 122.425L388.821 123.935L387.501 127.964C388.006 127.361 388.189 126.898 388.834 126.618C389.48 126.338 389.985 125.735 390.631 125.455C391.276 125.175 392.062 125.219 392.708 124.939C393.493 124.982 394.279 125.026 395.205 125.392C397.379 125.986 398.866 127.646 399.707 129.586C400.548 131.526 400.421 133.885 399.648 136.525L394.774 150.93L390.284 149.419L394.976 135.478C396.114 131.912 395.133 129.649 392.355 128.548C391.892 128.365 391.107 128.322 390.644 128.138C389.858 128.095 389.535 128.235 388.89 128.515C388.244 128.794 387.921 128.934 387.416 129.538C386.911 130.141 386.728 130.604 386.546 131.067L381.306 146.398L376.817 144.888Z" fill="black"/>
<path d="M415.133 156.316C413.659 157.339 412.368 157.898 410.937 158.135C409.505 158.371 408.257 158.145 406.728 157.271C404.273 156.031 402.786 154.371 402.31 151.504C401.975 148.961 402.467 145.675 404.391 142.152C406.174 138.306 408.336 136.217 410.778 134.774C413.037 133.794 415.577 133.462 418.032 134.702C419.561 135.575 420.627 136.265 421.188 137.558C421.748 138.852 422.309 140.145 422.224 141.718L422.364 142.041L428.725 129.297L433.172 131.594L417.979 161.995L413.532 159.698L415.133 156.316ZM410.363 154.159C410.966 154.665 411.752 154.709 412.215 154.892C413.001 154.936 413.463 155.119 414.109 154.839C414.755 154.559 415.077 154.419 415.723 154.139C416.368 153.859 416.551 153.396 416.916 152.47L420.441 145.564C420.946 144.961 420.988 144.174 420.848 143.851C420.891 143.065 420.75 142.741 420.47 142.095C420.19 141.448 420.05 141.125 419.446 140.618C418.843 140.111 418.38 139.928 417.777 139.421C416.248 138.548 414.677 138.461 413.063 139.161C411.772 139.72 410.438 141.067 409.568 142.596L407.967 145.979C407.237 147.832 406.689 149.222 407.39 150.839C407.628 152.272 408.511 153.425 410.363 154.159Z" fill="black"/>
<path d="M430.911 170.6C429.382 169.727 428.176 168.713 427.475 167.097C426.591 165.943 426.031 164.65 425.793 163.217C425.555 161.784 425.639 160.21 426.187 158.821C426.595 157.108 427.143 155.718 428.336 154.048C429.206 152.518 430.54 151.172 431.691 150.289C432.842 149.406 434.315 148.383 435.746 148.147C437.038 147.587 438.609 147.674 439.858 147.9C441.106 148.127 442.818 148.537 444.024 149.551C445.553 150.424 446.437 151.578 447.32 152.731C448.204 153.884 448.764 155.177 449.002 156.611C449.24 158.044 449.015 159.294 448.93 160.867C448.383 162.257 447.975 163.97 446.964 165.176L446.094 166.706L432.235 157.735L431.73 158.338C430.859 159.868 430.451 161.581 430.689 163.014C431.068 164.771 431.951 165.924 433.62 167.121C434.826 168.134 436.075 168.361 437.184 168.265C438.292 168.168 439.723 167.932 440.692 167.512L441.728 171.671C440.437 172.231 438.683 172.608 436.789 172.661C434.895 172.714 432.72 172.12 430.911 170.6ZM441.96 152.75C441.357 152.243 440.431 151.877 439.646 151.833C438.86 151.79 438.074 151.746 437.429 152.026C436.783 152.306 436.138 152.586 435.169 153.006C434.664 153.609 433.696 154.029 433.33 154.955L433.148 155.419L442.743 161.629L442.925 161.166C443.796 159.636 444.203 157.923 443.965 156.49C443.727 155.057 443.167 153.764 441.96 152.75Z" fill="black"/>
<path d="M445.627 175.358L450.312 179.088L459.956 166.841L455.271 163.11L457.658 159.771L466.284 166.402L462.241 171.227L462.382 171.551C462.887 170.947 463.855 170.527 464.501 170.248C465.146 169.968 466.115 169.548 466.9 169.591C467.686 169.635 468.472 169.678 469.398 170.045C470.324 170.412 471.249 170.778 471.993 171.608L474.265 173.312L471.233 176.931L467.754 174.214C466.548 173.201 464.837 172.791 463.265 172.704C461.834 172.94 460.22 173.64 459.35 175.17L453.931 182.128L460.425 187.379L458.038 190.718L442.918 178.837L445.627 175.358Z" fill="black"/>
<path d="M484.843 181.785L487.676 184.782L475.322 200.508L475.462 200.832L491.855 189.115L495.151 192.295L483.541 208.852L483.681 209.175L499.331 196.629L502.023 199.302L483.104 214.035L478.924 209.701L489.524 194.351L489.384 194.028L474.282 205.184L470.102 200.851L484.843 181.785Z" fill="black"/>
<path d="M494.253 226.485C492.907 225.149 492.346 223.855 491.785 222.562C491.225 221.269 491.31 219.696 491.535 218.446C491.76 217.196 492.167 215.483 493.178 214.276C494.048 212.747 495.059 211.54 496.393 210.194C497.726 208.848 499.2 207.825 500.813 207.125C502.427 206.425 503.859 206.189 504.967 206.092C506.539 206.179 507.787 206.406 509.176 206.956C510.565 207.506 511.771 208.52 512.795 209.996C514.141 211.333 514.702 212.626 515.263 213.92C515.823 215.213 515.739 216.786 515.514 218.036C515.289 219.286 514.881 220.999 513.87 222.205C513 223.735 511.989 224.941 510.656 226.288C509.322 227.634 507.848 228.657 506.235 229.357C504.621 230.056 503.19 230.293 502.081 230.389C500.51 230.302 499.261 230.076 497.872 229.525C496.666 228.512 495.46 227.499 494.253 226.485ZM497.243 223.653C498.59 224.989 499.656 225.679 501.227 225.766C502.798 225.853 504.412 225.153 506.068 223.667L508.876 221.298C510.532 219.812 511.402 218.282 511.487 216.709C511.572 215.136 511.011 213.842 509.988 212.366C508.641 211.029 507.575 210.339 506.004 210.252C504.432 210.165 502.818 210.865 501.162 212.351L498.355 214.72C496.699 216.207 495.828 217.736 495.743 219.31C495.659 220.883 495.897 222.316 497.243 223.653Z" fill="black"/>
<path d="M503.957 236.488L522.413 221.572L525.527 225.216L522.397 227.725L522.537 228.048C523.183 227.768 523.968 227.812 524.614 227.532C525.4 227.575 526.045 227.295 526.648 227.802C527.434 227.846 528.037 228.352 528.5 228.536C529.103 229.042 529.706 229.549 530.45 230.379C531.936 232.039 532.455 234.119 532.187 236.155C531.92 238.192 530.544 240.325 528.242 242.091L516.228 251.525L513.114 247.881L524.483 238.727C527.29 236.358 527.74 233.858 525.973 231.552C525.693 230.905 525.23 230.722 524.627 230.215C524.024 229.708 523.561 229.525 523.098 229.342C522.635 229.158 521.849 229.115 521.526 229.255C520.881 229.535 520.558 229.674 519.913 229.954L507.393 239.992L503.957 236.488Z" fill="black"/>
<path d="M531.362 266.089C529.468 266.142 528.219 265.916 526.971 265.689C525.582 265.139 524.516 264.449 523.492 262.972C521.725 260.665 521.529 258.446 522.302 255.806C523.075 253.166 525.096 250.754 528.366 248.568C531.637 246.382 534.541 245.122 537.221 245.112C539.901 245.103 542.033 246.483 543.66 248.466C544.684 249.943 545.245 251.236 545.02 252.486C544.935 254.059 544.71 255.309 543.839 256.839L543.979 257.162L555.769 248.978L558.699 253.085L531.163 272.705L528.232 268.599L531.362 266.089ZM528.109 262.123C528.389 262.769 528.992 263.276 529.455 263.459C530.058 263.966 530.521 264.15 530.984 264.333C531.447 264.516 532.233 264.56 532.555 264.42C533.201 264.14 533.846 263.86 534.492 263.58L540.892 258.885C541.537 258.605 542.043 258.002 542.225 257.538C542.408 257.075 542.591 256.612 542.633 255.825C542.675 255.039 542.535 254.716 542.255 254.069C541.974 253.422 541.694 252.776 541.414 252.129C540.39 250.652 538.861 249.779 537.612 249.552C536.041 249.465 534.61 249.702 532.954 251.188L529.683 253.374C528.21 254.397 527.199 255.603 526.792 257.316C526.707 258.89 527.085 260.646 528.109 262.123Z" fill="black"/>
<path d="M539.268 286.092C538.245 284.615 537.684 283.322 537.306 281.565C537.068 280.132 537.153 278.559 537.378 277.309C537.603 276.059 538.473 274.529 539.484 273.323C540.495 272.117 541.828 270.77 543.442 270.071C544.915 269.048 546.529 268.348 548.283 267.971C550.037 267.595 551.469 267.359 552.717 267.585C553.966 267.812 555.355 268.362 556.744 268.912C557.81 269.603 559.156 270.939 559.717 272.233C560.74 273.709 561.301 275.002 561.539 276.436C561.777 277.869 561.552 279.119 561.327 280.369C561.102 281.618 560.232 283.148 559.544 284.215C558.533 285.421 557.382 286.304 555.908 287.327L554.435 288.35L545.727 274.457L545.082 274.737C543.608 275.76 542.597 276.966 542.19 278.679C541.782 280.393 542.02 281.826 543.184 283.626C544.067 284.779 544.951 285.932 545.877 286.299C546.943 286.989 548.191 287.216 549.623 286.98L549.088 291.052C547.516 290.966 545.945 290.879 544.416 290.005C541.919 289.552 540.572 288.215 539.268 286.092ZM556.91 274.602C556.629 273.955 555.886 273.125 555.423 272.942C554.82 272.435 554.034 272.392 553.108 272.025C552.323 271.982 551.537 271.938 550.751 271.895C550.106 272.175 548.997 272.271 548.492 272.874L548.169 273.014L554.269 282.661L554.591 282.521C556.065 281.498 557.076 280.291 557.624 278.902C558.171 277.512 557.933 276.079 556.91 274.602Z" fill="black"/>
<path d="M551.148 296.688L554.177 301.905L567.678 294.131L564.649 288.914L568.382 286.912L573.696 296.515L568.167 299.68L568.307 300.004C568.952 299.724 570.061 299.627 570.847 299.671C571.632 299.714 572.418 299.758 573.344 300.124C574.27 300.491 574.733 300.674 575.799 301.365C576.402 301.871 577.145 302.701 577.566 303.671L579.01 306.118L574.954 308.26L572.809 304.197C571.785 302.721 570.579 301.707 569.19 301.157C567.801 300.607 566.047 300.983 564.574 302.006L556.925 306.475L561.258 313.815L557.525 315.817L547.878 298.874L551.148 296.688Z" fill="black"/>
<path d="M619.523 399.557L620.882 403.577L602.485 411.553L602.625 411.877L622.62 409.353L623.937 414.159L606.1 423.429L606.24 423.753L626.137 420.119L627.497 424.139L603.811 427.878L602.073 422.102L618.76 413.715L618.619 413.392L600.056 415.679L598.318 409.903L619.523 399.557Z" fill="black"/>
<path d="M607.493 444.334C607.115 442.578 606.877 441.145 607.284 439.431C607.369 437.858 607.917 436.469 608.928 435.262C609.616 434.196 610.626 432.989 612.24 432.29C613.714 431.267 615.005 430.707 617.082 430.19C618.836 429.814 620.59 429.438 622.301 429.848C623.873 429.935 625.261 430.485 626.65 431.035C628.039 431.585 628.923 432.738 629.806 433.892C630.69 435.045 631.391 436.662 631.769 438.418C632.147 440.175 632.385 441.608 631.977 443.321C631.892 444.894 631.345 446.284 630.334 447.49C629.646 448.557 628.635 449.763 627.021 450.463C625.548 451.486 624.257 452.046 622.18 452.562C620.426 452.938 618.672 453.315 616.96 452.905C615.389 452.818 614 452.268 612.611 451.718C611.222 451.167 610.339 450.014 609.455 448.861C608.432 447.384 607.871 446.091 607.493 444.334ZM611.183 443.118C611.562 444.875 612.585 446.351 613.974 446.902C615.503 447.775 617.075 447.862 619.151 447.346L622.659 446.593C624.736 446.076 626.21 445.053 627.221 443.847C628.091 442.317 628.316 441.067 627.798 438.988C627.42 437.231 626.396 435.754 625.007 435.204C623.478 434.331 621.907 434.244 619.83 434.76L616.322 435.513C614.245 436.029 612.771 437.052 611.761 438.259C610.89 439.789 610.805 441.362 611.183 443.118Z" fill="black"/>
<path d="M611.206 457.32L634.471 452.61L635.466 457.556L631.635 458.449L631.775 458.772C632.561 458.816 633.024 458.999 633.627 459.506C634.09 459.689 634.693 460.196 635.296 460.702C635.899 461.209 636.179 461.856 636.783 462.362C637.063 463.009 637.483 463.979 637.441 464.766C638.1 467.169 637.509 469.345 636.316 471.015C635.123 472.684 633.004 473.987 630.141 474.46L615.323 477.428L614.329 472.482L628.501 469.794C632.009 469.041 633.848 467.092 633.232 463.902C632.952 463.255 632.994 462.469 632.531 462.285C632.251 461.639 632.111 461.315 631.508 460.809C630.904 460.302 630.441 460.119 629.979 459.935C629.516 459.752 628.73 459.708 628.084 459.988L612.158 463.052L611.206 457.32Z" fill="black"/>
<path d="M622.118 497.527C620.589 496.653 619.2 496.103 618.317 494.95C617.433 493.796 616.873 492.503 616.494 490.747C616.018 487.88 616.931 485.564 618.77 483.614C620.609 481.665 623.514 480.405 627.485 479.836C631.456 479.266 634.739 479.763 637.194 481.004C639.326 482.384 640.953 484.367 641.429 487.234C641.807 488.99 641.259 490.38 640.711 491.77C640.164 493.159 639.013 494.043 637.862 494.926L638.002 495.249L652.132 493.348L652.803 498.434L619.141 503.042L618.47 497.956L622.118 497.527ZM620.984 492.257C620.941 493.044 621.222 493.69 621.502 494.337C621.782 494.983 622.063 495.63 622.526 495.813C623.129 496.32 623.592 496.504 624.055 496.687C624.518 496.87 625.303 496.914 626.089 496.957L634.031 495.818C634.817 495.862 635.462 495.582 635.968 494.979C636.473 494.375 636.796 494.236 637.301 493.632C637.484 493.169 637.989 492.566 638.031 491.779C638.074 490.993 638.256 490.529 637.976 489.883C637.598 488.126 636.897 486.51 635.831 485.82C634.765 485.13 633.053 484.719 630.836 484.912L626.865 485.482C625.111 485.858 623.497 486.558 622.487 487.764C621.013 488.787 620.606 490.5 620.984 492.257Z" fill="black"/>
<path d="M619.824 519.647C619.769 517.75 619.854 516.177 620.402 514.787C620.949 513.398 621.497 512.008 622.648 511.125C623.659 509.918 624.95 509.359 626.564 508.659C628.177 507.959 629.609 507.723 631.503 507.67C633.397 507.617 634.968 507.703 636.68 508.114C638.392 508.524 639.458 509.214 640.664 510.227C641.87 511.241 642.754 512.394 643.314 513.687C643.875 514.981 644.576 516.597 644.491 518.17C644.406 519.743 644.322 521.317 644.097 522.566C643.549 523.956 642.861 525.023 641.85 526.229C640.84 527.435 639.548 527.995 638.257 528.555C636.966 529.115 635.212 529.491 633.458 529.867L631.564 529.921L630.28 512.809L629.494 512.766C627.6 512.819 625.986 513.518 625.116 515.048C624.105 516.254 623.698 517.967 623.753 519.864C623.991 521.297 624.229 522.73 624.972 523.56C625.856 524.714 626.599 525.544 627.988 526.094L625.601 529.433C624.212 528.883 622.866 527.546 621.842 526.07C620.538 523.946 620.02 521.867 619.824 519.647ZM640.745 517.49C640.788 516.703 640.367 515.733 640.087 515.087C639.806 514.44 639.203 513.933 638.6 513.427C637.997 512.92 637.394 512.413 636.608 512.37C635.682 512.003 634.897 511.96 634.111 511.916L633.788 512.056L634.723 523.942L635.046 523.802C636.94 523.749 638.554 523.049 639.565 521.843C640.576 520.636 641.123 519.246 640.745 517.49Z" fill="black"/>
<path d="M625.629 534.8L625.612 540.953L641.229 540.711L641.245 534.559L645.496 534.636L645.829 546.015L639.683 545.991L639.823 546.314C640.609 546.357 641.535 546.724 642.138 547.231C643.064 547.598 643.667 548.104 644.27 548.611C644.873 549.118 645.294 550.088 645.574 550.734C645.995 551.704 646.092 552.814 646.19 553.924L646.203 556.607L641.306 556.81L641.238 552.23C641.183 550.334 640.622 549.04 639.598 547.564C638.575 546.087 637.003 546 635.109 546.053L626.284 546.039L626.463 554.411L622.211 554.334L622.023 534.443L625.629 534.8Z" fill="black"/>
<path d="M644.974 570.581L644.58 574.978L624.389 575.282L624.207 575.745L643.595 581.55L643.018 586.409L622.925 587.823L622.742 588.287L642.356 592.842L641.821 596.915L618.644 591.216L619.446 585.106L638.108 583.929L638.29 583.466L620.291 578.211L621.093 572.101L644.974 570.581Z" fill="black"/>
<path d="M615.621 606.354C616.029 604.641 616.576 603.251 617.447 601.721C618.458 600.515 619.146 599.448 620.76 598.749C621.91 597.865 623.342 597.629 625.096 597.253C626.527 597.016 628.421 596.963 630.273 597.697C631.984 598.107 633.696 598.517 635.225 599.39C636.754 600.264 637.96 601.277 638.521 602.571C639.405 603.724 639.965 605.017 640.203 606.45C640.441 607.884 640.356 609.457 639.949 611.17C639.541 612.883 638.993 614.273 638.123 615.802C637.252 617.332 636.424 618.075 634.81 618.775C633.519 619.335 632.228 619.894 630.474 620.271C629.043 620.507 627.149 620.56 625.297 619.827C623.585 619.417 621.874 619.007 620.345 618.133C618.816 617.26 617.61 616.246 617.049 614.953C616.488 613.66 615.605 612.506 615.367 611.073C615.129 609.64 615.214 608.067 615.621 606.354ZM619.507 607.357C619.1 609.071 619.478 610.827 620.361 611.98C621.245 613.134 622.774 614.007 624.948 614.601L628.372 615.421C630.546 616.015 632.3 615.638 633.451 614.755C634.602 613.872 635.613 612.666 636.02 610.953C636.428 609.24 636.05 607.483 635.166 606.33C634.283 605.176 632.754 604.303 630.579 603.709L627.156 602.889C624.981 602.295 623.227 602.672 622.076 603.555C620.785 604.115 619.775 605.321 619.507 607.357Z" fill="black"/>
<path d="M613.147 620.101L635.917 627.514L634.554 632.33L630.527 631.002C631.131 631.509 631.593 631.693 631.874 632.339C632.154 632.986 632.757 633.493 633.038 634.139C633.318 634.786 633.276 635.572 633.233 636.359C633.191 637.145 633.148 637.932 632.783 638.859C632.193 641.035 630.677 642.845 628.74 643.684C626.804 644.524 624.587 644.717 621.809 643.617L607.093 638.858L608.456 634.042L622.246 638.434C625.81 639.578 628.069 638.598 629.024 635.495C629.207 635.032 629.249 634.245 629.432 633.782C629.474 632.995 629.334 632.672 629.054 632.025C628.773 631.379 628.633 631.056 628.03 630.549C627.427 630.042 626.964 629.859 626.501 629.675L611.322 624.734L613.147 620.101Z" fill="black"/>
<path d="M602.017 659.879C600.993 658.402 600.433 657.109 600.518 655.536C600.28 654.102 600.505 652.853 601.235 650.999C602.471 648.543 604.45 646.917 606.989 646.584C609.389 645.928 612.812 646.748 616.333 648.678C620.177 650.469 622.267 652.635 623.711 655.082C624.832 657.669 624.705 660.028 623.469 662.485C622.599 664.014 621.588 665.221 620.297 665.78C619.006 666.34 617.715 666.9 616.143 666.813L615.961 667.276L628.698 673.661L626.41 678.11L596.025 662.861L598.314 658.412L602.017 659.879ZM604.026 654.783C603.52 655.386 603.478 656.173 603.295 656.636C603.253 657.422 603.07 657.886 603.351 658.532C603.631 659.179 603.771 659.502 604.051 660.149C604.332 660.795 604.795 660.979 605.721 661.346L612.622 664.883C613.226 665.389 614.011 665.433 614.334 665.293C615.12 665.336 615.443 665.196 616.088 664.917C616.734 664.637 616.916 664.173 617.562 663.894C618.067 663.29 618.25 662.827 618.755 662.224C619.626 660.694 619.71 659.121 619.01 657.504C618.449 656.211 617.102 654.874 615.573 654.001L612.193 652.394C610.341 651.661 608.952 651.11 607.338 651.81C605.907 652.047 604.756 652.93 604.026 654.783Z" fill="black"/>
<path d="M586.703 674.969C587.574 673.439 589.047 672.416 590.198 671.533C591.349 670.65 593.103 670.274 594.212 670.177C595.643 669.941 597.214 670.028 598.603 670.578C599.992 671.128 601.521 672.002 603.19 673.198C604.859 674.395 605.743 675.548 606.766 677.025C607.79 678.502 608.351 679.795 608.589 681.228C608.827 682.661 608.742 684.234 608.517 685.484C607.969 686.874 607.421 688.264 606.551 689.794C605.54 691 604.529 692.206 603.238 692.766C601.947 693.326 600.656 693.886 599.225 694.122C597.794 694.359 596.545 694.132 594.833 693.722C593.445 693.171 592.056 692.621 590.387 691.425L588.717 690.228L598.909 676.591L598.306 676.084C596.637 674.887 595.248 674.337 593.494 674.713C591.74 675.09 590.589 675.973 589.256 677.319C588.245 678.526 587.697 679.915 587.795 681.025C587.893 682.135 587.808 683.708 588.229 684.678L584.075 685.711C583.374 684.094 583.136 682.661 583.404 680.625C584.457 678.632 585.187 676.779 586.703 674.969ZM603.535 687.26C604.041 686.657 604.406 685.73 604.448 684.944C604.491 684.157 604.533 683.371 604.575 682.584C604.618 681.798 604.337 681.151 603.594 680.321C603.314 679.674 602.57 678.844 601.967 678.338L601.827 678.014L594.85 687.569L595.313 687.752C596.982 688.949 598.371 689.499 599.802 689.263C601.374 689.35 602.665 688.79 603.535 687.26Z" fill="black"/>
<path d="M581.043 689.33L576.257 693.326L586.018 705.226L590.804 701.23L593.314 704.367L584.57 711.615L580.573 706.818L580.25 706.958C580.531 707.605 580.951 708.575 580.909 709.361C581.189 710.008 581.287 711.118 580.922 712.044C580.879 712.831 580.514 713.757 580.149 714.684C579.784 715.61 578.956 716.353 578.128 717.097L575.826 718.863L572.713 715.219L576.348 712.107C577.821 711.084 578.692 709.554 578.777 707.981C578.862 706.408 578.624 704.975 577.277 703.638L571.654 696.858L565.211 702.34L562.701 699.203L577.887 686.473L581.043 689.33Z" fill="black"/>
<path d="M534.696 736.312L530.262 736.698L525.963 717.053L525.64 717.193L524.075 737.461L519.318 737.987L513.91 718.438L513.587 718.578L513.13 738.749L509.019 738.995L510.151 715.075L516.016 714.452L521.046 732.244L521.369 732.104L522.849 713.41L529.037 712.647L534.696 736.312Z" fill="black"/>
<path d="M494.66 712.956C496.372 713.366 498.084 713.776 499.15 714.466C500.539 715.017 501.422 716.17 502.305 717.323C503.189 718.477 503.75 719.77 504.128 721.526C504.366 722.96 504.421 724.856 504.154 726.892C503.886 728.929 503.339 730.319 502.791 731.708C502.243 733.098 501.232 734.305 500.081 735.188C498.931 736.071 497.78 736.954 496.348 737.19C494.917 737.427 493.163 737.803 491.452 737.393C489.74 736.983 488.028 736.573 486.962 735.882C485.573 735.332 484.69 734.179 483.806 733.026C482.923 731.872 482.362 730.579 481.984 728.823C481.746 727.389 481.691 725.493 481.958 723.456C482.226 721.42 482.773 720.03 483.321 718.641C483.869 717.251 484.88 716.044 486.03 715.161C487.181 714.278 488.332 713.395 489.764 713.159C491.518 712.782 492.949 712.546 494.66 712.956ZM494.126 717.029C492.414 716.619 490.8 717.318 489.649 718.201C488.498 719.085 487.628 720.614 487.501 722.974L487.148 726.583C486.881 728.62 487.259 730.376 488.283 731.853C489.166 733.006 490.695 733.88 492.267 733.967C493.978 734.377 495.592 733.677 496.743 732.794C497.894 731.911 498.764 730.381 498.892 728.022L499.244 724.412C499.511 722.376 499.133 720.619 498.11 719.142C497.549 717.849 496.02 716.976 494.126 717.029Z" fill="black"/>
<path d="M481.81 711.614L474.757 734.26L469.945 732.89L470.943 729.001C470.437 729.604 470.255 730.067 469.609 730.347C469.104 730.95 468.458 731.23 467.813 731.51C467.167 731.79 466.382 731.746 465.736 732.026C464.95 731.983 464.165 731.939 463.239 731.573C461.064 730.979 459.255 729.459 458.414 727.519C457.573 725.579 457.377 723.359 458.15 720.72L462.561 706.132L467.374 707.502L463.004 721.304C461.866 724.87 462.848 727.133 465.948 728.093C466.411 728.277 467.197 728.32 467.983 728.364C468.768 728.407 469.091 728.267 469.737 727.987C470.382 727.707 470.705 727.567 471.21 726.964C471.716 726.361 471.898 725.898 472.081 725.434L476.857 709.92L481.81 711.614Z" fill="black"/>
<path d="M442.205 700.747C443.679 699.724 444.97 699.164 446.401 698.927C447.832 698.691 449.404 698.778 450.933 699.651C453.387 700.891 455.014 702.875 455.673 705.278C456.331 707.681 455.839 710.967 454.055 714.813C452.272 718.659 450.25 721.072 447.991 722.052C445.409 723.171 443.192 723.364 440.737 722.124C439.208 721.251 438.002 720.237 437.118 719.084C436.558 717.791 435.997 716.497 436.082 714.924L435.619 714.741L429.398 727.808L424.951 725.512L439.541 694.603L443.988 696.901L442.205 700.747ZM447.297 702.764C446.694 702.257 445.908 702.214 445.446 702.03C444.66 701.987 444.197 701.803 443.551 702.083C442.906 702.363 442.583 702.503 441.937 702.783C441.292 703.063 441.109 703.526 440.744 704.453L437.36 711.681C436.854 712.285 436.812 713.071 436.952 713.394C436.91 714.181 437.05 714.504 437.33 715.151C437.611 715.798 438.074 715.981 438.354 716.628C438.957 717.134 439.42 717.318 440.023 717.824C441.875 718.558 443.446 718.645 444.738 718.085C446.029 717.525 447.362 716.179 448.233 714.649L449.833 711.266C450.564 709.413 450.649 707.84 450.411 706.407C450.355 704.511 449.149 703.497 447.297 702.764Z" fill="black"/>
<path d="M426.285 686.14C427.814 687.014 429.16 688.35 430.044 689.504C430.927 690.657 431.488 691.95 431.726 693.384C431.964 694.817 431.879 696.39 431.794 697.963C431.71 699.536 430.839 701.066 429.646 702.736C428.775 704.265 427.442 705.612 426.291 706.495C425.14 707.378 423.666 708.401 422.235 708.637C420.804 708.874 419.373 709.11 417.801 709.023C416.23 708.936 414.841 708.386 413.635 707.373C412.106 706.5 411.222 705.346 410.339 704.193C409.455 703.039 408.894 701.746 408.657 700.313C408.419 698.88 408.503 697.307 408.728 696.057C409.276 694.667 409.684 692.954 410.694 691.748L411.565 690.218L425.887 699.372L426.392 698.769C427.263 697.239 427.67 695.526 427.432 694.093C427.054 692.336 426.171 691.183 424.179 690.126C422.973 689.113 421.724 688.886 420.152 688.799C418.904 688.572 417.613 689.132 416.644 689.552L415.145 685.209C416.759 684.509 418.19 684.273 420.084 684.22C421.978 684.167 424.153 684.76 426.285 686.14ZM415.236 703.99C415.839 704.497 416.765 704.864 417.55 704.907C418.336 704.95 419.122 704.994 419.767 704.714C420.413 704.434 421.058 704.154 422.027 703.734C422.532 703.131 423.36 702.388 423.865 701.785L424.048 701.322L413.99 694.928L413.808 695.391C412.937 696.921 412.53 698.634 412.768 700.067C412.823 701.963 413.707 703.117 415.236 703.99Z" fill="black"/>
<path d="M410.459 681.478L405.311 677.565L395.667 689.812L400.815 693.726L398.428 697.065L389.662 690.111L393.564 684.962L393.424 684.639C392.919 685.242 391.951 685.662 391.305 685.942C390.66 686.222 389.691 686.642 388.905 686.598C388.12 686.555 387.334 686.511 386.085 686.285C385.16 685.918 384.234 685.551 383.168 684.861L380.895 683.158L383.787 679.215L387.406 682.255C389.075 683.452 390.464 684.002 391.895 683.766C393.326 683.529 394.94 682.829 395.811 681.3L401.23 674.341L394.413 669.231L396.799 665.891L412.523 678.279L410.459 681.478Z" fill="black"/>
<path d="M370.966 674.403L367.81 671.546L380.023 655.496L379.883 655.172L363.49 666.889L360.054 663.386L371.524 646.506L371.384 646.182L355.735 658.729L352.902 655.732L371.821 641L376.323 645.193L365.724 660.543L365.864 660.867L381.106 650.033L385.608 654.227L370.966 674.403Z" fill="black"/>
<path d="M360.166 629.154C361.512 630.491 362.073 631.784 362.634 633.077C363.194 634.371 363.432 635.804 363.025 637.517C362.94 639.09 362.392 640.48 361.522 642.01C360.651 643.539 359.64 644.746 358.307 646.092C356.974 647.438 355.5 648.461 353.886 649.161C352.272 649.861 350.841 650.097 349.41 650.334C347.838 650.247 346.59 650.02 345.201 649.47C343.812 648.92 342.606 647.906 341.259 646.57C339.913 645.233 339.352 643.94 338.791 642.646C338.231 641.353 337.993 639.92 338.4 638.207C338.808 636.494 339.033 635.244 339.903 633.714C340.774 632.185 341.785 630.978 343.118 629.632C344.452 628.285 345.925 627.262 347.539 626.563C349.153 625.863 350.584 625.627 352.015 625.39C353.587 625.477 354.835 625.704 356.224 626.254C357.936 626.664 359.142 627.677 360.166 629.154ZM357.499 631.847C356.152 630.51 355.086 629.82 353.515 629.733C351.944 629.646 350.33 630.346 348.673 631.832L345.866 634.202C344.21 635.688 343.34 637.218 343.255 638.791C343.17 640.364 343.731 641.657 344.754 643.134C346.101 644.471 347.167 645.161 348.738 645.247C350.31 645.334 351.924 644.635 353.58 643.148L356.387 640.779C358.043 639.293 358.914 637.763 358.998 636.19C359.083 634.617 358.523 633.323 357.499 631.847Z" fill="black"/>
<path d="M350.321 618.827L331.864 633.743L328.61 629.776L331.74 627.267L331.6 626.943C330.955 627.223 330.169 627.18 329.523 627.46C328.738 627.416 327.952 627.373 327.489 627.189C326.703 627.146 326.1 626.639 325.497 626.133C324.894 625.626 324.291 625.119 323.548 624.289C321.921 622.306 321.543 620.549 321.67 618.19C321.937 616.153 323.313 614.02 325.615 612.254L337.629 602.82L340.883 606.787L329.514 615.941C326.707 618.31 326.257 620.81 328.164 623.44C328.444 624.086 328.907 624.27 329.51 624.777C330.114 625.283 330.577 625.467 331.039 625.65C331.502 625.833 332.288 625.877 332.611 625.737C333.256 625.457 333.579 625.317 334.225 625.037L346.744 615L350.321 618.827Z" fill="black"/>
<path d="M322.032 588.073C323.926 588.02 325.175 588.246 326.564 588.797C327.953 589.347 329.159 590.36 330.042 591.513C331.809 593.82 332.145 596.363 331.232 598.679C330.459 601.319 328.438 603.732 325.168 605.918C321.898 608.104 318.993 609.363 316.313 609.373C313.633 609.383 311.501 608.002 309.734 605.696C308.71 604.219 308.15 602.926 308.234 601.353C308.319 599.78 308.544 598.53 309.415 597L309.275 596.677L297.485 604.861L294.555 600.754L322.414 580.994L325.345 585.1L322.032 588.073ZM325.749 592.223C325.468 591.576 324.865 591.069 324.262 590.563C323.659 590.056 323.196 589.873 322.733 589.689C322.27 589.506 321.484 589.462 321.162 589.602C320.516 589.882 319.73 589.839 319.225 590.442L312.825 595.137C312.18 595.417 311.674 596.02 311.492 596.484C311.309 596.947 311.126 597.41 311.084 598.197C311.042 598.983 311.182 599.307 311.462 599.953C311.742 600.6 312.023 601.247 312.303 601.893C313.327 603.37 314.856 604.243 316.105 604.47C317.676 604.557 319.107 604.321 320.904 603.158L324.174 600.972C325.647 599.949 326.658 598.742 327.066 597.029C327.01 595.133 326.772 593.699 325.749 592.223Z" fill="black"/>
<path d="M314.17 567.284C315.194 568.761 315.894 570.377 316.132 571.811C316.37 573.244 316.286 574.817 316.061 576.067C315.513 577.457 314.965 578.846 313.954 580.053C312.944 581.259 311.61 582.605 309.996 583.305C308.523 584.328 306.909 585.028 305.155 585.404C303.401 585.781 301.97 586.017 300.581 585.467C299.332 585.24 297.943 584.69 296.414 583.817C295.208 582.803 294.002 581.79 293.301 580.173C292.277 578.697 291.716 577.403 291.478 575.97C291.241 574.537 291.325 572.964 291.55 571.714C292.098 570.324 292.646 568.934 293.334 567.868C294.344 566.662 295.495 565.778 296.969 564.755L298.443 563.732L307.431 578.272L308.076 577.992C309.55 576.969 310.561 575.763 310.968 574.05C311.376 572.337 310.998 570.58 309.974 569.103C309.09 567.95 308.207 566.797 307.141 566.107C306.075 565.417 304.826 565.19 303.395 565.426L303.93 561.353C305.501 561.44 307.213 561.85 308.742 562.724C311.197 563.964 312.543 565.301 314.17 567.284ZM296.528 578.774C296.809 579.42 297.552 580.25 298.155 580.757C298.758 581.264 299.684 581.631 300.47 581.674C301.256 581.718 302.041 581.761 302.827 581.804C303.613 581.848 304.581 581.428 305.086 580.825L305.409 580.685L299.169 570.715L298.847 570.855C297.373 571.878 296.362 573.084 295.815 574.474C295.267 575.864 295.505 577.297 296.528 578.774Z" fill="black"/>
<path d="M301.826 556.503L298.657 550.963L285.156 558.737L288.325 564.277L284.592 566.28L279.138 556.353L284.668 553.188L284.527 552.864C283.882 553.144 282.773 553.241 281.988 553.197C281.202 553.154 280.416 553.11 279.49 552.744C278.564 552.377 277.961 551.87 277.035 551.503C276.432 550.997 275.689 550.167 275.128 548.873L273.684 546.427L278.063 544.144L280.208 548.208C281.231 549.684 282.438 550.698 283.827 551.248C285.215 551.798 286.969 551.421 288.583 550.722L296.232 546.253L291.899 538.913L295.632 536.911L305.419 554.177L301.826 556.503Z" fill="black"/>
<path d="M235.176 456.729L233.817 452.709L252.214 444.732L252.074 444.409L232.079 446.933L230.762 442.126L248.599 432.856L248.459 432.533L228.562 436.167L227.342 432.47L251.028 428.731L252.766 434.507L236.079 442.894L236.22 443.217L254.783 440.93L256.844 446.566L235.176 456.729Z" fill="black"/>
<path d="M247.345 412.274C247.723 414.031 247.961 415.464 247.554 417.177C247.469 418.75 246.921 420.14 245.911 421.346C245.223 422.413 244.212 423.619 242.598 424.319C241.124 425.342 239.833 425.902 237.757 426.418C236.003 426.794 234.249 427.171 232.537 426.761C230.965 426.674 229.577 426.124 228.188 425.574C226.799 425.023 225.915 423.87 225.032 422.717C224.149 421.563 223.448 419.947 223.21 418.514C222.832 416.757 222.594 415.324 223.001 413.611C223.086 412.038 223.634 410.648 224.644 409.441C225.332 408.375 226.343 407.169 227.957 406.469C229.431 405.446 230.722 404.886 232.798 404.37C234.552 403.993 236.306 403.617 238.018 404.027C239.589 404.114 240.978 404.664 242.367 405.214C243.756 405.764 244.639 406.918 245.523 408.071C246.406 409.224 246.967 410.518 247.345 412.274ZM243.515 413.167C243.136 411.41 242.253 410.257 240.724 409.384C239.195 408.51 237.623 408.423 235.547 408.94L232.039 409.692C229.962 410.209 228.488 411.232 227.477 412.438C226.607 413.968 226.382 415.218 226.76 416.974C227.138 418.731 228.022 419.884 229.551 420.758C231.08 421.631 232.651 421.718 234.728 421.202L238.236 420.449C240.313 419.932 241.786 418.909 242.797 417.703C243.808 416.497 243.893 414.923 243.515 413.167Z" fill="black"/>
<path d="M243.633 399.289L220.368 403.998L219.374 399.052L223.204 398.159L223.064 397.836C222.279 397.793 221.816 397.609 221.212 397.103C220.749 396.919 220.146 396.413 219.543 395.906C218.94 395.399 218.66 394.753 218.057 394.246C217.776 393.599 217.356 392.629 217.075 391.983C216.417 389.579 217.147 387.726 218.2 385.733C219.394 384.064 221.513 382.761 224.375 382.288L239.193 379.32L240.187 384.267L226.015 386.954C222.507 387.707 220.668 389.657 221.284 392.846C221.565 393.493 221.522 394.28 221.985 394.463C222.266 395.11 222.406 395.433 223.009 395.94C223.612 396.446 224.075 396.63 224.538 396.813C225.001 396.996 225.787 397.04 226.432 396.76L242.218 393.373L243.633 399.289Z" fill="black"/>
<path d="M232.538 359.545C234.067 360.418 235.456 360.968 236.339 362.122C237.223 363.275 237.783 364.568 238.161 366.325C238.637 369.191 237.724 371.507 236.208 373.317C234.37 375.267 231.465 376.526 227.494 377.095C223.523 377.665 220.24 377.168 217.785 375.928C215.653 374.547 214.026 372.564 213.69 370.021C213.312 368.265 213.537 367.015 214.407 365.485C214.955 364.095 216.106 363.212 217.257 362.329L217.117 362.006L202.987 363.907L202.315 358.821L235.837 353.889L236.509 358.975L232.538 359.545ZM233.672 364.814C233.715 364.028 233.434 363.381 233.154 362.734C232.873 362.088 232.593 361.441 232.13 361.258C231.527 360.751 231.064 360.568 230.601 360.384C230.138 360.201 229.352 360.158 228.567 360.114L220.625 361.253C219.839 361.209 219.194 361.489 218.688 362.093C218.043 362.372 217.86 362.836 217.355 363.439C217.172 363.902 216.667 364.505 216.624 365.292C216.582 366.079 216.399 366.542 216.68 367.188C217.058 368.945 217.759 370.562 219.148 371.112C220.354 372.125 221.925 372.212 224.142 372.019L228.113 371.449C229.867 371.073 231.481 370.373 232.492 369.167C233.643 368.284 234.05 366.571 233.672 364.814Z" fill="black"/>
<path d="M234.649 337.889C234.704 339.785 234.619 341.358 234.072 342.748C233.524 344.138 232.976 345.528 231.825 346.411C230.814 347.617 229.523 348.177 228.232 348.737C226.618 349.436 225.187 349.673 223.293 349.726C221.399 349.779 219.827 349.692 218.116 349.282C216.404 348.872 215.338 348.182 213.809 347.308C212.603 346.295 211.86 345.465 210.836 343.988C210.275 342.695 209.574 341.078 209.659 339.505C209.421 338.072 209.829 336.359 210.054 335.109C210.601 333.719 211.289 332.653 212.3 331.446C213.311 330.24 214.602 329.68 215.893 329.12C217.184 328.561 218.938 328.184 220.692 327.808L222.586 327.755L224.053 344.403L224.839 344.447C226.733 344.394 228.347 343.694 229.217 342.164C230.228 340.958 230.635 339.245 230.58 337.348C230.342 335.915 230.104 334.482 229.361 333.652C228.617 332.822 227.734 331.668 226.485 331.442L228.872 328.102C230.261 328.652 231.607 329.989 232.631 331.466C233.795 333.266 234.636 335.206 234.649 337.889ZM213.728 340.046C213.685 340.832 214.106 341.802 214.386 342.449C214.667 343.095 215.27 343.602 215.873 344.109C216.476 344.615 217.079 345.122 217.865 345.166C218.791 345.532 219.577 345.576 220.362 345.619L220.685 345.479L219.75 333.594L219.427 333.734C217.533 333.787 215.919 334.486 215.231 335.553C214.22 336.759 213.672 338.149 213.728 340.046Z" fill="black"/>
<path d="M228.846 322.736L228.862 316.583L213.246 316.825L213.229 322.977L209.118 323.223L208.926 312.168L215.394 312.052L215.254 311.729C214.469 311.685 213.543 311.319 212.94 310.812C212.014 310.445 211.411 309.938 210.807 309.432C210.204 308.925 209.784 307.955 209.503 307.309C209.083 306.339 208.985 305.229 208.887 304.119L208.874 301.436L213.771 301.233L213.84 305.813C213.895 307.709 214.456 309.002 215.339 310.156C216.545 311.169 217.934 311.719 219.828 311.666L228.654 311.681L228.475 303.308L232.586 303.062L233.097 322.813L228.846 322.736Z" fill="black"/>
<path d="M209.317 287.416L209.711 283.02L229.902 282.716L230.084 282.253L210.514 276.911L211.091 272.052L231.184 270.638L231.366 270.175L211.893 265.942L212.428 261.87L235.927 267.429L235.448 273.398L216.926 274.899L216.744 275.362L234.603 280.294L234.124 286.263L209.317 287.416Z" fill="black"/>
<path d="M238.345 251.785C237.938 253.498 237.39 254.888 236.519 256.417C235.509 257.624 234.821 258.69 233.53 259.25C232.379 260.133 230.947 260.369 229.193 260.746C227.762 260.982 225.868 261.035 224.156 260.625C222.445 260.215 220.733 259.805 219.204 258.931C217.675 258.058 216.609 257.368 215.726 256.215C214.842 255.061 214.281 253.768 214.043 252.335C213.805 250.902 213.89 249.328 213.975 247.755C214.383 246.042 214.93 244.652 215.801 243.123C216.812 241.916 217.5 240.85 218.791 240.29C219.942 239.407 221.373 239.171 223.127 238.794C224.558 238.558 226.452 238.505 228.164 238.915C229.876 239.325 231.587 239.735 233.116 240.609C234.645 241.482 235.711 242.172 236.595 243.325C237.478 244.479 238.039 245.772 238.277 247.205C238.515 248.638 238.753 250.072 238.345 251.785ZM234.459 250.781C234.867 249.068 234.488 247.311 233.605 246.158C232.722 245.005 231.192 244.131 229.018 243.538L225.595 242.717C223.42 242.124 221.666 242.5 220.515 243.383C219.364 244.266 218.354 245.473 218.086 247.509C217.679 249.222 218.057 250.979 218.94 252.132C219.824 253.285 221.353 254.159 223.527 254.752L226.951 255.573C229.125 256.166 230.879 255.79 232.03 254.907C233.181 254.024 234.192 252.817 234.459 250.781Z" fill="black"/>
<path d="M240.499 238.176L217.87 231.087L219.233 226.271L223.119 227.275C222.516 226.768 222.053 226.585 221.773 225.938C221.17 225.432 220.889 224.785 220.609 224.138C220.329 223.492 220.371 222.705 220.091 222.059C220.133 221.272 220.175 220.485 220.541 219.559C221.131 217.383 222.647 215.573 224.583 214.733C226.52 213.894 228.737 213.701 231.515 214.801L246.091 219.236L244.728 224.052L230.937 219.66C227.374 218.517 225.115 219.496 224.159 222.599C223.977 223.062 223.934 223.849 223.892 224.636C223.85 225.422 223.99 225.745 224.27 226.392C224.55 227.039 224.691 227.362 225.294 227.869C225.897 228.375 226.36 228.559 226.823 228.742L242.325 233.544L240.499 238.176Z" fill="black"/>
<path d="M250.982 198.678C252.006 200.155 252.566 201.448 252.804 202.881C253.042 204.315 252.817 205.564 252.087 207.417C250.851 209.874 248.872 211.5 246.473 212.156C244.073 212.812 240.79 212.315 236.946 210.525C233.103 208.735 230.69 206.708 229.709 204.445C228.587 201.858 228.392 199.638 229.628 197.182C230.498 195.652 231.509 194.446 232.66 193.563C233.951 193.003 235.242 192.443 236.813 192.53L236.996 192.067L223.936 185.823L226.224 181.373L257.115 196.019L254.826 200.469L250.982 198.678ZM248.974 203.774C249.479 203.171 249.521 202.384 249.704 201.921C249.746 201.134 249.929 200.671 249.648 200.025C249.368 199.378 249.228 199.055 248.948 198.408C248.667 197.761 248.204 197.578 247.278 197.211L240.377 193.674C239.773 193.167 238.988 193.124 238.342 193.404C237.557 193.36 237.234 193.5 236.588 193.78C235.943 194.06 235.76 194.523 235.115 194.803C234.609 195.406 234.427 195.87 233.921 196.473C233.191 198.326 232.966 199.576 233.667 201.192C234.228 202.486 235.574 203.822 237.103 204.696L240.484 206.303C242.336 207.036 243.907 207.123 245.338 206.887C247.092 206.51 248.103 205.304 248.974 203.774Z" fill="black"/>
<path d="M265.831 183.405C264.961 184.935 263.487 185.958 262.336 186.841C261.185 187.724 259.754 187.961 258.323 188.197C256.892 188.434 255.32 188.347 253.931 187.797C252.543 187.246 250.691 186.513 249.485 185.5C247.815 184.303 246.609 183.289 245.585 181.813C244.562 180.336 244.001 179.043 243.763 177.61C243.525 176.176 243.287 174.743 243.835 173.353C244.06 172.104 244.93 170.574 245.801 169.044C246.812 167.838 247.822 166.631 249.113 166.072C250.264 165.189 251.696 164.952 253.127 164.716C254.558 164.479 255.807 164.706 257.518 165.116C258.907 165.666 260.296 166.216 261.965 167.413L263.634 168.61L253.906 182.43L254.509 182.937C256.178 184.134 257.427 184.361 259.321 184.308C261.075 183.931 262.226 183.048 263.419 181.379C263.364 179.482 263.729 178.556 263.814 176.982C264.039 175.733 263.801 174.299 263.38 173.329L267.534 172.297C268.234 173.913 268.472 175.347 268.205 177.383C267.938 179.419 267.207 181.272 265.831 183.405ZM248.354 171.394C247.848 171.997 247.483 172.924 247.441 173.711C247.398 174.497 247.356 175.284 247.314 176.07C247.594 176.717 247.551 177.503 248.295 178.333C248.575 178.98 249.318 179.81 250.244 180.177L250.385 180.5L257.222 170.622L256.759 170.439C255.089 169.242 253.841 169.015 252.269 168.928C250.515 169.305 249.224 169.865 248.354 171.394Z" fill="black"/>
<path d="M271.028 168.861L275.674 164.542L265.268 152.922L260.622 157.241L257.789 154.244L266.07 146.813L270.39 151.469L270.713 151.329C270.432 150.683 270.012 149.713 269.731 149.066C269.451 148.42 269.353 147.31 269.396 146.523C269.438 145.737 269.803 144.81 270.168 143.884C270.534 142.957 271.362 142.214 272.19 141.471L274.351 139.381L277.465 143.025L273.83 146.137C272.496 147.483 271.808 148.55 271.401 150.263C271.316 151.836 271.876 153.129 272.9 154.606L278.847 161.246L285.149 155.441L287.982 158.438L273.398 171.674L271.028 168.861Z" fill="black"/>
</svg>
