<svg width="42" height="42" viewBox="0 0 42 42" fill="none" xmlns="http://www.w3.org/2000/svg">
<path d="M18.0957 24.9656L18.0954 17.0345C18.0954 15.0061 19.7398 13.3618 21.7682 13.3618C22.9732 13.3618 23.9904 12.4671 24.1445 11.2723L24.6927 7.02326C24.9199 5.26243 23.5483 3.70235 21.7728 3.70235C15.9558 3.70235 11.2403 8.41786 11.2403 14.2349L11.2403 27.765C11.2403 33.582 15.9558 38.2975 21.7728 38.2975C23.5483 38.2975 24.9199 36.7379 24.6927 34.9766L24.1445 30.7276C23.9904 29.5328 22.9729 28.6379 21.7682 28.6381C19.7398 28.6381 18.0954 26.9938 18.0957 24.9656Z" fill="black"/>
<path d="M29.4463 31.8432C29.0051 31.402 29.0051 30.6862 29.4463 30.245C34.544 25.1473 34.5443 16.8523 29.4463 11.7543C29.0051 11.3131 29.0049 10.5976 29.4463 10.1561C29.8877 9.71471 30.603 9.71518 31.0444 10.1566C37.0234 16.1356 37.0234 25.8642 31.0444 31.8432C30.6032 32.2843 29.8875 32.2844 29.4463 31.8432Z" fill="black"/>
<path d="M25.9978 28.3949C25.5566 27.9537 25.5566 27.2379 25.9978 26.7967C29.1941 23.6004 29.1941 18.3994 25.9978 15.2031C25.5566 14.7619 25.5564 14.0464 25.9978 13.605C26.439 13.1638 27.1545 13.1636 27.5959 13.605C31.6735 17.6825 31.6735 24.3174 27.5959 28.3949C27.1545 28.8358 26.439 28.8361 25.9978 28.3949Z" fill="black"/>
</svg>
