<svg width="18" height="18" viewBox="0 0 18 18" fill="none" xmlns="http://www.w3.org/2000/svg">
<path fill-rule="evenodd" clip-rule="evenodd" d="M9 0C4.02944 0 0 4.02944 0 9C0 13.9706 4.02944 18 9 18C13.9706 18 18 13.9706 18 9C18 4.02944 13.9706 0 9 0ZM7.02122 4.22892C7.53323 4.20562 7.69683 4.19992 9.00044 4.19992H8.99894C10.303 4.19992 10.466 4.20562 10.978 4.22892C11.489 4.25232 11.838 4.33322 12.144 4.45192C12.46 4.57442 12.727 4.73842 12.994 5.00542C13.261 5.27223 13.425 5.54003 13.548 5.85573C13.666 6.16094 13.747 6.50974 13.771 7.02074C13.794 7.53275 13.8 7.69635 13.8 8.99997C13.8 10.3036 13.794 10.4668 13.771 10.9788C13.747 11.4896 13.666 11.8385 13.548 12.1438C13.425 12.4594 13.261 12.7272 12.994 12.994C12.7273 13.261 12.4599 13.4254 12.1443 13.548C11.8389 13.6667 11.4897 13.7476 10.9787 13.771C10.4667 13.7943 10.3036 13.8 8.99984 13.8C7.69633 13.8 7.53283 13.7943 7.02082 13.771C6.50992 13.7476 6.16102 13.6667 5.85561 13.548C5.54011 13.4254 5.27231 13.261 5.0056 12.994C4.7387 12.7272 4.5747 12.4594 4.452 12.1437C4.3334 11.8385 4.2525 11.4897 4.22899 10.9787C4.20579 10.4667 4.19999 10.3036 4.19999 8.99997C4.19999 7.69635 4.20599 7.53265 4.22889 7.02065C4.25189 6.50984 4.3329 6.16094 4.4519 5.85563C4.5749 5.54003 4.7389 5.27223 5.0059 5.00542C5.27271 4.73852 5.54051 4.57452 5.85621 4.45192C6.16142 4.33322 6.51022 4.25232 7.02122 4.22892Z" fill="black"/>
<path fill-rule="evenodd" clip-rule="evenodd" d="M8.56889 5.06498C8.6525 5.06485 8.74245 5.06489 8.83951 5.06493L8.99949 5.06498C10.2811 5.06498 10.433 5.06958 10.9391 5.09258C11.4071 5.11398 11.6611 5.19218 11.8303 5.25788C12.0543 5.34488 12.214 5.44889 12.3819 5.61689C12.5499 5.78489 12.6539 5.94489 12.7411 6.16889C12.8068 6.3379 12.8851 6.5919 12.9064 7.0599C12.9294 7.56591 12.9344 7.71791 12.9344 8.99892C12.9344 10.2799 12.9294 10.4319 12.9064 10.9379C12.885 11.4059 12.8068 11.66 12.7411 11.829C12.6541 12.053 12.5499 12.2125 12.3819 12.3804C12.2139 12.5484 12.0544 12.6524 11.8303 12.7394C11.6613 12.8054 11.4071 12.8834 10.9391 12.9048C10.4331 12.9278 10.2811 12.9328 8.99949 12.9328C7.71778 12.9328 7.56588 12.9278 7.05987 12.9048C6.59187 12.8832 6.33787 12.805 6.16856 12.7393C5.94456 12.6523 5.78456 12.5483 5.61656 12.3803C5.44856 12.2123 5.34456 12.0527 5.25736 11.8286C5.19165 11.6596 5.11335 11.4055 5.09205 10.9375C5.06905 10.4315 5.06445 10.2795 5.06445 8.99772C5.06445 7.71591 5.06905 7.56471 5.09205 7.0587C5.11345 6.5907 5.19165 6.3367 5.25736 6.16749C5.34436 5.94349 5.44856 5.78349 5.61656 5.61549C5.78456 5.44749 5.94456 5.34348 6.16856 5.25628C6.33777 5.19028 6.59187 5.11228 7.05987 5.09078C7.50268 5.07078 7.67428 5.06478 8.56889 5.06378V5.06498ZM11.5618 5.86191C11.2438 5.86191 10.9858 6.11961 10.9858 6.43772C10.9858 6.75572 11.2438 7.01372 11.5618 7.01372C11.8798 7.01372 12.1379 6.75572 12.1379 6.43772C12.1379 6.11971 11.8798 5.86171 11.5618 5.86171V5.86191ZM6.53446 8.99993C6.53446 7.63865 7.63812 6.53496 8.99939 6.5349C10.3607 6.5349 11.4641 7.63862 11.4641 8.99993C11.4641 10.3612 10.3608 11.4645 8.99949 11.4645C7.63818 11.4645 6.53446 10.3612 6.53446 8.99993Z" fill="black"/>
<path d="M9.00041 7.39996C9.88402 7.39996 10.6004 8.11627 10.6004 8.99998C10.6004 9.88359 9.88402 10.6 9.00041 10.6C8.1167 10.6 7.40039 9.88359 7.40039 8.99998C7.40039 8.11627 8.1167 7.39996 9.00041 7.39996Z" fill="black"/>
</svg>
