<svg width="128" height="118" viewBox="0 0 128 118" fill="none" xmlns="http://www.w3.org/2000/svg">
<path d="M104.48 21.616C103.948 19.7533 101.29 18.955 99.6955 18.4228C97.3032 17.6245 94.9109 16.8262 92.2528 16.8262C88.5314 16.8262 84.2784 19.2211 84.0126 23.4787C83.7468 27.2041 87.734 29.599 90.9237 29.599C93.0502 29.599 95.1767 28.8007 97.3032 27.7363C99.9613 26.4058 102.354 24.5431 104.746 22.9465C105.278 22.1482 104.746 21.3499 104.48 21.616C101.025 23.7448 97.569 26.6719 93.5818 27.7363C90.3921 28.5346 85.6075 27.7363 85.3417 24.0109C84.8101 19.4872 89.8605 17.6245 93.316 17.8906C95.4425 18.1567 97.569 18.6889 99.4297 19.4872C100.227 19.7533 101.025 20.0194 101.822 20.5516C102.619 21.0838 103.417 21.616 104.214 22.1482C104.214 21.8821 104.48 21.8821 104.48 21.616Z" fill="#1D1D1B"/>
</svg>
