<svg width="128" height="130" viewBox="0 0 128 130" fill="none" xmlns="http://www.w3.org/2000/svg">
<path d="M63.9295 31.7537C64.7269 29.0927 67.385 27.7622 68.7141 25.3673C70.0431 23.2385 70.309 20.5775 70.0431 17.9165C69.7773 14.9894 68.7141 12.0623 67.6508 9.40127C66.3218 6.47417 64.9927 3.28097 63.6637 0.353872C63.6637 0.0877719 63.3979 0.0877719 63.132 0.353872C59.4107 4.34537 57.2842 9.13517 57.0184 14.4572C56.7526 20.5775 59.4107 25.8995 62.3346 30.9553C62.6004 31.4875 63.3979 30.9554 63.132 30.4232C60.2081 25.6334 57.55 20.5775 57.8158 14.7233C57.8158 9.66737 59.9423 4.34537 63.3979 0.353872C63.132 0.353872 63.132 0.353872 62.8662 0.353872C63.9295 3.28097 65.2585 5.94196 66.3218 8.86906C67.6508 11.7962 68.7141 14.7233 68.9799 17.9165C69.2457 20.8436 68.7141 23.7706 66.8534 26.1655C65.5243 28.0282 63.6637 29.3587 63.132 31.4875C63.132 32.0197 63.6637 32.0198 63.9295 31.7537Z" fill="#1D1D1B"/>
<path d="M61.8032 29.6242C62.3348 29.6242 62.6006 29.6242 62.8664 30.1564C63.1322 30.6886 62.8664 31.4869 62.6006 32.0191C62.6006 32.5513 63.3981 32.8174 63.6639 32.2852C63.9297 31.2208 63.6639 29.8903 63.1322 29.092C63.1322 29.3581 62.8664 29.6242 62.8664 29.8903C63.1322 30.1564 63.3981 30.4225 63.9297 30.6886C63.9297 30.9547 63.9297 30.9547 63.6639 31.2208C63.6639 31.4869 63.3981 32.0191 63.3981 32.2852C63.1322 33.0835 62.8664 33.8818 62.6006 34.6801C62.069 36.2767 61.5374 37.8733 61.2716 39.4699C60.7399 41.8648 60.7399 43.9936 61.8032 46.3885C62.8664 48.2512 64.4613 49.8478 65.5245 51.9766C66.8536 54.9037 64.9929 58.0968 65.2587 61.29C65.2587 61.5561 65.7904 61.8223 65.7904 61.5562C66.5878 59.9596 66.8536 58.363 67.1194 56.7664C67.3852 55.1698 67.651 53.5732 67.1194 52.2427C66.322 49.5817 64.1955 47.719 62.8664 45.3241C61.0058 41.8648 63.1322 37.8733 63.9297 34.414C64.1955 33.3496 64.4613 32.5513 64.7271 31.4869C64.9929 30.9547 65.2587 30.1564 64.9929 29.6242C64.4613 28.8259 63.3981 28.8259 62.6006 28.8259C62.3348 28.8259 62.069 29.3581 62.3348 29.6242C62.8664 30.4225 63.1322 31.2208 62.8664 32.0191C63.1322 32.0191 63.6639 32.0191 63.9297 32.2852C63.9297 31.4869 63.9297 30.6886 63.9297 29.6242C63.9297 29.3581 63.9297 29.3581 63.6639 29.3581C62.8664 28.5598 61.8032 28.5598 61.8032 29.6242Z" fill="#1D1D1B"/>
<path d="M62.335 29.625C62.0692 30.4233 62.0692 30.9555 62.0692 31.7538C62.0692 32.8182 62.0692 33.8826 62.0692 34.947C62.0692 36.0114 61.8033 37.0758 61.5375 38.1402C61.2717 38.9385 61.0059 39.7368 61.2717 40.5351C61.2717 40.8012 61.5375 40.8012 61.8033 40.5351C62.8666 39.4707 62.8666 36.8097 62.8666 35.2131C63.1324 33.8826 63.664 30.9555 62.335 29.625C62.6008 29.625 62.335 29.625 62.335 29.625Z" fill="#1D1D1B"/>
<path d="M62.6006 29.8896C61.8032 31.7523 61.5374 33.615 61.2716 35.7438C61.0057 37.6065 60.7399 39.2031 60.4741 41.0658C60.4741 42.1302 60.4741 43.1946 61.2716 44.259C62.069 45.3234 63.398 45.3234 64.4613 45.5895C64.7271 45.5895 64.7271 45.3234 64.7271 45.3234C63.9297 44.259 62.3348 44.259 61.8032 42.9285C61.2716 41.8641 61.8032 40.2675 61.8032 39.2031C62.069 36.276 62.8664 33.0828 62.8664 30.1557C63.1322 29.6235 62.6006 29.6235 62.6006 29.8896Z" fill="#1D1D1B"/>
</svg>
