<svg width="128" height="151" viewBox="0 0 128 151" fill="none" xmlns="http://www.w3.org/2000/svg">
<path d="M61.5708 47.1655C62.1024 47.6977 62.8999 47.9638 63.4315 48.496C63.9631 48.7621 64.4948 48.2299 64.2289 47.6977C63.4315 46.6333 62.1024 46.3672 61.0392 47.1655C60.7734 47.4316 60.7734 47.9638 61.0392 48.2299C62.1024 48.496 63.1657 48.496 64.2289 47.9638C64.7606 47.6977 64.4947 46.8994 63.6973 46.8994C63.1657 46.8994 62.6341 47.1655 62.1025 47.1655C62.1025 47.4316 62.1024 47.9638 62.3683 48.2299C62.8999 48.2299 63.1657 49.5604 63.1657 50.0926C63.1657 50.3587 63.1657 50.8909 63.1657 51.157C63.1657 51.9553 62.8999 52.7536 62.8999 53.818C62.6341 55.6807 62.3683 57.5434 62.3683 59.14C62.1024 62.3331 61.305 65.7924 62.1025 68.9856C62.6341 71.9127 65.0264 74.3076 65.8238 77.2347C66.6212 80.694 65.2922 84.4194 64.2289 87.8787C64.2289 88.1448 64.4948 88.4109 64.7606 88.1448C66.3554 84.9516 67.6845 81.4923 67.1529 77.7669C66.8871 75.9042 66.0896 74.3076 65.0264 72.711C63.9631 70.8483 63.1657 68.9857 62.8999 66.8569C62.6341 62.8654 63.6973 58.6078 63.9631 54.6163C64.2289 52.7536 65.558 46.8994 62.1025 47.4316C61.305 47.4316 61.5708 48.496 62.3683 48.496C62.8999 48.496 63.6973 48.2299 64.2289 48.2299L63.6973 47.1655C62.8999 47.4316 62.1024 47.4316 61.5708 47.1655C61.305 47.4316 61.305 47.6977 61.305 47.9638C61.8366 47.4316 62.6341 47.6977 63.1657 48.2299C63.4315 47.9638 63.6973 47.6977 63.9631 47.4316C63.4315 46.8994 62.6341 46.6333 62.1025 46.3672C61.5708 46.3672 61.0392 46.8994 61.5708 47.1655Z" fill="#1D1D1B"/>
<path d="M61.8369 47.6966C61.8369 47.4305 61.571 47.4305 61.571 47.1644C61.3052 46.8983 60.7736 46.8983 60.7736 47.1644C60.242 49.2932 61.0394 51.422 61.3052 53.5508C61.571 56.2118 61.571 58.8728 61.0394 61.7999C60.5078 63.9287 60.242 65.7914 61.0394 67.6541C61.8369 69.7829 62.9001 72.1778 64.2292 74.0405C64.495 74.3066 64.7608 74.0405 64.7608 73.7744C64.2292 71.6456 63.4317 69.7829 62.3685 67.6541C61.8369 66.5897 61.571 65.5253 61.571 64.1948C61.571 62.8643 62.1027 61.5338 62.3685 60.2033C62.6343 58.0745 62.6343 55.9457 62.3685 53.8169C62.1027 51.6881 61.571 49.5593 61.3052 47.1644L60.7736 47.6966C61.3052 47.6966 61.0394 47.6966 61.571 47.6966C62.1027 47.9627 62.1027 47.6966 61.8369 47.6966Z" fill="#1D1D1B"/>
<path d="M62.3684 47.6969C61.571 49.8256 61.8368 52.2205 62.1026 54.6154C62.1026 55.1476 63.1659 55.1476 63.1659 54.3493C62.9 52.4866 62.6342 50.6239 62.3684 49.0273C62.3684 48.4951 61.3052 48.4951 61.3052 49.2934C61.3052 50.3578 61.571 51.6883 61.8368 52.7527C62.1026 53.2849 62.9 53.2849 62.9 52.4866C62.9 50.89 62.9 49.2934 62.6342 47.6969C62.6342 47.1647 61.571 47.1647 61.571 47.6969C61.3052 49.5595 61.8368 51.1561 62.3684 52.7527C62.6342 53.2849 63.1659 53.0188 63.4317 52.7527C63.6975 51.1561 63.9633 49.5595 63.9633 47.9629C63.9633 47.4307 63.1659 47.1647 62.9 47.6969C62.6342 49.0273 62.3684 50.0917 62.9 51.4222C62.9 51.9544 63.6975 51.9544 63.9633 51.4222C64.2291 50.0917 64.4949 48.7613 64.7607 47.4308H63.4317C63.4317 49.0274 63.4317 50.89 64.2291 52.4866C65.0265 53.8171 66.0898 54.8815 67.153 56.212C70.077 59.6713 68.4821 63.9289 68.7479 67.9204C68.7479 68.4526 69.2795 68.4526 69.5453 67.9204C70.3428 66.0577 70.3428 63.9289 70.6086 62.0662C70.6086 60.4696 70.6086 58.6069 69.8111 57.0103C69.2795 55.6798 67.9505 54.6154 67.153 53.551C65.5582 51.6883 65.0265 49.8256 65.0265 47.4308C65.0265 46.6325 63.9633 46.6325 63.9633 47.4308C63.9633 48.7613 63.6975 49.8256 63.4317 51.1561H64.4949C64.2291 50.0917 64.2291 49.0273 64.4949 47.9629C64.2291 47.9629 63.6975 47.9629 63.4317 47.6969C63.4317 49.2934 63.1659 50.6239 62.9 52.2205C63.1659 52.2205 63.4317 52.2205 63.9633 52.2205C63.1658 50.89 62.9 49.2934 63.1659 47.6969H62.1026C62.3684 49.2934 62.3684 50.89 62.1026 52.4866C62.3684 52.4866 62.9 52.4866 63.1659 52.2205C62.9 51.1561 62.6342 50.0917 62.6342 49.0273C62.3684 49.0273 61.8368 49.0273 61.571 49.2934C61.8368 50.89 62.3684 52.7527 62.3684 54.3493C62.6342 54.3493 62.9 54.3493 63.4317 54.3493C63.1659 52.2205 63.1659 50.0917 63.4317 47.9629C62.9 47.1646 62.3684 47.1647 62.3684 47.6969Z" fill="#1D1D1B"/>
<path d="M61.5711 48.4966C60.7737 49.561 60.5079 50.8915 60.242 51.9559C59.7104 53.2864 59.4446 54.6169 58.913 55.6813C57.8497 58.0762 55.9891 59.9388 54.9258 62.3337C53.0651 65.793 53.331 70.8489 56.7865 72.9777C57.0523 73.2438 57.3181 72.7116 57.3181 72.4455C56.2549 70.5828 55.1916 68.7201 55.1916 66.5913C55.1916 64.1964 56.5207 62.0677 57.8497 60.205C59.1788 58.3423 59.9762 56.4796 60.7737 54.3508C61.3053 52.4881 62.3685 50.0932 62.1027 48.2305C61.8369 48.2305 61.5711 48.2305 61.5711 48.4966Z" fill="#1D1D1B"/>
<path d="M67.9503 55.6797C66.8871 57.0102 66.6213 58.8729 67.4187 60.2034C67.4187 60.4695 67.6845 60.2034 67.6845 59.9373C67.4187 58.3407 67.6846 57.0102 68.2162 55.6797H67.9503Z" fill="#1D1D1B"/>
<path d="M63.4317 20.2898C62.6342 30.4016 62.1026 40.7795 62.1026 50.8913C62.1026 51.6896 63.1659 51.6896 63.4317 51.1574C63.9633 48.2303 64.2291 45.3032 64.2291 42.3761C64.2291 41.5778 62.9 41.5778 62.9 42.3761C62.9 44.5049 62.9 46.6337 63.4317 48.7625C63.6975 49.5608 64.7607 49.2947 64.7607 48.4964C64.4949 45.5693 64.2291 42.9083 63.9633 39.9812C63.9633 39.1829 62.9 39.1829 62.6342 39.9812C62.3684 42.3761 62.1026 45.0371 61.3052 47.432C61.8368 47.432 62.1026 47.432 62.6342 47.6981C62.6342 42.9083 62.6342 38.1185 63.1659 33.3287C63.4317 28.5389 63.6975 23.7491 64.2291 18.9593C64.2291 18.6932 63.6975 18.6932 63.6975 18.9593C63.1659 21.3542 62.9 23.483 62.6342 25.6118C62.3684 28.0067 62.1026 30.4016 62.1026 32.7965C61.8368 37.5863 61.571 42.6422 61.8368 47.432C61.8368 48.2303 62.9 48.2303 63.1659 47.6981C63.6975 45.0371 64.2291 42.6422 64.4949 39.9812C63.9633 39.9812 63.6975 39.9812 63.1659 40.2473C63.4317 42.9083 63.6975 45.8354 63.9633 48.4964C64.4949 48.4964 64.7607 48.4964 65.2923 48.2303C64.7607 46.1015 64.7607 44.2388 64.7607 42.11H63.4317C63.4317 45.0371 63.4317 47.6981 62.9 50.3591C63.4317 50.3591 63.6975 50.3591 64.2291 50.6252C64.7607 40.5134 64.7607 30.1355 65.0265 20.0237C63.9633 19.7576 63.4317 19.7576 63.4317 20.2898Z" fill="#1D1D1B"/>
<path d="M63.6974 21.3532C64.4948 18.9583 64.7607 16.2973 64.4949 13.9024C64.4949 11.7736 64.229 9.64477 63.1658 7.78208C61.5709 4.85498 57.8496 2.72619 54.9256 4.85499C51.7359 7.24988 53.065 11.5075 54.9256 14.4346C55.9889 16.0312 57.3179 17.3617 59.1786 18.16C59.9761 18.4261 60.7735 18.4261 61.5709 18.6922C62.9 19.2244 62.6342 21.3532 62.3684 22.6836C62.3684 22.9497 62.6342 23.2158 62.9 22.9497C63.6974 21.8853 63.9632 20.821 63.6974 19.4905C63.4316 18.16 62.9 17.6278 61.5709 17.6278C57.8496 17.3617 54.394 13.1041 54.394 9.11258C54.394 6.98378 55.9889 5.12108 58.3812 5.38718C60.2419 5.65328 61.8367 7.24988 62.6342 8.84648C64.4948 12.838 63.4316 17.0956 63.6974 21.3532C63.6974 21.6193 63.6974 21.3532 63.6974 21.3532Z" fill="#1D1D1B"/>
<path d="M61.3055 5.38741C61.8371 3.79082 61.5713 2.19422 63.432 1.66202C65.0268 1.12982 66.6217 2.19423 67.4191 3.52473C69.014 5.65352 69.5456 8.5806 69.014 10.9755C68.7482 13.3704 67.4192 15.4992 65.8243 17.3619C64.761 18.9585 63.1662 20.8212 63.432 22.95C63.432 23.2161 63.6978 23.2161 63.9636 23.2161C64.761 21.8856 65.2927 20.5551 66.3559 19.2246C67.4191 17.8941 68.4824 16.5636 69.014 15.2331C70.3431 12.5721 70.6089 9.11281 69.8115 6.18572C69.014 3.52473 67.1533 0.331519 64.2294 0.597618C62.1029 0.863717 59.4448 3.52472 60.7739 5.65351C61.0397 5.65351 61.3055 5.65351 61.3055 5.38741Z" fill="#1D1D1B"/>
</svg>
