<svg width="128" height="166" viewBox="0 0 128 166" fill="none" xmlns="http://www.w3.org/2000/svg">
<path d="M63.7238 63.2295C63.9896 63.2295 64.2554 63.2295 64.2554 63.2295V62.9634V62.6973H63.9896H63.7238V62.9634C63.458 62.9634 63.458 62.9634 63.7238 63.2295C63.458 63.2295 63.458 63.2295 63.7238 63.2295Z" fill="#1D1D1B"/>
<path d="M64.7869 21.4523C63.9895 29.4353 63.9895 37.4183 63.7237 45.1352C63.4578 49.1267 63.4578 52.8521 63.4578 56.8436C63.4578 58.7063 62.6604 62.6978 65.3185 63.2299C65.8501 63.2299 66.3818 62.9639 66.3818 62.4317C64.7869 48.3284 66.9134 34.2251 66.3818 20.1218C66.3818 19.5896 65.5843 19.5896 65.5843 20.1218C64.7869 27.0404 64.7869 34.2251 64.5211 41.4098C64.2553 48.3284 64.2553 55.5131 65.0527 62.4317C65.3185 62.1656 65.5843 61.8995 66.116 61.6334C64.7869 61.3673 65.3185 58.4402 65.3185 57.3758C65.3185 55.7792 65.3185 53.9165 65.3185 52.3199C65.3185 48.8606 65.5843 45.4013 65.5843 41.6759C65.5843 34.7573 66.1159 27.8387 65.8501 20.9201C65.3185 20.9201 64.7869 20.9201 64.7869 21.4523Z" fill="#1D1D1B"/>
<path d="M65.053 23.0495C66.382 19.3241 65.053 15.0665 63.7239 11.6072C62.9265 9.74451 62.3948 7.34963 62.9265 5.22084C63.4581 3.35814 66.1162 1.22934 67.9769 2.82594C69.306 4.15644 69.306 6.55133 69.306 8.14793C69.306 10.2767 69.0401 12.6716 68.2427 14.5343C67.7111 16.397 66.6478 18.2597 65.5846 19.8563C64.7871 21.1868 64.2555 22.7834 64.5213 24.38C64.5213 24.38 64.7872 24.6461 64.7872 24.38C65.3188 23.3156 65.5846 21.9851 66.382 20.9207C66.9136 19.8563 67.4453 18.7919 67.9769 17.7275C69.0401 15.5987 69.8376 13.4699 70.1034 11.075C70.635 8.14792 71.1666 2.02763 67.4453 0.963229C63.4581 -0.367269 61.0658 4.15643 61.3316 7.34962C61.5974 9.74452 62.6606 11.8733 63.1923 14.0021C64.2555 16.9292 64.2555 19.5902 64.2555 22.7834C64.5213 23.3156 64.7872 23.3156 65.053 23.0495Z" fill="#1D1D1B"/>
<path d="M62.1291 6.01789C60.8 4.42129 58.1419 4.68739 56.547 6.01789C54.6863 7.61448 54.6863 10.5416 55.218 12.9365C55.7496 15.3314 57.3445 17.4602 59.2051 19.0568C60.2684 19.8551 61.8633 20.3873 62.9265 21.1856C63.9898 22.25 63.9898 24.1127 64.2556 25.4432C64.2556 25.7093 64.7872 25.7093 64.7872 25.4432C65.3188 23.8466 65.053 21.9839 63.9898 20.6534C63.1923 19.8551 62.1291 19.589 61.0658 19.0568C60.0026 18.5246 59.2052 17.7263 58.4077 16.928C56.8128 15.0653 55.7496 12.6704 55.7496 10.0094C55.7496 8.67888 56.2812 7.08228 57.6103 6.28398C58.9393 5.48568 60.2684 5.75178 61.5974 6.28398C62.1291 6.55008 62.1291 6.01789 62.1291 6.01789Z" fill="#1D1D1B"/>
<path d="M64.7871 35.0237C67.711 29.9678 71.4323 25.9763 76.4827 23.3153C79.1409 21.9848 81.799 20.6543 84.7229 20.9204C87.6468 21.1865 90.5708 23.0492 90.305 26.2424C90.0391 28.3712 87.381 29.4356 88.4443 31.5644C88.9759 32.6288 89.5075 33.161 89.7733 34.4915C89.7733 35.5559 89.5075 36.8864 88.4443 37.6847C86.3178 40.0796 82.5964 38.2169 80.4699 36.8864C78.3434 35.2898 76.7486 32.8949 74.3563 31.8305C69.8375 29.7017 64.5213 32.0966 63.458 36.8864C63.458 37.1525 63.7238 37.4186 63.9896 37.1525C65.3187 34.2254 68.2426 31.8305 71.4323 32.3627C74.8879 32.6288 76.4827 35.822 79.1409 37.6847C81.2674 39.2813 83.9255 40.8779 86.8494 40.3457C88.9759 40.0796 90.5707 38.483 91.1024 36.6203C91.3682 35.822 91.3682 34.7576 91.3682 33.9593C91.3682 33.4271 91.1024 33.161 90.8366 32.6288C90.3049 31.5644 89.5075 31.2983 90.305 29.7017C90.8366 28.6373 91.634 28.1051 91.8998 27.0407C92.1656 25.9763 91.8998 24.6458 91.634 23.5814C89.2417 18.2594 82.5964 19.3238 78.3434 21.1865C72.4956 24.1136 66.9135 28.3712 64.2554 34.7576C63.9896 35.0237 64.5213 35.2898 64.7871 35.0237Z" fill="#1D1D1B"/>
<path d="M65.053 37.4178C65.053 30.2331 57.3445 25.9755 52.0283 23.0484C46.712 20.1214 39.5351 18.2586 33.9531 21.984C32.0924 23.3145 29.9659 25.9755 31.5608 28.1043C32.3582 29.4348 34.2189 29.7009 34.7505 31.2975C35.2821 32.8941 34.4847 34.7568 35.0163 36.3534C35.8137 38.4822 38.206 40.0788 40.5984 39.5466C43.5223 39.0144 45.1172 36.6195 46.9778 34.7568C49.9018 31.8297 54.4206 30.4992 58.4077 31.0314C60.5342 31.2975 62.3949 32.3619 63.1923 34.4907C63.724 36.3534 63.4582 38.4822 63.724 40.3449C63.724 40.611 64.2556 40.611 64.2556 40.3449C64.2556 37.6839 65.053 34.4907 63.1923 32.3619C61.5975 30.4992 59.2052 29.967 56.8129 29.7009C54.1548 29.7009 51.2308 30.2331 48.8385 31.5636C46.4462 32.8941 45.1172 35.0229 42.9907 36.8856C41.9274 37.95 40.3325 38.7483 38.7377 38.2161C36.877 37.6839 35.5479 36.3534 35.5479 34.4907C35.5479 33.1602 36.0796 31.8297 35.5479 30.4992C35.2821 29.4348 34.2189 28.9026 33.4214 28.1043C29.4343 25.1772 35.0163 21.7179 37.6744 20.9196C40.8642 20.1213 44.0539 20.6536 46.9778 21.7179C50.4334 23.0484 53.8889 25.1772 57.0787 27.306C60.5342 29.7009 63.4582 32.628 63.9898 36.8856C64.5214 37.6839 65.053 37.95 65.053 37.4178Z" fill="#1D1D1B"/>
<path d="M63.7241 61.1014C63.4583 65.359 63.7241 69.3505 63.7241 73.6081C63.7241 77.8657 63.9899 81.8571 63.9899 86.1147C63.9899 90.1062 64.2557 94.3638 64.2557 98.3553C64.2557 100.484 64.5215 102.613 64.5215 104.476C64.5215 106.338 64.2557 108.733 64.7873 110.596C64.7873 110.862 65.3189 110.862 65.3189 110.596C65.8505 108.999 65.5847 106.604 65.5847 105.008C65.5847 102.879 65.5847 100.75 65.3189 98.8875C65.3189 94.6299 65.0531 90.6384 65.0531 86.3808C65.0531 82.3894 64.7873 78.1317 64.7873 74.1403C64.7873 69.8827 64.5215 65.6251 63.9899 61.3675C64.5215 60.5692 63.7241 60.5692 63.7241 61.1014Z" fill="#1D1D1B"/>
<path d="M63.1921 60.0354C62.6605 61.0998 62.6605 62.1642 62.9263 63.4947C63.1921 64.0269 63.9896 64.0269 63.9896 63.4947C63.9896 62.4303 64.2554 61.3659 65.0528 60.3015C64.787 60.3015 64.5212 60.0354 64.2554 60.0354C64.5212 61.3659 64.787 62.6964 64.5212 64.0269H65.5844C65.5844 63.2286 65.5844 62.4303 65.8502 61.632H64.787C64.787 64.293 64.787 67.2201 64.787 69.8811L65.8502 69.615C65.0528 67.2201 64.787 65.0913 64.5212 62.6964C64.5212 62.1642 63.458 61.8981 63.458 62.4303C63.1921 64.293 63.1921 66.1557 63.7238 68.0184C63.9896 68.5506 64.787 68.5506 64.787 67.7523C64.5212 65.6235 64.2554 63.7608 63.9896 61.632C63.9896 61.0998 62.9263 61.0998 62.9263 61.8981C63.4579 65.6235 63.4579 69.3489 64.2554 72.8082C64.2554 73.3404 65.3186 73.3404 65.3186 72.5421C65.5844 70.1472 65.5844 68.0184 65.3186 65.6235C65.3186 65.0913 64.2554 65.0913 64.2554 65.6235C64.5212 69.3489 64.5212 72.8082 64.5212 76.5336H65.5844C65.0528 72.5421 64.5212 68.8167 63.9896 64.8252C63.9896 64.293 62.9263 64.293 62.9263 64.8252C63.4579 70.4133 63.9896 76.2675 63.9896 81.8556C63.9896 84.5166 64.2554 87.4437 64.2554 90.1047C64.2554 93.0318 63.9896 95.9589 64.2554 98.886C64.2554 99.4182 65.0528 99.4182 65.0528 98.886C65.5844 96.225 65.5844 93.2979 65.5844 90.3708C65.5844 87.4437 65.5844 84.7827 65.3186 81.8556C65.0528 76.0014 64.5212 70.1472 63.7238 64.5591C63.4579 64.5591 63.1921 64.5591 62.9263 64.5591C63.4579 68.5506 63.9896 72.276 64.2554 76.2675C64.2554 77.0658 65.3186 77.0658 65.3186 76.2675C65.3186 72.5421 65.0528 69.0828 64.787 65.3574C64.5212 65.3574 64.2554 65.3574 63.7238 65.3574C63.9896 67.4862 63.9896 69.615 63.458 71.7438C63.7238 71.7438 64.2554 71.7438 64.5212 72.0099C64.2554 68.2845 63.7237 64.8252 63.1921 61.0998H62.1289C62.3947 63.2286 62.6605 65.0913 62.9263 67.2201L63.9896 66.954C63.4579 65.3574 63.4579 63.7608 63.7238 61.8981C63.4579 61.8981 62.9263 61.8981 62.6605 61.632C62.6605 64.0269 63.1921 66.4218 63.9896 68.8167C64.2554 69.3489 65.0528 69.3489 65.0528 68.5506C65.0528 65.8896 65.0528 62.9625 65.0528 60.3015C65.0528 59.5032 63.9896 59.7693 63.9896 60.3015C63.9896 61.0998 63.7238 61.8981 63.7238 62.6964C63.7238 63.4947 64.787 63.4947 64.787 62.6964C64.787 61.3659 64.787 59.7693 64.2554 58.4388C64.2554 58.1727 63.7238 57.9066 63.458 58.1727C62.6605 59.2371 62.1289 60.5676 62.1289 61.8981C62.3947 61.8981 62.6605 61.8981 63.1921 61.8981C62.9263 60.8337 62.9263 60.0354 63.1921 58.971C63.9896 60.0354 63.4579 59.7693 63.1921 60.0354Z" fill="#1D1D1B"/>
<path d="M63.9898 61.1019C63.1924 62.1663 62.9266 63.4968 62.395 64.8273C61.5975 66.4239 60.5343 67.4883 59.2052 68.2866C57.0787 69.8832 55.4839 71.7459 54.1548 74.1408C51.4967 78.9305 50.6993 85.583 52.0283 90.6389C52.0283 91.1711 52.56 90.905 52.8258 90.6389C53.0916 87.4457 53.0916 84.5186 53.6232 81.3254C54.1548 78.3983 54.9522 75.7374 56.5471 73.3425C58.142 70.9476 60.5343 69.6171 62.395 67.4883C63.724 65.8917 65.0531 63.2307 64.7873 61.1019C64.5215 60.8358 64.2557 60.8358 63.9898 61.1019Z" fill="#1D1D1B"/>
<path d="M65.0527 61.8999C63.9895 66.4236 69.5715 70.4151 72.4954 72.81C74.6219 74.6727 76.2168 76.8015 77.0142 79.7286C77.8117 82.3896 77.5458 85.3166 77.8117 87.9776C77.8117 88.2437 78.0775 88.2437 78.0775 87.9776C79.1407 83.1878 78.8749 77.8659 75.6852 73.8744C74.0903 72.0117 71.9638 70.4151 70.1031 68.8185C69.0399 68.0202 67.9767 66.9558 67.445 65.6253C66.6476 64.2948 66.3818 62.9643 65.8501 61.6338C65.5843 61.3677 65.3185 61.3677 65.0527 61.8999Z" fill="#1D1D1B"/>
<path d="M63.9896 73.8735C63.458 75.4701 65.0528 76.8006 65.8503 77.865C67.1793 79.4616 68.7742 80.526 70.1033 82.1226C71.4323 83.7192 72.2298 85.848 72.7614 87.9768C73.293 90.1056 73.293 92.2344 73.5588 94.3632C73.5588 94.6293 74.0904 94.6293 74.0904 94.3632C75.6853 90.6378 74.0904 85.848 71.9639 82.6548C70.9007 80.7921 69.5716 79.4616 67.9768 78.1311C67.1793 77.3328 66.3819 76.8006 65.8503 76.0023C65.3186 75.204 65.0528 74.4057 64.2554 73.6074C64.2554 73.6074 64.2554 73.8735 63.9896 73.8735Z" fill="#1D1D1B"/>
<path d="M63.724 78.6631C63.1924 80.5258 60.8001 82.3885 59.471 83.719C58.142 85.3156 56.8129 86.9122 56.2813 89.041C54.9522 92.7664 54.9522 97.8222 56.5471 101.548C56.5471 101.814 57.0787 101.548 57.0787 101.548C57.0787 96.7578 56.2813 92.2341 58.4078 87.9765C59.471 85.8477 61.3317 84.5173 62.6608 82.6546C63.4582 81.8563 65.0531 79.9936 64.5214 78.9292C64.2556 78.397 63.724 78.397 63.724 78.6631Z" fill="#1D1D1B"/>
<path d="M64.7873 88.7753C65.8506 90.9041 68.2429 91.9685 69.3061 94.0973C70.6352 96.2261 70.3693 98.3549 69.8377 100.484C69.8377 100.75 70.1035 101.282 70.3694 100.75C71.6984 98.8871 71.6984 96.4922 70.901 94.3634C70.3693 93.299 69.8377 92.2346 68.7745 91.4363C67.4454 90.3719 66.3822 89.3075 65.0531 87.977C65.0531 87.7109 64.5215 88.2431 64.7873 88.7753Z" fill="#1D1D1B"/>
<path d="M64.7871 90.9032C61.0657 94.0964 57.6102 98.8862 60.0025 103.676C60.0025 103.942 60.5341 103.676 60.5341 103.676C60.5341 101.281 60.7999 98.6201 61.8631 96.4913C62.9264 94.6286 64.7871 93.2981 65.3187 91.1693C65.3187 90.9032 65.0529 90.6371 64.7871 90.9032Z" fill="#1D1D1B"/>
</svg>
