<svg width="128" height="178" viewBox="0 0 128 178" fill="none" xmlns="http://www.w3.org/2000/svg">
<path d="M66.771 42.2346C66.2753 48.6858 66.2753 55.1371 66.5232 61.5884C66.5232 64.814 66.5232 68.0396 66.771 71.0172C66.771 72.0097 66.5232 75.9797 68.506 75.2353C68.7539 75.2353 69.0017 74.9872 69.0017 74.739C68.7539 69.2803 68.7539 63.5734 68.506 58.1146C68.506 55.3852 68.506 52.6558 68.2581 49.9265C68.2581 47.4452 68.506 44.4677 68.0103 41.9864C68.0103 41.4902 67.0189 41.4902 67.0189 41.9864C66.771 44.4677 67.0189 47.1971 67.0189 49.9265C67.0189 52.6558 67.2667 55.3852 67.2667 58.1146C67.5146 63.5734 67.5146 69.2803 67.7624 74.739C68.0103 74.4909 68.0103 74.2428 68.2581 74.2428C68.2581 74.2428 68.0103 70.769 68.0103 70.5209C68.0103 69.2803 68.0103 67.7915 68.0103 66.5509C68.0103 63.8215 68.0103 61.0921 67.7624 58.3627C67.7624 53.1521 67.7624 47.6933 67.7624 42.4827C67.7624 41.4902 66.771 41.4902 66.771 42.2346Z" fill="#1D1D1B"/>
<path d="M66.771 73.2509C66.2753 77.4691 66.5231 81.9353 66.5231 86.1535C66.5231 90.6197 66.771 95.086 66.771 99.5523C67.0189 104.019 67.0189 108.485 67.5146 112.951C67.7624 117.169 68.0103 121.635 68.7539 125.854C68.7539 126.102 69.2496 126.102 69.2496 125.854C69.2496 121.387 69.0017 117.169 68.7539 112.703C68.506 108.237 68.2581 104.019 68.0103 99.5523C67.7624 95.3341 67.7624 91.116 67.7624 86.6497C67.7624 84.4166 67.7624 82.1834 67.7624 79.9503C67.7624 77.7172 67.7624 75.4841 67.5146 73.2509C67.5146 73.0028 67.0189 72.7547 66.771 73.2509Z" fill="#1D1D1B"/>
<path d="M68.0102 72.2582C67.5145 73.9951 67.7623 75.9801 67.5145 77.9651C67.5145 79.9501 67.5145 81.9351 67.2666 83.672C67.2666 87.642 67.2666 91.612 67.2666 95.582C67.2666 99.552 67.2666 103.274 67.5145 107.244C67.5145 109.229 67.5144 111.214 67.7623 113.447C67.7623 115.184 67.7623 117.169 68.258 119.154C68.258 119.402 68.5059 119.402 68.5059 119.154C69.0016 117.417 68.7537 115.432 68.7537 113.447C68.7537 111.462 68.7537 109.477 68.5059 107.74C68.5059 103.77 68.258 99.8002 68.258 95.8301C68.258 91.8601 68.258 88.1382 68.258 84.1682C68.258 82.1832 68.258 80.1982 68.258 77.9651C68.258 76.2282 68.5059 74.2432 68.258 72.2582C68.5059 72.0101 68.0102 72.0101 68.0102 72.2582Z" fill="#1D1D1B"/>
<path d="M68.2582 75.236C67.5146 76.2285 67.5146 77.4691 67.5146 78.4616C67.5146 78.9579 68.2582 78.9579 68.2582 78.4616C68.7539 77.4691 69.0017 75.9804 68.2582 75.236C68.0103 75.236 67.7625 75.236 67.7625 75.4841C67.7625 75.9804 67.7625 76.4766 67.7625 76.7247C67.7625 77.221 67.7625 77.7172 67.5146 78.2135C67.7625 78.2135 68.0103 78.2135 68.2582 78.2135C68.2582 77.221 68.506 76.2285 68.506 74.9879C68.506 75.236 68.506 74.9879 68.2582 75.236Z" fill="#1D1D1B"/>
<path d="M68.0104 74.492C68.0104 74.2438 67.7626 73.7476 68.0104 73.4995C68.2583 73.0032 67.2668 72.7551 67.019 73.2513C66.2754 76.477 63.549 77.4695 61.0704 79.4545C59.0875 80.9432 57.1047 82.6801 55.6175 84.6651C52.6433 88.387 50.1647 93.1014 50.6604 98.0639C50.6604 98.312 51.1561 98.312 51.1561 98.0639C51.6518 95.5826 52.3954 92.8533 53.6347 90.6201C54.874 88.1389 56.3611 86.1539 58.0961 84.1688C59.8311 82.1838 62.0618 80.6951 64.2925 79.2064C66.5233 77.7176 68.0104 76.2288 68.2582 73.4995C68.0104 73.4995 67.7626 73.7476 67.5147 73.7476C67.7626 73.9957 68.0104 74.492 68.0104 74.7401C67.7626 74.7401 68.0104 74.7401 68.0104 74.492Z" fill="#1D1D1B"/>
<path d="M67.5142 81.6866C66.7706 82.431 66.5228 83.6716 66.0271 84.6641C65.2835 85.9047 64.5399 87.1453 63.3006 87.8897C61.0699 89.3785 58.8392 90.6191 57.1042 92.6041C53.8821 96.326 51.8992 101.785 54.1299 106.251C54.3778 106.499 54.8735 106.499 54.6256 106.003C54.3778 103.274 54.3778 100.544 55.3692 98.0629C56.3606 95.5816 57.8478 93.3485 60.0785 91.6116C61.8135 90.1229 64.292 89.1304 65.7792 87.1454C66.7706 85.6566 68.0099 83.4235 67.762 81.4385C68.0099 81.4385 67.7621 81.4385 67.5142 81.6866Z" fill="#1D1D1B"/>
<path d="M67.7626 97.0706C65.5318 100.544 61.814 103.026 59.5833 106.499C57.6004 109.725 56.3612 114.439 57.6004 118.161C57.6004 118.409 58.0961 118.409 58.0961 118.161C58.5919 116.176 58.344 114.191 58.8397 112.454C59.3354 110.469 60.079 108.236 61.3183 106.499C63.549 103.274 66.7711 101.041 68.5061 97.5669C68.5061 97.0706 68.0104 96.8225 67.7626 97.0706Z" fill="#1D1D1B"/>
<path d="M67.2666 74.2442C67.5145 76.2292 70.7366 77.2217 71.9759 78.2142C74.2066 79.703 76.1895 81.4399 77.9245 83.4249C79.6595 85.4099 81.1466 87.8911 82.138 90.3724C83.1295 92.8536 83.3773 95.3349 83.6252 97.8162C83.6252 98.0643 84.1209 98.0643 84.1209 97.8162C85.3602 92.8536 82.6337 87.1468 79.6595 83.4249C78.1723 81.4399 76.1895 79.703 74.2066 78.2142C72.9673 77.4698 71.9759 76.7255 70.7366 75.9811C69.7452 75.4848 68.7538 74.4923 67.5145 73.9961C67.5145 73.748 67.2666 73.9961 67.2666 74.2442Z" fill="#1D1D1B"/>
<path d="M68.5064 82.1836C68.2586 82.1836 68.2586 82.1836 68.5064 82.1836C68.0107 82.4317 68.0107 82.6798 68.0107 82.9279C68.0107 86.1536 72.9679 87.6423 74.9508 89.6274C76.6858 91.1161 77.4293 93.3492 78.1729 95.3342C78.6686 96.5748 78.9165 97.5674 79.1643 98.808C79.4122 100.049 79.4122 101.289 79.4122 102.778C79.4122 103.026 79.9079 103.274 79.9079 103.026C81.1472 101.041 80.6515 98.5599 80.1557 96.5748C79.66 94.5898 78.9165 92.3567 77.6772 90.6198C76.6857 89.1311 75.4465 87.8905 73.9593 87.1461C72.72 86.1536 69.4979 84.913 69.25 82.9279C69.0022 82.1836 68.7543 81.9354 68.5064 82.1836Z" fill="#1D1D1B"/>
<path d="M67.2666 95.0857C67.7623 96.3263 69.0016 96.8225 69.993 97.5669C71.4802 98.3113 72.7195 99.5519 73.7109 100.793C75.6938 103.522 76.1895 106.499 77.1809 109.477C77.4288 109.973 77.9245 109.725 77.9245 109.477C78.4202 106.251 76.933 102.778 75.198 100.296C74.2066 99.0557 73.2152 98.0632 71.9759 97.0707C70.7366 96.0782 69.0016 95.0857 67.5145 94.5894C67.5145 94.5894 67.2666 94.8375 67.2666 95.0857Z" fill="#1D1D1B"/>
<path d="M67.2665 107.492C68.5058 109.229 69.993 110.718 70.9844 112.703C71.4801 113.695 71.9758 114.688 72.4715 115.928C72.7194 116.921 73.2151 117.913 73.2151 118.658C73.2151 118.906 73.463 119.154 73.7108 118.906C75.4458 117.913 73.4629 114.439 72.7194 113.199C71.4801 110.966 69.9929 108.484 67.7622 106.996C67.5144 106.748 67.0187 107.244 67.2665 107.492Z" fill="#1D1D1B"/>
<path d="M67.7627 109.478C68.0105 109.478 68.2584 109.478 68.2584 109.229C68.2584 108.981 68.2584 108.981 68.0105 108.733C67.7627 108.485 67.7627 108.485 67.5148 108.733C66.0277 109.478 65.0362 111.711 64.5405 112.951C63.797 114.688 63.3013 116.673 64.0448 118.658C64.0448 118.906 64.5405 118.906 64.5405 118.658C65.0362 116.921 65.2841 115.184 65.7798 113.448C66.2755 111.959 67.267 110.718 68.0105 109.229L67.7627 109.478C67.5148 109.229 67.5148 109.229 67.5148 108.981C67.5148 109.478 67.7627 109.478 67.7627 109.478Z" fill="#1D1D1B"/>
<path d="M67.5146 41.9878C71.7282 40.0028 74.7025 36.2809 75.9418 32.0628C76.6853 29.3334 77.4289 26.604 80.4032 25.3634C83.1296 24.3709 85.3603 25.8596 87.8389 26.604C89.8218 27.3484 92.0525 27.3484 93.7875 26.1078C95.7703 24.619 97.0096 22.3859 98.7446 20.8971C102.71 17.1752 107.915 15.4384 112.625 13.2052C117.582 10.9721 122.539 8.2427 125.761 3.52831C126.257 2.78393 125.265 2.28767 124.77 2.78392C118.821 11.4683 107.172 12.709 99.2403 18.9121C97.2575 20.4009 96.0182 22.1377 94.2832 24.1228C93.2917 25.1153 92.3003 26.1078 90.5653 26.1078C89.326 26.1078 87.8389 25.6115 86.8475 25.1153C84.8646 24.3709 82.6339 23.6265 80.4032 24.3709C78.4203 24.8671 76.9332 26.3559 75.9418 28.0928C75.4461 29.3334 75.1982 30.574 74.7025 31.8147C74.4546 33.3034 73.7111 34.5441 72.9675 35.7847C71.4803 38.2659 69.2496 40.251 66.5232 41.7397C66.7711 41.4916 67.0189 41.9878 67.5146 41.9878Z" fill="#1D1D1B"/>
<path d="M126.256 1.04663C121.547 9.23478 122.538 19.9042 117.086 27.8442C114.359 31.8142 109.65 34.5436 104.693 35.0399C102.214 35.288 99.7356 34.7917 97.257 34.0473C95.2741 33.303 93.0434 33.0549 91.3084 34.2955C90.5648 34.7917 90.0691 35.5361 89.8213 36.2805C89.5734 37.7692 90.0691 39.5061 88.8298 40.7468C87.3427 42.2355 84.3684 42.2355 82.6334 43.228C82.8813 43.228 83.377 43.4761 83.6248 43.4761C82.1377 40.2505 78.4198 39.5061 75.1977 39.7542C72.4713 40.0024 68.2577 40.2505 67.0184 42.9799C66.7705 43.4761 67.5141 43.9724 67.762 43.4761C69.2491 41.4911 72.7191 41.243 74.9498 41.243C77.6763 40.9949 80.8984 41.4911 82.1377 44.2205C82.3855 44.4686 82.8812 44.7168 83.1291 44.4686C84.8641 43.4761 87.0948 43.4761 88.8298 42.2355C89.5734 41.7393 90.0691 41.243 90.317 40.4986C90.8127 39.258 90.317 38.0174 90.8127 36.5286C91.8041 33.0548 96.2655 35.0399 98.2484 35.7842C100.479 36.5286 102.958 36.7767 105.188 36.5286C109.65 36.0324 114.111 33.7992 116.838 30.3255C119.812 26.6036 121.299 22.1373 122.538 17.4229C123.778 11.9642 124.769 6.75352 127 1.54288C127 0.7985 126.504 0.550382 126.256 1.04663Z" fill="#1D1D1B"/>
<path d="M67.2668 52.409C67.7625 49.4315 70.9847 47.4465 73.9589 48.1909C76.9332 48.9353 78.6682 51.9128 79.4118 54.6421C79.9075 56.8753 79.9075 59.8528 81.6425 61.5897C83.3775 63.3266 85.8561 63.3265 87.5911 62.0859C88.5825 61.3415 89.3261 60.1009 90.0697 59.1084C91.0611 57.8678 92.5482 57.3715 94.0354 56.6272C96.2661 55.3865 97.2575 53.1534 97.0097 50.9203C96.2661 44.7171 89.0782 43.7246 84.1211 43.2284C82.1382 42.9802 80.1554 42.7321 78.1725 42.2359C76.4375 41.9877 74.7025 41.7396 73.2154 42.2359C70.7368 43.2284 69.2497 45.9577 68.5061 48.439C68.5061 48.6871 69.0018 48.9352 69.0018 48.6871C70.4889 46.454 71.4804 43.4765 74.7025 42.9802C76.1897 42.7321 77.6768 43.2284 79.164 43.4765C80.6511 43.7246 82.3861 43.9727 83.8732 44.2209C86.8475 44.469 90.0697 44.7171 92.5482 46.454C95.0268 47.9427 96.7618 51.1684 95.0268 53.8978C94.2832 55.1384 93.0439 55.6346 91.8046 56.1309C90.5654 56.6271 89.5739 57.3715 88.8304 58.364C88.0868 59.3565 87.5911 60.349 86.5997 60.8453C85.1125 62.0859 82.8818 61.5897 81.8904 60.1009C80.6511 58.1159 80.6511 55.3865 80.1554 53.4015C79.6597 51.4165 78.1725 49.4315 76.4375 48.1909C74.4547 46.7021 71.9761 46.454 69.7454 47.4465C67.7625 48.1909 66.2754 49.9278 66.2754 52.1609C66.7711 52.6571 67.2668 52.9053 67.2668 52.409Z" fill="#1D1D1B"/>
<path d="M67.5145 49.6795C68.5059 48.687 69.4973 47.4463 70.4887 46.4538C70.9845 45.9576 70.2409 45.4613 69.993 45.9576C69.0016 46.9501 67.7623 48.1907 67.0187 49.4314C66.7709 49.4314 67.2666 49.9276 67.5145 49.6795Z" fill="#1D1D1B"/>
<path d="M67.5142 49.6794C67.2664 47.9425 66.0271 46.4538 64.2921 46.4538C62.0614 46.2056 59.8307 47.9425 58.5914 49.6794C57.1042 51.4163 56.3607 53.6494 56.1128 55.8825C55.8649 58.3638 56.3607 60.8451 56.8564 63.3263C57.1042 65.0632 56.8564 66.8001 55.3692 67.7926C53.8821 69.0332 51.4035 69.7776 49.6685 68.2888C47.9335 66.8001 46.9421 65.0632 44.7114 64.5669C43.4721 64.3188 42.2328 64.0707 41.2414 63.3263C39.7542 62.0857 40.0021 59.8526 40.7457 58.3638C41.985 55.8825 44.4635 53.6494 46.4464 51.6644C48.925 49.4313 51.8992 47.4463 55.1214 46.7019C56.8564 46.2056 58.5914 45.9575 60.5742 46.2056C62.3092 46.4538 65.0357 46.95 65.5314 48.6869C65.7792 49.1831 66.5228 48.935 66.275 48.4388C65.7792 45.9575 62.5571 45.4613 60.5742 45.2131C57.6 44.965 54.3778 45.7094 51.6514 46.95C48.9249 48.1907 46.6942 50.1757 44.4635 52.1607C42.4807 54.1457 40.25 56.3788 39.5064 59.1082C39.0107 61.3413 39.7542 63.8226 41.7371 64.5669C42.9764 65.0632 44.2157 65.0632 45.4549 65.8076C46.6942 66.552 47.6857 67.7926 48.6771 68.7851C50.6599 70.522 53.1385 70.522 55.3692 69.0332C57.5999 67.5445 58.3435 65.3113 57.6 62.5819C56.8564 59.1082 56.3607 55.6344 58.0957 52.1607C58.8392 50.6719 59.8307 49.1831 61.3178 48.4388C63.0528 47.1981 66.5228 46.95 66.7707 49.6794C66.7707 50.1757 67.5142 50.1757 67.5142 49.6794Z" fill="#1D1D1B"/>
<path d="M66.2753 48.1912C66.2753 48.1912 66.0275 47.943 66.2753 47.6949H65.5317C65.7796 48.6874 66.2753 49.6799 66.5232 50.6724C66.771 51.1687 67.2667 50.9205 67.2667 50.4243C67.2667 49.928 67.2667 49.1836 67.5146 48.6874H67.0189C67.0189 49.1836 67.2667 49.4318 67.2667 49.928C67.2667 50.1762 67.5146 50.1761 67.7624 50.1761C68.7539 49.4318 69.4975 48.6874 69.9932 47.6949C69.7453 47.6949 69.4974 47.4468 69.2496 47.4468C69.2496 47.6949 68.7539 47.943 68.7539 48.4393V48.6874C69.2496 48.9355 69.7453 48.1911 69.9932 47.6949C69.9932 47.1986 69.4974 46.9505 69.2496 47.4468C68.7539 48.4393 68.0103 49.1836 67.2667 49.928C67.5146 49.928 67.5146 49.928 67.7624 50.1761C67.7624 49.6799 67.5146 49.4318 67.5146 48.9355C67.5146 48.6874 67.0189 48.6874 67.0189 48.9355C66.771 49.6799 66.5232 50.1762 66.771 50.9205C67.0189 50.9205 67.2667 50.9205 67.5146 50.9205C67.2667 49.928 66.771 48.9355 66.5232 47.943C66.5232 47.6949 66.0274 47.6949 65.7796 47.943C65.5317 48.4393 66.0274 48.6874 66.5232 48.9355C66.2753 48.6874 66.5232 48.4393 66.2753 48.1912Z" fill="#1D1D1B"/>
<path d="M0.0974121 6.25787C1.58455 11.7166 7.78098 13.7016 12.4903 15.1904C15.7124 16.1829 18.9345 17.1754 22.4045 18.1679C25.3788 19.1604 29.0967 19.6567 31.5753 21.6417C33.5581 23.3785 34.5496 26.3561 37.0281 27.8448C39.5067 29.3336 41.4895 28.5892 43.7203 27.1004C46.1988 25.6117 49.9167 23.1304 52.3952 26.1079C53.6345 27.8448 53.8824 30.078 55.1217 31.8148C55.8653 32.8073 56.8567 33.3036 57.8481 33.7998C59.3352 34.5442 59.3352 36.033 60.3267 37.0255C62.0617 39.0105 65.0359 39.7549 67.0188 41.4917C67.5145 41.988 68.2581 41.2436 67.7624 40.7474C66.0274 39.0105 63.7966 38.5142 62.0616 37.0255C61.0702 36.2811 60.8224 35.0405 60.0788 34.048C59.3353 33.0555 58.3438 32.8073 57.3524 32.3111C55.3695 31.0705 55.1217 28.5892 54.1302 26.6042C53.1388 24.6192 51.6517 23.3786 49.421 23.3786C46.4467 23.3786 44.4638 25.1154 41.9853 26.6042C38.2674 28.8373 36.0367 25.1154 34.0538 22.6342C32.5667 20.6492 30.5838 19.4085 28.1053 18.416C24.8831 17.4235 21.661 16.6792 18.4388 15.6867C14.9689 14.6942 11.251 13.9498 8.02886 12.461C4.80672 11.2204 2.08027 9.23538 0.0974121 6.25787C0.0974121 6.00975 0.0974121 6.00975 0.0974121 6.25787Z" fill="#1D1D1B"/>
<path d="M0.0972302 7.49725C1.58437 8.48976 0.840809 10.7229 0.840809 12.2116C0.840809 13.9485 1.08867 15.6854 1.58439 17.1742C2.32796 20.1517 3.31939 23.1292 4.80654 25.8586C7.53296 31.3173 11.2508 35.2874 17.1994 36.7761C20.4215 37.7686 23.6437 38.2649 26.8658 38.2649C28.3529 38.2649 30.088 38.0167 31.5751 37.7686C33.0622 37.2723 34.7972 36.528 36.5322 37.0242C39.0108 37.7686 40.498 40.7461 42.7287 41.9868C44.9594 43.2274 47.6858 43.4755 50.1644 42.7311C51.8994 41.9867 53.1386 40.7461 54.6258 40.2499C56.3608 39.5055 58.5915 40.0017 60.5744 40.2499C62.3094 40.498 65.2836 40.2499 65.7793 42.483C66.2751 44.468 66.2751 46.453 66.5229 48.438C66.5229 49.1824 67.7622 48.9343 67.5144 48.1899C67.5144 46.453 67.2665 44.7161 67.0186 42.9793C66.7708 41.7386 66.5229 40.7461 65.7793 40.0017C64.7879 39.2574 63.5486 39.2574 62.3094 39.0092C60.3265 38.7611 58.3436 38.513 56.6086 38.2649C53.3865 38.2649 51.4036 41.2424 48.4293 41.7386C46.6944 41.9868 44.9594 41.7386 43.7201 40.9942C42.4808 40.2499 41.4894 39.0092 40.2501 38.0167C38.2672 36.0317 36.2844 35.2874 33.8058 36.0317C32.0708 36.528 30.5837 37.0242 28.8487 37.0242C26.8658 37.2724 24.883 37.0242 22.9001 36.528C19.4301 36.0317 15.9601 35.2874 12.9858 33.3023C10.2594 31.5655 8.27654 28.8361 6.7894 26.1067C5.0544 22.8811 3.56723 19.1592 2.5758 15.4373C2.08009 13.4523 2.08012 11.4673 1.83226 9.23413C1.83226 8.24162 1.5844 7.24912 0.592974 6.75287C0.0972604 7.00099 -0.150627 7.24913 0.0972302 7.49725Z" fill="#1D1D1B"/>
</svg>
