<svg width="261" height="204" viewBox="0 0 261 204" fill="none" xmlns="http://www.w3.org/2000/svg">
<path d="M130.101 54.6616C130.366 65.8378 130.632 77.014 130.366 88.1901C130.366 90.8511 130.366 93.7782 130.101 96.4392C130.101 97.7697 129.303 100.431 130.632 101.495C131.695 102.293 132.759 101.229 133.024 100.165C133.29 99.1002 133.024 98.3019 132.759 97.2375C132.493 95.907 132.493 94.3104 132.227 92.9799C132.227 92.1816 130.898 92.1816 130.898 92.9799C130.898 95.6409 130.898 98.0358 130.898 100.697H132.227C132.227 92.7138 132.227 84.4648 131.961 76.4818C131.961 72.4903 131.961 68.4988 131.961 64.5073C131.961 60.5158 131.961 56.2582 131.695 52.2667C131.695 51.4684 130.366 51.4684 130.366 52.2667C130.101 56.2582 130.366 60.2497 130.366 64.2412C130.366 68.2327 130.366 72.4903 130.366 76.4818C130.366 84.4648 130.632 92.7138 130.632 100.697C130.632 101.495 131.961 101.495 131.961 100.697C132.227 98.0358 132.227 95.6409 131.961 92.9799H130.632C130.898 95.1087 131.164 97.2375 131.43 99.3663C131.43 99.6324 131.43 100.431 131.164 100.165C130.898 100.165 131.164 98.8341 131.164 98.8341C131.164 97.7697 131.164 96.4392 131.43 95.3748C131.695 90.8511 131.695 86.3274 131.695 82.0699C131.695 73.0225 131.43 63.9751 130.898 54.9277C131.164 54.1294 130.101 54.1294 130.101 54.6616Z" fill="#1D1D1B"/>
<path d="M130.632 54.929C133.822 50.6714 136.746 45.8817 138.606 40.5597C139.404 38.4309 139.669 35.7699 140.999 33.6411C141.264 33.1089 141.796 32.5767 142.593 32.0445C143.657 31.5123 144.454 31.7784 144.986 32.8428C145.252 33.6411 145.783 34.4394 146.581 35.2377C147.91 36.3021 149.504 36.8343 150.834 35.7699C152.428 34.7055 152.428 32.8428 152.694 31.2462C152.96 29.9157 153.226 28.8513 154.289 28.053C155.352 27.2547 157.479 25.6581 158.808 26.1903C161.466 26.9886 159.605 31.7784 160.669 33.6411C161.466 34.9716 163.327 36.036 164.656 34.7055C165.985 33.6411 165.985 30.9801 167.048 29.6496C169.706 25.6581 176.617 24.3276 180.604 27.5208C183.794 29.9157 182.997 37.6326 188.313 37.6326C190.439 37.6326 192.034 36.036 193.363 34.7055C195.756 32.8428 198.68 32.3106 201.338 33.6411C207.451 36.8343 207.186 44.5512 207.451 50.4054C207.451 53.5986 207.717 56.7917 208.249 59.9849C208.78 63.4442 209.046 66.9035 210.375 70.0967C210.641 70.6289 211.439 70.6289 211.173 70.0967C210.907 66.9035 210.109 63.9764 209.578 60.7832C209.046 57.59 208.78 54.3969 208.78 51.2037C208.515 45.8817 208.78 39.7614 205.325 35.2377C202.401 31.5123 197.616 30.1818 193.363 32.8428C191.237 34.1733 188.845 37.8987 186.186 35.5038C184.06 33.6411 184.06 30.4479 182.465 28.053C180.073 24.5937 175.022 23.7954 171.301 25.1259C169.175 25.6581 167.314 26.9886 165.985 28.5852C165.453 29.3835 164.922 30.1818 164.656 31.2462C164.39 31.7784 164.39 32.3106 164.39 32.8428C163.858 34.1733 162.529 34.4394 161.732 33.375C160.934 32.0445 161.466 30.1818 161.2 28.5852C161.2 27.7869 160.934 26.7225 160.137 26.1903C158.542 24.5937 156.416 25.392 154.821 26.4564C152.96 27.5208 151.897 29.1174 151.365 31.5123C151.099 32.5767 151.099 33.375 150.568 34.4394C149.77 36.3021 147.91 36.036 146.581 34.7055C145.783 33.9072 145.517 32.3106 144.454 31.5123C143.657 30.9801 142.859 31.2462 142.062 31.5123C139.935 32.5767 138.872 34.9716 138.34 37.1004C137.543 40.2936 136.48 43.2207 134.885 46.1478C133.29 49.0749 131.429 52.0019 129.834 54.929C129.834 54.929 130.366 55.1951 130.632 54.929Z" fill="#1D1D1B"/>
<path d="M131.164 54.9274C130.898 54.6613 133.556 52.2664 133.822 52.0003C134.885 50.9359 135.949 49.8716 137.012 48.8072C137.809 48.0089 139.138 46.9444 140.467 46.9444C142.062 46.9444 143.125 48.0089 144.454 48.5411C145.784 49.0733 147.378 49.0732 148.442 47.7427C148.707 47.2105 148.973 46.6784 148.973 46.1462C148.973 45.614 148.973 45.0818 148.973 44.8157C148.973 44.5496 148.973 44.5495 148.973 44.2834C148.973 43.7512 149.239 42.1547 150.834 44.0173C151.631 44.8156 151.1 46.4123 151.366 47.4767C151.631 48.275 151.897 49.0732 152.695 49.6054C154.024 50.6698 155.884 50.6698 156.948 49.6054C158.542 48.2749 157.745 45.88 159.074 44.2834C159.872 43.4851 160.935 42.953 161.998 43.2191C163.593 43.4852 162.795 45.6139 162.53 46.6783C161.732 48.8071 161.201 50.9359 161.998 53.3308C162.53 54.9274 163.859 55.9918 165.719 56.2579C167.58 56.524 168.909 55.4596 169.972 54.1291C171.301 52.5325 173.694 49.3394 175.289 52.5326C176.086 53.8631 176.618 55.4596 178.478 55.7257C179.542 55.9918 180.605 55.4596 181.668 55.4596C181.934 55.4596 182.2 55.4596 182.466 55.4596C182.731 55.7257 183.529 56.2579 183.263 56.7901C182.997 57.3223 182.2 57.3223 181.668 57.5884C178.212 58.9189 176.086 62.6443 177.947 65.8375C179.01 67.7002 181.136 68.4985 183.263 68.4985C186.453 68.7646 189.642 68.7646 192.566 69.0307C195.756 69.2968 199.212 69.2968 202.401 69.5629C203.996 69.5629 205.591 69.829 207.186 69.829C208.781 69.829 210.11 69.829 211.439 70.8934C211.705 71.1595 212.236 70.6273 211.971 70.3612C210.642 68.7646 208.515 68.7646 206.654 68.4985C203.465 68.2324 200.541 68.2324 197.351 67.9663C194.427 67.7002 191.237 67.7002 188.313 67.4341C186.718 67.4341 185.389 67.4341 183.795 67.168C182.2 67.168 180.605 66.9019 179.276 65.8375C177.149 63.7087 178.478 60.2494 180.871 59.185C182.2 58.6528 184.326 58.3867 184.326 56.524C184.326 54.9275 182.466 54.1291 181.136 54.1291C179.807 54.1291 178.213 54.9275 177.149 53.8631C176.352 53.0648 176.086 52.0004 175.82 51.2021C175.023 49.8716 173.428 49.3394 172.099 49.8716C169.972 50.936 169.175 53.5969 167.048 54.6613C165.719 55.4596 164.125 54.6613 163.327 53.3308C162.264 52.0003 162.53 50.1377 162.795 48.5411C163.327 46.6784 164.656 44.2834 163.327 42.6869C162.53 41.6225 160.403 41.8886 159.34 42.4208C157.745 43.2191 156.682 44.5496 156.416 46.1462C156.416 46.9445 156.416 47.7428 155.619 48.5411C155.087 49.0733 154.024 49.3393 153.226 49.0732C151.631 48.2749 151.897 46.4123 151.631 44.8157C151.366 43.4852 150.037 41.6225 148.442 42.4208C146.581 43.2191 147.91 45.6139 147.378 46.9444C146.581 49.0732 144.189 47.4766 142.86 46.6783C142.062 46.1461 140.999 45.8801 139.936 45.8801C137.278 46.1462 135.417 49.0732 133.556 50.6698C132.493 51.7342 131.164 52.7987 130.366 53.8631C129.835 54.3953 129.835 54.9274 130.366 55.4596C130.632 55.7257 131.43 55.1935 131.164 54.9274Z" fill="#1D1D1B"/>
<path d="M207.983 68.4995C209.046 69.0317 210.11 69.5639 210.907 70.3622C211.173 70.6283 211.705 71.6926 212.236 70.8943C212.502 70.3622 211.439 69.2978 210.907 69.0317C210.11 68.4995 209.312 67.9673 208.249 67.7012C207.717 67.9673 207.717 68.4995 207.983 68.4995Z" fill="#1D1D1B"/>
<path d="M209.046 66.1039C209.578 67.4344 210.641 68.7649 211.439 70.0954C212.236 71.1598 213.034 72.4903 214.363 73.2886C214.363 73.2886 214.628 73.2886 214.628 73.0225C214.097 71.692 213.033 70.6276 212.236 69.5632C211.173 68.2327 210.375 66.9022 209.046 66.1039C209.046 65.8378 208.781 65.8378 209.046 66.1039Z" fill="#1D1D1B"/>
<path d="M211.173 69.8302C210.376 68.4997 209.578 67.1692 208.781 65.8387C208.781 65.5726 208.249 65.8387 208.249 66.1048C208.781 67.7014 209.578 69.0319 210.376 70.3624C211.173 71.4268 212.236 72.7573 213.565 73.0234C213.299 71.4268 212.236 70.8946 211.173 69.8302C210.376 68.7658 209.578 67.1692 208.781 65.8387C208.515 65.8387 208.515 65.8387 208.249 66.1048C209.312 67.1692 210.376 68.4997 211.173 69.8302Z" fill="#1D1D1B"/>
<path d="M209.578 68.2329C209.046 67.9668 208.515 67.9668 208.249 67.9668C208.249 67.9668 207.983 68.2329 208.249 68.2329C208.781 68.499 209.046 68.499 209.578 68.7651C209.578 68.499 209.578 68.2329 209.578 68.2329Z" fill="#1D1D1B"/>
<path d="M131.43 54.1291C132.493 55.4596 134.885 54.1291 135.949 53.3308C137.809 52.0003 139.404 49.6054 142.062 49.6054C144.986 49.6054 144.189 52.7986 145.518 54.3952C146.847 55.9918 149.239 55.7257 150.834 56.524C154.821 58.3867 157.745 61.846 159.606 65.8375C161.732 70.6273 161.998 75.9492 162.264 81.0051C162.264 81.2712 162.795 81.5373 162.795 81.0051C164.39 71.6917 161.466 60.7816 152.695 55.7257C151.631 55.1935 150.834 54.6613 149.771 54.3952C148.707 54.1291 146.847 53.863 146.315 52.7986C145.784 51.7342 145.784 50.4037 145.252 49.6054C144.72 49.0732 144.189 48.541 143.391 48.2749C141.531 47.7427 139.936 48.541 138.607 49.6054C137.543 50.4037 136.48 51.7342 135.151 52.5325C134.619 53.0647 133.822 53.3308 133.025 53.5969C131.961 53.863 131.961 53.5969 131.43 54.1291Z" fill="#1D1D1B"/>
<path d="M131.961 55.1947C132.493 55.7269 133.29 55.4608 134.088 55.7269C135.151 55.993 135.949 56.7913 136.48 57.3235C137.543 58.3879 138.872 59.1862 140.201 59.4523C140.733 59.4523 141.265 59.4523 141.796 59.1862C142.594 58.9201 143.391 58.654 143.923 59.4523C144.189 59.7184 144.189 60.2506 144.189 60.5167C144.454 61.8472 144.72 63.1777 145.518 64.5082C147.644 67.1692 150.834 68.2336 153.758 69.8302C157.213 71.6929 159.606 74.8861 160.935 78.3454C160.669 74.8861 159.34 71.959 156.416 69.8302C153.226 67.4353 148.707 66.637 146.315 63.1777C144.72 60.7828 145.518 56.7913 141.531 57.5896C140.201 57.8557 139.404 57.8557 138.075 57.0574C137.278 56.5252 136.746 55.993 135.949 55.4608C134.619 54.3964 133.29 53.8642 131.696 54.1303C131.43 54.1303 131.43 54.3964 131.43 54.3964C131.961 54.9286 131.961 55.1947 131.961 55.1947Z" fill="#1D1D1B"/>
<path d="M157.479 71.9593C158.277 73.822 159.606 75.4186 160.669 77.2813C161.732 79.4101 162.264 81.5389 162.53 83.9338C162.53 84.1999 162.795 84.1999 162.795 83.9338C163.327 81.805 162.795 79.6762 161.998 78.0796C161.201 75.9508 159.606 73.2898 158.011 71.9593C157.479 71.6932 157.213 71.6932 157.479 71.9593Z" fill="#1D1D1B"/>
<path d="M131.695 75.1514C132.492 69.5633 137.809 65.5718 143.391 67.1684C148.175 68.4989 151.099 74.087 152.163 78.8768C152.428 80.4734 152.163 82.8682 150.036 82.8682C148.973 82.8682 147.91 82.3361 146.846 82.6022C146.049 82.8683 145.517 83.1344 144.986 83.6666C144.188 84.4649 143.657 86.3276 142.062 85.7954C139.404 84.4649 141.796 79.9412 142.062 77.8124C142.327 75.4175 141.796 73.0226 140.733 70.8938C139.669 69.0311 137.543 67.4345 135.416 67.9667C133.024 68.4989 132.492 70.8938 131.429 72.7565C131.429 73.0226 131.695 73.2887 131.695 73.0226C132.492 72.2243 133.024 71.1599 133.556 70.0955C134.885 67.9667 137.543 68.4989 138.872 70.0955C141.264 73.0226 140.998 77.0141 139.935 80.4734C139.404 82.6022 138.872 85.2632 141.264 86.5937C143.391 87.6581 144.454 85.7954 145.517 84.4649C147.378 82.3361 150.302 84.997 152.163 82.8682C153.757 81.0056 152.96 78.3446 152.163 76.2158C150.568 71.426 147.378 66.6362 142.062 65.8379C136.214 65.0396 130.898 69.0311 130.632 74.8853C131.163 75.4175 131.695 75.6836 131.695 75.1514Z" fill="#1D1D1B"/>
<path d="M131.164 75.6846C132.493 72.4914 129.303 68.766 126.113 70.0965C121.329 71.9592 121.861 78.6117 122.924 82.3371C123.455 83.9337 123.721 85.7964 122.392 87.1269C121.063 88.4574 118.937 88.4573 117.342 87.659C116.278 87.1269 115.747 86.0624 114.684 85.5302C113.62 84.998 112.823 84.998 111.76 85.2641C110.696 85.5302 109.899 85.5303 109.102 84.732C108.304 84.1998 108.038 83.4015 108.038 82.3371C108.038 80.7405 108.836 78.8778 109.633 77.5473C110.962 75.4185 113.089 73.5558 115.215 72.2253C117.608 70.6287 120.531 69.5643 123.455 69.2982C125.316 69.2982 127.177 69.2982 128.772 70.3626C130.101 71.1609 130.898 72.4914 131.696 74.088C131.696 74.3541 131.961 74.088 131.961 74.088C132.227 71.9592 130.101 70.0965 128.24 69.2982C125.848 68.2338 122.924 68.4999 120.266 69.0321C115.215 70.3626 110.962 73.5558 108.304 77.8134C106.975 79.9422 105.912 82.6032 107.507 84.9981C108.038 85.7964 108.836 86.3285 109.633 86.5946C111.494 86.8607 112.823 85.7964 114.418 87.1269C116.278 88.7235 118.139 90.0539 120.797 89.2556C122.924 88.7234 124.253 86.5947 124.253 84.4659C124.253 82.8693 123.455 81.2727 123.19 79.6761C122.924 77.5473 123.19 75.4185 123.987 73.5558C124.784 71.9592 126.645 70.3626 128.506 71.1609C130.101 71.9592 130.898 73.8219 130.366 75.4185C130.632 75.6846 131.164 75.9507 131.164 75.6846Z" fill="#1D1D1B"/>
<path d="M130.898 57.3225C133.024 54.3954 126.113 52.7988 124.518 52.7988C123.721 52.7988 122.924 52.7988 122.392 53.331C121.329 53.8632 120.531 54.9276 119.202 55.1937C117.607 55.7259 116.012 55.4598 114.418 56.2581C113.886 56.5242 113.354 57.0564 112.823 57.5886C112.291 58.1208 112.291 58.9191 112.025 59.4513C111.494 60.7818 110.165 60.5157 109.101 60.7818C108.304 61.0479 107.241 61.314 106.443 61.5801C103.254 63.1767 100.595 66.3699 99.2664 69.5631C97.1399 74.3529 96.874 79.6749 96.874 84.7308C96.874 84.9969 97.4057 84.9969 97.4057 84.7308C98.2031 79.4088 98.2031 74.0868 100.595 69.297C102.456 65.5716 105.646 62.3784 109.899 61.5801C111.76 61.314 112.557 61.0479 113.089 59.1852C113.62 57.0564 115.747 56.2581 117.873 55.992C118.671 55.992 119.734 55.992 120.531 55.4598C121.595 54.9276 122.126 53.8632 123.455 53.5971C125.05 53.331 130.632 54.1293 130.366 56.7903C130.366 57.5886 130.898 57.5886 130.898 57.3225Z" fill="#1D1D1B"/>
<path d="M97.6712 85.529C97.937 80.4731 102.19 78.0782 106.177 75.9494C108.038 74.885 109.633 73.8206 111.228 72.224C112.291 70.8935 113.088 69.297 114.151 67.9665C115.481 65.8377 117.075 65.3055 119.468 65.0394C121.063 65.0394 122.657 64.7733 123.721 63.4428C124.784 61.8462 124.518 59.4513 125.847 58.1208C127.974 55.992 131.429 58.1208 131.429 61.0479C131.429 61.314 131.961 61.5801 131.961 61.0479C132.227 59.4513 131.961 58.3869 130.898 57.0564C129.834 55.992 128.239 55.4598 126.645 55.992C125.05 56.5242 123.986 57.5886 123.721 58.9191C123.455 59.7174 123.455 60.5157 123.189 61.5801C122.657 63.1767 121.594 63.7089 120.265 63.975C118.67 64.2411 117.075 64.2411 115.481 65.0394C114.151 65.8377 113.354 67.4343 112.557 68.7648C111.493 70.6275 110.43 72.224 108.569 73.5545C106.975 74.885 105.114 75.6833 103.253 76.7477C100.063 78.6104 96.3421 81.8036 97.1396 86.0612C97.1396 86.0612 97.6712 85.7951 97.6712 85.529Z" fill="#1D1D1B"/>
<path d="M131.164 57.8557C131.164 57.5896 131.164 57.5895 131.164 57.3234C131.164 57.0573 130.898 56.7913 130.898 56.5252C130.632 55.993 130.366 55.4608 129.834 55.1947C129.569 54.6625 128.771 55.4607 129.303 55.7268C129.569 55.9929 129.834 56.5251 130.1 57.0573C130.1 57.3234 130.366 57.3234 130.366 57.5895C130.632 57.5895 130.898 57.5896 131.164 57.8557Z" fill="#1D1D1B"/>
<path d="M65.7743 37.8984C66.0401 38.1645 66.3059 38.1645 66.8376 37.8984C67.1034 37.6323 67.1034 37.3662 66.8376 37.3662C63.382 35.5035 58.5974 37.3662 55.6735 39.7611C51.9521 42.4221 51.4205 46.6796 52.4837 50.9372C53.0154 53.3321 53.8128 55.727 54.3444 58.1219C55.1419 60.7829 55.6735 63.4439 56.2051 66.1049C56.7367 68.7659 57.0025 71.693 57.2684 74.6201C57.2684 75.9506 57.5342 77.2811 57.5342 78.6116C57.5342 79.9421 57.5342 81.2726 57.8 82.337C57.8 82.6031 58.3316 82.6031 58.5974 82.337C59.129 80.2082 58.5974 77.8133 58.5974 75.6845C58.3316 73.5557 58.3316 71.4269 57.8 69.2981C57.2683 64.5083 56.2051 59.9846 54.8761 55.4609C53.8128 51.7355 52.2179 46.9458 54.3444 43.2204C55.4077 41.3577 57.5342 40.0272 59.3949 39.2289C60.4581 38.6967 61.7871 38.4306 63.1162 38.1645C63.6478 38.1645 64.1795 38.1645 64.7111 38.1645C64.9769 38.1645 65.5085 38.1645 65.7743 38.4306C66.0401 37.6323 66.0401 37.8984 65.7743 37.8984C65.5085 37.6323 65.5085 37.8984 65.7743 37.8984Z" fill="#1D1D1B"/>
<path d="M58.3315 81.8052C58.0657 81.8052 58.0657 79.9425 58.0657 79.6764C58.0657 78.8781 58.3315 78.3459 58.5973 77.5476C59.1289 76.2171 60.1922 75.4188 61.2554 74.6205C63.1161 73.29 65.5084 72.2256 67.6349 71.4273C70.0272 70.629 72.4195 70.0968 75.0776 70.0968C77.2041 70.0968 79.0648 70.0968 81.1913 69.8307C84.6468 69.2985 87.0391 66.9036 86.7733 63.1782C86.7733 61.3155 85.7101 59.985 85.1784 58.1223C84.6468 56.7918 85.1784 55.9935 86.5075 55.7274C87.8366 55.4613 88.634 56.2596 89.1656 57.0579C91.0263 59.1867 94.216 59.7189 96.3425 57.8562C97.6716 56.7918 97.9374 55.4613 98.2032 53.8647C98.2032 52.8003 97.9374 51.7359 97.9374 50.4054C97.9374 49.341 98.7348 47.2122 100.064 47.2122C103.785 47.2122 99.2665 56.5257 104.583 55.1952C106.178 54.9291 106.975 53.3325 107.772 51.7359C108.304 50.9376 109.101 49.341 110.431 49.6071C111.494 49.8732 111.494 51.7359 111.76 52.5342C113.354 55.4613 118.405 54.663 120.531 53.0664C121.329 52.5342 121.86 51.7359 122.392 50.9376C123.189 49.341 124.519 49.0749 126.113 49.6071C128.506 50.6715 129.569 53.5986 129.569 55.9935C129.569 56.5257 130.366 56.5257 130.366 55.9935C130.898 52.5342 128.506 48.2766 124.784 47.7444C122.924 47.4783 121.86 48.5427 121.063 50.1393C119.734 52.2681 117.342 53.3325 114.949 52.8003C113.62 52.5342 112.823 52.002 112.557 50.4054C112.291 49.6071 112.291 48.8088 111.494 48.2766C110.431 47.2122 108.57 47.7444 107.772 48.8088C106.975 49.6071 106.709 50.4054 106.178 51.2037C105.912 51.7359 105.646 52.2681 105.114 52.8003C104.583 53.3325 104.317 53.3325 103.785 52.8003C102.988 52.2681 102.988 52.002 102.988 51.2037C102.988 49.341 103.519 47.2122 101.925 45.6156C100.861 44.5512 99.2664 45.0834 98.2032 45.8817C96.6083 47.4783 96.8741 49.6071 96.8741 51.4698C97.1399 53.8647 96.3425 56.2596 93.4186 56.5257C92.3554 56.5257 91.2921 56.2596 90.4947 55.7274C89.6972 54.9291 89.1656 54.1308 88.3682 53.5986C87.0391 53.0664 85.7101 53.0664 84.381 53.8647C83.0519 54.9291 83.0519 56.2596 83.5836 57.8562C84.6468 60.2511 85.7101 62.1138 84.6468 64.7748C83.3178 67.4358 80.6597 67.7019 78.0015 67.7019C72.4195 67.7019 67.1032 68.5002 62.3186 71.1612C60.458 72.2256 58.3315 73.8222 57.5341 75.951C57.0024 77.2815 56.4708 80.2086 58.0657 80.7408H58.3315C58.5973 80.4747 58.5973 80.4747 58.5973 79.9425C58.5973 79.6764 58.3315 79.6764 58.3315 79.6764C58.3315 79.6764 58.3315 79.6764 58.0657 79.6764C58.0657 81.273 58.0657 81.8052 58.3315 81.8052Z" fill="#1D1D1B"/>
<path d="M65.7741 37.8984C68.4323 38.9628 67.6348 44.2848 71.0904 44.2848C73.7485 44.2848 74.2801 40.5594 75.875 38.9628C77.204 37.8984 78.7989 37.1001 80.3938 37.1001C82.2545 37.1001 83.3177 38.1645 85.1784 38.6967C88.1023 39.495 88.3681 36.5679 87.5707 34.7052C87.0391 33.6408 86.5074 32.5765 87.0391 31.5121C87.3049 30.4477 88.1023 29.6494 89.1656 29.1172C91.0262 28.0528 93.4185 28.0528 95.545 28.585C97.1399 28.8511 98.7348 29.6493 99.798 30.9798C100.861 32.5764 100.595 34.4391 101.393 36.0357C102.988 38.9628 105.912 37.8984 107.507 35.5035C108.57 33.9069 109.899 31.7781 112.025 33.3747C113.886 34.7052 113.886 37.1001 114.152 38.9628C114.418 40.5594 115.215 42.156 116.544 43.2204C117.076 43.7526 117.607 43.7526 118.405 44.0187C119.468 44.2848 120.266 44.817 121.063 45.3492C121.329 45.6153 121.86 46.1475 122.392 46.1475C122.924 46.4136 123.455 46.1475 123.987 46.4136C125.05 46.6797 126.113 47.2119 126.911 48.0102C128.506 49.6068 129.037 52.0017 130.101 53.8644C130.366 54.3966 130.898 53.8644 130.898 53.5983C130.366 50.4051 128.506 46.6797 125.316 45.3492C124.784 45.0831 123.987 45.0831 123.455 44.817C122.392 44.5509 121.595 43.7526 120.531 43.2204C119.734 42.6882 119.734 42.6882 118.936 42.6882C117.342 42.6882 116.544 41.3577 116.013 40.0272C114.949 37.1001 115.215 33.1086 112.025 31.7781C110.696 31.2459 109.633 31.512 108.57 32.3103C107.241 33.3747 106.709 35.5035 105.114 36.3018C102.456 37.8984 102.19 33.1086 101.659 31.7781C101.127 30.4477 100.33 29.3833 99.0006 28.585C96.6083 26.9884 92.8869 26.4562 89.963 27.5206C87.3049 28.3189 84.9126 31.246 85.9758 34.173C86.2416 34.9713 86.7733 35.5035 87.0391 36.3018C87.3049 37.6323 85.9758 37.8984 84.9126 37.3662C84.6468 37.1001 84.1151 36.834 83.8493 36.834C82.5203 36.3018 81.1912 36.0357 79.8622 36.3018C78.5331 36.5679 77.204 37.1001 75.875 37.8984C74.5459 38.9628 74.0143 40.2933 72.9511 41.6238C72.4194 42.6882 71.622 43.7526 70.2929 42.9543C69.2297 42.4221 68.9639 41.0916 68.6981 40.0272C68.1665 38.6967 67.369 37.3662 66.04 37.1001C65.5084 36.834 65.2425 37.6323 65.7741 37.8984Z" fill="#1D1D1B"/>
<path d="M84.6468 32.3102C81.1912 33.3746 79.8621 29.3831 80.9254 26.7221C81.9886 24.3272 84.1151 22.4645 85.9758 20.8679C89.963 17.6747 95.0134 15.0137 100.064 16.3442C102.722 17.1425 105.114 18.2069 107.772 19.5374C110.165 20.6018 112.291 21.9323 114.152 23.795C116.012 25.3916 117.342 27.5204 117.873 29.9153C118.405 31.5119 118.671 32.5763 120.531 32.8424C122.126 32.8424 124.253 32.8424 125.05 34.9712C125.582 36.3016 124.253 37.3661 124.253 38.4305C124.253 40.8254 128.506 41.0915 126.911 43.7524C126.645 44.0185 126.911 44.5508 127.177 44.5508C131.164 46.9457 128.506 52.7998 130.898 55.993C131.164 56.2591 131.695 55.993 131.43 55.7269C130.632 53.332 130.898 50.671 130.632 48.2761C130.366 46.4134 129.569 44.5508 127.708 43.4864C127.708 43.7525 127.974 44.0185 127.974 44.2846C128.506 43.4863 128.506 42.688 128.24 41.6236C127.974 40.5592 127.177 40.2932 126.113 39.4949C124.518 38.1644 126.113 37.1 126.113 35.5034C126.113 34.439 125.582 33.3746 124.784 32.5763C123.987 31.778 122.658 31.5119 121.595 31.5119C120.531 31.5119 119.734 31.778 119.202 30.7136C118.936 30.1814 118.936 29.3831 118.671 28.5848C117.607 25.9238 116.013 23.795 113.886 22.1984C111.494 20.0696 108.57 18.7391 105.646 17.4086C102.988 16.3442 100.064 15.0137 97.1399 15.0137C91.292 15.0137 85.9758 19.0052 81.9886 22.9967C80.128 25.1255 78.2673 27.7865 79.3305 30.7136C80.128 32.8424 82.5203 34.439 84.6468 33.3746C85.4442 32.8424 85.1784 32.0441 84.6468 32.3102Z" fill="#1D1D1B"/>
<path d="M131.961 53.863C132.227 47.7427 132.227 41.3563 132.227 35.236C132.227 32.3089 132.227 29.1157 132.227 26.1886C132.227 23.7937 132.493 20.8666 131.164 18.7378C130.1 16.8751 128.24 15.8107 126.113 15.5446C124.784 15.2785 123.189 15.2785 122.658 13.6819C122.392 12.6175 122.392 11.5531 122.126 10.4887C120.797 5.96505 116.012 3.83625 111.494 3.03795C104.848 1.70745 98.203 0.909152 91.5578 0.376953C91.2919 0.376953 91.2919 0.909165 91.5578 0.909165C97.1398 2.23966 102.456 3.03796 108.038 3.83626C112.823 4.63456 119.468 5.43285 120.797 11.0209C121.329 12.6175 121.063 14.7463 122.392 15.8107C123.987 17.1412 126.379 16.609 128.24 17.9395C130.632 19.8022 130.632 22.7293 130.632 25.6564C130.632 28.5835 130.632 31.5106 130.632 34.4377C130.632 40.8241 130.632 47.4766 131.164 53.863C131.164 54.3952 131.961 54.3952 131.961 53.863Z" fill="#1D1D1B"/>
<path d="M93.4187 1.17698C95.811 1.97528 97.14 4.37018 98.4691 6.49897C99.7982 8.36167 101.127 10.4905 102.722 12.0871C106.178 15.5464 110.431 17.9412 114.949 19.0056C116.544 19.2717 118.139 19.2718 118.405 21.1345C118.671 22.1988 118.671 22.9971 119.202 23.7954C120 25.6581 121.595 26.9886 123.455 27.7869C124.519 28.3191 125.848 28.3191 126.911 28.8513C128.24 29.6496 128.772 31.2462 129.037 32.5767C129.835 35.5038 130.366 38.4309 130.898 41.358C130.898 41.8902 131.696 41.6241 131.696 41.358C131.961 38.9631 131.696 36.5682 131.164 34.1733C130.632 32.3106 130.366 30.1818 129.037 28.8513C127.708 27.5208 125.848 27.2547 124.253 26.7225C122.126 25.9242 120.531 24.3277 120 21.9328C119.734 20.3362 119.734 19.0057 118.139 18.2074C116.278 17.4091 114.418 17.4091 112.557 16.6108C108.57 15.0142 105.114 12.3532 102.19 9.15997C99.5323 6.23287 97.9375 1.44309 93.6845 0.64479C93.1529 0.37869 92.8871 0.910881 93.4187 1.17698Z" fill="#1D1D1B"/>
<path d="M131.961 39.2286C131.961 39.4947 131.695 40.0269 131.695 40.293C131.695 40.5591 132.227 40.8252 132.227 40.5591C133.822 35.5033 134.353 29.9152 136.746 25.1254C137.277 24.061 137.809 23.2627 138.872 22.7305C139.935 22.1983 140.999 22.1983 142.062 21.6661C144.188 21.1339 144.72 19.0051 146.049 17.6746C148.973 14.2153 154.023 12.8848 158.542 12.6187C163.061 12.3526 168.111 12.8848 172.099 15.5458C175.82 18.2068 179.01 24.5932 184.326 23.2627C184.592 23.2627 184.592 22.7305 184.326 22.7305C178.744 21.9322 176.352 16.3441 171.567 13.6831C167.58 11.2882 162.529 10.756 158.011 11.2882C153.758 11.8204 149.239 12.8848 146.049 15.8119C145.252 16.6102 144.72 17.1424 144.188 18.2068C143.391 19.5373 142.859 20.3356 140.999 20.8678C139.138 21.1339 137.809 22.1983 136.746 23.7949C135.417 25.9237 134.619 28.5847 134.088 30.9795C133.29 34.1727 132.227 37.632 132.227 40.8252C132.493 40.8252 132.493 40.8252 132.759 40.8252C132.227 40.0269 132.227 39.4947 131.961 39.2286Z" fill="#1D1D1B"/>
<path d="M132.227 51.4692C132.493 49.6065 132.493 48.0099 132.493 46.1472C132.493 44.2845 132.759 42.1557 133.025 40.293C133.29 38.6964 133.822 37.0998 134.885 35.7693C136.214 34.4388 137.809 34.1727 139.404 33.1083C142.062 31.2456 143.125 28.3185 146.049 26.988C147.378 26.4558 148.973 26.1897 150.568 26.1897C151.366 26.1897 152.163 26.4558 152.96 26.7219C153.758 26.988 154.289 27.5202 155.087 27.5202C155.353 27.5202 155.884 27.2541 155.618 26.988C154.024 24.5931 149.505 24.8592 147.378 25.3914C145.783 25.9236 144.454 26.4558 143.391 27.5202C142.062 28.8507 141.265 30.4473 139.67 31.7778C138.341 33.1083 136.214 33.3744 134.885 34.7049C133.822 35.7693 133.024 37.3659 132.759 38.6964C132.227 40.5591 132.227 42.4218 131.961 44.5506C131.43 46.4133 131.164 49.0743 132.227 51.4692C131.961 51.4692 132.227 51.4692 132.227 51.4692Z" fill="#1D1D1B"/>
<path d="M160.137 26.9886C163.327 29.6496 167.845 26.9886 170.769 25.658C173.162 24.5936 175.554 23.7953 177.946 23.7953C179.807 23.7953 181.934 24.8598 183.528 23.2632C183.794 22.9971 183.528 22.7309 183.263 22.7309C181.136 22.997 179.275 22.4648 177.149 22.4648C175.288 22.4648 173.428 22.997 171.567 23.7953C169.972 24.5937 168.111 25.6581 166.516 26.1903C164.39 26.9886 162.529 26.9886 160.403 26.4564C160.137 26.4564 159.871 26.7224 160.137 26.9886Z" fill="#1D1D1B"/>
<path d="M131.164 99.6333C131.429 99.6333 131.429 99.6333 131.429 99.6333C131.695 99.3672 131.695 99.1011 131.429 98.835C131.429 98.835 131.164 98.5689 131.164 98.835C130.366 99.1011 130.366 99.6333 130.366 100.166C130.366 101.762 130.366 103.359 130.632 104.955C130.632 105.488 131.695 105.754 131.695 105.221C132.227 103.359 132.493 101.496 133.024 99.3672L131.961 99.1011C131.164 110.543 130.366 121.986 130.898 133.694C131.164 139.548 131.429 145.136 131.961 150.991C132.227 153.918 132.227 157.111 132.493 160.038C132.759 162.965 132.759 165.892 133.29 168.553C133.29 169.085 134.088 168.819 134.088 168.553C134.353 165.626 134.088 162.433 133.822 159.506C133.556 156.579 133.556 153.918 133.29 150.991C133.024 145.136 132.493 139.282 132.227 133.428C131.695 121.986 132.227 110.543 133.024 99.1011C133.024 98.5689 131.961 98.3028 131.961 98.835C131.429 100.698 130.898 102.56 130.632 104.689L131.695 104.955C131.695 103.891 131.429 103.093 131.429 102.028C131.429 102.028 131.164 99.3672 131.164 99.6333C130.898 99.6333 130.898 99.6333 131.164 99.6333Z" fill="#1D1D1B"/>
<path d="M131.695 96.7064C132.493 97.5047 132.227 98.5691 132.227 99.6335C132.227 100.698 132.227 101.496 132.227 102.561C132.227 104.423 131.961 106.552 131.961 108.415C131.695 112.14 130.632 116.132 130.366 119.857C130.366 120.123 130.632 120.123 130.898 119.857C132.759 115.866 133.024 110.81 133.29 106.552C133.556 104.157 133.556 102.028 133.29 99.6335C133.29 98.5691 133.29 96.7064 131.961 96.4403C131.695 96.1742 131.429 96.4403 131.695 96.7064Z" fill="#1D1D1B"/>
<path d="M131.961 101.229C131.696 100.963 131.695 100.963 131.695 100.963C130.101 100.963 130.366 104.156 130.366 105.22C130.101 107.881 130.101 110.809 130.101 113.47C130.101 118.792 130.101 124.646 131.695 129.968C131.695 130.234 131.961 130.234 131.961 129.968C131.961 125.178 131.43 120.654 131.43 115.864C131.43 114.8 131.43 101.761 131.961 101.761C131.961 101.761 132.227 101.495 131.961 101.229Z" fill="#1D1D1B"/>
<path d="M131.164 99.8999C131.43 99.6338 131.43 99.3677 131.43 98.8355C131.695 98.3033 130.632 98.0372 130.632 98.5694C130.101 100.166 129.569 102.029 128.771 103.625C127.708 105.488 126.379 106.552 124.519 107.351C121.329 108.947 118.671 110.81 116.278 113.471C114.152 116.132 112.557 119.059 111.494 122.252C110.696 124.115 110.165 125.978 109.899 128.106C109.367 129.969 108.836 132.098 109.101 133.961C109.101 134.227 109.633 134.493 109.633 134.227C110.431 132.63 110.696 130.767 111.228 128.905C111.76 127.042 112.291 124.913 113.089 123.051C114.418 119.591 116.278 116.132 118.936 113.205C120.266 111.874 121.595 110.81 123.189 110.012C124.784 109.213 126.379 108.415 127.974 107.351C130.632 105.222 131.43 102.029 131.961 98.8355C131.695 98.8355 131.695 99.1016 131.43 99.1016C131.164 99.3677 131.164 99.6338 131.164 99.8999Z" fill="#1D1D1B"/>
<path d="M130.366 110.277C129.835 113.736 128.771 116.929 126.645 119.59C124.518 122.251 121.595 124.114 119.202 126.509C117.342 128.638 116.012 131.565 115.215 134.226C114.949 135.822 114.683 137.419 114.418 139.016C114.152 140.612 114.152 142.209 114.418 143.539C114.418 143.805 114.949 143.805 115.215 143.539C115.747 142.209 115.747 140.612 116.013 139.016C116.278 137.419 116.544 135.556 116.81 133.96C117.607 130.5 119.468 127.839 122.126 125.444C124.518 123.316 126.911 121.453 128.771 118.792C130.366 116.131 131.43 113.204 131.164 110.011C131.164 109.745 130.366 109.745 130.366 110.277Z" fill="#1D1D1B"/>
<path d="M131.164 126.774C130.366 129.702 130.1 132.629 128.505 135.29C126.911 137.685 124.784 139.547 122.923 141.942C120 146.2 118.139 152.054 120 157.11C120 157.376 120.531 157.376 120.531 157.11C120.531 154.449 120.531 151.522 121.329 148.861C122.126 145.934 123.455 143.273 125.582 141.144C127.442 139.015 129.303 137.418 130.366 134.757C131.429 132.363 131.961 129.702 131.695 127.041C131.695 126.508 131.164 126.242 131.164 126.774Z" fill="#1D1D1B"/>
<path d="M132.493 147.797C131.961 148.063 131.961 148.329 131.429 148.861C130.898 149.66 130.366 150.458 129.569 150.99C128.505 152.321 127.176 153.385 126.379 154.982C125.316 156.844 122.923 161.102 126.379 161.9C126.645 161.9 126.911 161.634 126.645 161.368C125.316 160.037 126.379 157.909 127.176 156.578C127.974 155.248 128.771 153.917 129.569 152.853C130.898 151.788 133.556 149.66 132.493 147.797C132.758 147.797 132.493 147.797 132.493 147.797Z" fill="#1D1D1B"/>
<path d="M131.695 100.166C132.758 102.827 134.885 104.69 137.011 106.552C139.669 108.681 142.593 110.544 145.252 112.939C147.91 115.068 150.036 117.729 151.897 120.656C153.757 123.849 154.555 127.042 154.821 130.768C154.821 131.034 155.352 131.3 155.352 130.768C156.681 124.381 152.694 117.995 148.175 113.737C145.783 111.342 143.125 109.213 140.201 107.085C137.277 104.956 134.353 102.827 132.493 99.9C132.227 99.1017 131.429 99.3678 131.695 100.166Z" fill="#1D1D1B"/>
<path d="M131.43 110.012C131.696 112.673 134.088 115.068 135.949 117.196C138.075 119.591 140.467 121.986 142.328 124.647C144.189 127.574 145.518 130.501 146.315 133.694C147.113 136.888 147.378 140.081 147.91 143.54C147.91 143.806 148.442 143.806 148.442 143.54C149.771 137.42 147.378 130.235 144.189 124.913C142.594 122.252 140.467 119.857 138.341 117.462C137.278 116.132 135.949 115.067 134.885 113.471C133.822 112.14 133.29 110.81 132.227 109.479C131.961 109.213 131.43 109.479 131.43 110.012Z" fill="#1D1D1B"/>
<path d="M130.898 127.308C131.164 128.905 132.759 130.501 134.088 131.832C135.417 133.428 137.012 135.025 138.341 136.621C139.67 138.218 140.999 140.081 141.796 142.21C142.594 144.338 142.328 146.467 142.594 148.596C142.594 149.128 143.125 149.128 143.391 148.862C145.518 145.403 142.859 140.081 140.733 137.154C139.404 135.291 137.809 133.694 136.214 132.098C135.417 131.299 134.619 130.501 133.822 129.437C133.024 128.638 132.493 127.574 131.43 127.042C131.164 126.776 130.898 127.042 130.898 127.308Z" fill="#1D1D1B"/>
<path d="M132.227 146.999C132.227 148.33 133.024 149.66 133.822 150.725C134.619 152.055 136.214 152.854 137.277 153.918C139.935 156.579 138.872 160.038 139.669 163.231C139.669 163.498 140.201 163.498 140.201 163.231C141.264 160.57 140.733 156.845 139.138 154.45C138.34 153.12 136.746 152.321 135.682 150.991C134.353 149.66 133.822 148.064 132.758 146.733C132.493 146.467 131.961 146.733 132.227 146.999Z" fill="#1D1D1B"/>
</svg>
