<svg width="18" height="18" viewBox="0 0 18 18" fill="none" xmlns="http://www.w3.org/2000/svg">
<path fill-rule="evenodd" clip-rule="evenodd" d="M9 0C4.02944 0 0 4.02944 0 9C0 13.9706 4.02944 18 9 18C13.9706 18 18 13.9706 18 9C18 4.02944 13.9706 0 9 0ZM4.32061 7.45419H6.3602V13.5823H4.32061V7.45419ZM6.49454 5.55851C6.4813 4.95765 6.05162 4.5 5.35389 4.5C4.65615 4.5 4.2 4.95765 4.2 5.55851C4.2 6.14693 4.64267 6.61776 5.32741 6.61776H5.34045C6.05162 6.61776 6.49454 6.14693 6.49454 5.55851ZM11.3674 7.3102C12.7096 7.3102 13.7158 8.18625 13.7158 10.0686L13.7157 13.5822H11.6762V10.3037C11.6762 9.48018 11.381 8.91824 10.6427 8.91824C10.0792 8.91824 9.74359 9.29707 9.59618 9.66296C9.54225 9.79409 9.52901 9.97679 9.52901 10.1599V13.5824H7.48917C7.48917 13.5824 7.51605 8.02929 7.48917 7.45426H9.52901V8.32226C9.79971 7.905 10.2845 7.3102 11.3674 7.3102Z" fill="black"/>
</svg>
