<svg width="30" height="30" viewBox="0 0 30 30" fill="none" xmlns="http://www.w3.org/2000/svg">
<path d="M27.13 25.822H2.87066C1.41468 25.822 0.230469 24.6374 0.230469 23.1818V6.81809C0.230469 5.36244 1.41468 4.17822 2.87066 4.17822H27.13C28.5859 4.17822 29.7702 5.36244 29.7702 6.81809V23.1814C29.7702 24.6374 28.5859 25.822 27.13 25.822ZM2.87066 4.83466C1.77671 4.83466 0.886906 5.72446 0.886906 6.81809V23.1814C0.886906 24.2754 1.77671 25.1652 2.87066 25.1652H27.13C28.2239 25.1652 29.1137 24.2754 29.1137 23.1814V6.81809C29.1137 5.72413 28.2239 4.83466 27.13 4.83466H2.87066Z" fill="black"/>
<path d="M15.0006 18.0835C14.9212 18.0835 14.8415 18.0546 14.7788 17.9972L1.06153 5.41264C0.927943 5.29021 0.918753 5.08245 1.04151 4.94886C1.16393 4.81528 1.37169 4.80576 1.50528 4.92884L15.0006 17.3096L28.4963 4.92884C28.6293 4.80609 28.8374 4.81495 28.9601 4.94886C29.0825 5.08245 29.0737 5.29021 28.9398 5.41264L15.2225 17.9972C15.1598 18.0546 15.0801 18.0835 15.0006 18.0835Z" fill="black"/>
<path d="M5.46504 21.3208C5.3761 21.3208 5.28781 21.2851 5.22315 21.2145C5.10039 21.0812 5.10958 20.8735 5.24317 20.7507L11.7754 14.7584C11.909 14.6354 12.1164 14.6449 12.2392 14.7785C12.3619 14.912 12.3527 15.1198 12.2191 15.2422L5.68692 21.2345C5.6239 21.2923 5.54414 21.3208 5.46504 21.3208Z" fill="black"/>
<path d="M24.5364 21.3208C24.4569 21.3208 24.3775 21.2922 24.3145 21.2345L17.7823 15.2418C17.6487 15.1194 17.6395 14.9117 17.7619 14.7781C17.8847 14.6438 18.0928 14.6353 18.2257 14.758L24.7579 20.7503C24.8915 20.8731 24.9007 21.0805 24.7783 21.2141C24.7136 21.2847 24.625 21.3208 24.5364 21.3208Z" fill="black"/>
</svg>
