<svg width="66" height="61" viewBox="0 0 66 61" fill="none" xmlns="http://www.w3.org/2000/svg">
<path fill-rule="evenodd" clip-rule="evenodd" d="M43.2414 51.963V56.4873C43.2414 58.9872 41.2061 61 38.6955 61H4.54586C2.02762 61 0 58.9696 0 56.4649V4.53508C0 2.02958 2.04657 0 4.57114 0H27.3103V13.5598C27.3103 16.0708 29.3542 18.0741 31.8755 18.0741H43.2414V22.5926H22.7742C18.9948 22.5926 15.931 25.6251 15.931 29.3676V45.1879C15.931 48.9297 18.9716 51.963 22.7742 51.963H43.2414ZM29.5862 0V13.5489C29.5862 14.8003 30.6126 15.8148 31.8411 15.8148H43.2414L29.5862 0ZM22.7462 24.8519C20.2392 24.8519 18.2069 26.8856 18.2069 29.3523V45.2032C18.2069 47.6888 20.2605 49.7037 22.7462 49.7037H61.4606C63.9677 49.7037 66 47.67 66 45.2032V29.3523C66 26.8668 63.9464 24.8519 61.4606 24.8519H22.7462ZM52.3448 36.1481V31.6296H61.4483V29.3704H50.069V45.1852H52.3448V38.4074H59.1724V36.1481H52.3448ZM22.7586 33.8889V45.1852H25.0345V38.4074H29.5751C32.0951 38.4074 34.1379 36.4018 34.1379 33.8889C34.1379 31.3934 32.1035 29.3704 29.5751 29.3704H22.7586V33.8889ZM25.0345 31.6296V36.1481H29.5886C30.8442 36.1481 31.8621 35.1453 31.8621 33.8889C31.8621 32.6411 30.8546 31.6296 29.5886 31.6296H25.0345ZM36.4138 29.3704V45.1852H43.2303C45.7503 45.1852 47.7931 43.1822 47.7931 40.6533V33.9023C47.7931 31.3994 45.7587 29.3704 43.2303 29.3704H36.4138ZM38.6897 31.6296V42.9259H43.2438C44.4994 42.9259 45.5172 41.9235 45.5172 40.6671V33.8885C45.5172 32.6409 44.5098 31.6296 43.2438 31.6296H38.6897Z" fill="black"/>
</svg>
