<svg width="50" height="67" viewBox="0 0 50 67" fill="none" xmlns="http://www.w3.org/2000/svg">
<g clip-path="url(#clip0_304_225)">
<path d="M48.2952 35.7906C48.5793 34.0727 48.2952 32.641 47.7271 31.2094C46.8748 29.7778 45.7384 28.9188 44.318 28.3462H44.0339V28.0598C43.4657 26.6282 42.6134 25.4829 41.193 24.6239C40.3407 24.0513 39.2043 23.765 38.068 23.765C37.4998 23.765 37.2157 23.765 36.6475 24.0513H36.3634C35.2271 22.906 33.8066 22.3333 32.1021 22.3333C30.6816 22.3333 29.2612 22.906 28.1248 24.0513H27.8407C27.5566 24.0513 26.9884 24.0513 26.4202 24.0513C25.568 24.0513 24.4316 24.3376 23.5793 24.9103C22.1589 25.7692 21.0225 27.2009 20.7384 28.6325C20.4543 30.3504 20.4543 31.7821 21.3066 33.5C23.2952 36.6496 26.9884 38.9402 29.8293 40.0855L30.3975 40.3718L29.8293 40.6581C26.9884 42.3761 21.8748 46.0983 19.0339 52.9701L18.4657 54.4017V20.3291H18.7498C19.8862 20.6154 21.3066 20.6154 23.2952 20.6154C26.7043 20.6154 29.5452 20.0427 31.818 18.8974C34.943 16.8932 36.0793 12.8846 34.3748 9.73504C33.5225 8.30342 32.1021 7.15812 30.6816 6.58547H30.3975V6.29915C29.8293 4.5812 28.693 3.4359 27.2725 2.57692C26.1362 2.00427 24.9998 1.71795 23.8634 1.71795C23.2952 1.71795 23.0112 1.71795 22.443 2.00427H22.1589C21.0225 0.57265 19.318 0 17.6134 0C15.9089 0 14.2043 0.57265 13.068 1.71795H12.7839C12.2157 1.71795 11.9316 1.71795 11.3634 1.71795C10.2271 1.71795 9.0907 2.00427 7.95434 2.57692C6.53388 3.4359 5.39752 4.86752 4.82934 6.29915V6.58547H4.54525C2.8407 7.15812 1.70434 8.30342 0.852065 9.73504C-0.000207857 11.1667 -0.284299 13.1709 0.283883 14.8889C0.852065 16.6068 1.98843 18.0385 3.40888 18.8974C5.68161 20.0427 8.52252 20.6154 11.9316 20.6154C13.9202 20.6154 15.3407 20.3291 16.4771 20.3291H16.7612V41.2308L16.193 40.0855C12.7839 32.641 6.53388 28.6325 6.24979 28.3462H5.9657H5.68161C5.11343 28.3462 5.11343 28.6325 5.11343 28.9188C5.11343 29.4915 6.81797 46.0983 16.7612 60.7009L17.0452 60.9872V66.141C17.0452 66.4274 17.3293 67 17.8975 67C18.1816 67 18.7498 66.7137 18.7498 66.141V63.8504C18.7498 48.1026 30.1134 42.0897 32.3862 41.2308H32.6702H32.9543C34.3748 42.3761 39.4884 46.0983 44.318 46.3846C47.7271 46.3846 50.568 43.5214 50.568 40.0855C49.9998 38.6538 49.4316 37.2222 48.2952 35.7906ZM16.7612 58.1239L16.193 57.265C9.94297 46.9573 7.67025 35.7906 6.81797 31.4957L6.53388 30.6368L7.38616 31.2094C10.7952 34.359 16.7612 40.6581 16.7612 49.5342V58.1239ZM29.5452 8.01709C31.2498 8.30342 32.3862 9.16239 33.2384 10.594C34.6589 13.1709 33.8066 16.3205 31.2498 17.7521C29.2612 18.8974 26.7043 19.1838 23.2952 19.1838C21.5907 19.1838 19.8862 18.8974 19.0339 18.8974H18.4657L18.7498 18.6111C19.6021 16.8932 21.0225 13.4573 23.5793 10.8803C24.4316 9.73504 24.9998 9.16239 25.8521 8.58974C26.7043 8.01709 27.5566 7.73077 28.4089 7.73077C28.693 7.73077 28.9771 7.73077 29.5452 8.01709ZM23.8634 3.14957C24.7157 3.14957 25.568 3.4359 26.4202 3.72222C27.2725 4.29487 28.1248 5.15385 28.4089 5.7265L28.693 6.29915H28.1248C26.9884 6.29915 26.1362 6.58547 24.9998 7.15812C24.9998 7.15812 24.9998 7.15812 24.7157 7.15812L24.1475 8.01709V7.15812V6.8718C24.1475 5.7265 23.8634 4.86752 23.2952 3.72222V3.14957H23.8634ZM6.81797 5.7265C7.38616 4.86752 7.95434 4.29487 8.80661 3.72222C9.37479 3.4359 10.5112 3.14957 11.3634 3.14957H11.9316L11.6475 3.72222C11.0793 4.5812 10.7952 5.7265 10.7952 6.8718V7.15812V8.01709L10.5112 7.44444H10.2271C10.2271 7.44444 10.2271 7.44444 9.94297 7.44444C9.0907 6.58547 8.23843 6.29915 7.10207 6.29915H6.53388L6.81797 5.7265ZM16.193 18.8974C15.0566 18.8974 13.6362 19.1838 11.9316 19.1838C8.80661 19.1838 6.24979 18.6111 4.26116 17.7521C2.8407 16.8932 1.98843 15.7479 1.70434 14.6026C1.42025 13.1709 1.42025 11.7393 2.27252 10.594C2.8407 9.16239 4.26116 8.30342 5.68161 8.01709C5.9657 8.01709 6.24979 8.01709 6.53388 8.01709C7.67025 7.73077 8.52252 8.01709 9.37479 8.58974C10.2271 9.16239 11.0793 9.73504 11.6475 10.594C13.6362 12.5983 15.0566 15.1752 15.9089 17.1795C15.9089 17.4658 16.193 17.4658 16.193 17.7521C16.193 18.0385 16.4771 18.0385 16.4771 18.3248L16.7612 18.8974H16.193ZM17.8975 16.6068L17.6134 17.1795L17.3293 16.6068C17.0452 16.3205 17.0452 16.3205 17.0452 15.7479C17.0452 15.4615 16.7612 15.1752 16.7612 14.8889C16.7612 14.6026 16.4771 14.3162 16.193 14.0299C15.9089 14.0299 15.6248 13.7436 15.6248 13.1709C15.3407 12.8846 15.0566 12.312 14.4884 11.7393L14.2043 11.453V11.1667C13.9202 10.8803 13.9202 10.8803 13.6362 10.594L13.3521 10.0214L13.068 9.73504C12.4998 8.58974 12.4998 7.73077 12.4998 6.8718C12.4998 4.00855 14.7725 1.71795 17.6134 1.71795C20.4543 1.71795 22.7271 4.00855 22.7271 6.8718C22.7271 7.73077 22.7271 8.58974 22.443 9.73504C20.1702 12.0256 18.7498 14.8889 17.8975 16.6068ZM43.4657 33.5C44.0339 32.641 44.318 31.7821 44.318 30.9231V30.3504L44.8862 30.6368C45.4543 30.9231 46.0225 31.4957 46.5907 32.3547C46.8748 32.9274 47.1589 33.7863 47.1589 34.6453V35.2179L46.5907 34.9316C45.7384 34.6453 44.8862 34.359 44.0339 34.359H43.4657V33.5ZM31.818 38.9402V39.5128L31.5339 39.2265C29.2612 38.3675 24.7157 36.0769 22.7271 32.9273C22.1589 31.7821 21.8748 30.6368 22.1589 29.4915C22.443 28.3462 23.2952 27.2009 24.4316 26.6282C24.9998 25.7692 25.8521 25.7692 26.7043 25.7692C26.9884 25.7692 27.5566 25.7692 28.1248 25.7692C29.2612 26.0556 30.1134 26.9145 30.6816 27.7735C30.9657 28.6325 31.5339 29.4915 31.5339 30.3504C32.3862 33.7863 32.1021 36.9359 31.818 38.9402ZM32.6702 27.4872L32.3862 28.0598L32.1021 27.4872V27.2009C31.5339 26.3419 30.9657 25.7692 30.1134 25.1966L29.5452 24.9103L30.1134 24.6239C30.6816 24.3376 31.5339 24.0513 32.3862 24.0513C33.2384 24.0513 33.8066 24.3376 34.6589 24.6239L35.2271 24.9103L34.6589 25.1966C33.8066 25.7692 33.2384 26.3419 32.6702 27.4872ZM33.5225 34.359V33.5C33.5225 32.9273 33.5225 32.0684 33.2384 31.4957V31.2094C33.2384 30.9231 33.2384 30.9231 33.2384 30.6368C33.5225 29.7778 33.8066 28.9188 34.0907 28.0598C34.943 26.6282 36.3634 25.7692 38.068 25.7692C38.9202 25.7692 39.7725 26.0556 40.3407 26.3419C42.6134 27.4872 43.4657 30.3504 42.0452 32.641C41.7612 33.2137 41.193 34.0727 40.3407 34.6453H40.0566C37.4998 35.5043 35.2271 36.9359 33.8066 38.0812L33.2384 38.3675V37.5085C33.2384 37.2222 33.2384 37.2222 33.2384 36.9359C33.2384 36.9359 33.2384 36.3633 33.2384 36.0769V35.7906C33.2384 35.5043 33.2384 35.5043 33.2384 35.2179C33.5225 35.5043 33.5225 34.6453 33.5225 34.359ZM43.7498 44.953C39.7725 44.953 35.7952 42.0897 33.8066 40.6581L33.5225 40.3718L34.3748 39.7991C34.3748 39.7991 34.6589 39.5128 34.943 39.5128C36.3634 38.3675 38.6362 36.9359 41.193 36.3632C42.0452 36.0769 43.1816 35.7906 43.7498 35.7906C44.8862 35.7906 46.0225 36.0769 46.8748 36.9359C47.7271 37.7949 48.2952 38.9402 48.2952 40.3718C48.5793 42.6624 46.3066 44.953 43.7498 44.953Z" fill="black"/>
</g>
<defs>
<clipPath id="clip0_304_225">
<rect width="50" height="67" fill="white"/>
</clipPath>
</defs>
</svg>
