<svg width="53" height="69" viewBox="0 0 53 69" fill="none" xmlns="http://www.w3.org/2000/svg">
<path d="M52.4177 43.6709L52.1265 42.5063C51.5441 41.3418 50.9617 40.1772 50.3792 39.3038C48.9232 37.557 46.8847 36.3924 44.8463 35.519C43.9726 35.2278 42.8078 35.2278 41.9342 35.2278C41.643 35.2278 41.0606 35.2278 40.7693 35.2278C39.6045 34.3544 38.4397 33.7721 36.9836 33.481C36.4012 33.481 35.8188 33.1899 35.2364 33.1899H34.9452V32.8987C34.654 32.0253 34.0715 31.1519 33.7803 30.2785L32.6155 29.1139C31.7419 27.9494 30.8682 26.7848 29.7034 26.2025C29.4122 25.9114 29.121 25.6202 28.5386 25.6202C36.11 18.0506 32.3243 3.78481 32.3243 3.20253C32.3243 2.91139 32.0331 2.91139 32.0331 2.62025H31.7419H31.4507C28.2474 3.78481 25.3353 6.11392 23.0056 9.60759L22.4232 10.1899V9.31645C21.8408 3.78481 18.6375 0.291138 18.6375 0.291138C18.6375 0.291138 18.6375 0.291138 18.3463 0.291138C18.3463 0.291138 18.3463 0.291138 18.0551 0.291138C18.0551 0.291138 18.0551 0.291138 17.7639 0.291138C17.7639 0.291138 14.5606 3.78481 13.9781 9.31645V10.1899L12.8133 9.60759C10.4836 6.11392 7.86275 3.78481 4.65946 2.62025H4.36825H4.07704C3.78583 2.62025 3.49462 2.91139 3.49462 3.20253C3.20341 3.78481 -0.291092 18.0506 7.28034 25.6202C6.69792 25.9114 6.1155 26.2025 5.53308 26.4937C4.95066 27.0759 4.07704 27.9494 3.49462 28.8228L2.621 30.2785C2.03858 31.1519 1.45616 32.3165 1.16495 33.481C0.873743 34.6456 0.582534 35.8101 0.291325 36.9747C-0.582301 44.5443 3.20341 51.8228 9.90121 55.3164C12.8133 56.7721 15.143 59.3924 16.599 62.8861C16.599 63.4683 17.1814 64.0506 18.0551 64.0506C18.9287 64.0506 19.2199 63.7595 19.5111 62.8861L19.8023 62.5949C20.6759 60.557 22.132 58.519 23.8792 57.0633L24.1704 56.7721L24.4617 57.0633C25.0441 57.9367 25.9177 58.8101 26.5001 59.3924C28.8298 61.4304 29.9946 64.3418 30.2858 67.2532C30.2858 67.8354 30.8682 68.4177 31.4507 68.4177H31.7419C32.3243 68.4177 32.6155 68.1266 32.9067 67.8354L33.1979 67.5443C34.9452 65.2152 37.566 63.4683 40.4781 62.8861C46.3023 61.7215 50.9617 57.3544 52.4177 51.5316C53.0001 49.2025 53.0001 46.2911 52.4177 43.6709ZM34.654 45.7089L34.9452 45.1266H35.2364C35.5276 45.1266 35.5276 45.1266 35.8188 45.1266C36.11 45.1266 36.4012 45.1266 36.4012 45.1266C36.6924 45.1266 36.9836 45.4177 37.2748 45.7089C37.2748 45.7089 37.566 46 37.8573 46H38.1485C38.4397 46 38.7309 46 38.7309 46C39.3133 46 39.6045 46.2911 39.8957 46.8734C40.1869 47.1646 40.1869 47.4557 40.1869 47.7468V48.038C40.4781 48.6202 40.4781 49.4937 40.1869 50.0759C39.8957 51.5316 38.4397 52.6962 36.9836 52.9873C36.4012 53.2785 35.5276 53.5696 34.9452 53.8608L34.654 54.1519L34.3628 53.8608C34.0715 53.2785 33.7803 52.6962 33.1979 52.1139C32.6155 51.5316 32.3243 50.9494 32.0331 50.0759V49.7848L32.6155 48.9114C32.9067 48.3291 33.1979 48.038 33.4891 47.7468V47.4557V47.1646C33.7803 46.8734 33.7803 46.5823 33.7803 46.2911C34.654 46 34.654 45.7089 34.654 45.7089ZM42.2254 47.1646V46.8734C41.9342 46.2911 41.9342 46 41.643 45.7089C41.0606 45.1266 40.4781 44.5443 39.6045 44.2532C39.3133 44.2532 39.0221 43.962 38.4397 43.962H38.1485C37.8573 43.6709 37.2748 43.6709 36.9836 43.3797C36.6924 43.3797 36.4012 43.3797 36.11 43.3797H35.8188V43.0886V42.7975C35.8188 42.5063 35.8188 42.5063 35.8188 42.2152C35.8188 41.6329 35.8188 41.0506 36.11 40.7595V40.4683H36.4012C37.2748 40.7595 37.8573 41.0506 38.4397 41.6329C38.4397 41.6329 38.7309 41.924 39.0221 41.924C39.3133 41.924 39.6045 41.924 39.8957 41.924C40.4781 41.924 41.0606 41.924 41.3518 42.2152C42.5166 42.5063 43.3902 43.0886 44.2638 44.2532C44.5551 44.8354 44.8463 45.4177 45.1375 46L45.4287 46.5823C45.7199 48.038 45.7199 49.7848 45.4287 51.2405C44.5551 54.443 41.9342 57.0633 38.7309 57.6456C36.9836 57.9367 35.2364 58.8101 34.0715 60.2658L33.7803 60.557V59.9747C33.4891 58.2278 32.3243 56.481 31.1595 55.3164C30.577 55.0253 30.2858 54.443 29.9946 53.8608L29.121 53.2785L29.4122 52.9873C29.9946 52.4051 30.577 51.8228 31.1595 51.2405L31.4507 50.9494L31.7419 51.2405C32.0331 51.8228 32.3243 52.4051 32.9067 52.6962C33.4891 53.2785 33.7803 54.1519 34.0715 55.0253C34.0715 55.3164 34.3628 55.8987 34.9452 55.8987H35.2364C35.5276 55.8987 35.8188 55.6076 36.11 55.6076C36.6924 55.0253 37.2748 54.443 38.1485 54.443C40.1869 53.8608 41.9342 52.4051 42.5166 50.3671C42.5166 49.2025 42.5166 48.3291 42.2254 47.1646ZM30.577 4.65823L30.8682 4.36709V4.94937C31.7419 9.31645 32.9067 19.5063 26.7913 24.7468C25.3353 24.1646 23.8792 23.8734 22.4232 23.8734C21.2584 23.8734 19.8023 24.1646 18.6375 24.4557C19.5111 20.6709 22.4232 9.02531 30.577 4.65823ZM17.7639 2.32911L18.0551 2.03797L18.3463 2.32911C19.5111 4.07595 21.5496 8.1519 20.9671 13.1013C19.8023 15.4304 18.9287 17.7595 18.3463 20.0886L18.0551 21.2532L17.4726 20.0886C16.8902 17.7595 16.0166 15.4304 15.143 13.3924C14.2693 8.1519 16.3078 4.36709 17.7639 2.32911ZM4.65946 4.94937V4.36709L4.95067 4.65823C13.3957 9.02531 16.0166 20.6709 16.599 24.4557C15.7254 24.1646 14.5606 23.8734 13.1045 23.8734C11.6485 23.8734 10.1924 24.1646 8.73638 24.7468C2.621 19.5063 3.78583 9.02531 4.65946 4.94937ZM18.3463 61.7215L18.0551 62.5949L17.7639 61.7215C16.3078 58.2278 13.6869 55.6076 10.7748 54.1519C7.57154 52.6962 5.24187 50.0759 3.78583 47.1646L3.49462 46.5823H11.6485C12.2309 46.5823 12.5221 46.2911 12.5221 45.7089C12.5221 45.1266 12.2309 44.8354 11.6485 44.8354H2.9122V44.5443C2.03858 42.2152 1.74737 39.5949 2.32979 37.2658C2.32979 36.3924 2.621 35.8101 2.9122 34.9367V34.6456H24.4617C24.7529 34.6456 25.3353 34.3544 25.3353 33.7721C25.3353 33.1899 25.0441 32.8987 24.4617 32.8987H2.9122L3.20341 32.3165C3.49462 31.7342 3.78583 31.443 3.78583 30.8608L4.65946 29.6962C5.24187 29.1139 5.82429 28.2405 6.69792 27.6582C8.44517 26.2025 10.7748 25.3291 13.1045 25.3291C14.5606 25.3291 16.0166 25.6202 17.4726 26.2025C17.4726 26.2025 17.4726 26.2025 17.7639 26.2025H18.0551C19.5111 25.6202 20.9671 25.3291 22.4232 25.3291C24.7529 25.3291 26.7913 25.9114 28.5386 27.3671C29.4122 27.9494 30.2858 28.8228 31.1595 29.9873L31.7419 31.1519C32.3243 32.0253 32.6155 33.1899 33.1979 34.0633C33.1979 34.3544 33.4891 34.9367 33.4891 35.2278V35.519C33.4891 35.8101 33.4891 36.1013 33.7803 36.3924C33.7803 36.6835 33.7803 36.6835 33.7803 36.9747C33.7803 37.2658 33.7803 37.557 33.7803 37.8481V38.1392C33.7803 38.4304 33.7803 39.0127 33.7803 39.3038C33.7803 39.5949 33.7803 39.8861 33.7803 40.4683V40.7595C33.7803 41.0506 33.7803 41.3418 33.7803 41.6329V41.924C33.7803 42.2152 33.7803 42.5063 33.7803 42.7975V43.0886C33.7803 43.3797 33.7803 43.6709 33.4891 43.962V44.2532C32.9067 46 32.3243 47.4557 31.1595 48.9114L30.8682 49.2025C29.9946 50.3671 28.8298 51.5316 27.6649 52.4051C27.0825 52.9873 26.2089 53.2785 25.3353 53.8608C25.0441 54.1519 24.7529 54.1519 24.4617 54.443C21.5496 56.1899 19.5111 58.8101 18.3463 61.7215ZM50.9617 51.5316C49.5056 56.7721 45.4287 60.557 40.1869 61.7215C36.9836 62.3038 34.3628 64.0506 32.3243 66.3797L31.7419 66.962V66.0886C31.1595 62.8861 29.7034 59.9747 27.3737 57.9367C26.7913 57.3544 25.9177 56.481 25.3353 55.8987L25.0441 55.6076L25.3353 55.3164C25.6265 55.6076 25.9177 55.3164 26.2089 55.3164C26.7913 55.0253 27.0825 54.7342 27.6649 54.443L27.9562 54.1519L28.2474 54.443C28.8298 55.0253 29.121 55.6076 29.7034 56.1899C31.1595 57.3544 32.0331 59.1013 32.0331 61.1392C32.0331 61.7215 32.3243 62.0126 32.9067 62.3038H33.1979C33.4891 62.3038 34.0715 62.0127 34.0715 61.7215V61.4304C35.2364 59.9747 36.6924 58.8101 38.7309 58.519C42.5166 57.6456 45.7199 54.7342 46.8847 50.9494C47.4671 49.2025 47.4671 47.1646 46.8847 45.4177L46.5935 44.8354C46.3023 43.962 46.0111 43.3797 45.4287 42.5063C44.5551 41.3418 43.099 40.4683 41.643 40.1772C41.0606 39.8861 40.4781 39.8861 39.6045 39.8861C39.3133 39.8861 39.0221 39.8861 39.0221 39.8861C38.4397 39.3038 37.566 39.0127 36.6924 38.7215C36.4012 38.7215 36.4012 38.7215 36.11 38.7215H35.8188V38.4304V38.1392C35.8188 37.8481 35.8188 37.557 35.8188 37.2658V36.9747C35.8188 36.6835 35.8188 36.3924 35.8188 36.1013C35.8188 36.1013 35.8188 35.519 35.5276 35.2278V34.6456H36.11H36.4012C37.566 34.9367 38.7309 35.519 39.8957 36.3924C39.8957 36.3924 40.1869 36.6835 40.4781 36.6835C41.0606 36.6835 41.3518 36.6835 41.9342 36.6835C42.8078 36.6835 43.6814 36.6835 44.2638 36.9747C46.0111 37.557 47.7584 38.7215 48.9232 40.1772C49.5056 41.0506 50.088 41.924 50.3792 43.0886L50.6704 44.2532C51.5441 46.5823 51.5441 49.2025 50.9617 51.5316Z" fill="black"/>
<path d="M26.4999 43.3798H20.9669C20.6757 43.3798 20.0933 43.6709 20.0933 44.2532C20.0933 44.8355 20.3845 45.1266 20.9669 45.1266H26.4999C26.7911 45.1266 27.3735 44.8355 27.3735 44.2532C27.3735 43.6709 26.7911 43.3798 26.4999 43.3798Z" fill="black"/>
<path d="M23.879 48.9114H18.0548C17.4724 48.9114 17.1812 49.2025 17.1812 49.7848C17.1812 50.0759 17.4724 50.6582 18.0548 50.6582H24.1702C24.4614 50.6582 25.0438 50.3671 25.0438 49.7848C24.7526 49.2025 24.4614 48.9114 23.879 48.9114Z" fill="black"/>
<path d="M29.9944 39.8861C29.9944 39.5949 29.7032 39.0126 29.1208 39.0126H11.357C10.7746 39.0126 10.4834 39.3038 10.4834 39.8861C10.4834 40.4683 10.7746 40.7595 11.357 40.7595H29.412C29.7032 40.7595 29.9944 40.1772 29.9944 39.8861Z" fill="black"/>
</svg>
