<svg width="46" height="66" viewBox="0 0 46 66" fill="none" xmlns="http://www.w3.org/2000/svg">
<path d="M22.8455 34.2336C22.5368 34.2336 22.228 33.9252 21.9193 33.6168C21.9193 33.6168 18.2146 24.0561 9.57032 18.5047C9.57032 18.5047 9.26159 18.1963 9.57032 17.8879C11.7314 6.78505 16.9797 0 22.8455 0C28.7113 0 33.9596 6.78505 36.4294 17.8879C36.4294 18.1963 36.4294 18.5047 36.1207 18.8131C27.4764 24.0561 23.7717 33.6168 23.7717 33.9252C23.7717 34.2336 23.4629 34.2336 22.8455 34.2336ZM11.4227 17.5794C17.9059 21.8972 21.6106 28.0654 22.8455 31.4579C24.3891 28.3738 28.0938 21.8972 34.577 17.8879C32.416 8.01869 27.7851 1.85047 22.8455 1.85047C17.9059 1.85047 13.5837 8.01869 11.4227 17.5794Z" fill="black"/>
<path d="M22.8454 34.2336C22.5367 34.2336 22.2279 33.9252 21.9192 33.6168C21.9192 33.6168 20.0669 29.2991 16.6709 24.6729C16.6709 24.6729 16.6709 24.6729 16.6709 24.3645C16.6709 20.3551 17.9058 0 22.8454 0C27.785 0 29.0199 20.3551 29.3286 24.3645C29.3286 24.6729 29.3286 24.6729 29.0199 24.9813C25.6239 29.2991 23.7716 33.6168 23.7716 33.9252C23.7716 34.2336 23.4628 34.2336 22.8454 34.2336ZM18.2145 24.0561C20.3756 26.8318 21.9192 29.6075 22.8454 31.4579C23.7716 29.6075 25.3152 27.1402 27.4763 24.0561C26.8588 8.63551 24.0803 1.85047 22.8454 1.85047C21.6105 1.85047 18.832 8.63551 18.2145 24.0561Z" fill="black"/>
<path d="M23.1544 60.1402C17.906 59.8318 13.5839 57.9813 10.8054 54.5888C7.10067 50.271 5.55705 43.7944 6.48322 35.1589C7.4094 26.215 0.308725 15.1122 0.308725 14.8037C0 14.8037 0 14.1869 0 14.1869C0.308725 13.8785 0.61745 13.8785 0.926175 13.8785C14.2013 15.4206 20.6846 26.8318 22.8456 31.1495C25.0067 26.5234 31.7987 15.4206 44.7651 13.5701C45.0738 13.5701 45.3826 13.5701 45.6913 13.8785C46 14.1869 46 14.4953 45.6913 14.8037C45.6913 14.8037 37.047 26.215 39.5168 34.8505C41.3691 41.3271 40.443 47.4953 37.047 52.1215C33.651 57.0561 28.4027 59.8318 23.1544 60.1402ZM2.4698 15.729C4.63087 19.4299 8.6443 27.757 8.02685 35.4673C7.10067 43.7944 8.6443 49.6542 11.7315 53.6636C14.2013 56.7477 17.906 58.2897 22.8456 58.5981C27.4765 58.2897 32.4161 55.8224 35.5034 51.5047C38.5906 47.1869 39.5168 41.6355 37.9732 35.4673C35.8121 28.0654 40.7517 19.4299 43.2215 15.729C29.6376 19.1215 23.7718 33.6168 23.7718 33.9252C23.7718 34.2337 23.4631 34.5421 22.8456 34.5421C22.5369 34.5421 22.2282 34.2337 21.9195 33.9252C22.2282 33.6168 16.3624 18.8131 2.4698 15.729Z" fill="black"/>
<path d="M22.8456 66C22.2282 66 21.9194 65.6916 21.9194 65.0748V33.6168C21.9194 33 22.2282 32.6916 22.8456 32.6916C23.4631 32.6916 23.7718 33 23.7718 33.6168V65.3832C23.7718 65.6916 23.4631 66 22.8456 66Z" fill="black"/>
<path d="M22.8454 8.32711C18.2145 8.32711 14.8186 7.09347 14.5098 7.09347C14.2011 6.78506 13.8924 6.47665 14.2011 5.85982C14.5098 5.55141 14.8186 5.243 15.436 5.243C15.436 5.243 23.4629 8.0187 30.5635 4.93459C30.8723 4.62618 31.4897 4.93459 31.7984 5.55141C32.1072 5.85982 31.7984 6.47665 31.181 6.78506C28.4025 8.0187 25.3152 8.32711 22.8454 8.32711Z" fill="black"/>
<path d="M22.8455 14.4953C16.9797 14.4953 12.3488 12.9533 12.0401 12.9533C11.7314 12.9533 11.4227 12.3364 11.7314 11.7196C11.7314 11.4112 12.3488 11.1028 12.6576 11.4112C12.6576 11.4112 23.4629 15.1121 33.0334 11.1028C33.3421 10.7944 33.9596 11.1028 34.2683 11.7196C34.577 12.028 34.2683 12.6449 33.6509 12.9533C30.2549 14.1869 26.2415 14.4953 22.8455 14.4953Z" fill="black"/>
<path d="M22.8455 20.3551C16.0535 20.3551 10.4965 18.5047 10.1878 18.5047C9.87904 18.1963 9.57031 17.8878 9.57031 17.271C9.87904 16.9626 10.1878 16.6542 10.8052 16.6542C10.8052 16.6542 23.4629 20.972 34.8858 16.3458C35.1945 16.0374 35.8119 16.3458 36.1206 16.9626C36.4294 17.271 36.1206 17.8878 35.5032 18.1963C31.181 19.7383 26.8589 20.3551 22.8455 20.3551Z" fill="black"/>
<path d="M23.1543 27.4486C21.9194 27.4486 20.6845 27.4486 19.7583 27.4486C18.8322 27.1402 18.5234 26.8318 18.5234 26.215C18.5234 25.5981 18.8322 25.2897 19.4496 25.2897C21.9194 25.5981 24.3892 25.5981 26.5503 25.2897C27.1677 25.2897 27.4765 25.5981 27.4765 26.215C27.4765 26.8318 27.1677 27.1402 26.5503 27.1402C25.6241 27.4486 24.3892 27.4486 23.1543 27.4486Z" fill="black"/>
<path d="M28.4026 53.0467C28.0939 53.0467 27.7852 52.7383 27.7852 52.4299C27.4765 52.1215 27.7852 51.5047 28.4026 51.1962C28.7114 51.1962 33.0335 49.3458 33.6509 40.4019C33.6509 39.785 33.9597 39.4766 34.5771 39.4766C35.1946 39.4766 35.5033 39.785 35.5033 40.4019C34.5771 50.8878 29.0201 53.0467 28.4026 53.0467C28.7114 53.0467 28.7114 53.0467 28.4026 53.0467Z" fill="black"/>
<path d="M10.1881 36.3925C9.57069 36.3925 9.26197 35.7757 9.26197 35.4673C10.8056 28.9906 7.40962 23.7477 7.40962 23.7477C7.10089 23.4392 7.40962 22.8224 7.71834 22.514C8.02707 22.2056 8.64452 22.514 8.95324 22.8224C8.95324 23.1308 12.6579 28.6822 10.8056 35.7757C11.1143 36.0841 10.8056 36.3925 10.1881 36.3925Z" fill="black"/>
<path d="M35.5036 66H10.8056C10.1881 66 9.87939 65.6916 9.87939 65.0748C9.87939 64.458 10.1881 64.1495 10.8056 64.1495H35.8123C36.4297 64.1495 36.7385 64.458 36.7385 65.0748C36.7385 65.6916 36.121 66 35.5036 66Z" fill="black"/>
</svg>
