<svg width="48" height="57" viewBox="0 0 48 57" fill="none" xmlns="http://www.w3.org/2000/svg">
<g clip-path="url(#clip0_304_528)">
<path d="M47.1818 55.6364H38.4545V50.7273C39 51 39.5455 51 40.0909 51C40.9091 51 41.4545 50.7273 42.2727 50.4545C46.0909 48.5455 48 42 48 41.7273C48 41.4545 48 41.1818 47.7273 40.9091C47.4545 40.6364 47.1818 40.6364 46.9091 40.6364C46.6364 40.6364 41.1818 41.4545 38.1818 44.1818V42C38.7273 42.2727 39.2727 42.2727 39.8182 42.2727C40.6364 42.2727 41.1818 42 42 41.7273C45.8182 39.8182 47.7273 33.2727 47.7273 33C47.7273 32.7273 47.7273 32.4545 47.4545 32.1818C47.1818 31.9091 46.9091 31.9091 46.6364 31.9091C46.3636 31.9091 40.9091 32.7273 38.1818 35.4545V33.2727C38.7273 33.5455 39.2727 33.5455 39.8182 33.5455C40.6364 33.5455 41.1818 33.2727 42 33C45.8182 31.0909 47.7273 24.5455 47.7273 24.2727C47.7273 24 47.7273 23.7273 47.4545 23.4545C47.1818 23.1818 46.9091 23.1818 46.6364 23.1818C46.3636 23.1818 40.9091 24 38.1818 26.7273V24.8182C38.7273 25.0909 39.2727 25.0909 39.8182 25.0909C40.6364 25.0909 41.1818 24.8182 42 24.5455C45.8182 22.6364 47.7273 16.0909 47.7273 15.8182C47.7273 15.5455 47.7273 15.2727 47.4545 15C47.1818 14.7273 46.9091 14.7273 46.6364 14.7273C46.3636 14.7273 40.9091 15.5455 38.1818 18.2727V14.7273C38.1818 14.1818 37.9091 13.9091 37.3636 13.9091C36.8182 13.9091 36.5455 14.1818 36.5455 14.7273V18.5455C33.8182 15.5455 28.0909 15 27.8182 15C27.5455 15 27.2727 15 27 15.2727C27.2727 15.5455 27.2727 15.8182 27.2727 15.8182C27.2727 16.0909 29.1818 22.6364 33 24.5455C33.5455 24.8182 34.3636 25.0909 35.1818 25.0909C35.7273 25.0909 36.2727 25.0909 36.8182 24.8182V27.2727C34.0909 24.5455 28.3636 23.7273 28.0909 23.7273C27.8182 23.7273 27.5455 23.7273 27.2727 24C27.2727 24 27.2727 24.2727 27.2727 24.5455C27.2727 24.8182 29.1818 31.3636 33 33.2727C33.5455 33.5455 34.3636 33.8182 35.1818 33.8182C35.7273 33.8182 36.2727 33.8182 36.8182 33.5455V35.7273C34.0909 33 28.3636 32.1818 28.0909 32.1818C27.8182 32.1818 27.5455 32.1818 27.2727 32.4545C27 32.7273 27 33 27 33.2727C27 33.5455 28.9091 40.0909 32.7273 42C33.2727 42.2727 34.0909 42.5455 34.9091 42.5455C35.4545 42.5455 36 42.5455 36.5455 42.2727V44.4545C33.8182 41.7273 28.0909 40.9091 27.8182 40.9091C27.5455 40.9091 27.2727 40.9091 27 41.1818C26.7273 41.4545 26.7273 41.7273 26.7273 42C26.7273 42.2727 28.6364 48.8182 32.4545 50.7273C33 51 33.8182 51.2727 34.6364 51.2727C35.1818 51.2727 35.7273 51.2727 36.2727 51V55.9091H14.1818V48.5455C15 48.8182 15.8182 49.0909 16.6364 49.0909C17.4545 49.0909 18.5455 48.8182 19.3636 48.5455C24.5455 46.0909 26.7273 37.3636 26.7273 37.0909C26.7273 36.8182 26.7273 36.5455 26.4545 36.2727C26.1818 36 25.9091 36 25.6364 36C25.3636 36 17.4545 37.0909 13.9091 41.1818V37.0909C14.7273 37.3636 15.5455 37.6364 16.3636 37.6364C17.1818 37.6364 18.2727 37.3636 19.0909 37.0909C24.5455 34.3636 26.7273 25.6364 27 25.3636C27 25.0909 27 24.8182 26.7273 24.5455C26.4545 24.2727 26.1818 24.2727 25.9091 24.2727C25.6364 24.2727 17.7273 25.3636 14.1818 29.4545V25.3636C15 25.6364 15.8182 25.9091 16.6364 25.9091C17.4545 25.9091 18.5455 25.6364 19.3636 25.3636C24.5455 22.9091 26.7273 14.1818 27 13.9091C27 13.6364 27 13.3636 26.7273 13.0909C26.4545 13.0909 26.1818 12.8182 25.9091 12.8182C25.6364 12.8182 17.7273 13.9091 14.1818 18V13.9091C15 14.1818 15.8182 14.4545 16.6364 14.4545C17.4545 14.4545 18.5455 14.1818 19.3636 13.9091C24.5455 11.4545 26.7273 2.72727 27 2.45455C27 2.18182 27 1.90909 26.7273 1.63636C26.4545 1.63636 26.1818 1.36364 25.9091 1.36364C25.6364 1.36364 17.7273 2.45455 14.1818 6.27273V0.818182C14.1818 0.272727 13.9091 0 13.3636 0C13.0909 0 12.8182 0.272727 12.8182 0.818182V6.54545C9.27273 2.45455 1.36364 1.63636 0.818182 1.36364C0.545455 1.36364 0.272727 1.36364 0 1.63636C0 1.90909 0 2.18182 0 2.45455C0 2.72727 2.45455 11.4545 7.36364 13.9091C8.18182 14.1818 9 14.4545 10.0909 14.4545C10.9091 14.4545 11.7273 14.1818 12.5455 13.9091V18C9.27273 13.9091 1.36364 12.8182 0.818182 12.8182C0.545455 12.8182 0.272727 12.8182 0 13.0909C0 13.3636 0 13.6364 0 13.9091C0 14.1818 2.45455 22.9091 7.36364 25.3636C8.18182 25.6364 9 25.9091 10.0909 25.9091C10.9091 25.9091 11.7273 25.6364 12.5455 25.3636V29.4545C9.27273 25.3636 1.36364 24.2727 0.818182 24.2727C0.545455 24.2727 0.272727 24.2727 0 24.5455C0 24.8182 0 25.0909 0 25.3636C0 25.6364 2.45455 34.3636 7.36364 36.8182C8.18182 37.0909 9 37.3636 10.0909 37.3636C10.9091 37.3636 11.7273 37.0909 12.5455 36.8182V40.9091C9 36.8182 1.09091 35.7273 0.818182 35.7273C0.545455 35.7273 0.272727 35.7273 0 36C0 36.2727 0 36.5455 0 36.8182C0 37.0909 2.45455 45.8182 7.36364 48.2727C8.18182 48.5455 9 48.8182 10.0909 48.8182C10.9091 48.8182 11.7273 48.5455 12.5455 48.2727V55.6364H0.818182C0.272727 55.6364 0 55.9091 0 56.4545C0 57 0.272727 57.2727 0.818182 57.2727H47.1818C47.7273 57.2727 48 57 48 56.4545C48 55.9091 47.7273 55.6364 47.1818 55.6364ZM39 46.0909C40.3636 43.9091 44.1818 42.8182 46.0909 42.5455C45.5455 44.4545 43.9091 48 41.7273 49.0909C40.9091 49.6364 39.8182 49.6364 38.7273 49.0909C38.4545 47.7273 38.4545 46.9091 39 46.0909ZM39 37.3636C40.3636 35.1818 44.1818 34.0909 46.0909 33.8182C45.5455 35.7273 43.9091 39.2727 41.7273 40.3636C40.9091 40.9091 39.8182 40.9091 38.7273 40.3636C38.4545 39.2727 38.4545 38.1818 39 37.3636ZM36.8182 31.9091C35.7273 32.4545 34.9091 32.4545 33.8182 31.9091C31.3636 30.8182 30 27.2727 29.4545 25.3636C31.3636 25.6364 35.1818 26.7273 36.5455 28.9091C36.8182 29.7273 37.0909 30.8182 36.8182 31.9091ZM36.8182 40.3636C35.7273 40.9091 34.9091 40.9091 33.8182 40.3636C31.3636 39.2727 30 35.7273 29.4545 33.8182C31.3636 34.0909 35.1818 35.1818 36.5455 37.3636C36.8182 38.1818 37.0909 39.2727 36.8182 40.3636ZM36.8182 48.8182C35.7273 49.3636 34.9091 49.3636 33.8182 48.8182C31.3636 47.7273 30 44.1818 29.4545 42.2727C31.6364 42.8182 35.1818 43.9091 36.5455 45.8182C36.8182 46.9091 37.0909 47.7273 36.8182 48.8182ZM39 28.9091C40.3636 26.7273 44.1818 25.6364 46.0909 25.3636C45.2727 27.5455 43.9091 30.8182 41.7273 31.9091C40.9091 32.4545 39.8182 32.4545 38.7273 31.9091C38.7273 31.6364 38.7273 31.3636 38.7273 31.0909V30.8182C38.4545 30 38.7273 29.4545 39 28.9091ZM39 20.1818C40.3636 18 44.1818 16.9091 46.0909 16.6364C45.5455 18.5455 43.9091 22.0909 41.7273 23.1818C40.9091 23.7273 39.8182 23.7273 38.7273 23.1818C38.7273 22.9091 38.7273 22.6364 38.7273 22.3636V21.8182C38.4545 21.2727 38.7273 20.7273 39 20.1818ZM36.8182 23.1818C35.7273 23.7273 34.9091 23.7273 33.8182 23.1818C31.3636 22.0909 30 18.5455 29.4545 16.6364C31.3636 16.9091 35.1818 18 36.5455 20.1818C36.8182 21.2727 37.0909 22.0909 36.8182 23.1818ZM15 42.5455C16.9091 39.2727 22.3636 38.1818 24.8182 37.6364C24 40.0909 22.0909 45.2727 18.5455 46.9091C17.1818 47.4545 15.8182 47.4545 14.1818 46.9091C14.1818 45 14.1818 43.6364 15 42.5455ZM15 31.0909C16.9091 27.8182 22.3636 26.7273 24.8182 26.1818C24 28.6364 22.0909 33.8182 18.5455 35.4545C17.1818 36 15.8182 36 14.1818 35.4545C14.1818 33.5455 14.1818 32.1818 15 31.0909ZM12.5455 23.7273C10.9091 24.5455 9.54545 24.5455 8.18182 24C4.63636 22.3636 2.72727 16.9091 1.90909 14.7273C4.36364 15 9.81818 16.3636 12 19.6364C12.8182 20.7273 12.8182 22.3636 12.5455 23.7273ZM12.5455 35.1818C10.9091 35.7273 9.54545 35.7273 8.18182 35.1818C4.90909 33.5455 2.72727 28.3636 1.90909 25.9091C4.36364 26.4545 9.81818 27.8182 11.7273 30.8182C12.8182 32.1818 12.8182 33.5455 12.5455 35.1818ZM12.5455 46.6364C10.9091 47.1818 9.54545 47.1818 8.18182 46.6364C4.90909 45 2.72727 39.8182 1.90909 37.3636C4.36364 37.9091 9.81818 39.2727 11.7273 42.2727C12.8182 43.6364 12.8182 45 12.5455 46.6364ZM15 19.6364C17.1818 16.3636 22.6364 15 25.0909 14.7273C24.2727 17.1818 22.3636 22.3636 18.8182 24C17.4545 24.5455 16.0909 24.5455 14.4545 23.7273C14.4545 23.4545 14.1818 22.9091 14.1818 22.6364V22.3636C14.1818 21.2727 14.4545 20.4545 15 19.6364ZM15 8.18182C16.9091 4.90909 22.3636 3.81818 24.8182 3.27273C24.2727 5.72727 22.0909 10.9091 18.8182 12.5455C17.4545 13.0909 16.0909 13.0909 14.4545 12.5455C14.4545 12.2727 14.1818 11.7273 14.1818 11.4545V10.0909C14.4545 9.54545 14.7273 8.72727 15 8.18182ZM12.2727 12.2727C10.9091 13.0909 9.54545 13.0909 8.18182 12.5455C4.63636 10.9091 2.72727 5.72727 1.90909 3.27273C4.36364 3.81818 9.81818 4.90909 12 8.18182C12.5455 9.54545 12.8182 10.9091 12.2727 12.2727Z" fill="black"/>
</g>
<defs>
<clipPath id="clip0_304_528">
<rect width="48" height="57" fill="white"/>
</clipPath>
</defs>
</svg>
