<?xml version="1.0" encoding="utf-8"?>
<!-- Generator: Adobe Illustrator 23.0.1, SVG Export Plug-In . SVG Version: 6.00 Build 0)  -->
<svg version="1.1" id="Слой_1" xmlns="http://www.w3.org/2000/svg" xmlns:xlink="http://www.w3.org/1999/xlink" x="0px" y="0px"
	 viewBox="0 0 602 352" style="enable-background:new 0 0 602 352;" xml:space="preserve">
<style type="text/css">
	.st0{fill:none;stroke:#000000;stroke-width:2;stroke-miterlimit:10;}
	.st1{font-family:'ArialMT';}
	.st2{font-size:12px;}
	.st3{fill:none;stroke:#D32A2A;stroke-width:4;stroke-miterlimit:10;}
</style>
<ellipse id="motion" class="st0" cx="301" cy="175.3" rx="291.7" ry="164.5"/>
<text transform="matrix(1 0 0 1 0 -6.728313e-06)" class="st1 st2">W</text>
<text transform="matrix(1 0 0 1 11.3262 -6.728313e-06)" class="st1 st2">O</text>
<text transform="matrix(1 0 0 1 20.6602 -6.728313e-06)" class="st1 st2">N</text>
<text transform="matrix(1 0 0 1 29.3262 -6.728313e-06)" class="st1 st2">D</text>
<text transform="matrix(1 0 0 1 37.9922 -6.728313e-06)" class="st1 st2">E</text>
<text transform="matrix(1 0 0 1 45.9961 -6.728313e-06)" class="st1 st2">R</text>
<text transform="matrix(1 0 0 1 54.6621 -6.728313e-06)" class="st1 st2"> </text>
<text transform="matrix(1 0 0 1 57.9961 -6.728313e-06)" class="st1 st2">W</text>
<text transform="matrix(1 0 0 1 69.3223 -6.728313e-06)" class="st1 st2">O</text>
<text transform="matrix(1 0 0 1 78.6563 -6.728313e-06)" class="st1 st2">N</text>
<text transform="matrix(1 0 0 1 87.3223 -6.728313e-06)" class="st1 st2">D</text>
<text transform="matrix(1 0 0 1 95.9883 -6.728313e-06)" class="st1 st2">E</text>
<text transform="matrix(1 0 0 1 103.9922 -6.728313e-06)" class="st1 st2">R</text>
<text transform="matrix(1 0 0 1 0 -6.728313e-06)" class="st1 st2">  </text>
<path class="st3" d="M9.8,179.6c-0.4-3.5-0.5-7.1-0.2-10.6C12.4,140.3,39.9,23.9,301,10.8c0,0,260.2-2.5,290,153.8
	c1.6,8.2,1.6,16.7-0.1,25C583,228.1,539.4,332.1,301,339.8C301,339.8,30,340.6,9.8,179.6z"/>
</svg>
