<?xml version="1.0" encoding="utf-8"?>
<!-- Generator: Adobe Illustrator 23.0.1, SVG Export Plug-In . SVG Version: 6.00 Build 0)  -->
<svg version="1.1" id="Слой_1" xmlns="http://www.w3.org/2000/svg" xmlns:xlink="http://www.w3.org/1999/xlink" x="0px" y="0px"
	 viewBox="0 0 602 352" style="enable-background:new 0 0 602 352;" xml:space="preserve">
<style type="text/css">
	.st0{fill:none;stroke:#000000;stroke-width:2;stroke-miterlimit:10;}
</style>
<path  d="M1,146.6l1.3-3.6l17.9,4.6v-0.3l-16-9.4l1.6-4.2l18.2,3.6v-0.3l-16.6-8.5l1.3-3.6l19.5,10.7l-1.6,5.2l-16.9-3.6v0.3l15,8.8
	l-2,5.2L1,146.6z"/>
<path d="M36.5,124.2c-1,1.3-2,2.3-2.9,3.3c-1,0.7-2.3,1.3-3.6,1.3c-1.3,0.3-2.6,0-4.2-0.3c-1.3-0.3-2.9-1-4.2-2
	c-1.6-1-2.6-1.9-3.6-3.3c-1-1.3-1.6-2.3-2-3.6c-0.3-1.3-0.3-2.6-0.3-3.9c0.3-1.3,0.7-2.6,1.6-3.9c1-1.3,2-2.3,2.9-3.3
	c1-0.7,2.3-1.3,3.6-1.3c1.3-0.3,2.6,0,4.2,0.3c1.3,0.3,2.9,1,4.2,1.9c1.6,1,2.6,2,3.6,3.3c1,1.3,1.6,2.3,2,3.6
	c0.3,1.3,0.3,2.6,0.3,3.9C37.8,121.6,37.1,122.9,36.5,124.2z M33.2,122.2c1-1.3,1.3-2.6,1-4.2c-0.3-1.3-1.3-2.6-2.9-3.6l-2.9-2
	c-1.6-1-3.3-1.6-4.6-1.3c-1.3,0.3-2.6,1-3.6,2.6c-1,1.3-1.3,2.6-1,4.2c0.3,1.3,1.3,2.6,2.9,3.6l2.9,2c1.6,1,3.3,1.6,4.6,1.3
	C31.3,124.2,32.6,123.5,33.2,122.2z"/>
<path d="M42.3,114.4L26,99.8l2.9-3.3l2.9,2.6c-0.3-0.7-0.7-1-0.7-1.6c0-0.6-0.3-1.3-0.3-2c0-0.7,0.3-1.3,0.3-2
	c0.3-0.7,0.7-1.3,1.3-2c1.3-1.6,3.3-2.3,5.2-2.3s3.9,1,5.9,2.6l10.4,9.4l-2.9,3.3L41,95.6c-2.6-2.3-4.9-2.3-6.8-0.3
	c-0.3,0.3-0.7,1-1,1.3c-0.3,0.7-0.3,1-0.3,1.6s0,1,0.3,1.6c0.3,0.7,0.7,1,1,1.3l11.1,10.1L42.3,114.4z"/>
<path d="M66.1,86.1c0.3,1.6,0.3,2.9,0,4.2c-0.3,1.3-1,2.3-2.3,3.3c-2,1.6-3.9,2.3-6.5,1.6C55,94.6,52.4,93,50.1,90
	c-2.6-2.9-3.6-5.5-3.9-8.1c0-2.3,0.7-4.6,2.6-6.2c1.3-1,2.3-1.6,3.6-1.6c1.3,0,2.6,0,3.9,0.7h0.3l-8.5-10.1l3.6-2.9L72,85.8
	l-3.6,2.9L66.1,86.1z M62.5,89.4c0.7-0.3,1-1,1.3-1.3c0.3-0.7,0.7-1,0.7-1.6c0-0.7,0-1,0-1.6c0-0.7-0.3-1-1-1.6l-4.6-5.5
	c-0.3-0.7-1-1-1.3-1c-0.7-0.3-1-0.3-1.6-0.3c-0.7,0-1,0-1.6,0.3c-0.7,0.3-1,0.6-1.6,1c-1.3,1-2,2.3-2,3.9c0,1.3,0.7,2.9,1.6,4.2
	l2.3,2.6c1.3,1.3,2.3,2.3,3.9,2.3C59.9,91,61.2,90.7,62.5,89.4z"/>
<path d="M84,78c-1.3,1-2.6,1.6-4.2,1.6c-1.3,0.3-2.6,0.3-3.9,0c-1.3-0.3-2.6-1-3.6-2c-1.3-1-2.3-2-3.3-3.6c-1-1.3-1.6-2.9-2-4.2
	c-0.3-1.3-0.7-2.9-0.3-4.2c0-1.3,0.7-2.6,1.3-3.6c0.7-1,1.6-2.3,2.9-2.9c1.3-1,2.6-1.3,3.9-1.6c1.3-0.3,2.6-0.3,3.9,0
	c1.3,0.3,2.3,1,3.6,1.6c1,1,2.3,2,2.9,3.3l1,1.3l-12.7,8.5l0.3,0.7c1,1.3,2.3,2.3,3.6,2.6c1.6,0.3,2.9,0,4.6-1
	c1.3-0.7,2-1.6,2.3-2.6c0.3-1,0.7-2.3,0.7-3.3l3.9,0.7c0,1.3-0.3,2.9-1,4.6C87.3,75.4,86,77,84,78z M72.9,62.1
	c-0.7,0.3-1.3,1-1.6,1.6c-0.3,0.7-0.7,1.3-0.7,2c0,0.7,0,1.3,0,2.3c0.3,0.7,0.3,1.6,1,2.3l0.3,0.3l8.8-5.9l-0.3-0.3
	c-1-1.3-2.3-2.3-3.6-2.6C75.5,61.4,74.2,61.4,72.9,62.1z"/>
<path d="M93.4,67.3l4.9-2.6L91.5,52l-4.9,2.6l-2-3.3l8.8-4.9l2.6,5.2h0.3C96,51,96,50.1,96,49.4c0-0.7,0-1.6,0.3-2.3
	c0.3-0.7,0.7-1.3,1.3-2c0.7-0.7,1.3-1.3,2.3-1.6l2.3-1.3l2,3.9l-3.6,2c-1.3,0.7-2.3,2-2.9,3.3c-0.3,1.3-0.3,2.9,0.7,4.2l3.9,7.2
	l6.8-3.6l2,3.3l-15.6,8.5L93.4,67.3z"/>
<path d="M113.3,36.4l3.6-1.3l8.8,16.3h0.3l-3.9-18.2l3.9-1.6l9.8,15.9h0.3l-4.9-17.9l3.3-1.3l5.5,21.5l-5.2,2l-9.1-14.6h-0.3
	l3.9,16.9l-5.2,2L113.3,36.4z"/>
<path d="M154.7,44.9c-1.6,0.6-2.9,0.6-4.2,0.6c-1.3,0-2.6-0.6-3.6-1.3c-1-0.7-2.3-1.6-2.9-2.9c-1-1.3-1.6-2.6-2.3-4.2
	c-0.7-1.6-1-3.3-1-4.9c0-1.6,0.3-2.9,0.7-3.9c0.7-1.3,1.3-2.3,2.3-3.3c1-1,2.3-1.6,3.9-2c1.6-0.6,2.9-0.6,4.2-0.6
	c1.3,0,2.6,0.6,3.6,1.3c1,0.6,2.3,1.6,2.9,2.9c1,1.3,1.6,2.6,2.3,4.2c0.7,1.6,1,3.3,1,4.9c0,1.6-0.3,2.9-0.7,3.9
	c-0.7,1.3-1.3,2.3-2.3,3.3C157.3,43.6,156,44.2,154.7,44.9z M153.3,41.3c1.6-0.6,2.6-1.3,3.3-2.6c0.7-1.3,0.7-2.9,0-4.9l-1-3.3
	c-0.7-2-1.6-3.3-2.9-3.9c-1.3-0.6-2.6-0.6-4.2-0.3c-1.6,0.7-2.6,1.3-3.3,2.6c-0.7,1.3-0.7,2.9,0,4.9l1,3.3c0.7,2,1.6,3.3,2.9,3.9
	C150.4,41.6,151.7,41.9,153.3,41.3z"/>
<path d="M166.7,40.3l-5.9-21.1l4.2-1.3l1,3.6h0.3c0-0.6,0.3-1.3,0.3-2c0.3-0.6,0.3-1.3,1-1.6c0.3-0.6,1-1,1.3-1.3
	c0.7-0.3,1.3-0.6,2.3-1c2-0.7,3.9-0.3,5.5,0.7c1.6,1,2.9,2.9,3.6,5.5l3.6,13.7l-4.2,1.3l-3.6-13c-1-3.3-2.9-4.6-5.5-3.9
	c-0.7,0-1,0.3-1.6,0.7c-0.7,0.3-1,0.7-1.3,1c-0.3,0.3-0.7,1-0.7,1.3c0,0.7,0,1,0,1.6l3.9,14.3L166.7,40.3z"/>
<path d="M201.9,28c-0.7,1.6-1.3,2.6-2,3.6c-1,1-2,1.6-3.6,2c-2.6,0.6-4.6,0-6.5-1.6c-2-1.6-3.3-4.2-3.9-7.8s-0.7-6.5,0.3-8.8
	c1-2.3,2.9-3.6,5.2-4.2c1.6-0.3,2.9-0.3,3.9,0.3c1.3,0.7,2.3,1.3,3.3,2.6h0.3l-2.6-13l4.6-1l6.5,30.6l-4.6,1L201.9,28z M197.3,29.3
	c0.7,0,1.3-0.3,1.6-0.6c0.7-0.3,1-0.7,1.3-1c0.3-0.3,0.7-1,0.7-1.3c0-0.7,0-1.3,0-2l-1.6-7.2c0-0.7-0.3-1.3-0.7-1.6
	c-0.3-0.3-0.7-0.7-1.3-1s-1-0.3-1.6-0.3c-0.7,0-1.3,0-2,0c-1.6,0.3-2.9,1.3-3.6,2.3c-0.7,1.3-1,2.6-0.3,4.6l0.7,3.6
	c0.3,1.6,1,2.9,2.3,3.9C194,29.3,195.7,29.6,197.3,29.3z"/>
<path d="M221.7,28.6c-1.6,0.3-2.9,0.3-4.6,0c-1.3-0.3-2.6-1-3.6-1.6c-1-0.7-2-2-2.6-3.3s-1.3-2.9-1.3-4.6c-0.3-1.6-0.3-3.3,0-4.9
	c0.3-1.6,0.7-2.9,1.3-3.9c0.7-1,1.6-2,2.6-2.9c1-0.7,2.6-1.3,3.9-1.3c1.6-0.3,2.9-0.3,4.2,0c1.3,0.3,2.3,1,3.3,1.6
	c1,0.7,2,2,2.6,2.9c0.7,1.3,1,2.6,1.3,4.2l0.3,1.6l-15,2.3v0.7c0.3,1.6,1,2.9,2.3,3.9c1.3,1,2.6,1.3,4.6,1c1.3-0.3,2.6-0.7,3.3-1.3
	c1-0.7,1.6-1.6,2-2.9l3.3,2c-0.7,1.3-1.3,2.6-2.6,3.6C225.6,27.6,224,28.3,221.7,28.6z M218.5,9.4c-0.7,0-1.6,0.3-2,0.7
	c-0.7,0.3-1,1-1.6,1.6c-0.3,0.7-0.7,1.3-1,2c0,0.7-0.3,1.6,0,2.3v0.3l10.4-1.6v-0.3c-0.3-1.6-1-2.9-2-3.9
	C221.4,9.4,220.1,9.1,218.5,9.4z"/>
<path d="M235.1,22.4l5.5-0.7L239,7.5l-5.5,0.7l-0.3-3.9l10.1-1l0.7,5.9h0.3c0-0.7,0.3-1.6,0.7-2.3c0.3-0.7,0.7-1.3,1.3-2
	c0.7-0.7,1-1,2-1.6c0.7-0.3,1.6-0.7,2.6-0.7l2.6-0.3l0.3,4.2l-4.2,0.3c-1.6,0.3-2.9,1-3.9,2c-1,1-1.3,2.6-1,4.2l1,8.1l7.8-1l0.3,3.9
	l-17.9,2L235.1,22.4z"/>
<path d="M347.4,2.3l3.9,0.3v18.5h0.3l5.2-17.9l4.6,0.7l1.3,18.5h0.3l4.2-18.2l3.9,0.3L365.6,26l-5.5-0.7l-1-17.2h-0.3l-4.9,16.6
	l-5.5-0.7L347.4,2.3z"/>
<path d="M380.9,28.9c-1.6-0.3-2.9-0.7-4.2-1.6c-1.3-0.7-2.3-1.6-2.9-2.9c-0.7-1-1.3-2.3-1.3-3.9c-0.3-1.6-0.3-2.9,0-4.9
	c0.3-1.6,0.7-3.3,1.6-4.6c0.7-1.3,1.6-2.3,2.6-3.3c1-1,2.3-1.3,3.6-1.6c1.3-0.3,2.9-0.3,4.6,0c1.6,0.3,2.9,0.7,4.2,1.6
	c1.3,0.7,2.3,1.6,2.9,2.9c0.7,1,1.3,2.3,1.3,3.9c0.3,1.6,0.3,2.9,0,4.9c-0.3,1.6-0.7,3.3-1.6,4.6c-0.7,1.3-1.6,2.3-2.6,3.3
	c-1,1-2.3,1.3-3.6,1.6C383.9,29.3,382.6,29.3,380.9,28.9z M381.3,25.4c1.6,0.3,3.3,0,4.2-1c1.3-1,2-2.3,2.3-4.2l0.7-3.3
	c0.3-2,0-3.6-0.7-4.9c-1-1.3-2-2-3.9-2.3c-1.6-0.3-3.3,0-4.2,1c-1.3,1-2,2.3-2.3,4.2l-0.7,3.3c-0.3,2,0,3.6,0.7,4.9
	C378.3,24.4,379.6,25,381.3,25.4z"/>
<path d="M393.3,30.6l4.6-21.5l4.6,1l-0.7,3.6h0.3c0.3-0.7,0.7-1,1.3-1.3c0.3-0.3,1-0.7,1.6-1c0.7-0.3,1.3-0.3,2-0.7
	c0.7,0,1.6,0,2.3,0.3c2.3,0.3,3.9,1.6,4.9,3.3c1,1.6,1.3,3.9,0.7,6.5l-2.9,13.7l-4.6-1l2.9-13c0.7-3.3-0.3-5.5-3.3-6.2
	c-0.7,0-1.3-0.3-1.6,0c-0.7,0-1,0-1.6,0.3c-0.7,0.3-1,0.6-1.3,1c-0.3,0.3-0.7,1-0.7,1.6l-3.3,14.6L393.3,30.6z"/>
<path d="M431.4,36.1c-1.3,1-2.3,2-3.6,2.3c-1.3,0.3-2.6,0.3-4.2,0c-2.6-0.6-4.2-2.3-5.2-4.6c-1-2.3-1-5.2,0-8.8
	c1-3.6,2.6-6.2,4.6-7.8c2-1.3,4.2-2,6.8-1.3c1.6,0.3,2.6,1.3,3.6,2.3c1,1,1.3,2.3,1.6,3.6h0.3l3.6-12.7l4.6,1.3L435,40.6l-4.6-1.3
	L431.4,36.1z M426.5,35.1c0.7,0.3,1.3,0.3,2,0.3s1.3,0,1.6-0.3c0.7-0.3,1-0.7,1.3-1c0.3-0.3,0.7-1,1-1.6l2-7.2c0.3-0.6,0.3-1.3,0-2
	c-0.3-0.7-0.3-1-0.7-1.6c-0.3-0.3-0.7-1-1.3-1.3c-0.7-0.3-1-0.6-1.6-0.6c-1.6-0.3-3.3-0.3-4.2,0.3c-1,0.6-2,2-2.6,3.9l-1,3.6
	c-0.3,1.6-0.3,3.3,0.3,4.6C423.6,33.8,424.9,34.8,426.5,35.1z"/>
<path d="M449.3,46.2c-1.6-0.6-2.9-1.3-3.9-2.3c-1-1-2-2-2.3-3.3c-0.7-1.3-0.7-2.6-0.7-4.2c0-1.6,0.3-2.9,1-4.6
	c0.7-1.6,1.3-2.9,2.3-4.2c1-1.3,2-2,3.3-2.6c1.3-0.7,2.6-1,3.9-1c1.3,0,2.9,0,4.2,0.7c1.3,0.7,2.6,1.3,3.6,2c1,1,1.6,2,2.3,3.3
	c0.7,1.3,0.7,2.6,0.7,3.9c0,1.3-0.3,2.9-0.7,4.6l-0.7,1.6l-15-5.2l-0.3,0.7c-0.7,1.6-0.7,3.3,0.3,4.6c0.7,1.3,2,2.3,3.6,2.9
	c1.3,0.3,2.6,0.6,3.6,0.3c1.3-0.3,2.3-0.7,3.3-1.6l2,3.3c-1,1-2.6,1.6-4.2,2C453.2,47.1,451.3,46.8,449.3,46.2z M455.2,27.6
	c-0.7-0.3-1.6-0.3-2.3-0.3c-0.7,0-1.3,0.3-2,0.6c-0.7,0.3-1.3,0.7-1.6,1.3c-0.7,0.7-1,1.3-1.3,2v0.3l10.4,3.6v-0.3
	c0.7-1.6,0.7-3.3,0-4.6C457.8,28.9,456.8,28,455.2,27.6z"/>
<path d="M464.3,46.8l5.2,2.3l5.5-13.3l-5.2-2.3l1.6-3.6l9.8,3.9l-2.3,5.2h0.3c0.3-0.7,1-1.3,1.6-1.6c0.7-0.7,1.3-1,2-1.3
	c0.7-0.3,1.6-0.3,2.3-0.3c1,0,2,0.3,2.9,0.6l2.3,1l-1.6,4.2l-3.9-1.6c-1.6-0.7-2.9-0.7-4.6-0.3s-2.3,1.6-2.9,3.3l-3.3,7.5l7.2,2.9
	l-1.6,3.6l-16.9-7.2L464.3,46.8z"/>
<path d="M501.7,43.6l3.6,2l-7.2,17.2l0.3,0.3l12-14.3l3.9,2.3l-6.2,17.6l0.3,0.3l11.1-15l3.3,2l-13.3,17.6l-4.9-2.9l5.9-16.3
	l-0.3-0.3l-11.1,13.3l-4.9-2.9L501.7,43.6z"/>
<path d="M521.3,81.6c-1.3-1-2.3-2-3.3-3.3c-0.7-1.3-1.3-2.3-1.3-3.9c-0.3-1.3,0-2.6,0.3-4.2c0.3-1.3,1-2.9,2.3-4.2
	c1-1.3,2-2.6,3.3-3.6c1.3-1,2.6-1.6,3.9-1.6c1.3-0.3,2.6-0.3,3.9,0c1.3,0.3,2.6,1,3.9,2c1.3,1,2.3,2,3.3,3.3c1,1.3,1.3,2.3,1.3,3.9
	c0,1.3,0,2.6-0.3,4.2c-0.3,1.3-1,2.9-2.3,4.2c-1,1.3-2,2.6-3.3,3.6c-1.3,1-2.6,1.6-3.9,1.6c-1.3,0-2.6,0.3-3.9,0
	C523.9,83.2,522.6,82.6,521.3,81.6z M523.5,78.7c1.3,1,2.9,1.3,4.2,1c1.3-0.3,2.6-1.3,3.9-2.9l2-2.6c1.3-1.6,1.6-3.3,1.3-4.6
	c-0.3-1.3-1-2.6-2.3-3.6c-1.3-1-2.9-1.3-4.2-1c-1.3,0.3-2.6,1.3-3.9,2.9l-2,2.6c-1.3,1.6-1.6,3.3-1.3,4.6
	C521.3,76.4,521.9,77.7,523.5,78.7z"/>
<path d="M532,88.7l14.7-16.6l3.6,2.9l-2.6,2.9c0.7-0.3,1-0.6,1.6-0.6s1.3-0.3,2-0.3s1.3,0.3,2,0.7s1.3,0.7,2,1.3
	c1.6,1.3,2.6,3.3,2.6,5.2c0,2-0.7,3.9-2.6,5.9l-9.4,10.7l-3.6-2.9l8.8-10.1c2.3-2.6,2.3-4.9,0-6.8c-0.3-0.3-1-0.7-1.3-1
	c-0.7-0.3-1-0.3-1.6-0.3c-0.7,0-1,0-1.6,0.3c-0.7,0.3-1,0.7-1.3,1L535.3,92L532,88.7z"/>
<path d="M561.6,112.8c-1.6,0.3-2.9,0.3-4.2-0.3c-1.3-0.3-2.3-1-3.6-2.3c-1.6-1.9-2.3-4.2-1.6-6.5c0.3-2.3,2.3-4.9,5.2-7.2
	c2.9-2.6,5.5-3.6,8.1-3.9c2.6,0,4.6,1,6.2,2.9c1,1.3,1.6,2.6,1.6,3.9c0,1.3,0,2.6-0.7,3.9l0.3,0.3l10.1-8.5l2.9,3.6L562,119
	l-2.9-3.6L561.6,112.8z M558,109.2c0.3,0.7,1,1,1.3,1.3c0.7,0.3,1,0.7,1.6,0.7s1,0,1.6,0c0.7,0,1-0.3,1.6-1l5.5-4.5
	c0.7-0.3,1-1,1-1.3c0.3-0.7,0.3-1,0.3-1.6s-0.3-1-0.3-1.6c-0.3-0.7-0.7-1-1-1.6c-1-1.3-2.3-2-3.9-2c-1.3,0-2.9,0.7-4.2,1.6l-2.6,2.3
	c-1.3,1.3-2.3,2.3-2.3,3.9C556.4,106.6,556.7,107.9,558,109.2z"/>
<path d="M568.8,131.3c-1-1.3-1.3-2.9-1.6-4.2c-0.3-1.3,0-2.9,0.3-3.9c0.3-1.3,1-2.6,2-3.6s2.3-1.9,3.9-2.9c1.6-1,2.9-1.3,4.6-1.6
	c1.6-0.3,2.9-0.3,4.2,0c1.3,0.3,2.6,1,3.6,1.6c1,1,2,2,2.9,3.3c0.7,1.3,1.3,2.6,1.3,3.9c0,1.3,0,2.6-0.3,3.9c-0.3,1.3-1,2.3-2,3.6
	c-1,1-2,1.9-3.6,2.9l-1.6,1l-7.8-13.7l-0.7,0.3c-1.6,1-2.6,1.9-2.9,3.6c-0.3,1.6,0,2.9,0.7,4.6c0.7,1.3,1.6,2.3,2.6,2.6
	c1,0.3,2.3,1,3.3,1l-0.7,3.9c-1.6,0-2.9-0.3-4.6-1.3C571.1,134.6,569.8,133.3,568.8,131.3z M585.4,121.6c-0.3-0.6-1-1.3-1.6-1.6
	c-0.7-0.3-1.3-0.6-2-1c-0.7-0.3-1.3-0.3-2.3,0c-0.7,0-1.6,0.3-2.3,0.7h-0.3l5.5,9.4l0.3-0.3c1.6-1,2.6-2,2.9-3.3
	C586.4,124.2,586.4,122.9,585.4,121.6z"/>
<path d="M578.9,141.4l1.6,5.5l13.7-3.9l-1.6-5.5l3.6-1l2.9,10.1l-5.5,1.6v0.3c0.7,0,1.6,0,2.3,0.3c0.7,0,1.6,0.3,2.3,1
	c0.7,0.3,1.3,1,2,1.6c0.7,0.6,1,1.6,1.3,2.6l0.7,2.6l-4.2,1.3l-1.3-4.2c-0.3-1.6-1.3-2.9-2.6-3.6s-2.6-1-4.2-0.3l-7.8,2.3l2.3,7.5
	l-3.6,1l-5.2-17.6L578.9,141.4z"/>
<path d="M601.7,197.9l-1.3,3.9l-18.2-3.6v0.3l16.6,8.8l-1.3,4.2l-18.6-2.6v0.3l16.9,7.8l-1.3,3.6l-19.9-9.8l1.6-5.2l16.9,2.3v-0.3
	l-15.3-8.1l1.6-5.5L601.7,197.9z"/>
<path d="M567.2,223.3c1-1.3,2-2.6,2.9-3.3c1-1,2.3-1.3,3.6-1.6c1.3-0.3,2.6-0.3,4.2,0c1.3,0.3,2.9,1,4.6,1.9c1.6,1,2.6,1.9,3.6,2.9
	s1.6,2.3,2,3.6c0.3,1.3,0.7,2.6,0.3,3.9s-0.7,2.9-1.6,4.2s-2,2.6-2.9,3.3c-1,1-2.3,1.3-3.6,1.6c-1.3,0.3-2.6,0.3-4.2,0
	c-1.3-0.3-2.9-1-4.6-2c-1.6-1-2.6-2-3.6-2.9c-1-1-1.6-2.3-2-3.6c-0.3-1.3-0.7-2.6-0.3-3.9C565.9,225.9,566.2,224.6,567.2,223.3z
	 M570.4,225.2c-1,1.3-1,2.9-0.7,4.2c0.3,1.3,1.3,2.6,3.3,3.6l2.9,1.6c1.6,1,3.3,1.3,4.9,1c1.3-0.3,2.6-1.3,3.3-2.6
	c1-1.3,1-2.9,0.7-4.2c-0.3-1.3-1.3-2.6-3.3-3.6l-2.9-1.6c-1.6-1-3.3-1.3-4.9-1C572.4,222.6,571.1,223.6,570.4,225.2z"/>
<path d="M561.3,233.7l16.6,14.3l-2.9,3.6l-2.9-2.3c0.3,0.7,0.7,1,0.7,1.6c0.3,0.7,0.3,1.3,0.3,2c0,0.6-0.3,1.3-0.3,1.9
	c-0.3,0.6-0.7,1.3-1.3,1.9c-1.3,1.6-3.3,2.6-5.2,2.6c-2,0-3.9-0.6-5.9-2.3l-10.7-9.1l2.9-3.6l10.1,8.8c2.6,2.3,4.9,2.3,6.8,0
	c0.3-0.3,0.7-1,1-1.6c0.3-0.7,0.3-1,0.3-1.6c0-0.7,0-1-0.3-1.6c-0.3-0.7-0.7-1-1-1.3l-11.4-9.8L561.3,233.7z"/>
<path d="M537.5,263.3c-0.3-1.6-0.3-2.9,0-4.2c0.3-1.3,1-2.6,2.3-3.6c2-1.6,4.2-2.3,6.5-1.9s4.9,1.9,7.5,4.9c2.6,2.9,3.9,5.5,3.9,7.8
	c0,2.6-0.7,4.6-2.6,6.2c-1.3,1-2.6,1.6-3.9,2c-1.3,0-2.6,0-3.9-0.6L547,274l8.8,10.1l-3.6,2.9l-20.8-23.7l3.6-2.9L537.5,263.3z
	 M541.1,259.7c-0.7,0.3-1,1-1.3,1.3c-0.3,0.7-0.7,1-0.7,1.6c0,0.7,0,1,0,1.6c0,0.7,0.3,1,1,1.6l4.9,5.5c0.3,0.7,1,1,1.3,1
	c0.7,0.3,1,0.3,1.6,0.3s1-0.3,1.6-0.3c0.7-0.3,1-0.6,1.6-1c1.3-1.3,2-2.6,2-3.9c0-1.3-0.7-2.9-1.6-4.2l-2.3-2.6
	c-1.3-1.3-2.6-2-3.9-2.3C543.7,257.7,542.4,258.4,541.1,259.7z"/>
<path d="M519.3,271.4c1.3-1,2.9-1.6,4.2-2c1.3-0.3,2.6-0.3,3.9,0c1.3,0.3,2.6,1,3.9,1.6c1.3,0.7,2.3,2,3.3,3.6c1,1.3,1.6,2.9,2,4.2
	c0.3,1.3,0.7,2.9,0.3,4.2c-0.3,1.3-0.7,2.6-1.3,3.9c-0.7,1.3-1.6,2.3-2.9,2.9c-1.3,1-2.6,1.3-3.9,1.6c-1.3,0.3-2.6,0.3-3.9,0
	c-1.3-0.3-2.6-1-3.6-1.6c-1-1-2.3-2-2.9-3.3l-1-1.3l13-8.8l-0.3-0.6c-1-1.3-2.3-2.3-3.6-2.6c-1.6-0.3-2.9,0-4.6,1.3
	c-1.3,0.6-2,1.6-2.6,2.9c-0.7,1-0.7,2.3-0.7,3.3l-4.2-0.3c0-1.6,0.3-2.9,1-4.5S517.3,272.7,519.3,271.4z M530.4,287.3
	c0.7-0.3,1.3-1,1.6-1.6c0.3-0.6,0.7-1.3,0.7-2c0-0.7,0-1.3,0-2.3c-0.3-0.6-0.7-1.6-1-2.3l-0.3-0.3l-9.1,6.2l0.3,0.3
	c1,1.3,2.3,2.3,3.6,2.6C527.8,288.6,529.1,288.3,530.4,287.3z"/>
<path d="M509.5,283.1l-5.2,2.9l6.8,12.7l5.2-2.9l2,3.3l-9.1,4.9l-2.9-5.2H506c0.3,0.6,0.3,1.6,0.3,2.3s0,1.6-0.3,2.3
	c-0.3,0.6-0.7,1.3-1.3,2.3c-0.7,0.6-1.3,1.3-2.3,2l-2.3,1.3l-2.3-3.9l3.9-2c1.6-1,2.6-1.9,2.9-3.3c0.3-1.3,0.3-2.9-0.7-4.2l-3.9-7.1
	l-6.8,3.9l-2-3.3l16.3-8.8L509.5,283.1z"/>
<path d="M489,314l-3.6,1.6l-9.1-16.3H476l3.9,18.2l-4.2,1.6l-10.1-15.9h-0.3l4.9,17.9l-3.6,1.3L461,301l5.2-2.3l9.1,14.6h0.3
	l-3.6-16.9l5.2-2.3L489,314z"/>
<path d="M446.7,306.5c1.6-0.6,2.9-0.6,4.2-0.6s2.6,0.3,3.9,1.3c1.3,0.6,2.3,1.6,3.3,2.9c1,1.3,1.6,2.6,2.3,4.2s1,3.3,1,4.9
	s-0.3,2.9-0.7,4.2c-0.7,1.3-1.3,2.3-2.3,3.3c-1,1-2.3,1.6-3.9,2.3c-1.6,0.6-2.9,0.6-4.2,0.6s-2.6-0.3-3.9-1.3
	c-1.3-1-2.3-1.6-3.3-2.9c-1-1.3-1.6-2.6-2.3-4.2c-0.7-1.6-1-3.3-1-4.9s0.3-2.9,0.7-4.2c0.7-1.3,1.3-2.3,2.3-3.3
	C443.8,307.5,445.1,306.8,446.7,306.5z M448,309.8c-1.6,0.7-2.6,1.3-3.3,2.6c-0.7,1.3-0.7,2.9,0,4.9l1,3.3c0.7,2,1.6,3.3,2.9,3.9
	c1.3,0.7,2.6,0.7,4.2,0.3c1.6-0.6,2.6-1.3,3.3-2.6c0.7-1.3,0.7-2.9,0-4.9l-1-3.3c-0.7-1.9-1.6-3.3-2.9-3.9
	C450.9,309.4,449.6,309.4,448,309.8z"/>
<path d="M434.3,311.1l5.9,21.1l-4.6,1.3l-1-3.6h-0.3c0,0.6-0.3,1.3-0.3,1.9c-0.3,0.6-0.7,1.3-1,1.6c-0.3,0.6-1,1-1.6,1.3
	c-0.7,0.3-1.3,0.6-2.3,1c-2.3,0.6-3.9,0.3-5.9-0.6c-1.6-1-2.9-2.9-3.6-5.5l-3.6-13.7l4.6-1.3l3.6,13c1,3.3,2.9,4.6,5.9,3.9
	c0.7,0,1-0.3,1.6-0.7c0.7-0.3,1-0.6,1.3-1c0.3-0.3,0.7-1,0.7-1.3c0-0.6,0-1,0-1.6l-3.9-14.3L434.3,311.1z"/>
<path d="M397.9,323.7c0.7-1.6,1.3-2.6,2.3-3.6c1-1,2.3-1.6,3.6-2c2.6-0.6,4.9,0,6.5,1.6c2,1.6,3.3,4.2,3.9,7.8
	c0.7,3.6,0.7,6.5-0.3,8.8c-1,2.3-2.9,3.6-5.5,4.2c-1.6,0.3-2.9,0.3-4.2-0.3c-1.3-0.6-2.3-1.3-3.3-2.6h-0.3l2.6,13l-4.6,1l-6.5-30.9
	l4.6-1L397.9,323.7z M402.7,322.1c-0.7,0-1.3,0.3-2,0.7c-0.7,0.3-1,0.6-1.3,1c-0.3,0.3-0.7,1-0.7,1.3c0,0.7-0.3,1.3,0,2l1.6,7.1
	c0,0.7,0.3,1.3,0.7,1.6c0.3,0.3,0.7,0.7,1.3,1c0.7,0.3,1,0.3,1.6,0.3c0.7,0,1.3,0,2,0c1.6-0.3,2.9-1.3,3.6-2.3
	c0.7-1.3,1-2.6,0.7-4.6l-0.7-3.6c-0.3-1.6-1-2.9-2.3-3.9C405.7,322.1,404.4,321.8,402.7,322.1z"/>
<path d="M377.3,322.8c1.6-0.3,3.3-0.3,4.6,0c1.3,0.3,2.6,1,3.6,1.6c1,1,2,2,2.6,3.3c0.7,1.3,1.3,2.9,1.3,4.5c0.3,1.6,0.3,3.3,0,4.9
	c-0.3,1.6-0.7,2.9-1.6,3.9c-0.7,1-1.6,2-2.9,2.9c-1.3,0.6-2.6,1.3-4.2,1.3c-1.6,0.3-2.9,0.3-4.2,0c-1.3-0.3-2.6-1-3.6-1.6
	c-1-1-2-1.9-2.6-2.9c-0.7-1.3-1-2.6-1.3-4.2l-0.3-1.6l15.6-2.3v-0.6c-0.3-1.6-1-2.9-2.3-3.9c-1.3-1-2.9-1.3-4.6-1
	c-1.3,0.3-2.6,0.6-3.6,1.3c-1,0.6-1.6,1.6-2,2.9l-3.3-2c0.7-1.3,1.6-2.6,2.9-3.6C373.4,324.1,375.1,323.4,377.3,322.8z M380.6,341.9
	c0.7,0,1.6-0.3,2.3-0.6s1.3-1,1.6-1.6c0.3-0.6,0.7-1.3,1-2c0.3-0.7,0.3-1.6,0-2.3v-0.3l-10.7,1.6v0.3c0.3,1.6,1,2.9,2,3.9
	C377.7,341.9,379,342.3,380.6,341.9z"/>
<path d="M363.7,329.3l-5.9,0.7l1.6,14.3l5.9-0.7l0.3,3.9l-10.4,1l-0.7-5.8h-0.3c0,0.6-0.3,1.6-0.7,2.3c-0.3,0.6-0.7,1.3-1.3,1.9
	c-0.7,0.7-1.3,1-2,1.6c-0.7,0.3-1.6,0.7-2.9,0.7l-2.6,0.3l-0.3-4.5l4.2-0.3c1.6-0.3,2.9-1,3.9-1.9c1-1,1.3-2.6,1.3-4.2l-1-8.1
	l-7.8,1l-0.3-3.9l18.2-2L363.7,329.3z"/>
<path d="M254.6,349.1l-3.9-0.3v-18.5h-0.3l-5.2,17.9l-4.6-0.7l-1.3-18.5H239l-4.2,18.2l-3.6-0.3l5.5-21.5l5.5,0.6l1,17.2h0.3
	l4.9-16.6l5.5,0.3L254.6,349.1z"/>
<path d="M221.4,322.4c1.6,0.3,2.9,0.6,4.2,1.6c1.3,0.6,2.3,1.6,2.9,2.9c0.7,1,1.3,2.3,1.3,3.9c0.3,1.6,0.3,2.9,0,4.9
	c-0.3,1.6-0.7,3.3-1.6,4.6c-0.7,1.3-1.6,2.3-2.6,3.3c-1,1-2.3,1.3-3.6,1.6c-1.3,0.3-2.9,0.3-4.2,0c-1.6-0.3-2.9-0.6-4.2-1.6
	c-1.3-0.6-2.3-1.6-2.9-2.9c-0.7-1-1.3-2.3-1.3-3.9c-0.3-1.6-0.3-2.9,0-4.9c0.3-1.6,0.7-3.3,1.6-4.6c0.7-1.3,1.6-2.3,2.6-3.3
	c1-1,2.3-1.3,3.6-1.6C218.5,322.1,219.8,322.1,221.4,322.4z M220.7,326c-1.6-0.3-2.9,0-4.2,1c-1.3,1-2,2.3-2.3,4.2l-0.7,3.3
	c-0.3,1.9,0,3.6,0.7,4.9c1,1.3,2,2,3.6,2.3c1.6,0.3,2.9,0,4.2-1c1.3-1,2-2.3,2.3-4.2l0.7-3.3c0.3-1.9,0-3.6-0.7-4.9
	C223.7,327,222.4,326.3,220.7,326z"/>
<path d="M209,320.8l-4.6,21.5l-4.6-1l0.7-3.6h-0.3c-0.3,0.6-0.7,1-1.3,1.3c-0.3,0.3-1,0.6-1.6,1c-0.7,0.3-1.3,0.3-2,0.6
	c-0.7,0-1.6,0-2.3,0c-2.3-0.3-3.6-1.6-4.9-3.3c-1-1.6-1.3-3.9-0.7-6.5l2.9-13.7l4.6,1l-2.9,13c-0.7,3.3,0.3,5.5,3.3,6.2
	c0.7,0,1.3,0.3,1.6,0c0.7,0,1,0,1.6-0.3c0.7-0.3,1-0.6,1.3-1c0.3-0.3,0.7-1,0.7-1.6l2.9-14.6L209,320.8z"/>
<path d="M171.3,315.6c1.3-1,2.3-1.9,3.6-2.3c1.3-0.3,2.6-0.3,4.2,0c2.6,0.7,4.2,2.3,5.2,4.2c1,2.3,1,5.2,0,8.8
	c-1,3.6-2.6,6.2-4.6,7.8c-2,1.3-4.2,2-6.5,1.3c-1.6-0.3-2.6-1-3.6-2.3c-1-1-1.3-2.3-1.6-3.6h-0.3l-3.6,12.7l-4.6-1.3l8.1-30.2
	l4.6,1.3L171.3,315.6z M176.1,316.6c-0.7-0.3-1.3-0.3-2-0.3s-1.3,0-1.6,0.3c-0.7,0.3-1,0.6-1.3,1s-0.7,1-1,1.6l-2,7.2
	c-0.3,0.6-0.3,1.3,0,2c0,0.6,0.3,1,0.7,1.6c0.3,0.3,0.7,1,1.3,1.3c0.7,0.3,1,0.6,1.6,0.6c1.6,0.3,3.3,0.3,4.2-0.6
	c1.3-0.6,2-2,2.6-3.9l1-3.6c0.3-1.6,0.3-3.3-0.3-4.5C179.1,317.9,177.8,316.9,176.1,316.6z"/>
<path d="M153.7,305.9c1.6,0.7,2.9,1.3,3.9,2.3c1,1,2,1.9,2.3,3.3c0.7,1.3,0.7,2.6,0.7,3.9c0,1.6-0.3,2.9-1,4.6s-1.3,2.9-2.3,4.2
	c-1,1.3-2,2-3.3,2.9c-1.3,0.7-2.3,1-3.9,1.3c-1.3,0-2.9,0-4.2-0.6c-1.3-0.3-2.6-1.3-3.6-2c-1-1-1.6-2-2.3-3.3s-0.7-2.6-0.7-3.9
	c0-1.3,0.3-2.9,0.7-4.6l0.7-1.6l14.7,4.9l0.3-0.7c0.7-1.6,0.7-3.3-0.3-4.5c-0.7-1.3-2-2.3-3.6-2.9c-1.3-0.3-2.6-0.7-3.6-0.3
	c-1,0.3-2.3,0.6-2.9,1.6l-2-3.3c1-1,2.6-1.6,4.2-2C149.4,304.9,151.4,304.9,153.7,305.9z M147.8,324.4c0.7,0.3,1.6,0.3,2.3,0.3
	s1.3-0.3,2-0.6s1.3-0.6,1.6-1.3c0.7-0.7,1-1.3,1.3-2v-0.3l-10.4-3.6v0.3c-0.7,1.6-0.7,3.3,0,4.2
	C145.2,322.8,146.2,323.7,147.8,324.4z"/>
<path d="M138.7,305.2l-5.2-2.3l-5.5,13.3l5.2,2.3l-1.3,3.6l-9.4-3.9l2.3-5.5h-0.3c-0.3,0.6-1,1.3-1.6,1.6c-0.7,0.6-1.3,1-2,1.3
	c-0.7,0.3-1.6,0.3-2.3,0.3c-1,0-2-0.3-2.9-0.6l-2.3-1l1.6-4.2l3.9,1.6c1.6,0.7,2.9,0.7,4.2,0.3c1.3-0.6,2.3-1.6,2.9-3.3l3.3-7.5
	l-7.2-2.9l1.3-3.6l16.9,6.8L138.7,305.2z"/>
<path d="M101.6,308.8l-3.6-1.9l7.2-17.2l-0.3-0.3l-11.7,14.6l-3.9-2.3l6.2-17.6l-0.3-0.3l-10.7,15l-3.3-2l13.3-17.9l4.9,2.6
	l-5.5,16.3l0.3,0.3l10.7-13.3l4.9,2.6L101.6,308.8z"/>
<path d="M82,271.1c1.3,1,2.3,1.9,3.3,3.3c0.7,1.3,1.3,2.3,1.3,3.6c0.3,1.3,0,2.6-0.3,4.2c-0.3,1.3-1,2.9-2,4.2c-1,1.3-2,2.6-3.3,3.6
	c-1.3,1-2.3,1.6-3.6,2c-1.3,0.3-2.6,0.3-3.9,0s-2.6-1-3.9-1.6c-1.3-1-2.3-2-3.3-3.3c-0.7-1.3-1.3-2.3-1.3-3.6
	c-0.3-1.3,0-2.6,0.3-4.2c0.3-1.3,1-2.9,2-4.2c1-1.3,2-2.6,3.3-3.6c1.3-1,2.3-1.6,3.6-2c1.3-0.3,2.6-0.3,3.9,0
	C79.4,269.8,80.7,270.1,82,271.1z M79.8,274c-1.3-1-2.9-1.3-4.2-1c-1.3,0.3-2.6,1.3-3.9,2.9l-2,2.6c-1.3,1.6-1.6,3.3-1.3,4.6
	c0.3,1.3,1,2.6,2.6,3.6c1.3,1,2.9,1.3,4.2,1c1.3-0.3,2.6-1.3,3.9-2.9l2-2.6c1.3-1.6,1.6-3.3,1.3-4.6C82,276.3,81.4,275,79.8,274z"/>
<path d="M71.3,264.2L57,280.8l-3.6-2.9l2.3-2.9c-0.7,0.3-1,0.6-1.6,0.6c-0.7,0.3-1.3,0.3-2,0.3c-0.7,0-1.3-0.3-2-0.3
	c-0.7-0.3-1.3-0.6-2-1.3c-1.6-1.3-2.6-3.3-2.6-5.2c0-1.9,0.7-3.9,2.6-5.8l9.1-10.7l3.6,2.9l-8.8,10.1c-2.3,2.6-2.3,4.9,0,6.8
	c0.3,0.3,1,0.6,1.6,1s1,0.3,1.6,0.3s1,0,1.6-0.3c0.7-0.3,1-0.6,1.3-1L68,261L71.3,264.2z"/>
<path d="M41.7,240.8c1.6-0.3,2.9-0.3,4.2,0c1.3,0.3,2.3,1,3.6,2.3c1.6,2,2.3,4.2,2,6.5c-0.3,2.3-2,4.9-4.9,7.5
	c-2.9,2.6-5.5,3.9-7.8,3.9c-2.6,0-4.6-0.6-6.2-2.6c-1-1.3-1.6-2.6-2-3.9c0-1.3,0-2.6,0.7-3.9l-0.3-0.3L20.8,259l-2.9-3.6l23.8-20.8
	l2.9,3.6L41.7,240.8z M45.3,244.4c-0.3-0.6-1-1-1.3-1.3c-0.7-0.3-1-0.6-1.6-0.6c-0.7,0-1,0-1.6,0c-0.7,0-1,0.3-1.6,1l-5.5,4.5
	c-0.7,0.3-1,1-1,1.6c-0.3,0.7-0.3,1-0.3,1.6c0,0.7,0.3,1,0.3,1.6c0.3,0.7,0.7,1,1,1.6c1.3,1.3,2.3,1.9,3.9,1.9
	c1.3,0,2.9-0.6,4.2-1.6l2.6-2.3c1.3-1.3,2-2.6,2.3-3.9C46.9,247,46.2,245.7,45.3,244.4z"/>
<path d="M34.2,222.6c1,1.3,1.3,2.9,1.6,4.2c0.3,1.3,0,2.6-0.3,3.9c-0.3,1.3-1,2.6-2,3.6c-1,1-2.3,2.3-3.6,2.9
	c-1.6,1-2.9,1.6-4.6,1.9c-1.6,0.3-2.9,0.3-4.2,0c-1.3-0.3-2.6-0.6-3.6-1.6c-1-0.6-2-1.9-2.9-3.3c-0.7-1.3-1.3-2.6-1.3-3.9
	c-0.3-1.3,0-2.6,0.3-3.9c0.3-1.3,1-2.3,2-3.6c1-1,2-1.9,3.6-2.9l1.6-1l8.1,13.3l0.7-0.3c1.6-1,2.3-2,2.9-3.6c0.3-1.6,0-2.9-1-4.5
	c-1.6-0.7-2.3-1.3-3.6-2c-1-0.6-2.3-1-3.3-1l0.7-3.9c1.6,0,2.9,0.3,4.6,1.3C31.6,219.4,32.9,220.7,34.2,222.6z M17.6,233
	c0.3,0.6,1,1.3,1.6,1.6c0.7,0.3,1.3,0.6,2,1c0.7,0,1.3,0.3,2.3,0c0.7,0,1.6-0.3,2.3-1H26l-5.9-9.4l-0.3,0.3c-1.6,1-2.3,1.9-2.9,3.3
	C16.6,230.4,16.6,231.7,17.6,233z"/>
<path d="M23.8,212.9l-2-5.5l-13.7,4.6l2,5.5l-3.6,1.3L3.3,209l5.5-1.9v-0.3c-0.7,0-1.6,0-2.3,0s-1.6-0.3-2.3-0.7
	c-0.7-0.3-1.3-1-2-1.6c-0.7-0.6-1-1.6-1.3-2.6l-1-2.6l4.2-1.3l1.3,4.2c0.7,1.6,1.3,2.6,2.6,3.6c1.3,0.7,2.6,0.7,4.2,0.3l7.8-2.6
	l-2.6-7.5l3.6-1.3l5.9,17.2L23.8,212.9z"/>
<ellipse id="motion" class="st0" cx="301" cy="175.3" rx="291.7" ry="164.5"/>
</svg>
