<svg width="18" height="18" viewBox="0 0 18 18" fill="none" xmlns="http://www.w3.org/2000/svg">
<path fill-rule="evenodd" clip-rule="evenodd" d="M0 9C0 13.9706 4.02944 18 9 18C13.9706 18 18 13.9706 18 9C18 4.02944 13.9706 0 9 0C4.02944 0 0 4.02944 0 9ZM7.35 13.1249L7.50313 10.8308L7.503 10.8307L11.6763 7.06454C11.8595 6.90199 11.6364 6.82272 11.3932 6.97016L6.24273 10.2195L4.01801 9.52516C3.53757 9.37806 3.53412 9.04792 4.12587 8.81056L12.7951 5.46774C13.1911 5.28798 13.5732 5.56284 13.4221 6.16885L11.9457 13.1261C11.8426 13.6205 11.5439 13.7387 11.13 13.5103L8.88102 11.8488L7.8 12.8999C7.79659 12.9032 7.7932 12.9065 7.78983 12.9098C7.66892 13.0275 7.56889 13.1249 7.35 13.1249Z" fill="black"/>
</svg>
