<svg width="18" height="18" viewBox="0 0 18 18" fill="none" xmlns="http://www.w3.org/2000/svg">
<path fill-rule="evenodd" clip-rule="evenodd" d="M9 0C4.02944 0 0 4.02944 0 9C0 13.9706 4.02944 18 9 18C13.9706 18 18 13.9706 18 9C18 4.02944 13.9706 0 9 0ZM8.74934 7.62673L8.73045 7.31531C8.67379 6.50816 9.17112 5.77092 9.95804 5.48492C10.2476 5.38324 10.7387 5.37052 11.0597 5.4595C11.1856 5.49763 11.4248 5.62474 11.5948 5.73914L11.9033 5.94888L12.2432 5.84083C12.4321 5.78363 12.6839 5.6883 12.7972 5.62474C12.9042 5.56755 12.9987 5.53577 12.9987 5.55483C12.9987 5.66288 12.7657 6.0315 12.5706 6.23487C12.3062 6.52087 12.3817 6.5463 12.9168 6.35563C13.2379 6.24759 13.2442 6.24759 13.1812 6.36834C13.1435 6.4319 12.9483 6.65434 12.7406 6.85772C12.388 7.20727 12.3691 7.2454 12.3691 7.53776C12.3691 7.989 12.1551 8.92961 11.9411 9.44441C11.5445 10.4104 10.6946 11.4083 9.84472 11.9104C8.64861 12.6158 7.0559 12.7938 5.715 12.3807C5.26803 12.2408 4.5 11.8849 4.5 11.8214C4.5 11.8023 4.73293 11.7769 5.01622 11.7705C5.60798 11.7578 6.19973 11.5926 6.70336 11.3002L7.04331 11.0968L6.653 10.9634C6.09901 10.7727 5.60168 10.3342 5.47577 9.92107C5.438 9.78761 5.45059 9.78125 5.80313 9.78125L6.16826 9.7749L5.85979 9.62872C5.49466 9.44441 5.16101 9.13299 4.99733 8.81522C4.87772 8.58642 4.72663 8.00806 4.7707 7.96358C4.78329 7.94451 4.91549 7.98264 5.06658 8.03349C5.50095 8.19237 5.55761 8.15424 5.3058 7.88731C4.83365 7.40429 4.68886 6.68612 4.91549 6.00608L5.02251 5.70101L5.438 6.11412C6.28787 6.94669 7.28882 7.44242 8.43457 7.5886L8.74934 7.62673Z" fill="black"/>
</svg>
