<svg width="18" height="18" viewBox="0 0 18 18" fill="none" xmlns="http://www.w3.org/2000/svg">
<path fill-rule="evenodd" clip-rule="evenodd" d="M9 0C4.02944 0 0 4.02944 0 9C0 13.9706 4.02944 18 9 18C13.9706 18 18 13.9706 18 9C18 4.02944 13.9706 0 9 0ZM12.7506 5.90591C13.1637 6.01926 13.489 6.35325 13.5994 6.77737C13.8 7.54606 13.8 9.14992 13.8 9.14992C13.8 9.14992 13.8 10.7537 13.5994 11.5225C13.489 11.9466 13.1637 12.2806 12.7506 12.394C12.002 12.5999 8.99999 12.5999 8.99999 12.5999C8.99999 12.5999 5.99798 12.5999 5.24934 12.394C4.83627 12.2806 4.51096 11.9466 4.40056 11.5225C4.19999 10.7537 4.19999 9.14992 4.19999 9.14992C4.19999 9.14992 4.19999 7.54606 4.40056 6.77737C4.51096 6.35325 4.83627 6.01926 5.24934 5.90591C5.99798 5.69992 8.99999 5.69992 8.99999 5.69992C8.99999 5.69992 12.002 5.69992 12.7506 5.90591Z" fill="black"/>
<path d="M8.09961 10.8001V7.80011L10.4996 9.30017L8.09961 10.8001Z" fill="black"/>
</svg>
