<svg width="65" height="65" viewBox="0 0 65 65" fill="none" xmlns="http://www.w3.org/2000/svg">
<path d="M4.55915 20.1929C4.82023 16.1735 8.05177 13.0235 12.0747 12.8242C17.9002 12.5356 26.2264 12.1875 32.5 12.1875C38.7736 12.1875 47.0998 12.5356 52.9253 12.8242C56.9482 13.0235 60.1798 16.1735 60.4408 20.1929C60.691 24.0438 60.9375 28.7821 60.9375 32.5C60.9375 36.2179 60.691 40.9562 60.4408 44.8071C60.1798 48.8265 56.9482 51.9765 52.9253 52.1758C47.0998 52.4644 38.7736 52.8125 32.5 52.8125C26.2264 52.8125 17.9002 52.4644 12.0747 52.1758C8.05177 51.9765 4.82023 48.8265 4.55915 44.8071C4.30902 40.9562 4.0625 36.2179 4.0625 32.5C4.0625 28.7821 4.30902 24.0438 4.55915 20.1929Z" fill="black"/>
<path d="M26.4062 24.375V40.625L42.6562 32.5L26.4062 24.375Z" fill="white"/>
</svg>
